<?xml version="1.0" encoding="UTF-8"?>
<svg width="40px" height="41px" viewBox="0 0 40 41" version="1.1" xmlns="http://www.w3.org/2000/svg" xmlns:xlink="http://www.w3.org/1999/xlink">
    <title>OminoGuided</title>
    <g id="Page-1" stroke="none" stroke-width="1" fill="none" fill-rule="evenodd">
        <g id="NEW-PROTOTYPE" transform="translate(-3973.000000, -620.000000)">
            <g id="GuidedStorytelling" transform="translate(3747.000000, 620.000000)">
                <g id="OminoGuided" transform="translate(245.962051, 20.350000) scale(-1, 1) translate(-245.962051, -20.350000) translate(226.000000, 0.000000)">
                    <path d="M34.7590874,13.2976803 C36.1321291,10.7691058 37.3853668,8.1596213 38.3593832,5.45110826 C38.6836019,4.54956227 39.8545493,1.95861877 39.2605166,1.06583384 C38.4055108,-0.219176672 36.8256004,0.771570701 36.3118148,1.72770478 C35.3027754,3.6052657 34.1737036,6.06724422 33.1595637,7.94194094 C32.3339705,9.46754343 31.5646523,11.2526079 30.3917183,12.5578362 C29.2334057,13.8467218 27.7162118,14.8752151 26.3457203,15.9331122 C24.8428749,17.0929118 23.0985085,18.442889 21.0592337,18.0195144 C21.0088218,18.0090483 20.3944921,17.9150512 20.6195921,17.7681351 C22.1235454,16.7865603 23.3853972,15.4744242 24.2116705,13.8775539 C24.8130138,12.7153666 25.0525802,10.6938101 24.9419004,9.41756064 C24.3976821,3.1476798 15.8091856,0.818962359 10.5829223,3.08403136 C7.73601992,4.31782342 6.33085306,7.65942244 6.23989499,10.6893987 C6.14502658,13.852981 8.39992878,16.877372 11.2296596,18.2885753 C11.4457488,18.3962352 11.1077588,18.2444331 10.9015305,18.3547887 C8.69065455,19.5398895 6.8825922,21.1113915 5.21219412,22.9662074 C3.91871945,24.4025145 2.29737517,26.3481037 1.64655747,28.1835442 C0.742417323,30.7328419 0.292763765,33.7342791 0.390862462,36.4291452 C0.424355431,37.3541101 0.385758324,39.1189792 1.01464407,39.8818647 C1.75539974,40.780378 3.65531817,39.597645 4.10075766,38.8396455 C5.3488383,36.7149218 5.08191464,33.8635362 5.48893072,31.5103512 C6.01461732,28.47094 8.07366986,26.1482502 10.5829223,24.4760686 C10.7004027,24.397893 10.8143128,24.4108661 10.9015305,24.4696663 C11.0060898,24.5106073 10.6372424,25.731194 10.5829223,26.2163921 C10.5688077,26.3424666 10.2991926,27.1625138 10.2848859,27.2885492 C10.2039584,28.0018486 9.14084344,29.9420343 9.95610043,29.9420343 C13.7460053,29.9420343 18.8398876,29.9420343 23.8568855,29.9420343 C25.0207106,29.9420343 23.7678953,28.1307516 23.6266128,26.9547488 C23.5293642,26.1448569 23.3278963,25.1462433 23.6266128,24.3633085 C23.8177098,23.8619067 24.229012,23.5273477 24.6530296,23.2368851 C27.1631321,21.5173601 29.7738281,19.764716 31.8611032,17.5454741 C32.9860929,16.3494219 33.9841587,14.7247209 34.7590874,13.2976803 Z" id="Fill-4" fill="#FFFFFE"></path>
                    <path d="M10.2629564,29.9466275 C10.4075163,28.7605009 10.5776793,27.7399057 10.7131054,26.5527723 C10.7837102,25.9341751 10.8536227,25.3152367 10.9072685,24.6947634 C10.9202473,24.5441647 10.8420283,24.4491664 10.735602,24.407722 C10.6468269,24.3481988 10.5308828,24.3350662 10.4113046,24.414203 C7.85724645,26.1069457 5.76142703,28.4581951 5.22635366,31.5349789 C4.81206981,33.9170985 5.08375972,36.8035446 3.81339308,38.9543938 C3.35999973,39.7217136 2.11437937,40.5986993 1.36039661,39.6891379 C0.720281337,38.916872 0.706264214,37.5357304 0.672173187,36.5993921 C0.572322819,33.8713902 0.95424615,30.9741992 1.87453082,28.3935554 C2.53696966,26.5355464 3.82377613,24.8891943 5.14034736,23.4352263 C6.84057243,21.5576037 8.81923639,19.9112516 11.0695903,18.7115788 C11.279501,18.5998663 11.2895379,18.2596122 11.0695903,18.1506286 C8.18933112,16.7220732 6.27365769,13.680594 6.37022009,10.4781124 C6.46280232,7.4108797 8.26253165,4.3695711 11.1602689,3.1206084 C16.4798535,0.827688211 24.2391097,3.36245315 24.7930456,9.70942815 C24.9057017,11.0013703 24.8954917,12.508892 24.2834107,13.6853695 C23.4423833,15.3018748 22.1579996,16.6301449 20.6271913,17.6237891 C20.3980719,17.7725117 20.4193572,18.1444887 20.7059295,18.2176561 C22.8282257,18.7601865 25.0572943,17.1291842 26.6247893,15.9261003 C28.0197526,14.8551954 29.394815,13.6541582 30.5738108,12.3494246 C31.7676889,11.0281472 32.5507443,9.22113371 33.3910794,7.67677248 C34.423328,5.77902457 35.4123139,3.85893416 36.439371,1.95828684 C36.9623308,0.990396175 38.1947993,-0.0411109142 39.0650722,1.25970003 C39.6697121,2.1634626 38.7085874,4.19577716 38.3785793,5.10840852 C37.3871707,7.85022531 36.0562363,10.4769185 34.6586772,13.0365843 C33.8699113,14.4811718 33.1302917,16.100747 31.9852139,17.3115058 C29.8606681,19.5580354 27.2875743,21.4191144 24.7326508,23.1597826 C24.3010619,23.4538167 23.7000561,23.7041891 23.5055469,24.2117561 C23.2014965,25.0043178 23.4001589,26.1127445 23.499144,26.9325948 C23.62355,27.9624643 23.9093168,29.7863563 23.9311673,29.9466275 L10.2629564,29.9466275 Z M24.5932446,29.9379648 C24.5104476,29.3298416 24.4937357,29.320724 24.4092924,28.7128314 C24.2140919,27.3086651 23.9233678,26.2017734 24.0709795,24.7865211 C24.1530052,24.002487 25.2975584,23.5665525 25.9082521,23.1382928 C27.155424,22.2635243 28.3794072,21.353963 29.560647,20.3940883 C31.260864,19.0120939 32.7785132,17.6207191 33.8806691,15.7459959 C35.2977762,13.3352233 36.6155525,10.8574232 37.7666816,8.31225453 C38.3526292,7.01621908 38.9022362,5.69852335 39.3343422,4.34415864 C39.6160678,3.46103303 40.1719046,2.14606615 39.80002,1.23053539 C39.4175793,0.288909955 38.2638545,-0.245604466 37.2965046,0.111534397 C36.5598304,0.38339655 36.188638,1.03866279 35.8418456,1.68301362 C34.7357095,3.73732957 33.666087,5.81057695 32.5443764,7.85704745 C31.761844,9.28440903 31.036072,10.9362189 29.8814819,12.1164486 C28.236987,13.7974231 26.4602819,15.4463336 24.4193293,16.6506113 C23.6170692,17.1240676 22.6580256,17.6210602 21.6913679,17.6672802 C22.8547836,16.7873951 23.8319973,15.7245062 24.5932446,14.4663336 C25.2761002,13.3374405 25.4693972,12.1333334 25.4879135,10.828088 C25.5086795,9.37889562 25.2153596,8.21998513 24.6328731,6.90808821 C24.0443298,5.58288814 22.9579214,4.18673783 21.6913679,3.43579112 C18.6157489,1.61206339 15.1798397,1.07396735 11.7235105,2.21121756 C8.49560747,3.27308316 6.35255534,6.08278021 5.82319516,9.35331261 C5.24261216,12.9412449 7.08524936,16.6089962 10.2264543,18.4351117 C6.72617045,20.4263229 3.33352373,23.6475654 1.63296064,27.2515297 C0.400671052,29.8633848 0.00732823097,33.0558037 5.42624382e-05,35.9095035 C-0.000978172646,37.4037221 -0.00859237596,40.816496 2.25351821,40.6969381 C4.82244658,40.5615186 5.21007874,37.1129285 5.4466382,35.2114284 C5.63474363,33.7003251 5.64547273,32.1058212 6.11461149,30.6452017 C6.8334615,28.4077113 8.317712,26.7149686 10.1859606,25.3636739 C10.0389491,26.9703047 9.82907966,28.3353989 9.63638775,29.9379648" id="Fill-12" fill="#2D2E2C"></path>
                    <g id="Group-8" transform="translate(16.566451, 11.006679) rotate(-7.000000) translate(-16.566451, -11.006679) translate(11.341566, 8.936217)">
                        <path d="M3.96314753e-14,1.24945507 C3.96314753e-14,0.619028111 0.510895324,0.108132788 1.14119816,0.108132788 C1.77162511,0.108132788 2.28252044,0.619028111 2.28252044,1.24945507 C2.28252044,1.87963377 1.77162511,2.39065322 1.14119816,2.39065322 C0.510895324,2.39065322 3.96314753e-14,1.87963377 3.96314753e-14,1.24945507" id="Fill-12" fill="#2D2E2C"></path>
                        <path d="M2.96148624,3.21989674 C3.42870551,3.68709199 3.99933562,3.92068962 4.67337656,3.92068962 C5.06776498,3.92068962 5.42675025,3.84071647 5.75033239,3.68077019 C5.90329591,3.60516049 6.11494074,3.45153601 6.38526689,3.21989674" id="Line-4" stroke="#2D2E2C" stroke-width="0.5" stroke-linecap="round" stroke-linejoin="round"></path>
                        <path d="M8.16724955,1.14132228 C8.16724955,0.510895324 8.678269,1.16755454e-12 9.30844771,1.16755454e-12 C9.93887466,1.16755454e-12 10.44977,0.510895324 10.44977,1.14132228 C10.44977,1.77150099 9.93887466,2.28252044 9.30844771,2.28252044 C8.678269,2.28252044 8.16724955,1.77150099 8.16724955,1.14132228" id="Fill-13" fill="#2D2E2C"></path>
                    </g>
                </g>
            </g>
        </g>
    </g>
</svg>