<?xml version="1.0" encoding="UTF-8"?>
<svg width="40px" height="42px" viewBox="0 0 40 42" version="1.1" xmlns="http://www.w3.org/2000/svg" xmlns:xlink="http://www.w3.org/1999/xlink">
    <title>Group 2</title>
    <g id="Page-1" stroke="none" stroke-width="1" fill="none" fill-rule="evenodd">
        <g id="Artboard" transform="translate(-438.000000, -214.000000)">
            <g id="Group-2" transform="translate(438.608280, 215.074481)">
                <path d="M33.7812289,29.9255192 L35.6907614,39.4429568 C36.283384,40.0453054 36.7631564,40.3464797 37.1300787,40.3464797 C37.497001,40.3464797 38.0473844,40.0453054 38.7812289,39.4429568 L38.7812289,29.9255192 L33.7812289,29.9255192 Z" id="Path-35" fill="#FFFFFF"></path>
                <path d="M15.0078997,29.9255192 L15.9002662,24.2485966 C12.3596331,22.0673278 9.23318839,19.6446967 6.52093202,16.9807034 C2.71027272,10.9832427 0.429546313,4.75389992 0.0565893489,2.6733293 C-0.316367616,0.592758686 1.23553197,-0.857508737 2.32679103,0.574290521 C3.4180501,2.00608978 6.16935325,7.88283514 8.760112,12.2988513 C11.8560417,16.123633 15.0078997,16.9807034 17.6597507,17.627002 C18.532861,17.839793 16.3104409,16.6739887 15.4174651,14.9418425 C12.10472,8.51595841 14.9857946,2.00608978 23.4061751,2.00608978 C32.5277526,2.00608978 36.0266962,8.10205119 31.832679,15.8990824 C30.9032323,17.627002 27.9212307,17.8826352 28.4778691,18.1784434 C33.7196619,20.9640314 35.4505073,23.5430416 37.2588745,27.3223906 C39.0672418,31.1017396 38.6425145,37.8009543 38.3917199,39.1245727 C38.1409253,40.448191 35.1993104,41.5689308 34.7817631,37.5689055 C34.3642158,33.5688801 34.0053037,32.6863733 33.3917199,29.9255192 C31.9912733,26.7536602 30.2056935,26.0412847 29.1874316,25.3382953 C28.5968072,24.9305389 28.5968072,26.4596136 29.1874316,29.9255192" id="Path-34" stroke="#2D2E2C"></path>
                <path d="M15.0078997,29.9255192 L15.9002662,24.2485966 C12.3596331,22.0673278 9.23318839,19.6446967 6.52093202,16.9807034 C2.71027272,10.9832427 0.429546313,4.75389992 0.0565893489,2.6733293 C-0.316367616,0.592758686 1.23553197,-0.857508737 2.32679103,0.574290521 C3.4180501,2.00608978 6.16935325,7.88283514 8.760112,12.2988513 C11.8560417,16.123633 15.0078997,16.9807034 17.6597507,17.627002 C18.532861,17.839793 16.3104409,16.6739887 15.4174651,14.9418425 C12.10472,8.51595841 14.9857946,2.00608978 23.4061751,2.00608978 C32.5277526,2.00608978 36.0266962,8.10205119 31.832679,15.8990824 C30.9032323,17.627002 27.9212307,17.8826352 28.4778691,18.1784434 C33.7196619,20.9640314 35.4505073,23.5430416 37.2588745,27.3223906 C39.0672418,31.1017396 38.6425145,37.8009543 38.3917199,39.1245727 C38.1409253,40.448191 35.1993104,41.5689308 34.7817631,37.5689055 C34.3642158,33.5688801 34.0053037,32.6863733 33.3917199,29.9255192 C31.9912733,26.7536602 30.2056935,26.0412847 29.1874316,25.3382953 C28.5968072,24.9305389 28.5968072,26.4596136 29.1874316,29.9255192" id="Path-34-Copy" fill="#FFFFFF"></path>
                <line x1="20.8917199" y1="6.42551916" x2="19.8917199" y2="8.42551916" id="Line" stroke="#2D2E2C" stroke-width="0.8" stroke-linecap="round"></line>
                <line x1="26.8917199" y1="7.42551916" x2="25.8917199" y2="9.42551916" id="Line-Copy" stroke="#2D2E2C" stroke-width="0.8" stroke-linecap="round"></line>
                <path d="M18.0231374,11.5094843 C18.8372329,12.7972621 18.8372329,13.1157364 20.8508765,13.7643158 C22.8645201,14.4128952 24.3917199,14.2215999 26.9286138,12.9327495" id="Path-3" stroke="#2D2E2C" stroke-width="0.8" stroke-linecap="round"></path>
            </g>
        </g>
    </g>
</svg>