<?xml version="1.0" encoding="UTF-8"?>
<svg width="94px" height="9px" viewBox="0 0 94 9" version="1.1" xmlns="http://www.w3.org/2000/svg" xmlns:xlink="http://www.w3.org/1999/xlink">
    <title>Group 14</title>
    <g id="Page-1" stroke="none" stroke-width="1" fill="none" fill-rule="evenodd" stroke-linejoin="round">
        <g id="NEW-PROTOTYPE" transform="translate(-4363.000000, -665.000000)" fill="#FFFFFF" stroke="#3A3939">
            <g id="Button-Copy" transform="translate(4283.000000, 629.000000)">
                <g id="Group-14" transform="translate(81.000000, 36.602562)">
                    <path d="M78,1.4584888 C80.0967953,5.33490597 82.3051153,7.27311456 84.6249601,7.27311456 C86.9448048,7.27311456 89.3390075,5.33490597 91.8075681,1.4584888 C89.5712399,0.486162934 87.2699786,0 84.903784,0 C82.5375895,0 80.2363281,0.486162934 78,1.4584888 Z" id="Path-20"></path>
                    <path d="M0,1.4584888 C2.09679529,5.33490597 4.30511531,7.27311456 6.62496007,7.27311456 C8.94480483,7.27311456 11.3390075,5.33490597 13.8075681,1.4584888 C11.4683844,0.486162934 9.07418175,0 6.62496007,0 C4.17573839,0 1.96741837,0.486162934 0,1.4584888 Z" id="Path-20-Copy"></path>
                </g>
            </g>
        </g>
    </g>
</svg>