<?xml version="1.0" encoding="UTF-8"?>
<svg width="103px" height="123px" viewBox="0 0 103 123" version="1.1" xmlns="http://www.w3.org/2000/svg" xmlns:xlink="http://www.w3.org/1999/xlink">
    <title>Group 10 Copy</title>
    <g id="Page-1" stroke="none" stroke-width="1" fill="none" fill-rule="evenodd">
        <g id="NEW-PROTOTYPE" transform="translate(-2965.000000, -644.000000)">
            <g id="Group-10-Copy" transform="translate(3016.234627, 705.484780) rotate(5.000000) translate(-3016.234627, -705.484780) translate(2970.772076, 648.746416)">
                <g id="Ele" transform="translate(-0.000000, -0.000000)" fill="#FFFFFF" stroke="#2D2E2C" stroke-linejoin="round">
                    <path d="M17.7533151,13.294686 C21.01809,15.8920646 37.7862176,34.7076273 39.5473671,34.5697382 C41.0136067,34.4549391 37.3025461,32.9178763 35.8190461,29.9126646 C30.315585,18.7639862 35.1252725,7.45809866 49.1455821,7.44205909 C64.3334161,7.42575806 67.3184007,18.1896672 62.6255392,29.8829832 C61.2661146,33.2702944 56.6326961,34.9945774 57.5589527,35.5070489 C62.5638879,35.5015072 74.8149891,58.1898804 75.5598146,61.4117707 C76.3392617,63.494931 76.6679201,64.9166079 76.5457897,65.6768015 C76.4583982,66.220765 75.8156026,66.7553235 74.6174028,67.280477 C68.5209369,63.8936107 59.9107502,45.4920297 58.7286854,46.0430084 C57.5466207,46.5939871 57.7410002,49.8822338 58.7177241,55.897661 C62.2737046,78.9891147 64.5916097,92.9554038 65.6714393,97.7965282 C67.2911838,105.058215 60.0545994,110.962972 57.4873055,99.9207948 C54.9200116,88.8786176 50.9220619,71.5846938 47.8651871,70.5501171 C44.8083124,69.5155404 36.2198328,66.2583188 35.0170178,72.5557749 C34.3861258,75.8588722 41.6733298,89.3215913 40.561406,91.1493865 C39.518702,92.8633973 34.9592183,93.5403711 30.8318913,86.8129299 C29.0027325,83.8314463 25.8410479,78.4345013 26.0570537,73.6842255 C26.5566849,62.6966251 33.7947326,60.7882503 36.6049616,46.0675048 C34.2508547,45.0554233 14.5162075,17.1813005 14.3544961,16.857304" id="Path" transform="translate(45.462551, 56.738365) rotate(19.000000) translate(-45.462551, -56.738365) "></path>
                </g>
                <g id="Group-8" transform="translate(59.027663, 22.901500) rotate(10.000000) translate(-59.027663, -22.901500) translate(49.027663, 19.330071)">
                    <path d="M-8.79472596e-14,2.14297367 C-8.79472596e-14,0.959269128 0.959269128,-6.39935637e-13 2.14274061,-6.39935637e-13 C3.32644516,-6.39935637e-13 4.28571429,0.959269128 4.28571429,2.14297367 C4.28571429,3.3262121 3.32644516,4.28571429 2.14274061,4.28571429 C0.959269128,4.28571429 -8.79472596e-14,3.3262121 -8.79472596e-14,2.14297367" id="Fill-12" fill="#2D2E2C"></path>
                    <path d="M7.14285714,4.83706887 C8.11759264,6.00669133 9.30806883,6.59150256 10.7142857,6.59150256 C11.5370779,6.59150256 12.2860104,6.39128994 12.9610832,5.9908647 C13.2802031,5.80157596 13.7217468,5.41697735 14.2857143,4.83706887" id="Line-4" stroke="#2D2E2C" stroke-linecap="round" stroke-linejoin="round"></path>
                    <path d="M15.7142857,2.14297367 C15.7142857,0.959269128 16.6737879,-6.45154377e-13 17.8570263,-6.45154377e-13 C19.0407309,-6.45154377e-13 20,0.959269128 20,2.14297367 C20,3.3262121 19.0407309,4.28571429 17.8570263,4.28571429 C16.6737879,4.28571429 15.7142857,3.3262121 15.7142857,2.14297367" id="Fill-13" fill="#2D2E2C"></path>
                </g>
                <path d="M28.2043789,5.87202293 C30.2886561,9.12410024 31.9231743,10.4194967 33.1079333,9.75821235 C35.2627109,8.555503 35.5325784,6.57076038 33.9175356,3.80398448 C32.6199428,3.91646169 31.6536313,4.05078786 31.0186013,4.20696301 C30.3835713,4.36313815 29.4454972,4.91815813 28.2043789,5.87202293 Z" id="Path-2-Copy-2" stroke="#2D2E2C" fill="#FFFFFF" stroke-linejoin="round" transform="translate(31.579887, 6.864907) rotate(-9.000000) translate(-31.579887, -6.864907) "></path>
            </g>
        </g>
    </g>
</svg>