<?xml version="1.0" encoding="UTF-8"?>
<svg width="134px" height="134px" viewBox="0 0 134 134" version="1.1" xmlns="http://www.w3.org/2000/svg" xmlns:xlink="http://www.w3.org/1999/xlink">
    <title>Group</title>
    <g id="Page-1" stroke="none" stroke-width="1" fill="none" fill-rule="evenodd">
        <g id="Next-turn" transform="translate(-180.000000, -674.000000)">
            <g id="Button" transform="translate(102.000000, 674.182111)">
                <g id="Group" transform="translate(145.000000, 66.817889) rotate(35.000000) translate(-145.000000, -66.817889) translate(98.067097, 18.111080)">
                    <g id="ONZ74O1-Copy" transform="translate(46.932903, 48.706809) scale(-1, 1) rotate(39.000000) translate(-46.932903, -48.706809) translate(18.932903, 8.706809)">
                        <path d="M44.8231178,24.3907047 C46.4248823,22.6912016 47.4594813,20.4178557 48.5628277,18.3901347 C50.5177695,14.7972141 52.3795152,11.1102092 53.7663232,7.26160902 C54.2279471,5.9805777 55.5723932,3.12788302 54.7266073,1.85930052 C53.5092469,0.0333939785 51.785238,1.48128735 51.0537083,2.83988439 C49.6170342,5.50776199 48.2336151,8.20293123 46.7896789,10.866739 C45.6141963,13.0345093 44.5188382,15.5709561 42.8488105,17.4255907 C41.1996006,19.2570034 39.2761276,20.9428607 37.3248168,22.4460556 C35.132164,24.1347857 32.014085,26.4241714 29.045362,25.6626388 C28.6444972,25.5599361 28.6147229,25.0378039 28.935221,24.8290468 C31.0765553,23.4343003 32.8731846,21.5698503 34.0496355,19.3008137 C34.9058304,17.64943 34.9201124,15.5333702 34.7625261,13.7199125 C33.9876661,4.81086754 23.1338173,1.25289941 15.6926443,4.47139783 C11.6392142,6.22452666 9.12170608,10.4935139 8.99219965,14.7988899 C8.85712566,19.2941105 11.5368194,23.5633371 15.5658006,25.5685545 C15.8734691,25.7215313 15.8594292,26.199135 15.5658006,26.3559422 C12.4179472,28.0398844 9.65014071,30.350816 7.27182177,32.9863746 C5.43016776,35.0272627 3.63014947,37.3381943 2.70351284,39.9462218 C1.41619476,43.5685887 0.881950489,47.6352826 1.02162378,51.4644913 C1.06931119,52.7787993 1.0889187,54.7174634 1.98432855,55.8014682 C3.03901921,57.0781903 4.78142529,55.8471937 5.41564368,54.7701315 C7.1926655,51.7510535 6.81261861,47.6994419 7.3921296,44.355737 C8.14060413,40.0369546 11.0722907,36.7365812 14.6449736,34.3605327 C14.8122427,34.2494509 14.9744283,34.2678847 15.0986092,34.3514354 C15.2474811,34.4096097 15.3568958,34.5429557 15.3387407,34.7543462 C15.2636996,35.6252847 15.1659041,36.4940687 15.0671404,37.3623738 C14.2726729,44.3507096 13.3407108,51.3239633 12.4820953,58.304399 C12.0463727,61.8468061 11.6154915,65.3899314 11.2281826,68.9378447 C11.0814893,70.2813595 10.9396374,71.6255925 10.821024,72.9717407 C10.6985376,74.3626568 10.4032145,76.0260105 10.8251392,77.3616251 C11.3760862,79.1068537 13.2971385,79.2962194 14.2206283,77.7611843 C14.5493567,77.2148727 14.7517256,76.5900378 14.9831427,75.9987189 C15.535058,74.5886508 16.0678498,73.1714006 16.5924114,71.7510383 C17.6630785,68.8528576 18.7707821,65.9573102 19.7700391,63.0342318 C20.4478298,61.0515181 20.818436,58.8349102 22.2752018,57.2223093 C23.5375868,55.8251688 24.9527169,55.7377877 26.0427495,57.3274061 C27.3107021,59.1767739 27.843736,61.5544982 28.3571624,63.6928222 C29.0797357,66.7011271 29.724363,69.6792676 30.7916412,72.5949246 C31.3590488,74.1457601 31.9368653,75.7552487 32.7267335,77.2103241 C33.0256875,77.7609449 33.5742138,78.6938881 34.1939081,78.9203609 C35.3001593,79.3239899 36.2623799,78.1049632 36.600549,77.2493464 C37.5736627,74.7847197 36.9549367,71.8120854 36.7334444,69.2538532 C35.9702037,60.44392 34.8361148,51.6617572 33.6465922,42.8997041 C33.4200165,41.2320412 33.1537416,39.5665329 32.952583,37.8955184 C32.81412,36.7447208 32.5362259,35.1888579 32.9615395,34.0763644 C33.233624,33.363909 34.0743265,33.0124692 34.6780443,32.599743 C38.2519375,30.1564229 41.8512479,27.5440862 44.8231178,24.3907047" id="Fill-4" fill="#FFFFFE"></path>
                        <path d="M26.02214,9.52342308 C26.3887263,10.5351 26.6727858,11.5598522 26.8554809,12.5990095 C26.948473,13.1302229 28.089196,13.137093 27.9944099,12.5990095 C27.7985583,11.4833947 27.5144989,10.3859524 27.1207027,9.2989261 C26.9308314,8.77480434 25.8313717,8.99730677 26.02214,9.52342308" id="Fill-10" fill="#2D2E2C"></path>
                        <path d="M18.0254999,10.5670035 C18.3970798,11.5895669 18.6925163,12.6128533 18.8749559,13.6674697 C18.9754653,14.2502079 20.09386,14.0022188 19.9936552,13.4233366 C19.8115201,12.3689612 19.5160836,11.3454338 19.1441991,10.3231114 C18.9380027,9.75627924 17.8180852,9.99727933 18.0254999,10.5670035" id="Fill-11" fill="#2D2E2C"></path>
                        <path d="M53.8320906,7.18357619 C52.4414381,11.0391899 50.5745315,14.7329138 48.6141704,18.332382 C47.5077655,20.3637983 46.4702985,22.6412869 44.8640937,24.3438872 C41.8839855,27.5030153 38.2746974,30.1201126 34.690897,32.5678853 C34.0855057,32.9813636 33.2424727,33.3334438 32.9696339,34.0471976 C32.5431413,35.1617185 32.8218058,36.7204167 32.9606526,37.8733114 C33.1623688,39.5473711 33.4293818,41.2159146 33.6565856,42.8866165 C34.8494057,51.6646372 35.9866385,60.4628042 36.7519949,69.2887923 C36.9741012,71.8516865 37.5945424,74.829738 36.6187311,77.2988561 C36.2796246,78.1560322 35.3147366,79.3772804 34.2054188,78.9729158 C33.5840066,78.7460304 33.0339598,77.811387 32.734177,77.2597627 C31.9421192,75.8020357 31.3627009,74.189614 30.7937204,72.6359523 C29.7234836,69.714982 29.0770693,66.7314143 28.352493,63.7176272 C27.8376434,61.5754064 27.3031318,59.193349 26.0316643,57.340611 C24.93861,55.7480957 23.5195571,55.8356361 22.2536726,57.2353227 C20.7928685,58.8508622 20.4212349,61.0715096 19.7415654,63.0578366 C18.7395383,65.9862419 17.6287641,68.8870659 16.5551289,71.7905282 C16.0291132,73.2134789 15.4948444,74.6333118 14.9413992,76.0459496 C14.7093406,76.638346 14.5064107,77.2643196 14.176771,77.8116268 C13.2507212,79.3494593 11.3243436,79.1597485 10.7718693,77.4113395 C10.348775,76.0732909 10.6449167,74.406906 10.7677427,73.0134552 C10.8866849,71.6648538 11.02893,70.3181711 11.17603,68.9722079 C11.5644125,65.4178291 11.9964882,61.8682469 12.4334186,58.3193843 C13.2944143,51.3262278 14.2289599,44.3402664 15.0256297,37.3391952 C15.1246673,36.4693078 15.2227339,35.5989406 15.297983,34.726415 C15.3161884,34.5146392 15.2064704,34.3810502 15.0571858,34.3227699 C14.9326606,34.2390669 14.7700254,34.2205995 14.6022927,34.3318837 C11.019706,36.7122623 8.07989244,40.0186501 7.32934307,44.3453029 C6.74822561,47.6951012 7.12932603,51.7540963 5.34737813,54.7786761 C4.71140162,55.8577011 2.96416542,57.090941 1.90655106,55.8118923 C1.00865904,54.725912 0.988997171,52.783715 0.941177564,51.4670119 C0.80111709,47.6308249 1.33684233,43.5567201 2.62772899,39.927752 C3.55693435,37.3149717 5.36194247,34.9998287 7.20870172,32.9552214 C9.59361361,30.31486 12.3690927,27.999717 15.5256723,26.3127061 C15.8201149,26.1556131 15.8341937,25.677139 15.5256723,25.5238834 C11.4855223,23.5150118 8.79840024,19.2380051 8.93384867,14.7345927 C9.0637141,10.4213707 11.588201,6.1446039 15.6528676,4.38828025 C23.1146682,1.16391657 33.998605,4.72836859 34.775613,13.653649 C34.9336361,15.4704115 34.9193145,17.5903275 34.0607463,19.2447206 C32.8810341,21.5178922 31.0794244,23.3857398 28.9321541,24.7830281 C28.6107675,24.9921656 28.6406244,25.5152493 29.0426004,25.6181392 C32.019553,26.3810595 35.1462756,24.0875018 37.3450066,22.3956942 C39.3017267,20.88976 41.2305317,19.2008305 42.8843134,17.3660802 C44.5589706,15.5080658 45.6573651,12.9669967 46.8361063,10.795276 C48.2840452,8.12661383 49.6712993,5.42653303 51.111956,2.7537936 C51.8455136,1.39272072 53.5743016,-0.0578112309 54.7950367,1.77142276 C55.6431672,3.04231707 54.2949941,5.90021037 53.8320906,7.18357619 M55.8259497,1.73041069 C55.2894963,0.406272651 53.6711545,-0.345375352 52.3142428,0.156842554 C51.2809024,0.539142145 50.760227,1.46059448 50.2737778,2.36669728 C48.7221893,5.25552951 47.2218188,8.1709836 45.6483838,11.0487833 C44.5507175,13.0559761 43.5326696,15.3787939 41.9131142,17.0384634 C39.6063643,19.4022932 37.1141617,21.7210338 34.2512965,23.4145202 C33.1259579,24.0803067 31.7806977,24.7791907 30.4247569,24.8441864 C32.0566921,23.6068692 33.4274399,22.1122073 34.4952493,20.3429325 C35.4530979,18.7554538 35.7242375,17.0622072 35.7502106,15.2267375 C35.7793393,13.1888456 35.3678964,11.5591557 34.5508366,9.71433233 C33.7252808,7.8508017 32.2013646,5.88749903 30.4247569,4.83149834 C26.1105545,2.26692524 21.2909692,1.51024067 16.4427407,3.10947133 C11.9149278,4.6026942 8.90884654,8.55376287 8.16630756,13.1528701 C7.35191781,18.1983133 9.93660399,23.3560001 14.3428046,25.9239309 C9.43292031,28.7240236 4.6740198,33.2538181 2.28862244,38.3218059 C0.560077141,41.9946641 0.00833111369,46.4839262 0.000266052224,50.4968727 C-0.00332036422,52.5980814 -0.0140008856,57.3972124 3.15908493,57.2290869 C6.76254721,57.0386567 7.30628285,52.18916 7.63810723,49.5152214 C7.90196466,47.3902688 7.91701448,45.1480361 8.57508025,43.0940752 C9.58341856,39.9476584 11.665392,37.5672799 14.2860036,35.6670542 C13.1077479,48.5760211 10.6313234,61.368907 9.73901434,74.3059348 C9.62031491,76.0274821 9.47127309,78.125573 10.9667888,79.3444227 C12.558672,80.6416991 14.2379413,79.6540518 15.0683518,78.0924755 C16.4289046,75.5338983 17.2508192,72.5846273 18.2404667,69.870636 C19.2973528,66.9719704 20.3741435,64.0857764 21.3011643,61.1441801 C21.6543497,60.0236634 22.1483238,58.2395187 23.2141913,57.5646184 C25.1624155,56.3308988 25.9195188,58.9093824 26.3826651,60.1965856 C27.4007129,63.026418 27.8259919,66.0121442 28.6233899,68.9014561 C29.4307402,71.827463 30.4412632,74.8525225 31.8527912,77.5557211 C32.6101373,79.0062531 34.0840492,80.7508248 35.8312854,79.65669 C37.7469826,78.4577467 38.0603588,75.9960635 38.0263753,73.9409034 C37.9848669,71.4521187 37.6561982,68.9319154 37.4149155,66.454403 C36.9330783,61.5056139 36.348077,56.5661785 35.7269076,51.632739 C35.2542945,47.8776168 34.7566793,44.1256126 34.2372176,40.3767262 C33.9634079,38.4021512 33.5556061,36.8456114 33.7626626,34.8554471 C33.877721,33.7529181 35.4831975,33.1398957 36.3398239,32.5376659 C38.0892447,31.3075438 39.8061386,30.028495 41.4630758,28.6786945 C43.8479877,26.7352982 45.9768098,24.778711 47.5228153,22.1424267 C49.510606,18.752336 51.3590644,15.2679894 52.973765,11.6889073 C53.7956797,9.86638875 54.5666192,8.01341094 55.1727388,6.10886824 C55.567918,4.86699416 56.3475961,3.01785373 55.8259497,1.73041069" id="Fill-12" fill="#2D2E2C"></path>
                    </g>
                    <path d="M32.56432,29.2907746 C33.3784155,30.5785524 33.3784155,30.8970267 35.3920592,31.5456061 C37.4057028,32.1941855 38.9329026,32.0028902 41.4697964,30.7140397" id="Path-3" stroke="#2D2E2C" stroke-linecap="round" transform="translate(37.017058, 30.599184) rotate(-38.000000) translate(-37.017058, -30.599184) "></path>
                </g>
            </g>
        </g>
    </g>
</svg>