<?xml version="1.0" encoding="UTF-8"?>
<svg width="197px" height="161px" viewBox="0 0 197 161" version="1.1" xmlns="http://www.w3.org/2000/svg" xmlns:xlink="http://www.w3.org/1999/xlink">
    <title>PlotWist vector</title>
    <g id="Page-1" stroke="none" stroke-width="1" fill="none" fill-rule="evenodd">
        <g id="Images" transform="translate(-3016.000000, -1288.000000)" fill="#080808">
            <g id="PlotWist-vector" transform="translate(3016.532387, 1287.995910)">
                <path d="M30.6082683,16.4948034 C34.2612126,17.5243174 36.7801046,18.5657161 38.1649441,19.6189996 C42.0578883,22.5799014 44.4476258,27.1738763 45.8950693,30.3747024 C47.6585038,34.2743 50.5895406,41.3407161 51.4497055,51.6257922 C51.5981068,53.4002412 51.250716,56.2843799 50.4075332,60.2782081 C49.7327369,62.6451382 49.1098916,64.2529351 48.5389974,65.1015988 C46.5962143,67.9896464 43.9358721,69.5193433 41.9112398,70.7103619 C38.9941886,72.4263585 33.6042787,74.1067306 25.7415101,75.7514785 C28.2889227,82.3658059 30.1353492,87.085421 31.2807896,89.9103237 C33.042362,94.2547404 34.5666682,97.2425913 35.3770337,100.425831 C36.9777944,106.713863 36.3955555,109.707819 33.6303172,109.407699 C30.8396903,109.675095 28.5977022,108.528403 26.9043529,105.967623 C24.7508886,102.711031 22.7754973,96.2271617 19.9463675,89.9103237 C16.174215,81.4879188 14.1470698,75.0187979 12.037374,68.7392623 L11.6275242,67.5257621 C11.3529494,66.7177087 11.0750371,65.9109172 10.7898613,65.1015988 L10.6454642,64.6930347 L10.6454642,64.6930347 L10.3534004,63.8735166 C7.65600947,56.3432266 4.40185402,48.2538565 0.34998587,34.4101561 C-0.532765625,31.3941282 0.400430199,28.621714 1.52981218,26.9879224 C4.25555804,23.0447916 8.25980023,20.9705222 10.7898613,19.6189996 C14.3682245,17.7074889 20.9743602,16.6660901 30.6082683,16.4948034 Z M25.7415101,33.9034793 C20.9252931,34.4520234 19.1075326,35.9009733 13.8073448,39.3237876 C15.7073861,45.2239568 18.4152325,52.610326 21.9308843,61.4828952 C27.366802,60.6868799 31.5642935,59.4131696 34.5233588,57.6617643 C38.9619568,55.0346564 39.1876956,55.1606837 39.1876956,51.7414372 C39.1876956,47.5991012 37.7329736,42.4882962 34.5233588,36.9643327 C32.604545,33.8990787 30.5577272,33.3549352 25.7415101,33.9034793 Z" id="Combined-Shape"></path>
                <path d="M56.3202757,23.3151396 C55.0079211,23.4219667 52.9875765,23.9482462 52.4845139,26.3834866 C51.4583258,31.3510879 53.3693884,40.5050957 54.5087605,50.78077 C56.1899779,65.943194 57.9758016,82.6609907 58.371241,92.2277971 C58.5862693,97.4299447 63.7891689,101.304199 65.6296215,101.183024 C72.7469248,100.71442 87.399299,100.39054 94.3345276,96.9328967 C96.945412,95.6312081 97.4966674,93.5981202 97.1654076,91.3987549 C96.7766912,89.7464186 96.4190508,86.5501534 93.5179797,85.8897372 C90.452718,85.1919438 82.2703601,86.0710143 68.9709059,88.5269488 C67.3371561,68.9167404 66.2233947,55.7524733 65.6296215,49.0341473 C64.4929126,36.1727015 64.1998691,28.3578669 62.6489127,25.507449 C61.3668567,23.1512282 57.8586978,23.1899103 56.3202757,23.3151396 Z" id="Path-76"></path>
                <path d="M114.65622,3.20018119 C116.559995,2.88173491 116.571411,4.14743821 118.522606,4.54540714 C123.412553,5.54276851 123.795597,3.90659152 128.338504,5.99084179 C132.881412,8.07509206 134.098031,8.29031617 138.586212,14.0258426 C141.463751,17.703102 142.377026,21.2687887 143.069943,24.8164135 C144.256349,30.890623 144.257492,36.4629986 144.356714,41.2977089 C144.470881,46.860648 144.570272,51.475045 144.356714,55.2191273 C143.996149,61.5405235 143.215973,69.5672329 140.084179,77.3136284 C138.807411,80.4716756 137.814806,83.5452013 134.596994,86.1502142 C130.78228,89.2384542 128.049982,90.2569793 125.686214,91.1446676 C124.095223,91.7421478 122.847579,92.5587323 120.883954,92.8573651 C117.62994,93.3522433 113.427124,92.4508711 108.275507,90.1532484 C105.474083,87.9116334 103.592387,85.7498077 102.630417,83.6677713 C99.8032875,77.5488841 98.5791067,68.4221142 98.3765846,61.1663621 C98.19715,54.737765 97.8394065,45.4826421 99.6400978,35.2889823 C100.909109,28.1051483 102.311489,22.6880256 106.090654,11.8765849 C107.432106,8.03895536 108.224129,7.66948973 109.881333,5.99084179 C111.538537,4.31219386 112.239358,3.60445224 114.65622,3.20018119 Z M121.290957,23.2688505 C119.698754,23.2688505 119.752785,24.8731513 118.160441,25.4592343 C116.77723,25.9683432 116.133254,24.088832 115.294133,26.4924614 C113.240616,32.3746837 112.430212,36.9949595 111.769257,41.5203509 L111.612937,42.6052206 C111.484128,43.5087564 111.357798,44.4122314 111.225196,45.3249822 C108.711619,62.6269597 109.811624,74.0007023 113.793237,78.0467873 C115.016968,79.2903344 116.376301,79.1764695 118.160441,79.1764695 C123.689629,79.1764695 128.127447,77.3060941 130.06724,71.8452158 C132.999652,63.5899335 131.650031,48.6922232 131.04815,32.0431643 C130.70784,30.4711592 129.252237,28.2765159 126.681339,25.4592343 C125.053491,23.9989784 123.256696,23.2688505 121.290957,23.2688505 Z" id="Combined-Shape"></path>
                <path d="M163.754662,31.4725563 C166.488929,15.255946 169.040165,5.81487227 171.408369,3.149335 C172.632278,1.7717619 174.408488,0.00409003509 175.834349,0.00409003509 C177.905463,0.00409003509 180.259352,-0.180571649 181.016097,1.93170433 C181.133495,2.25939358 180.964506,2.66214475 181.016097,3.149335 C181.299698,5.82747123 179.572449,15.0701556 175.834349,30.8773881 C185.890089,30.2400884 192.021715,30.4384778 194.229226,31.4725563 C196.556515,32.5627435 196.325984,34.6392165 196.325984,37.1751016 C196.325984,41.5380951 195.342484,44.8735161 191.228809,46.2924259 C188.934211,47.0838904 184.77807,46.8399921 181.016097,46.8191437 C179.685227,46.8117682 177.255587,46.8117682 173.727177,46.8191437 C172.91605,48.3371074 171.183138,57.5663916 168.528442,74.5069962 C167.1152,83.5254202 165.755133,95.018046 163.754662,108.820522 C163.042491,113.73423 161.127084,121.095744 159.729098,130.34045 C158.827372,136.303443 157.456253,144.026034 157.456253,149.787725 C158.827372,151.84312 161.043983,150.543303 162.437381,149.787725 C165.431569,148.164108 167.313236,145.377511 168.528442,145.132769 C172.348684,144.363374 174.084691,147.141673 173.727177,147.896643 C173.438651,148.50593 173.51869,149.585516 172.940382,150.699173 C171.196336,154.05771 167.270661,158.696771 159.729098,159.469059 C156.597545,159.789743 148.722423,160.1568 147.864895,152.897038 C147.791065,152.272003 147.080117,148.636387 147.133769,147.896643 C147.584199,141.686109 148.27146,138.24183 148.975199,131.845308 C149.65213,125.692454 150.039467,119.34921 151.103449,112.947736 C152.182589,106.455069 153.915019,99.8066812 154.953211,92.9889162 C155.769976,87.6252489 156.244898,80.6802938 157.456253,71.8661936 C158.094318,67.2234858 159.417059,59.134455 161.424477,47.5991012 C154.844351,49.395531 150.694591,50.067504 148.975199,49.6150204 C145.962827,48.8222699 145.741154,44.3001682 145.933487,42.9690874 C146.124112,41.6498229 146.631815,36.6127931 148.975199,34.9857087 C150.85278,33.6820455 155.779268,32.5109947 163.754662,31.4725563 Z" id="Path-103"></path>
                <path d="M51.4830203,146.154628 C49.7758039,143.723622 48.7018667,141.938589 48.2612089,140.799529 C44.5054797,131.091317 43.7825488,124.390252 41.6746197,120.392114 C40.094097,117.394314 36.841943,116.285864 35.7463638,116.689862 C34.8341918,117.026228 32.1561118,118.996837 32.6377468,121.988933 C34.384758,132.842019 44.6991293,155.452753 46.6643896,158.47047 C47.5747128,159.868298 49.8355806,160.436472 52.1915995,159.106967 C53.504727,158.365968 55.7704117,156.123345 58.9886539,152.379101 C60.8619636,154.356453 62.1441278,155.767446 62.8351468,156.612082 C67.1965011,161.942988 71.264476,161.283796 76.693865,153.230857 C79.7123995,148.753728 80.6168756,143.120313 82.1642332,138.168517 C84.4032793,131.003206 86.8432393,124.003854 86.8350783,119.678957 C86.8296369,117.012217 85.1872249,115.549288 84.100149,115.133411 C83.1874903,114.78426 80.2832583,113.396691 78.7559509,115.877626 C77.3504787,118.160654 75.9675494,124.613712 72.9573179,134.688687 C72.4217085,136.481324 72.127382,139.263683 71.0199491,142.418649 C70.5727968,143.692542 69.6214574,145.750396 68.1659308,148.592212 C66.2538391,143.892557 64.7863326,140.871904 63.7634112,139.530251 C62.6956389,138.129772 60.9343258,137.577674 59.9232564,137.369788 C57.4592867,136.86317 54.6458747,139.791451 51.4830203,146.154628 Z" id="Path-128"></path>
                <path d="M92.4045281,117.622958 C91.8016424,122.789114 92.4929149,127.50316 92.4045281,132.217096 C92.286967,138.486985 91.5197807,142.370813 91.6283236,149.248559 C91.6494982,150.590272 91.5109123,153.049604 91.6283236,154.564226 C92.1011991,160.664386 93.3976511,160.055374 95.6938272,160.055374 C97.9900032,160.055374 99.700074,159.606165 100.311146,156.478183 C101.00673,152.212089 100.771523,147.730445 101.184978,143.764332 C101.612341,139.664797 101.577603,136.199455 101.864802,132.217096 C102.169605,127.990636 102.178111,122.313788 101.864802,117.622958 C101.113355,115.279893 99.9377436,113.618413 97.4330939,113.388163 C94.9284441,113.157912 92.4045281,115.229402 92.4045281,117.622958 Z" id="Path-129"></path>
                <path d="M137.504449,124.92237 C137.935223,124.628315 139.123044,123.439735 139.735117,122.086106 C140.431605,120.54579 140.037054,118.400299 138.979526,116.780879 C137.97825,115.247597 136.417812,113.39232 134.135221,112.244881 C130.679331,110.507634 126.079196,109.838116 123.305534,109.971632 C120.341876,110.114294 117.030129,111.347135 114.587916,113.370632 C110.239149,116.973805 107.548226,122.689066 106.658977,126.407185 C105.270337,132.213354 106.928637,139.373181 112.529574,142.055783 C118.130511,144.738385 128.426261,137.848663 130.644562,144.072402 C131.021636,145.130333 130.705967,146.813381 127.547308,148.082454 C124.301637,149.386486 117.963502,151.961505 116.174912,150.63257 C115.3136,149.605355 115.3136,149.489886 114.587916,149.247617 C112.818247,148.656814 110.873071,148.737875 109.708795,149.247617 C107.91397,150.033425 107.254288,152.533258 107.91397,154.957932 C108.556233,157.318585 112.258604,160.055474 116.174912,160.055474 C122.639998,160.055474 130.006628,157.776554 134.769626,154.957932 C139.328606,152.260043 141.305948,147.353768 141.414832,144.072402 C141.466356,142.519657 140.706628,140.451972 139.735117,138.412955 C138.80203,136.45458 137.771622,134.670882 135.803369,133.220866 C135.120674,132.717923 134.238894,132.320127 133.239021,131.815558 C132.239149,131.310989 130.552805,131.074599 128.713148,131.151008 C123.839959,131.353411 117.93808,133.297308 117.098783,132.213354 C115.871061,130.627747 116.686535,128.172412 117.963502,125.929112 C119.249358,123.670197 121.011455,121.628766 124.036904,121.628766 C128.070276,121.628766 129.791449,124.335229 132.558187,125.929112 C134.614096,127.113496 136.029628,125.929112 137.504449,124.92237 Z" id="Path-130"></path>
            </g>
        </g>
    </g>
</svg>