<?xml version="1.0" encoding="UTF-8"?>
<svg width="50px" height="40px" viewBox="0 0 50 40" version="1.1" xmlns="http://www.w3.org/2000/svg" xmlns:xlink="http://www.w3.org/1999/xlink">
    <title>Group 3</title>
    <g id="Page-1" stroke="none" stroke-width="1" fill="none" fill-rule="evenodd">
        <g id="Prima-Persona-che-gioca-nella-prima-modalità-Copy" transform="translate(-334.000000, -42.000000)">
            <g id="Group-3" transform="translate(335.000000, 42.971975)">
                <g id="Group-2">
                    <g id="Group-4" transform="translate(0.000000, 12.967711)" fill="#F5F5F5" stroke="#000000" stroke-linecap="round" stroke-linejoin="round">
                        <path d="M23.6345158,3.80366025 C21.7803987,2.76454512 12.9982926,0 12.0365227,0 C11.0747528,0 4.68578176,3.70366469 0,5.9887295 C1.79006367,7.4447232 6.10541221,9.05210153 9.30217497,9.92510594 C13.1914636,9.09574365 15.8774065,8.41123527 17.3600036,7.87158078 C22.0692424,6.15745248 24.4741053,4.27419694 23.6345158,3.80366025 Z" id="Path"></path>
                        <path d="M8.95953404,9.92510594 C4.71111633,8.48199456 2.49608859,7.3538997 0,5.9887295 C0.222744506,11.1343326 1.91788896,21.4552481 2.60388119,22.2422552 C3.06120934,22.7669266 6.20542317,23.7062797 12.0365227,25.0603145 C10.7636869,18.8448812 9.85223769,13.7998116 9.30217497,9.92510594 C15.9637338,8.57474444 21.4211285,6.47566674 23.6345158,4.17765268 C24.6500897,10.2990984 27.2141003,17.76321 26.7093543,18.7331584 C26.2046082,19.7031068 18.2536424,22.8608498 12.3044433,25.0603145" id="Path-42"></path>
                    </g>
                    <g id="Group-4-Copy" transform="translate(32.474247, 14.983410) rotate(14.000000) translate(-32.474247, -14.983410) translate(19.547296, 2.764354)" fill="#F5F5F5" stroke="#000000" stroke-linecap="round" stroke-linejoin="round">
                        <path d="M23.2848423,3.34557842 C21.4307252,2.30646329 13.9760483,-0.249279608 12.890901,0.019707213 C11.8057536,0.288694034 4.83538205,2.79771606 1.80639371e-12,4.7789794 C1.79006367,6.2349731 5.693138,8.18700176 8.88990077,9.06000618 C12.9904542,8.17253246 15.7694305,7.48367855 17.2268297,6.99344445 C22.3923406,5.2558906 24.1533562,3.83232539 23.2848423,3.34557842 Z" id="Path-Copy-2"></path>
                        <path d="M8.88990077,9.06000618 C5.77082205,7.91679544 2.8075218,6.48978651 4.56935011e-13,4.7789794 C0.222744506,9.92458246 1.73097095,21.2711582 2.48416371,21.6200538 C2.98629221,21.8526508 6.13050604,22.7920036 11.9168052,24.4381122 C10.4489316,18.0607472 9.43996349,12.9347119 8.88990077,9.06000618 C15.5514596,7.70964468 21.301411,5.85346527 23.5147984,3.55545121 C24.5303722,9.6768969 26.2389757,18.3663593 25.7759651,18.8620322 C25.3129544,19.3577052 18.1339249,22.2386484 12.1847258,24.4381122" id="Path-42-Copy-2"></path>
                    </g>
                    <g id="Group-15" transform="translate(18.053184, 28.395704) rotate(-21.000000) translate(-18.053184, -28.395704) translate(12.998293, 23.011193)" fill="#2D2E2C">
                        <path d="M7.97000479,10.087981 C7.03602289,10.9662808 5.99607368,10.0323086 4.95071009,10.0761068 C4.4506527,10.0969353 4.01034695,10.3603084 3.53388082,10.4798288 C2.68111474,10.693564 2.1787369,10.0735763 1.75448094,9.42633631 C1.03784804,8.33313342 0.375359015,7.14844097 0.29066252,5.81386137 C0.205966025,4.47655655 0.784532037,2.80035105 2.25647204,2.5262717 C3.31092407,2.32986113 4.11805459,3.0391972 5.12048982,3.11550338 C5.13769984,3.12134314 5.15742368,3.12406836 5.18082157,3.12075917 C5.46855761,3.11686599 5.75029915,3.05126603 6.02933349,2.96561623 C6.16333959,2.93057768 6.29347827,2.88619551 6.42110313,2.83616824 C7.01494545,2.63002475 7.60414687,2.41512162 8.22177382,2.58486395 C9.90004067,3.04620491 9.99962673,5.14735021 9.68191819,6.55083896 C9.40945846,7.75421864 8.8838761,9.22875779 7.97000479,10.087981 Z M3.52169845,0.944280975 C3.57642244,0.746313144 3.64854982,0.535497843 3.76128511,0.365366196 C4.28918792,0.796145754 4.77764305,1.48212278 4.95129021,2.18055796 C4.64692426,1.60981885 4.13971215,1.17086363 3.52169845,0.944280975 Z M7.40536148,0.297041015 C7.5805556,0.914887521 7.43030634,1.69196479 6.97762485,2.15739358 C6.55975013,2.58681053 5.91659821,2.73163656 5.33629185,2.81592374 C5.33861231,2.80404957 5.34228635,2.79295403 5.34112613,2.77874395 C5.25256221,1.56679929 6.20916852,0.450626678 7.40536148,0.297041015 Z M8.48379152,2.37502194 C8.03381721,2.20313836 7.60898114,2.23194784 7.19091305,2.33180772 C7.21585791,2.30513949 7.24350996,2.28216977 7.26690785,2.25336029 C7.7279043,1.68670901 7.88743537,0.839554629 7.65751726,0.14812716 C7.6532631,0.135474349 7.645915,0.12671471 7.63953376,0.116592461 C7.633926,0.0515764775 7.59119101,-0.00643179549 7.50707463,0.000575915344 C6.42071639,0.0885616181 5.47706594,0.875761135 5.1653519,1.88934864 C4.92054422,1.15490162 4.37697835,0.470871176 3.80305325,0.0416488872 C3.760705,0.00991952979 3.71951698,0.0105035057 3.68490357,0.0270494896 C3.68084278,0.0286067587 3.67716873,0.0315266382 3.67310794,0.0336678832 C3.66479299,0.0389236663 3.65686477,0.0439847908 3.64990342,0.0509925016 C3.64429566,0.0558589675 3.63830116,0.0578055538 3.63288677,0.0638399715 C3.41399081,0.310861779 3.30009529,0.679739891 3.21655902,0.992556316 C3.20282968,1.04453017 3.21829936,1.08618712 3.24595141,1.11674852 C3.26200121,1.13816097 3.28288527,1.1568482 3.31479149,1.16658114 C4.0946567,1.40640057 4.67651002,2.02307913 4.89424576,2.80502286 C4.02717023,2.65961286 3.2886864,2.10853427 2.35045034,2.22591342 C1.44547409,2.33901009 0.741216935,2.96795214 0.365110352,3.78571306 C-0.604258438,5.89483936 0.513812646,8.42579093 1.88133231,10.0862291 C2.59757847,10.9559639 3.26316143,10.8613598 4.24393911,10.5335546 C4.95496425,10.2960711 5.43742488,10.4331108 6.12872619,10.6077196 C6.51218087,10.7046596 6.94301144,10.8056874 7.34038883,10.742618 C8.29274097,10.5911736 8.90727399,9.42575233 9.25012076,8.62940386 C9.75481906,7.45678025 10.1444616,6.25262193 10.1073344,4.96028326 C10.076395,3.88888214 9.52857499,2.77465611 8.48379152,2.37502194 L8.48379152,2.37502194 Z" id="Fill-14"></path>
                        <path d="M2.72315174,2.88363177 C1.78874475,3.30501409 1.31658721,4.59419368 1.4741636,5.63388156 C1.50312564,5.82579826 1.76988131,5.74444227 1.74091927,5.55335999 C1.61116169,4.69599298 2.01396275,3.52884738 2.79670009,3.17588753 C2.95923051,3.10266713 2.88796864,2.80957695 2.72315174,2.88363177" id="Fill-16"></path>
                        <path d="M1.461448,6.42551681 C1.3904198,6.42551681 1.39034384,6.53116079 1.461448,6.53116079 C1.53247619,6.53116079 1.53255216,6.42551681 1.461448,6.42551681" id="Fill-17"></path>
                    </g>
                    <g id="v642-nap-05-fastfood" transform="translate(6.499146, 15.113910)" fill="#2D2E2C">
                        <path d="M6.11467608,1.5812852 C6.01824053,1.62508521 5.91879882,1.67873141 5.8513468,1.75093679 C5.78548078,1.82144659 5.74907514,1.91979096 5.80331043,2.00271551 C5.85961892,2.0888046 5.98496544,2.13400642 6.09899222,2.1480664 C6.23281818,2.16456066 6.36892469,2.14238365 6.49996218,2.12086138 C6.62092386,2.10100112 6.74439412,2.07853871 6.85946787,2.04172253 C6.96366761,2.00838987 7.05663053,1.95831113 7.12257947,1.88399045 C7.19258154,1.80512021 7.24035876,1.70100915 7.21385272,1.60316002 C7.18408136,1.49322351 7.03110926,1.42106009 6.8966406,1.43845251 C6.88795383,1.43956891 6.87221814,1.44153312 6.86911868,1.45030487 C6.86609179,1.45885838 6.87795057,1.46778123 6.88471962,1.47215451 C6.91029271,1.48868234 6.95583086,1.5005431 6.9887846,1.49627893 C6.99370848,1.49564938 6.99860127,1.49499465 7.00357698,1.49470925 C7.0021672,1.49479319 6.99948238,1.49377751 6.99834212,1.49410488 C7.00579532,1.49195601 7.00776487,1.49622857 7.00006288,1.49417203 C6.98382962,1.48983232 7.00637582,1.49796613 6.99999032,1.49444904 C7.00519409,1.49731979 7.02281641,1.5089623 7.032291,1.51860703 C7.06104648,1.54792735 7.0728638,1.58795005 7.07340283,1.62486697 C7.07455346,1.70077411 7.03744293,1.78013121 6.98275155,1.84107181 C6.85915689,1.97880094 6.64872566,2.01914261 6.45433074,2.05471648 C6.39887227,2.06487325 6.34306134,2.07365339 6.28697054,2.08116604 C6.23406211,2.08825899 6.17999269,2.09567091 6.12620315,2.09551143 C6.10276547,2.09544428 6.07970096,2.09410963 6.05671938,2.09025677 C6.06887878,2.09229652 6.04349228,2.08718456 6.03911779,2.08597582 C6.05232417,2.08961882 6.01752527,2.07767413 6.02494738,2.0808051 C5.99284366,2.06726554 5.96333145,2.04544948 5.94620671,2.01739665 C5.90219237,1.94538433 5.93167347,1.85789343 5.98878016,1.79650794 C6.04751431,1.73339329 6.13135509,1.68552218 6.21398303,1.6448951 C6.40314309,1.55187254 6.6260758,1.49948545 6.84768165,1.49985479 C6.86630948,1.49988836 6.90667496,1.49522968 6.8856111,1.47335486 C6.86597776,1.45296577 6.81849079,1.44151633 6.78794199,1.44146596 C6.55205169,1.44107984 6.32069136,1.48770864 6.11467608,1.5812852 Z" id="Fill-3"></path>
                        <path d="M0.534248241,3.68711957 C0.404908446,3.87529862 0.281245667,4.06735969 0.163611786,4.26298802 C0.112800143,4.34749489 0.0388933643,4.44079169 0.00632089575,4.53376207 C-0.00856367848,4.57623117 0.00510104096,4.61984274 0.0238914964,4.65902436 C0.112424803,4.8435662 0.386188367,5.07921551 0.608929158,5.01464335 C0.710188835,4.9852892 0.809114366,4.92949531 0.906831771,4.88952096 C1.01820217,4.84396256 1.13019422,4.79987303 1.24273755,4.75726403 C1.46247562,4.67406283 1.6843719,4.59650396 1.90814488,4.5246807 C2.34475906,4.38454315 2.78848123,4.26626384 3.2370711,4.17054224 C3.41988511,4.13152382 3.67857642,4.05830163 3.8525934,4.16064483 C4.00059463,4.24769308 4.02847535,4.44270356 4.07072455,4.59273852 C4.10981855,4.73154709 4.16793759,4.85968883 4.30117154,4.930766 C4.44242838,5.0061099 4.61093255,5.00116702 4.74478815,4.91257995 C4.90326371,4.80770702 4.96105433,4.62774668 4.95122511,4.445175 C4.94544253,4.33781898 4.91941506,4.2329344 4.88774575,4.13052126 C4.87462058,4.08808713 4.85659253,4.0645152 4.89171028,4.0344266 C4.90850674,4.02005263 4.93055796,4.01453852 4.95170602,4.01692836 C4.9995384,4.02233754 5.05813835,4.07559004 5.09586001,4.10200645 C5.15016701,4.14003396 5.20364122,4.17935548 5.25961379,4.2149815 C5.36469724,4.28186188 5.48875882,4.34037202 5.61652688,4.33621021 C5.97742795,4.32441259 5.89263631,3.85888454 5.98486437,3.62668591 C6.13085988,3.25907111 6.61781652,3.13407695 6.95009793,3.00412826 C7.42004698,2.82033251 7.89000777,2.63654843 8.35995682,2.45276435 C8.58121971,2.36622903 8.80681074,2.28644354 9.02439061,2.19112996 C9.17775216,2.12395813 9.34381662,2.0260099 9.38034189,1.84952355 C9.44241373,1.54957021 9.09556444,1.3437297 8.8630179,1.24852104 C8.67431575,1.17127693 8.47078767,1.1282366 8.273136,1.08016013 C8.03088927,1.02123031 7.78690658,0.969400055 7.54159847,0.924715983 C7.06217209,0.837376285 6.57757304,0.776779414 6.09130843,0.743764728 C5.20122497,0.683331066 4.31705311,0.713641159 3.46585252,1.00126063 C2.78289805,1.2320137 2.14428061,1.61036526 1.682894,2.16914348 C1.56922465,2.30680959 1.46768347,2.45379023 1.3770506,2.60733417 C1.35696992,2.64137473 1.51326381,2.70488603 1.54119145,2.65755566 C1.99131786,1.89494206 2.72760579,1.37926246 3.55803366,1.09101347 C4.59445278,0.731255986 5.69708421,0.756681491 6.77442711,0.882456719 C7.36386329,0.951272288 7.94911208,1.06204402 8.52261977,1.21375769 C8.72407175,1.26705683 8.92913637,1.32647627 9.08577042,1.47131188 C9.23289194,1.60735757 9.27419106,1.81366438 9.12556818,1.96691687 C9.0447528,2.05025797 8.93452015,2.09892899 8.82840452,2.14171285 C8.69280124,2.19637593 8.55604848,2.24832277 8.41988219,2.30157527 C8.14139169,2.41049343 7.86290119,2.51939992 7.58442242,2.62831808 C7.31753226,2.73268971 7.05064211,2.83706135 6.78375196,2.94144465 C6.56472938,3.02710564 6.3357251,3.10356868 6.13575103,3.22961203 C5.93225814,3.35787036 5.81114063,3.52712891 5.7755068,3.76473672 C5.75235301,3.91925991 5.75214189,4.24377609 5.53181734,4.25395328 C5.45127174,4.2576721 5.37038599,4.19240048 5.30806783,4.14923191 C5.23969731,4.10186656 5.17349673,4.05045598 5.10103267,4.00928089 C4.98119366,3.94117644 4.81143445,3.88458983 4.70332482,4.00151684 C4.69763607,4.00609833 4.69584148,4.01188056 4.69795277,4.01886354 C4.78747134,4.28781898 4.87709548,4.65982874 4.59188405,4.84679539 C4.53907841,4.88141884 4.45405219,4.92150977 4.39016229,4.89404416 C4.34197803,4.87332837 4.30713006,4.81379236 4.2857005,4.76959791 C4.23970962,4.67475063 4.22203346,4.56847879 4.19200627,4.46822232 C4.12462102,4.2432748 3.97639693,4.09954667 3.74183293,4.05075908 C3.47489586,3.99525664 3.19701529,4.07237251 2.93754983,4.13118575 C2.31129515,4.2731419 1.69508082,4.45896609 1.09512339,4.68704954 C0.945139903,4.74406749 0.796141679,4.80367345 0.648281204,4.86593738 C0.596765799,4.88760909 0.526389561,4.93686299 0.471132485,4.93954427 C0.43549865,4.94126961 0.402703324,4.91726635 0.374365159,4.89731998 C0.300294169,4.84519828 0.228029502,4.77175459 0.187551437,4.69010386 C0.137396638,4.58892644 0.205649859,4.52027408 0.257880757,4.43101086 C0.625420657,3.80295076 1.05424653,3.21206715 1.53557308,2.66533136 C1.5700457,2.62619637 1.41444384,2.56347779 1.38266897,2.59955846 C1.07846769,2.94508186 0.79482799,3.3079986 0.534248241,3.68711957 Z" id="Fill-7"></path>
                        <path d="M0.479454047,5.74201183 C0.641387969,5.75125101 0.79797037,5.71516255 0.951362009,5.68097083 C1.12655158,5.6419319 1.30170757,5.60280867 1.47688595,5.56371916 C2.18323088,5.40612193 2.88957581,5.24851627 3.59592075,5.09091061 C3.65480988,5.07777681 3.52076433,5.01708143 3.4783552,5.0265398 C2.87372277,5.16145213 2.26909034,5.29635603 1.66445792,5.43125993 C1.36640725,5.49776352 1.06878202,5.56549787 0.770238738,5.63075383 C0.638353948,5.65957571 0.485141439,5.69608566 0.347322953,5.67070319 C0.223924467,5.64795929 0.147133485,5.55800368 0.152764898,5.46544323 C0.154780116,5.43245698 0.00274315042,5.39176579 0.000336085064,5.43128522 C-0.0109715243,5.6169372 0.265370774,5.72978845 0.479454047,5.74201183 Z" id="Fill-8"></path>
                        <path d="M8.18151431,3.3998259 C8.81394222,3.14891217 9.45530592,2.89348679 10.0171411,2.49469975 C10.2839877,2.30532182 10.5665971,2.08034385 10.7241054,1.7809608 C10.8551637,1.53197006 10.8838774,1.20371745 10.7132633,0.965229218 C10.5346666,0.71551119 10.200587,0.688009911 9.92731844,0.739659557 C9.63890672,0.794169041 9.34172601,0.935681676 9.24157362,1.24167193 C9.14361348,1.54091938 9.24393267,1.87791175 9.49470682,2.06007845 C9.74837617,2.24435305 10.1031272,2.26577717 10.3854983,2.1446039 C10.4195735,2.12995956 10.4120674,2.11001466 10.3856175,2.09354594 C10.3549975,2.07438996 10.2942341,2.07933305 10.2623035,2.09302821 C10.0105405,2.20106103 9.71509927,2.13533408 9.53354774,1.92122842 C9.37042778,1.72883041 9.33239704,1.43302216 9.43283538,1.20010568 C9.55102616,0.926042052 9.86563763,0.794193695 10.1423256,0.789756016 C10.4490021,0.784825262 10.6473767,1.03621975 10.6577422,1.33872149 C10.6677503,1.62975924 10.509408,1.88259597 10.3172289,2.08129302 C10.1094419,2.29616294 9.86087187,2.47300443 9.6089182,2.62754658 C9.09306071,2.94395306 8.52823507,3.16188005 7.97014106,3.38323391 C7.24673484,3.67016681 6.52332862,3.95707504 5.79993432,4.24399561 C5.76509664,4.25781405 5.77404435,4.27901629 5.79973178,4.29505357 C5.83111429,4.31464098 5.89042414,4.30853918 5.92308149,4.29557129 C6.67589243,3.9969895 7.42871528,3.69845701 8.18151431,3.3998259 Z" id="Fill-10"></path>
                        <path d="M5.05975244,1.81684016 C5.01786526,2.08726492 5.25691409,2.14830605 5.38425926,2.15343901 C5.53457788,2.15951643 5.76175981,2.09169979 5.77645087,1.80729286 C5.78843997,1.57540635 5.60812823,1.42478484 5.47415715,1.43650851 C5.37092597,1.44554252 5.53254122,1.59815562 5.58429938,1.59363862 C5.55953367,1.57803443 5.55976449,1.59285841 5.58495111,1.63804897 C5.59188931,1.67092043 5.59271755,1.70444892 5.58742225,1.73863442 C5.57873253,1.8026116 5.55179439,1.85796542 5.51952022,1.89954238 C5.45117012,1.98758288 5.36015886,2.00018942 5.27413061,1.99632944 C5.21324824,1.9935987 5.22837379,2.00398781 5.24874032,1.90383353 C5.26102813,1.84340835 5.28639126,1.78606295 5.31565119,1.74171419 C5.37569174,1.65071711 5.45362768,1.60554708 5.5380945,1.6125895 C5.58028039,1.61610044 5.58003599,1.57222392 5.55874617,1.53348035 C5.53039595,1.48192492 5.47001596,1.45897033 5.42797942,1.45547992 C5.27514893,1.44272966 5.09743053,1.57366115 5.05975244,1.81684016 Z" id="Fill-15"></path>
                        <path d="M0.80963095,3.89200363 C0.625894514,4.03815113 0.754128752,4.22324433 0.984964953,4.28106517 C1.24035277,4.34502492 1.57153248,4.28312346 1.81040684,4.20416246 C2.03020574,4.13151116 2.22700723,3.97010176 2.14895689,3.77927411 C2.0748892,3.59814469 1.76131575,3.54617515 1.55235987,3.62602597 C1.51520461,3.64021828 1.56775624,3.6585721 1.583869,3.66222129 C1.62238419,3.67093082 1.67015178,3.66703895 1.70559499,3.65349379 C1.81152393,3.61301111 1.92755521,3.69732006 1.96473476,3.765693 C2.00805829,3.84540002 1.98759861,3.9408453 1.93023865,4.01352357 C1.80697059,4.16969287 1.51423323,4.22512286 1.28837535,4.24785391 C1.15070658,4.26169568 1.01438561,4.2376883 0.934744632,4.14733032 C0.867051622,4.07050851 0.892343916,3.98175941 0.970588536,3.91516612 C1.12868055,3.78063133 1.4217579,3.71533234 1.64774934,3.67606306 C1.67885777,3.67066118 1.70021598,3.66107081 1.68002343,3.64023625 C1.66098439,3.62060611 1.58422112,3.6256215 1.55850385,3.63008862 C1.30390528,3.67431936 0.99317311,3.74601792 0.80963095,3.89200363 Z" id="Fill-17"></path>
                        <path d="M3.71995734,1.86839507 C3.69528411,1.90546067 3.66366405,1.95055223 3.66783497,2.01233215 C3.67437316,2.10918591 3.75264127,2.14801934 3.80110704,2.15322856 C3.88657561,2.16238594 3.9257625,2.06072367 3.9767576,1.96386992 C3.99017921,1.93838953 4.01014607,1.89744649 4.03050747,1.88944409 C4.05275706,1.88071099 4.0554907,1.90187786 4.06988459,1.92919679 C4.09400123,1.9749837 4.12221833,2.00520189 4.15779089,2.02011062 C4.21855805,2.0456028 4.29216205,2.02140704 4.32149938,1.918578 C4.35451444,1.8028202 4.30974754,1.67238938 4.25464494,1.60174671 C4.11568718,1.42358436 3.88776629,1.40743814 3.72344485,1.46700237 C3.66872974,1.48682569 3.57514479,1.56171116 3.62460398,1.67962571 C3.67293589,1.79484138 3.79822544,1.73907209 3.86544625,1.72840616 C3.88775925,1.7248587 3.8844056,1.70082794 3.87222399,1.68093391 C3.85619555,1.65474639 3.82226458,1.64924253 3.80127613,1.65256606 C3.78243655,1.65555959 3.76359697,1.65854134 3.74475739,1.66153488 C3.7353376,1.66303164 3.72591781,1.66452841 3.71649802,1.66602517 C3.70379504,1.66448127 3.70379504,1.66888907 3.71649097,1.67923679 C3.69992708,1.62509391 3.732456,1.57633704 3.75837628,1.55762157 C3.82745709,1.50774507 3.9210984,1.51026718 3.99418808,1.52304273 C4.07269573,1.53676112 4.1737841,1.56834643 4.21495077,1.69600765 C4.22899239,1.7395553 4.23629149,1.79312068 4.22906989,1.84193649 C4.22471579,1.87137682 4.21618373,1.89896682 4.20231825,1.91895514 C4.19551233,1.9305757 4.18743822,1.93856632 4.17809593,1.94291519 C4.16695705,1.95789464 4.16302568,1.95682215 4.16628068,1.93966237 C4.1464336,1.92143011 4.13288516,1.87068147 4.11275626,1.84788819 C4.09202145,1.82441135 4.06841209,1.81020975 4.04383045,1.8029852 C3.9905808,1.78734576 3.93952934,1.81480612 3.89996904,1.87631497 C3.88175651,1.90464747 3.77796268,2.14317547 3.76772561,2.03236761 C3.76298401,1.98101791 3.81691707,1.92081726 3.83633438,1.8919662 C3.86590421,1.84801784 3.89547403,1.80406947 3.92504386,1.76012111 C3.94535595,1.72993828 3.85397623,1.66920728 3.83083891,1.70359755 C3.79387839,1.75853006 3.75674173,1.81313257 3.71995734,1.86839507 Z" id="Fill-19"></path>
                        <path d="M4.35222293,3.72848451 C4.26878982,3.98361307 4.47209603,4.21524993 4.61273391,4.28073244 C4.76124192,4.3498569 5.026127,4.29448015 5.05337976,4.01069847 C5.07507139,3.78480189 4.85835019,3.58268643 4.72332221,3.63637486 C4.63525483,3.67139534 4.82223541,3.86408035 4.88402567,3.83947918 C4.83911391,3.77387608 4.8229834,3.76487977 4.8356504,3.81251438 C4.84241481,3.83767027 4.84246359,3.86367033 4.83579674,3.89053866 C4.82969902,3.9288393 4.81181237,3.96161674 4.79415336,3.98923275 C4.75486777,4.05073566 4.6883782,4.10336286 4.63000266,4.10493058 C4.56395213,4.10669126 4.53884577,4.02188959 4.55460229,3.92744041 C4.561074,3.8886574 4.57614757,3.85407105 4.59735139,3.82954224 C4.63283201,3.78851618 4.65966199,3.83053111 4.61005091,3.76167197 C4.64105987,3.80472401 4.71797248,3.87271488 4.76264033,3.84987438 C4.81023509,3.82553852 4.78184409,3.77283897 4.75454255,3.73494835 C4.65671882,3.5992078 4.42905424,3.49359162 4.35222293,3.72848451 Z" id="Fill-21"></path>
                        <path d="M5.68876569,3.36740217 C5.76026921,3.34052242 5.80951283,3.26066347 5.75136693,3.19611793 C5.72620393,3.16817339 5.68835455,3.15745238 5.65142813,3.1541361 C5.63124906,3.15233165 5.61136367,3.15270555 5.59131885,3.1558999 C5.58085595,3.1575743 5.56947848,3.16010215 5.55933441,3.16324774 C5.53731783,3.17005099 5.53980141,3.17725252 5.53253527,3.15944377 C5.50339519,3.08798931 5.72093472,3.06917268 5.66025489,2.95883321 C5.62305158,2.89118272 5.52337289,2.87183775 5.45217981,2.87173935 C5.36149569,2.87161016 5.27293436,2.90090397 5.20318444,2.95750019 C5.0550676,3.07768284 4.99540302,3.35782723 5.13003639,3.50779949 C5.1916979,3.57649038 5.30405458,3.60699528 5.39406747,3.57977415 C5.43697629,3.56680164 5.47613458,3.53680069 5.49235335,3.49539595 C5.50584521,3.46095704 5.46507595,3.3602169 5.4989902,3.34208302 C5.53738496,3.32155948 5.42461714,3.29339548 5.39556097,3.30892022 C5.32765695,3.34522048 5.39316969,3.42485185 5.37000362,3.48118797 C5.3611349,3.50275192 5.33759126,3.53688197 5.31066627,3.53869454 C5.28327141,3.54053963 5.25041436,3.50805147 5.23622608,3.49023459 C5.20875571,3.45572252 5.19439124,3.41172491 5.1872929,3.36932854 C5.15884924,3.19952362 5.23050379,2.98862283 5.41334036,2.93079113 C5.45716374,2.91692453 5.50446917,2.91247031 5.53457415,2.95281839 C5.57155092,3.0023919 5.5253866,3.03259606 5.48493618,3.05776077 C5.43899,3.08635556 5.37272213,3.14034265 5.42989474,3.19342752 C5.47177993,3.23232878 5.55320937,3.22863048 5.60444154,3.21593433 C5.61347806,3.21369096 5.65726789,3.20978133 5.63272579,3.19981623 C5.65033737,3.20696086 5.65579956,3.24032687 5.65489339,3.25690014 C5.65006887,3.344936 5.55310029,3.33145142 5.49562563,3.30028814 C5.46801261,3.28532424 5.35032798,3.29609402 5.40597353,3.32625754 C5.48986977,3.37173935 5.5946163,3.40280834 5.68876569,3.36740217 Z" id="Fill-23"></path>
                        <path d="M8.71724358,0.719601316 C8.70642435,0.715358423 8.66561133,0.714006002 8.66552837,0.782952998 C8.66543239,0.854366176 8.70280417,0.869985323 8.71431165,0.874519913 C8.91965686,0.955055309 9.11997098,1.14219337 9.31295528,1.42333801 C9.3423847,1.46621774 9.42695642,1.39231186 9.36620491,1.30382104 C9.1571707,0.999260941 8.939499,0.806792748 8.71724358,0.719601316 Z" id="Fill-24"></path>
                        <path d="M8.70250418,0.682602621 C8.5922109,0.684895069 8.75850079,0.740478108 8.81377709,0.739328358 C8.9725758,0.736034287 9.12517987,0.746509009 9.27206471,0.777107896 C9.2948552,0.781855026 9.36956536,0.796858214 9.38554175,0.779576686 C9.40104274,0.76281713 9.32688001,0.743645213 9.3068555,0.739469431 C9.11407275,0.699312801 8.91238701,0.678243444 8.70250418,0.682602621 Z" id="Fill-25"></path>
                        <path d="M8.70617754,0.696769937 C8.61922836,0.710879737 8.69099307,0.740774418 8.74332527,0.753368087 C8.81638547,0.770950316 8.95223226,0.793900138 9.03978399,0.779692523 C9.06701963,0.775266399 9.09940715,0.774386065 9.12432294,0.770620191 C9.13980869,0.768272633 9.12646202,0.772246364 9.11224164,0.769201875 C9.11859863,0.76976431 9.12495562,0.770314519 9.13134274,0.770864728 C9.07012281,0.761706807 9.05743895,0.760312945 9.09326105,0.766683141 C9.15984375,0.779142314 9.30391546,0.800417056 9.37016676,0.777565049 C9.43729176,0.754431824 9.29192455,0.722434123 9.25806077,0.716100608 C9.09100146,0.684848745 8.88263677,0.668134623 8.70617754,0.696769937 Z" id="Fill-26"></path>
                        <path d="M0.716063161,4.37542297 C0.757026304,4.34353568 0.578528453,4.28510193 0.53796076,4.31669484 C0.300718161,4.50140563 0.118729444,4.7204218 0.00130813001,4.96418663 C-0.0174689166,5.00315998 0.171774259,5.05164801 0.192392193,5.00884776 C0.307386263,4.77012939 0.483579596,4.55643302 0.716063161,4.37542297 Z" id="Fill-27"></path>
                        <path d="M1.43879701,4.31205571 C1.49241205,4.29438867 1.13502451,4.25591219 1.06570044,4.27876535 C0.994278146,4.30230369 0.88691004,4.32162462 0.762204015,4.33102814 C0.681588209,4.33711208 0.739896627,4.35153633 0.786554405,4.35884296 C0.846657354,4.3682583 0.973875721,4.3818556 1.05294547,4.37589571 C1.21442556,4.36371602 1.34498451,4.34297747 1.43879701,4.31205571 Z" id="Fill-28"></path>
                        <path d="M6.52064232,2.16595627 C6.47102447,2.1819589 6.51379678,2.20871564 6.58284315,2.21773826 C6.65193877,2.22676088 6.73300177,2.22345349 6.8084012,2.21996348 C6.88643542,2.21635172 6.96449426,2.21273321 7.04252848,2.20912145 C7.08830495,2.20700445 7.13582973,2.20469131 7.17350482,2.1972446 C7.29130719,2.17396435 7.17069766,2.11053547 7.03383613,2.12378533 L6.87446804,2.11790777 C6.74647123,2.12725505 6.62539384,2.14369732 6.52064232,2.16595627 Z" id="Fill-31"></path>
                        <path d="M6.51443924,2.18554551 C6.59986021,2.22799099 6.81091113,2.22677124 6.96051153,2.21995794 C7.06545584,2.21517907 7.26335083,2.212157 7.21330435,2.16952036 C7.17498199,2.13688749 7.00831762,2.11561469 6.88945934,2.122783 C6.83577435,2.12601898 6.88063256,2.13934065 6.90419871,2.14421965 C6.94432349,2.15252578 7.01456711,2.16056794 7.06666868,2.15742299 C6.98886165,2.14298169 6.9622971,2.14172553 6.98699186,2.15365451 C6.98823839,2.15531573 6.98948492,2.15697241 6.9907146,2.15862909 C6.99226434,2.16475969 6.98571164,2.16974793 6.96898456,2.1738532 C6.92975257,2.18348377 6.83109144,2.18314242 6.78330219,2.18531794 C6.7672826,2.18604615 6.75127986,2.18677891 6.73526027,2.18750712 C6.70067749,2.18690635 6.69447854,2.18820347 6.71664655,2.19139394 C6.73254822,2.19603627 6.73696161,2.19436139 6.72993725,2.18636019 C6.74061697,2.18255075 6.75345286,2.17944221 6.76842806,2.17704367 C6.82393231,2.16588842 6.89191871,2.15861998 6.95764788,2.15347246 C7.00927778,2.14942179 6.96871504,2.13737448 6.94290851,2.13203125 C6.90512519,2.12420756 6.8302155,2.11492744 6.78043854,2.11882791 C6.68074987,2.12663795 6.43585734,2.14649075 6.51443924,2.18554551 Z" id="Fill-32"></path>
                        <path d="M2.85240309,3.63322818 C2.874628,3.64898003 2.89865929,3.6650937 2.9225044,3.65747107 C2.94634952,3.64984843 2.96698442,3.60681429 2.95594493,3.57219079 L2.93610503,3.55377745 C2.90222675,3.55529715 2.86944538,3.58641489 2.85240309,3.63322818 Z" id="Fill-33"></path>
                        <path d="M2.17188765,3.61689329 C2.15489495,3.62430461 2.18045505,3.63051186 2.20483764,3.63341481 C2.36162926,3.65207504 2.54495548,3.66850309 2.71612085,3.65367496 C2.82861371,3.64393249 2.92460112,3.61480405 2.87520658,3.58203593 C2.84337319,3.56093458 2.55344167,3.56151187 2.58687891,3.58368533 C2.60754625,3.59739736 2.58387423,3.61230246 2.54239744,3.6212972 C2.52838912,3.6243321 2.51161975,3.6259705 2.5185833,3.62583855 C2.49137875,3.62633887 2.44634912,3.61871313 2.421662,3.6157717 C2.43264533,3.6212807 2.44362866,3.62678971 2.45461199,3.63229321 C2.5026463,3.61134581 2.58756918,3.5881882 2.68526195,3.58668175 C2.71936915,3.58615944 2.81434147,3.58449354 2.79515617,3.56944549 C2.77773713,3.55579394 2.6560069,3.55325386 2.61670241,3.55385864 C2.43922315,3.55659115 2.26905257,3.57451466 2.17188765,3.61689329 Z" id="Fill-34"></path>
                        <path d="M0.238865569,5.7088352 C0.396399641,5.76335487 0.562590294,5.74394437 0.725607614,5.71569698 C1.02207308,5.66431024 1.31853854,5.61287241 1.61479096,5.5608046 C1.96834276,5.49865695 2.31700562,5.42820024 2.66159808,5.34154257 C2.97691292,5.26224897 3.29029908,5.17848586 3.60411135,5.09583799 C3.63963473,5.08647327 3.52075251,5.01445862 3.47314132,5.02700733 C3.04632255,5.13941797 2.62079329,5.25749851 2.18752694,5.35512141 C1.84182437,5.43301029 1.48870988,5.49066288 1.13735586,5.55158461 C0.974809494,5.57978092 0.812296767,5.6080879 0.649840106,5.6365396 C0.486004223,5.66522117 0.181409197,5.72988878 0.147747208,5.54369271 C0.141120214,5.50704262 -0.00568283756,5.46580382 0.000170446331,5.49818871 C0.0182348915,5.59802508 0.122909997,5.66870314 0.238865569,5.7088352 Z" id="Fill-35"></path>
                        <path d="M4.99678805,5.04987523 C5.06264167,5.04221527 5.07794513,5.02512239 5.01437294,5.00986124 C4.9479041,4.99390462 4.82996229,4.98407989 4.75262466,4.99306222 C4.63204255,5.00705977 4.51146045,5.02105732 4.39087834,5.03506467 C4.32502472,5.04270504 4.30969562,5.05979792 4.37329345,5.07506886 C4.43973665,5.09102548 4.55767846,5.10086001 4.63501609,5.09187768 C4.7555982,5.07787033 4.8761803,5.06386299 4.99678805,5.04987523 Z" id="Fill-36"></path>
                        <path d="M9.84656834,0.42602553 C9.25437672,0.25971952 8.65527918,0.153239764 8.0436965,0.0988777631 C7.41079194,0.0426374248 6.77473647,0.0270862578 6.13990109,0.0111325899 C5.5450087,-0.00382092443 4.92068027,-0.0246046018 4.33535904,0.105317776 C4.09718176,0.158191744 3.84144946,0.255877467 3.70583044,0.478387224 C3.53712696,0.755173604 3.62731853,1.09756761 3.71168211,1.38711205 C3.72601515,1.43632692 3.89314318,1.45692764 3.87876276,1.4075908 C3.80359127,1.14959999 3.72051885,0.852566599 3.83543195,0.59306336 C3.92995897,0.379603772 4.14188664,0.266854761 4.35157552,0.20640646 C4.60549545,0.133187907 4.87867616,0.114843628 5.14082871,0.0994998098 C5.43081817,0.0825215945 5.72145913,0.0820215177 6.01178026,0.0872418311 C7.17131165,0.10809869 8.35895239,0.119454092 9.49148791,0.403619652 C9.7280542,0.462970224 9.97605139,0.519283744 10.1997179,0.620494399 C10.4173196,0.71899732 10.572614,0.880375745 10.6634689,1.1073496 C10.6831324,1.15621076 10.8481401,1.17163996 10.8306088,1.12782835 C10.6563616,0.692724996 10.2576424,0.541482273 9.84656834,0.42602553 Z" id="Fill-38"></path>
                        <path d="M4.31205431,0.714073885 C4.33941669,0.712578283 4.33656589,0.703514174 4.32136749,0.695007343 C4.30244381,0.684419053 4.25953324,0.68093249 4.2338586,0.682332831 C4.02428151,0.693792762 3.81885818,0.718998893 3.62051811,0.757641626 C3.577249,0.766072248 3.68815014,0.793074054 3.7207244,0.786724891 C3.91226978,0.749406289 4.10963044,0.725138481 4.31205431,0.714073885 Z" id="Fill-39"></path>
                        <path d="M4.31253054,0.723701297 C4.37449499,0.71960073 4.27724534,0.680062281 4.24618592,0.682115302 C4.03662012,0.69598825 3.82868775,0.71732872 3.62268135,0.746738932 C3.59605898,0.750543864 3.6203653,0.76692971 3.63085659,0.772382534 C3.65055519,0.78263669 3.6847677,0.790377949 3.70986228,0.786792005 C3.90896117,0.758361769 4.10996978,0.737108894 4.31253054,0.723701297 Z" id="Fill-40"></path>
                    </g>
                    <g id="Group-28" transform="translate(2.453674, 24.394500)" fill="#2D2E2C">
                        <path d="M6.23623592,7.57934708 C6.05990808,8.15976395 5.58925182,8.41725531 4.98922865,8.41022883 C4.35899494,8.40290957 3.83360077,8.04119203 3.80892385,7.38655793 C3.79725839,7.0766607 3.90688376,6.64599578 4.2049511,6.47560354 C4.41986469,6.35278646 4.7079117,6.34429612 4.95991545,6.35117622 C4.95079247,6.57002192 4.9335934,6.78432969 4.91026249,6.99161097 C4.82052821,6.95969902 4.73318686,6.90670762 4.70073296,6.8254639 C4.6521269,6.70396428 4.44962655,6.75680929 4.49883085,6.87991915 C4.56807579,7.0530927 4.72825147,7.15497672 4.90652356,7.20547958 C5.14895565,7.27442695 5.34816574,7.20474765 5.56038729,7.08866428 C5.67793919,7.02425484 5.57250142,6.84712889 5.45465041,6.91168471 C5.34397814,6.97228814 5.23839081,7.02586508 5.11590353,7.02879278 C5.14087957,6.81580248 5.15777952,6.59461462 5.16765029,6.36962074 C5.829291,6.46799152 6.48061226,6.77510743 6.23623592,7.57934708 Z M4.80901232,0.257018737 C5.01151266,0.239891682 5.21670503,0.239159756 5.4198036,0.242672998 C5.49039456,0.243844079 5.5774368,0.26287414 5.64683131,0.249845868 C5.67165779,0.24530793 5.69005332,0.243551309 5.70470991,0.243404924 C5.65236492,0.596485749 5.36835595,1.0612584 5.09735845,1.2565361 C4.59888456,1.61561871 4.05599221,1.57170319 3.51040783,1.40248203 C3.50218219,0.695734837 4.14303446,0.313669765 4.80901232,0.257018737 Z M2.59646427,7.63394872 C2.27745893,8.29560931 1.5165123,8.42120771 0.894653786,8.12477791 C0.302706701,7.84254747 0.0239322272,7.23226805 0.34069421,6.63165004 C0.66433582,6.01785738 1.24641213,6.00907428 1.82340351,6.27622706 C1.70121534,6.45730541 1.57558736,6.63530967 1.44861336,6.81082539 C1.37981709,6.74451294 1.32657475,6.66136622 1.32971545,6.56782615 C1.33405261,6.43593318 1.12467264,6.43607957 1.12018592,6.56782615 C1.11405408,6.75285689 1.23758826,6.91300218 1.38041532,7.02249822 C1.56885729,7.16712668 1.76806737,7.18015496 1.9995818,7.15644057 C2.13223896,7.14297315 2.13373453,6.93774126 1.9995818,6.95150145 C1.86901843,6.9648225 1.73935241,6.97667969 1.61985627,6.9274943 C1.7498214,6.74802619 1.8778423,6.56577675 2.00242338,6.38089239 C2.45573102,6.6625373 2.87374317,7.05865534 2.59646427,7.63394872 Z M5.17423081,6.16541355 C5.19038297,5.38181419 5.10304162,4.56322879 4.84266267,3.86409362 C4.56942181,3.13026519 4.20375465,2.31343641 3.70348608,1.66641434 C4.26537218,1.79376936 4.82800607,1.75541647 5.30987911,1.35622434 C5.58700846,1.12683891 5.94220662,0.5380781 5.92545622,0.165528059 C5.92336242,0.119123987 5.89419879,0.0803319389 5.84858386,0.066718126 C5.44627521,-0.053610414 4.81454593,0.00596831564 4.4138824,0.110194496 C3.80757783,0.267851233 3.33871626,0.695881222 3.30222432,1.30191548 C3.25900231,1.32182385 3.22714665,1.37057008 3.23701742,1.42297594 C3.55931301,3.1321682 2.85923613,4.69922053 1.93766515,6.1030535 C1.93736603,6.1030535 1.93721648,6.10290712 1.93706692,6.10276073 C1.21859451,5.76680696 0.561889192,5.77778584 0.15987965,6.52815579 C-0.211321124,7.22128917 0.0906347032,7.96214408 0.788916901,8.30175748 C1.52055034,8.65747324 2.31051105,8.512552 2.73854353,7.80082772 C3.1516203,7.1139889 2.68395518,6.5741207 2.11489034,6.21020738 C3.00161451,4.8555598 3.67402332,3.35730846 3.49186275,1.72833523 C4.01935072,2.38370125 4.41223727,3.25805937 4.67530825,4.01296725 C4.90203685,4.66335619 4.97831098,5.42002069 4.96485084,6.14857926 C4.1575415,6.14360217 3.58084924,6.51190704 3.59954388,7.38655793 C3.61569605,8.14483267 4.25056603,8.61165471 4.98922865,8.61519318 C5.75570889,8.61882757 6.34301971,8.22431977 6.47851846,7.46150709 C6.63196406,6.59827424 5.90272354,6.27168912 5.17423081,6.16541355 L5.17423081,6.16541355 Z" id="Fill-69"></path>
                    </g>
                </g>
                <g id="Group-49-Copy" transform="translate(36.714311, 17.964507) rotate(-3.000000) translate(-36.714311, -17.964507) translate(31.329799, 12.221028)" fill="#1C1B19">
                    <path d="M2.95697613,11.3370655 C2.34861522,11.3051826 2.06789312,10.9028982 2.06789312,10.7191805 L2.10212788,10.0659424 L3.81238811,10.048899 L3.77815335,10.7021371 C3.77815335,10.8858548 3.56533704,11.3689483 2.95697613,11.3370655 Z M7.73667877,11.3490926 C7.14057931,11.3178523 6.96385291,10.9074282 6.96385291,10.7237105 L6.99133036,10.0701182 L8.59078826,10.0472679 L8.5565535,10.700506 C8.5565535,10.8842237 8.33277823,11.3803328 7.73667877,11.3490926 Z M10.3341366,9.92662598 L0.438879961,9.87210088 C0.291975547,9.87210088 0.257133307,9.55551855 0.257133307,9.39851262 C0.257133307,9.24150669 0.336685171,9.01899043 0.483589585,9.01899043 L10.1754765,9.07324145 C10.3223809,9.07324145 10.5326141,9.21564126 10.5326141,9.37264719 C10.5326141,9.52965312 10.481041,9.92662598 10.3341366,9.92662598 Z M7.99330704,2.18029618 L8.61930863,5.91300725 C8.62840547,5.97612621 8.88698315,6.00871615 9.39504165,6.01077706 C9.50681675,6.07547894 9.98043651,6.4226313 10.1235667,7.12722879 C10.3029875,8.01138884 10.406105,8.88023215 10.3889758,8.88023215 L0.657940517,8.85513747 C0.608294954,8.85513747 0.333082212,8.82439962 0.286630223,8.83567793 C0.300275495,8.46319694 0.415020174,7.75553393 0.596763579,6.85950198 C0.739603444,6.15549808 1.28532686,6.02590081 1.39768261,5.96060534 C1.87530103,5.94841 2.11865866,5.91075286 2.12775551,5.8476339 L2.66533571,2.19554608 L7.99330704,2.18029618 Z M7.12892862,0.29026805 L7.12892862,2.09420385 L6.35056749,2.09420385 L6.35056749,1.04769552 C6.35056749,0.967560168 6.28698633,0.902561494 6.2085986,0.902561494 L4.96397563,0.902561494 L4.96397563,0.29026805 L7.12892862,0.29026805 Z M3.81109534,2.04463865 L6.06662971,2.04463865 L6.06662971,1.19282954 L3.81109534,1.19282954 L3.81109534,2.04463865 Z M1.27017156,5.80268983 C1.24230037,5.81515533 0.581811157,6.12056006 0.375680458,7.13649823 C0.147775389,8.25839315 0.12077517,8.39996561 0.117291271,8.99979355 C0.0435487393,9.10901507 -1.96620125e-13,9.24168359 -1.96620125e-13,9.38503683 C-1.96620125e-13,9.75544023 0.289453954,10.0569866 0.645101991,10.0569866 L1.93124143,10.0569866 L1.93124143,10.7120189 C1.93124143,11.1468274 2.37834182,11.4869574 2.94912063,11.4869574 C3.51960911,11.4869574 3.9667095,11.1468274 3.9667095,10.7120189 L3.9667095,10.0569866 L6.74076419,10.0569866 L6.74076419,10.7120189 C6.74076419,11.1468274 7.18757426,11.4869574 7.75835307,11.4869574 C8.32913188,11.4869574 8.77623227,11.1468274 8.77623227,10.7120189 L8.77623227,10.0569866 L10.1239206,10.0569866 C10.4795686,10.0569866 10.7690226,9.75544023 10.7690226,9.38503683 C10.7690226,9.18855682 10.6871509,9.01225905 10.5579564,8.88908805 C10.5509886,8.37770579 10.5132463,8.18597454 10.3004381,7.13649823 C10.0943074,6.12056006 9.43381823,5.81515533 9.40594704,5.80268983 C9.38214039,5.79200512 9.35630148,5.78666276 9.33017223,5.78666276 L8.71178013,5.78666276 L8.64877962,5.35066709 L8.95855632,5.35066709 C9.08920254,5.35066709 9.19517114,5.24233597 9.19517114,5.10877705 C9.19517114,4.97521813 9.08920254,4.866887 8.95855632,4.866887 L8.57823067,4.866887 L8.18919526,2.1862111 C8.17525967,2.09153267 8.09542031,2.02119164 8.00164536,2.02119164 L7.41315673,2.02119164 L7.41315673,0.145430823 C7.41315673,0.0649986739 7.34957557,3.70452175e-13 7.27089751,3.70452175e-13 L4.82200674,3.70452175e-13 C4.74332868,3.70452175e-13 4.68003785,0.0649986739 4.68003785,0.145430823 L4.68003785,0.902561494 L3.66912645,0.902561494 C3.59073872,0.902561494 3.52715756,0.967560168 3.52715756,1.04769552 L3.52715756,2.02119164 L2.67447324,2.02119164 C2.58069829,2.02119164 2.50114926,2.09153267 2.48721366,2.1862111 L2.09092014,4.91526501 L1.64643267,4.91526501 C1.5419157,4.91526501 1.45714082,5.00192991 1.45714082,5.10877705 C1.45714082,5.21562418 1.5419157,5.30228908 1.64643267,5.30228908 L2.0345971,5.30228908 L1.96433847,5.78666276 L1.34594637,5.78666276 C1.31981713,5.78666276 1.29426853,5.79200512 1.27017156,5.80268983 Z" id="Fill-58"></path>
                    <path d="M5.22122692,3.23970124 L5.22122692,3.59468288 L4.70053111,3.59468288 C4.64892029,3.59468288 4.60705819,3.63559888 4.60705819,3.68667335 L4.60705819,4.06225408 C4.60705819,4.11332854 4.64892029,4.15452673 4.70053111,4.15452673 L6.19638466,4.15452673 C6.2482822,4.15452673 6.29014431,4.11332854 6.29014431,4.06225408 L6.29014431,3.68667335 C6.29014431,3.63559888 6.2482822,3.59468288 6.19638466,3.59468288 L5.68744464,3.59468288 L5.68744464,3.23970124 L7.48452517,3.08898913 L7.72271843,5.50655891 L3.07147453,5.50036806 L3.34448882,3.03438542 L5.22122692,3.23970124 Z M5.40788605,3.59468288 L5.50049879,3.59468288 L5.50049879,3.29529057 L5.40788605,3.29529057 L5.40788605,3.59468288 Z M5.31469985,3.77866382 L6.10291173,3.77866382 L6.10291173,3.97026361 L4.79400404,3.97026361 L4.79400404,3.77866382 L5.31469985,3.77866382 Z M7.71030199,5.74347871 C7.76334644,5.74347871 7.81409708,5.72118654 7.84965119,5.68224579 C7.88491859,5.64302286 7.90212219,5.59110185 7.89610093,5.53918085 L7.61568215,3.03568556 C7.60507326,2.94228419 7.52507649,2.87173935 7.42988321,2.87173935 L3.33915242,2.87173935 C3.24395914,2.87173935 3.16367564,2.94228419 3.15306675,3.03568556 L2.8729347,5.53918085 C2.86691344,5.59110185 2.88383032,5.64302286 2.91938443,5.68224579 C2.95493855,5.72118654 3.00540246,5.74347871 3.05873364,5.74347871 L7.71030199,5.74347871 Z" id="Fill-59"></path>
                    <path d="M2.58335962,8.3743525 C1.99694642,8.34361989 1.61511337,7.90580332 1.61511337,7.54770957 C1.61511337,7.18961582 1.91447413,6.60048716 2.50402793,6.63138436 C3.09358173,6.66228157 3.47884689,7.17441384 3.47884689,7.53250759 C3.47884689,7.89060135 3.16977281,8.40508511 2.58335962,8.3743525 Z M1.43586968,7.53831581 C1.43586968,8.13229931 1.91904255,8.61521806 2.51293572,8.61521806 C3.10650132,8.61521806 3.58967419,8.13229931 3.58967419,7.53831581 C3.58967419,6.94465992 3.10650132,6.46141355 2.51293572,6.46141355 C1.91904255,6.46141355 1.43586968,6.94465992 1.43586968,7.53831581 Z" id="Fill-61"></path>
                    <path d="M8.33773406,8.31684788 C7.75132086,8.28611526 7.36948781,7.8482987 7.36948781,7.49020495 C7.36948781,7.1321112 7.66884857,6.54298253 8.25840237,6.57387974 C8.84795617,6.60477695 9.23322133,7.11690922 9.23322133,7.47500297 C9.23322133,7.83309673 8.92414725,8.34758049 8.33773406,8.31684788 Z M7.19024412,7.48081118 C7.19024412,8.07479469 7.67341699,8.55771344 8.26731016,8.55771344 C8.86087575,8.55771344 9.34404863,8.07479469 9.34404863,7.48081118 C9.34404863,6.8871553 8.86087575,6.40390893 8.26731016,6.40390893 C7.67341699,6.40390893 7.19024412,6.8871553 7.19024412,7.48081118 Z" id="Fill-61-Copy"></path>
                </g>
                <path d="M32.0079403,10.5913937 C32.7995237,10.2371132 33.1997754,10.036635 33.2086955,9.98995931 C33.2446422,9.8024229 33.2322094,9.58768926 33.2621649,9.36514605 C33.336255,8.81253877 33.3651897,8.22195794 33.6020383,7.56683075 C33.637985,7.46931182 33.3437534,7.35216205 33.2670672,7.30215234 L31.5030883,5.93518596 L32.1581878,5.9044774 C32.1783579,5.92698177 32.2001256,5.94698565 32.2244894,5.96448905 C32.2736166,5.99449488 32.3271372,6.01199828 32.3810572,6.01199828 C32.4156059,6.01199828 32.4501546,6.00449682 32.4841043,5.99199439 C32.5318335,5.97199051 32.5739709,5.94198468 32.6099176,5.89947643 L33.2182151,5.89197497 C33.2493689,5.96698954 33.2982963,6.03200216 33.3632,6.07451041 C33.4123271,6.10701672 33.4658477,6.12452012 33.519568,6.12452012 C33.5543165,6.12452012 33.5888652,6.11701867 33.6226151,6.10201575 C33.7094862,6.06950944 33.6939244,6.13951981 33.7356624,6.03950039 L33.8261132,5.88447352 L34.2480871,5.87947255 C34.3069997,5.87697206 34.3683121,5.84358576 34.3892777,5.77195167 C34.9307122,3.92200813 35.7073372,3.1213848 35.9186237,3.1033813 C36.0062936,3.30642072 36.2077693,4.55293384 35.3512655,6.55710088 C35.3239882,6.62092807 35.3296975,6.69962855 35.363048,6.76214069 L35.5661466,7.13221254 L35.5485727,7.17472079 C35.5066349,7.27474021 35.4986468,7.38976254 35.5260062,7.4997839 C35.5533656,7.60730478 35.613077,7.69732225 35.6937573,7.74983245 C35.7438829,7.78233876 35.7974035,7.79734167 35.8501253,7.79734167 C35.8754877,7.79734167 35.9006504,7.7923407 35.9250142,7.78483924 L36.2479351,8.37495381 C36.2335564,8.44996838 36.234555,8.52748342 36.2533271,8.60249799 C36.2808862,8.71001886 36.3403979,8.80003634 36.4210782,8.85254653 C36.4570249,8.8750509 36.495368,8.89005382 36.5343102,8.89755527 L36.9056816,9.94470359 L34.9479902,8.48829581 C34.8711043,8.4382861 34.7314696,8.37300842 34.6877345,8.46552638 C34.3506346,9.18316571 33.963015,9.91415729 33.6353012,10.3592437 C33.5879048,10.4242563 33.6819765,10.9689501 33.9175161,11.9933252 C33.7321595,11.7365235 33.4238831,11.3186346 33.1145025,11.0665899 C32.7109702,10.737842 32.1941154,10.6593308 32.0079403,10.5913937 Z M34.8271886,8.61031097 L36.8634061,10.1257027 C36.9219211,10.1685673 36.9936549,10.1483957 37.0373649,10.0777951 C37.0808987,10.0071945 37.085305,9.90381504 37.0481162,9.82565007 L36.5722409,8.83472006 C36.5844022,8.812027 36.5951534,8.78933395 36.6043184,8.76411944 L36.705486,8.4867599 C36.7424985,8.38338043 36.7495485,8.26739371 36.7254023,8.15897134 C36.7010797,8.04802752 36.6485572,7.95977676 36.5773522,7.9068263 C36.5061471,7.85387584 36.4247196,7.84379004 36.348227,7.87656889 C36.2837195,7.9068263 36.2301395,7.96734111 36.1925982,8.04550607 L35.9803931,7.6017308 L36.0635831,7.37480026 C36.1005956,7.27142079 36.1078219,7.15543407 36.0834994,7.0470117 C36.0593531,6.93606789 36.0066543,6.84781712 35.9354493,6.79486666 C35.8642443,6.7419162 35.7828167,6.7318304 35.7063242,6.76713071 C35.6717791,6.78225941 35.6405829,6.80747391 35.6129116,6.83773132 L35.5498141,6.7066159 C36.1007719,5.07523747 36.4608509,3.22701431 36.0575906,2.92721385 C35.6527441,2.62690911 34.7402973,4.09414111 34.1183107,5.68542847 L33.9609194,5.68794992 C33.9663831,5.62743511 33.9635631,5.56439885 33.9501681,5.50388404 C33.9260218,5.39546167 33.8733231,5.30468946 33.8022943,5.251739 C33.730913,5.19878854 33.6496617,5.18870274 33.5729929,5.22400305 C33.4965003,5.25930335 33.4339316,5.33242541 33.396919,5.43580488 L33.301744,5.69803573 L32.9298563,5.70307863 C32.9978888,5.49631969 32.9406075,5.2466961 32.7973162,5.14079518 C32.7261111,5.08784472 32.6446836,5.07775892 32.568191,5.11053778 C32.4916985,5.14583808 32.4291297,5.2214816 32.3921172,5.32233961 L32.2909496,5.60222061 C32.2779071,5.63752092 32.2699759,5.67534267 32.2645121,5.71316443 L31.4720916,5.72577168 C31.4061741,5.72577168 31.3490691,5.79132939 31.3337353,5.88210161 C31.3184015,5.97539527 31.3488928,6.06868894 31.4074078,6.11407505 L33.4441541,7.6269453 C33.2599727,8.27243661 33.1871814,8.89019197 33.1277851,9.3970035 C33.1075164,9.57098358 33.0881288,9.73487786 33.0662738,9.88616488 L31.9996082,10.3677619 C31.9305182,10.3980193 31.8885706,10.4988773 31.9014369,10.5997354 C31.9144794,10.7031148 31.9786344,10.7737154 32.0503682,10.7686725 C32.0604145,10.7686725 33.0712088,10.7106792 33.8858368,12.1453845 C33.9138606,12.1958135 33.9552794,12.221028 33.9974031,12.221028 C34.0206682,12.221028 34.0439332,12.2134636 34.0654357,12.1983349 C34.126242,12.1504274 34.1553232,12.0495693 34.1343495,11.9537542 L33.7980643,10.4333196 C33.835253,10.3728048 33.8745568,10.31229 33.9157993,10.2467323 C34.1773545,9.84077878 34.5282685,9.29362403 34.8271886,8.61031097 L34.8271886,8.61031097 Z" id="Fill-45-Copy" fill="#1C1B19" transform="translate(34.201539, 7.554452) rotate(-95.000000) translate(-34.201539, -7.554452) "></path>
                <g id="Fill-4" transform="translate(25.227353, 15.810702) scale(-1, 1) rotate(-17.000000) translate(-25.227353, -15.810702) translate(21.996646, 10.067223)" fill="#1C1B19">
                    <path d="M5.82905958,9.16545978 L4.80674291,11.2229481 L1.1147149,11.2425883 L0.263599049,9.11999515 L5.82905958,9.16545978 Z M2.15380452,7.89728322 L2.69225564,7.89728322 L2.69225564,1.43586968 L2.15380452,1.43586968 L2.15380452,7.89728322 Z M3.04625208,0.665585315 C4.32950449,1.56992237 5.46689031,3.72024339 5.82978538,5.26928731 C5.92038538,5.65620649 6.26173246,7.90198605 6.28623902,8.14158882 L2.93061312,8.04146367 L3.04625208,0.665585315 Z M1.09288086,11.4869574 L4.83943287,11.4869574 C4.90864669,11.4869574 4.97348641,11.4402239 5.01259608,11.3622176 L6.00268825,9.38500338 C6.04668663,9.29750981 6.05157534,9.18366275 6.01529597,9.08949296 C5.97875931,8.99567455 5.90748708,8.93699413 5.82952504,8.93699413 L2.40742892,8.93699413 L2.40742892,8.36986711 L6.2514978,8.36986711 C6.3104196,8.36986711 6.3662538,8.33613465 6.40613537,8.27710284 C6.44575964,8.21807103 6.46557178,8.13901057 6.46068307,8.05924736 C6.45708086,7.99845865 6.3641954,6.55534176 5.90954548,4.89296387 C5.30900621,2.69894833 4.3528777,1.17571685 3.14253633,0.478227923 C3.10780077,0.443792702 3.06560349,0.423061293 3.01954671,0.423061293 L2.40742892,0.423061293 L2.40742892,0.286725926 C2.40742892,0.128253631 2.31351425,7.53876051e-13 2.19747174,7.53876051e-13 C2.08168653,7.53876051e-13 1.98777186,0.128253631 1.98777186,0.286725926 L1.98777186,8.93699413 L0.209568381,8.93699413 C0.133922046,8.93699413 0.0639363207,8.99251214 0.0268850544,9.08316813 C-0.0101662119,9.17347274 -0.00887970959,9.28415738 0.0304872609,9.37270509 L0.913799742,11.3495679 C0.95188021,11.4349532 1.01955023,11.4869574 1.09288086,11.4869574 Z" id="Fill-2"></path>
                </g>
            </g>
        </g>
    </g>
</svg>