<?xml version="1.0" encoding="UTF-8"?>
<svg width="126px" height="131px" viewBox="0 0 126 131" version="1.1" xmlns="http://www.w3.org/2000/svg" xmlns:xlink="http://www.w3.org/1999/xlink">
    <title>VerticalEle Copy</title>
    <g id="Page-1" stroke="none" stroke-width="1" fill="none" fill-rule="evenodd">
        <g id="NEW-PROTOTYPE" transform="translate(-3387.000000, -644.000000)">
            <g id="Group-39" transform="translate(3292.000000, 645.000000)">
                <g id="VerticalEle-Copy" transform="translate(158.000892, 64.258859) scale(-1, -1) rotate(23.000000) translate(-158.000892, -64.258859) translate(112.513439, 13.758859)">
                    <path d="M82.1098936,35.1398831 C76.4290966,35.4280781 53.2740688,39.6028558 52.2344195,40.0884085 C51.1947702,40.5739613 51.3690381,43.4788354 52.2344195,48.7935389 C55.3861987,69.1949316 50.8548229,83.242312 49.6537517,87.4348391 C47.3628711,95.4315166 39.730077,98.6714454 42.4539897,89.3033125 C45.1779023,79.9351795 45.3897784,62.6431081 42.6987894,61.7262214 C40.0078004,60.8093346 38.530428,63.4955858 34.9108245,66.0963332 C33.140484,67.3683533 16.2363678,80.8999046 13.6955467,81.4864994 C11.1547255,82.0730942 6.28097396,83.2924253 7.28155352,77.8242629 C7.92794703,74.2917255 26.1792046,63.1679787 30.2672265,57.1457897 C30.3075725,53.0892808 30.3075725,53.0892808 32.7660979,40.0884085 C29.6360486,39.8150238 23.8043377,37.6056056 20.2008092,33.4307969 C14.481911,26.8052613 15.6363312,22.66713 16.1728218,22.0919559 C17.1912642,21.4305717 18.6893564,20.4576993 20.6670983,19.1733387 C23.5425641,21.4709352 21.7219235,25.2697845 26.1900307,28.3224254 C29.0007596,30.2427342 33.7944558,30.0547772 35.3440902,29.934695 C36.6342334,29.834721 33.3670848,28.4733215 32.0586989,25.8172064 C27.2048731,15.9636003 31.4262164,5.98121024 43.7637369,5.98121024 C57.1286495,5.98121024 59.7658999,15.4924658 55.6477399,25.8172064 C54.4547944,28.8080697 50.3791851,30.3266892 51.1947702,30.7802886 C55.5989877,30.7802886 82.2748669,27.1098668 82.9334491,29.9566631 C83.6213828,31.7975923 83.9119858,33.0537569 83.8052581,33.7251571 C83.7288881,34.2055836 83.1637666,34.6771589 82.1098936,35.1398831 Z" id="Ele" stroke="#2D2E2C" fill="#FFFFFF" stroke-linejoin="round" transform="translate(45.487453, 50.500000) rotate(10.000000) translate(-45.487453, -50.500000) "></path>
                    <g id="1" transform="translate(44.031392, 12.825667)" fill="#2D2E2C">
                        <path d="M2.4676753,2.26200434 C2.4676753,3.26717717 1.91526774,4.08196024 1.23375077,4.08196024 C0.552407562,4.08196024 -1.57550289e-13,3.26717717 -1.57550289e-13,2.26200434 C-1.57550289e-13,1.25683151 0.552407562,0.442048442 1.23375077,0.442048442 C1.91526774,0.442048442 2.4676753,1.25683151 2.4676753,2.26200434" id="Fill-7"></path>
                        <path d="M13,1.8199559 C13,2.82512873 12.4475535,3.6399118 11.7659886,3.6399118 C11.0845974,3.6399118 10.5323247,2.82512873 10.5323247,1.8199559 C10.5323247,0.814783063 11.0845974,3.48582715e-13 11.7659886,3.48582715e-13 C12.4475535,3.48582715e-13 13,0.814783063 13,1.8199559" id="Fill-8"></path>
                        <path d="M10.2681719,6.14678427 C11.2384799,6.14678427 11.8676405,7.20739589 11.4356209,8.11021762 C10.6209425,9.81234085 8.7798026,11 6.6388755,11 C4.4982503,11 2.65680846,9.81234085 1.84243197,8.11021762 C1.41026147,7.20739589 2.03942202,6.14678427 3.0097301,6.14678427 L10.2681719,6.14678427" id="Fill-9"></path>
                    </g>
                </g>
            </g>
        </g>
    </g>
</svg>