<?xml version="1.0" encoding="UTF-8"?>
<svg width="253px" height="157px" viewBox="0 0 253 157" version="1.1" xmlns="http://www.w3.org/2000/svg" xmlns:xlink="http://www.w3.org/1999/xlink">
    <title>gatherpeople</title>
    <g id="Page-1" stroke="none" stroke-width="1" fill="none" fill-rule="evenodd">
        <g id="gatherpeople" transform="translate(2.000000, 1.000000)">
            <g id="Marty-Copy-3" fill="#FFFFFF" stroke="#2D2E2C" stroke-width="2">
                <path d="M111.384154,66.5161775 C111.91787,72.8015197 108.960879,116.19424 108.960879,121.417744 C108.960879,126.641249 107.860599,126.471944 105.038066,126.548701 C103.121329,126.600825 102.426941,124.829659 101.860648,119.16885 C100.577939,106.346558 103.72665,93.0234425 99.2729353,93.0234425 C94.8192208,93.0234425 94.3530843,122.089433 94.3530843,129.001517 C94.3530843,133.001167 94.0097355,136.603653 91.5842642,136.736267 C89.8181038,136.832832 87.4065695,136.389453 86.8772533,126.548701 C86.6244693,121.849082 85.7651704,115.932467 86.006882,110.424271 C86.3573358,102.43802 87.1428899,78.7876656 86.8772533,69.3371507 C86.7191119,63.710975 84.8109723,72.8849795 86.006882,66.5161775 C85.12051,68.1617906 84.3890842,71.288437 84.3890842,77.1890689 C84.3890842,86.8167082 83.4794199,97.782454 81.6631275,97.782454 C76.4464292,97.782454 76.9893163,80.46435 78.62952,65.6399046 C80.1128752,53.1870142 88.6658615,53.2417566 89.3673365,53.1870142 C91.0490591,53.0557745 86.7902781,51.268614 85.0847759,47.7818314 C78.7577356,34.8466305 84.2603248,21.7423699 100.342482,21.7423699 C117.763862,21.7423699 121.20156,34.2281544 115.833472,47.7818314 C114.278448,51.7080507 108.965826,53.7015998 110.028954,54.2970568 C111.937969,54.2970568 117.15899,59.5285409 119.246101,65.6399046 C120.658073,69.7743634 126.658447,51.5455528 128.728713,54.2970568 C132.801109,59.7095073 123.471723,75.2487452 119.246101,75.2487452 C118.04196,75.2487452 112.301456,68.8555854 111.384154,66.5161775 Z" id="Ele" stroke-linejoin="round"></path>
                <g id="Group-19" transform="translate(41.082333, 15.742370)" stroke-linejoin="round">
                    <path d="M33.2454234,64.5017669 C32.5774752,81.6044988 30.8001154,108.806966 31.7790608,111.245618 C33.2454234,114.898475 38.4853549,116.199645 34.8537574,118.591862 C31.1926272,121.003534 24.3543448,115.999196 23.1600011,110.188761 C20.206901,95.8220452 21.9557335,80.9412921 21.9557335,80.9412921 C21.9557335,80.9412921 18.1057742,103.492301 18.1057742,111.245618 C18.1057742,115.732044 25.2961418,121.003534 21.4261866,123.250874 C19.6874754,124.26057 8.69532113,122.284035 8.16704894,111.245618 C7.92716972,106.233264 8.16704894,104.006518 8.16704894,90.0528547 C8.16704894,80.5917294 9.50510511,58.1813165 8.16704894,49.2400694 C7.53168383,44.9943908 6.13139576,35.3330089 6.83148726,35.2716042 C8.50989294,35.124392 4.25951157,33.1197257 2.55737315,29.2085854 C-3.75718831,14.6991102 1.73454814,0 17.7849865,0 C35.1720057,0 38.602924,14.0053627 33.2454234,29.2085854 C31.6934666,33.6126439 26.3913223,35.8488172 27.4523538,36.5167441 C29.3576035,36.5167441 33.5141591,57.6208246 33.2454234,64.5017669 Z" id="Ele"></path>
                    <path d="M6.83148726,35.2716042 C4.22668928,35.6154501 2.92429029,38.4766865 2.92429029,43.8553133 C2.92429029,48.1049404 2.92429029,80.9412921 6.83148726,80.9412921 C10.2883102,80.9412921 10.3514119,68.5744229 11.0736057,56.0020127 C11.2997849,52.0645408 12.5703917,50.9932742 12.7705147,46.5646559" id="Path" stroke-linecap="round"></path>
                </g>
                <g id="Group-22" transform="translate(170.522794, 11.000000)" stroke-linecap="round" stroke-linejoin="round">
                    <path d="M47.0146724,44.5840027 C47.2189207,51.7431005 46.7879153,69.0147229 47.0146724,69.9062091 C48.7913599,76.8911848 52.9571322,85.0260216 54.1276351,94.5172895 C54.2849698,96.5762608 54.6478045,99.4730448 54.1276351,101.045039 C52.4692209,106.056899 47.6831991,107.620137 47.1276351,108.682373 C46.4114405,110.051734 49.9154575,113.735512 49.9154575,116.74452 C49.9154575,121.026256 40.3626756,113.835021 39.1683319,107.848169 C38.7913563,105.958514 44.5753069,102.269966 47.0146724,97.5392436 C47.0146724,91.1995574 39.1683319,81.9294851 39.1683319,81.9294851 C39.1683319,81.9294851 37.3473051,102.271607 37.3473051,110.260331 C37.3473051,114.882975 44.7020743,117.528698 42.3205069,120.108579 C40.7396106,121.821117 28.7395061,121.633898 28.2112339,110.260331 C28.086915,107.583776 29.4694437,87.1892977 26.1276351,80.8491288 C22.7858265,74.5089599 21.1211107,56.6347298 22.6619228,47.1322954 C21.7772991,49.0342325 8.51527255,41.3486885 8.51527255,39.651504 C8.51527255,30.0954217 25.6937143,36.4057959 26.3938058,36.3425268 C28.0722115,36.1908449 23.8218301,34.1253126 22.1196917,30.0954217 C15.8051302,15.1454072 21.2968667,0 37.3473051,0 C54.7343243,0 58.1652426,14.4305959 52.807742,30.0954217 C51.2557852,34.6331969 45.9536408,36.9372653 47.0146724,37.625472" id="Path" transform="translate(31.821454, 60.448743) scale(-1, 1) translate(-31.821454, -60.448743) "></path>
                    <path d="M16.5152725,37.4281352 C4.16975077,42.9808964 0.555293407,47.7530259 0,51.7445236 C0,54.9717863 4.96153221,61.0048074 16.5152725,68.7073975 L16.5152725,60.2237483 C9.7441048,56.7080831 5.51527255,53.7318455 5.51527255,51.7445236 C6.84860588,49.9572174 10.2341898,48.5371981 15.6720242,47.4844658" id="Path"></path>
                </g>
                <g id="Group-21" transform="translate(0.000000, 3.000000)" stroke-linecap="round">
                    <path d="M17.9454082,40.1637846 C16.4433742,38.5402524 15.5246597,37.1607407 13.7292202,32.2423699 C7.0685322,13.9962892 8.59165165,0 25.5218792,0 C43.861951,0 47.2421774,14.6121447 41.5910107,33.7306327 C39.9539848,39.2688623 34.3612086,42.0809143 35.4803995,42.9208516 C37.4900836,42.9208516 41.8744768,69.4598372 41.5910107,78.1128192 C40.8864495,99.6199944 37.1810211,124.528187 40.0442707,129.990257 C42.3711209,134.429066 53.5448176,134.494433 47.7300364,137.796239 C46.2228893,138.652043 37.3810271,139.184823 33.8487416,135.296224 C32.772541,134.111464 33.0126633,131.977996 33.0126633,129.990257 C33.0126633,118.848821 33.8487416,88.5225868 32.8824202,88.5225868 C32.8824202,88.5225868 33.0126633,128.726303 33.0126633,134.576195 C33.0126633,140.218004 45.0380664,140.350072 40.0442707,145.723247 C38.3396346,147.557384 20.4200462,146.655257 19.8628172,132.774132 C19.6097893,126.470954 17.0180954,100.086848 16.2544914,95.1991427 C14.434749,83.5512668 18.8553804,75.1821731 16.4386741,59.0948831" id="Path" stroke-linejoin="round"></path>
                    <path d="M16.4386741,59.0948831 C15.7606126,59.5726874 11.1674898,57.375942 10.404941,57.0961215 C5.5473877,55.3136217 3.31182407,52.7847078 2.04309629,48.0139741 C0.802292019,43.3482397 -0.870949793,35.7258278 0.533766862,25.2423699 C1.01587753,21.6443583 0.421164014,12.6475483 7.97340511,13.7423699 C7.99196077,13.7450598 10.1453624,14.4077867 10.404941,15.7423699 C10.5890819,16.689102 10.1261256,19.9300744 9.36790769,24.2423699 C8.70589395,28.0075131 8.27117537,36.6961392 10.404941,40.1637846 C13.3955127,45.023851 14.2569794,38.7500544 17.9454082,40.1637846" id="Path"></path>
                </g>
                <path d="M239.143993,81.1128192 C238.439432,102.619994 242.124887,132.645614 242.124887,137.899833 C242.125336,140.672272 249.698492,142.70628 249.550727,144.155831 C249.305784,146.558667 241.066906,147.376519 239.21358,147.444051 C237.195766,147.517576 234.293192,143.877595 233.033382,136.570806 C229.91841,118.504249 229.130329,99.7824309 229.130329,99.7824309 C229.130329,99.7824309 233.033382,131.372198 233.033382,141.122216 C233.033382,146.764025 243.52299,149.971111 241.121519,152.426784 C238.625521,154.97912 228.171481,154.809541 222.836107,148.802417 C220.679242,146.373991 221.885585,145.118313 221.72517,141.122216 C221.573083,137.333586 217.68664,104.847416 213.76218,98.4451052 C211.15748,94.195833 204.370815,87.2307708 207.744539,63.1568468 C207.744539,58.9634449 210.543736,44.4322706 211.282202,44.3550524 C213.052608,44.1699289 208.569246,41.6490036 206.773807,36.7306327 C200.113119,18.4845521 205.90588,0 222.836107,0 C241.176179,0 244.79516,17.6121447 239.143993,36.7306327 C237.506967,42.2688623 231.914191,45.0809143 233.033382,45.9208516 C235.043066,45.9208516 239.427459,72.4598372 239.143993,81.1128192 Z" id="Ele-Copy-3" stroke-linejoin="round" transform="translate(226.814558, 76.993286) scale(-1, 1) translate(-226.814558, -76.993286) "></path>
                <path d="M241.858286,44.3550524 C235.894491,47.9295721 233.525163,50.3585835 234.750302,51.6420868 C235.843721,52.787595 239.531606,52.787595 245.813958,51.6420868 C246.64484,49.3156577 246.64484,47.7172108 245.813958,46.8467461 C244.983076,45.9762814 243.664518,45.1457168 241.858286,44.3550524 Z" id="Path-139" stroke-linecap="round" stroke-linejoin="round"></path>
            </g>
            <g id="18" transform="translate(60.038066, 28.742370)" fill="#2D2E2C">
                <path d="M5.60864406,0.152410788 C5.72701103,0.12812737 5.87169972,0.113525576 5.94791965,0.205580364 C5.98554517,0.251131612 5.99571859,0.312871806 5.99878676,0.371437696 C6.02074844,0.795365864 5.74170598,1.18739229 5.3929029,1.43752736 C4.76473439,1.88764353 3.94375529,1.96493781 3.16686102,1.99160196 C2.29210811,2.02159912 1.3635814,1.99318911 0.624474131,1.53196288 C0.322339612,1.343568 0.0505638792,1.06089631 0.00567163096,0.71172298 C-0.051816284,0.263193963 0.336388625,-0.0991527261 0.776913996,0.0244863764 C1.18950282,0.140665867 1.5260332,0.405244023 1.95977629,0.503329987 C3.18559304,0.78076407 4.41302462,0.398736702 5.60864406,0.152410788" id="Fill-136" transform="translate(3.000000, 1.000000) scale(1, -1) translate(-3.000000, -1.000000) "></path>
                <path d="M12.0520628,0.193233827 C12.0142765,0.238785076 12.0042648,0.300525269 12.0011966,0.35909116 C11.9793969,0.783019328 12.2582724,1.17504575 12.6070687,1.42518083 C13.235225,1.875297 14.0561881,1.95259128 14.8329058,1.97925542 C15.7078031,2.00925258 16.4168223,1.88640706 17.1559152,1.42518083 C17.4580438,1.23678594 17.663646,-0.111499262 17.2229677,0.0121398402 C16.8103869,0.128319331 16.4740246,0.392897487 16.0402899,0.49098345 C14.8144971,0.768417534 13.5870894,0.386390166 12.3913317,0.140064252 C12.2731286,0.115780834 12.1281197,0.10117904 12.0520628,0.193233827 Z" id="Fill-137" transform="translate(14.738495, 0.993827) scale(1, -1) translate(-14.738495, -0.993827) "></path>
                <path d="M6.19712385,8.18082775 C8.23239173,8.39258587 10.2554748,8.41796273 12.2989341,8.06108739 C12.8265659,7.96896301 13.231121,8.39525151 12.8501163,8.89500493 C12.6603818,9.1438687 12.3416321,9.34027276 12.0705975,9.48155146 C11.2410085,9.91327786 10.3032924,9.99090117 9.39004824,9.99612582 C8.41403711,10.0015637 7.43003931,10.0229954 6.46375551,9.85495374 C5.7593933,9.73233449 4.0544456,9.31766816 4.00058682,8.34289842 C3.97447658,7.86884172 4.82710402,8.01353244 5.07550971,8.04679958 C5.44996132,8.09691353 5.82379857,8.14201609 6.19712385,8.18082775" id="Fill-138"></path>
            </g>
            <g id="Group-17" transform="translate(178.678318, 27.742370)" fill="#2D2E2C">
                <path d="M10.9783349,6 C11.9604902,6 12.6263629,6.89165147 12.2558525,7.70580553 C11.3813268,9.6273471 9.07155514,11 6.35974829,11 C3.64795464,11 1.33818294,9.6273471 0.463657295,7.70580553 C0.0931469019,6.89165147 0.758881958,6 1.74103729,6 L10.9783349,6" id="Fill-63"></path>
                <path d="M0.0283721987,0.084956013 C0.627483748,-0.0322900305 1.23659747,-0.0239446844 1.56820021,0.0839263233 C1.99726627,0.22356401 2.42818776,0.466648882 2.7705129,0.768503285 C2.90255701,0.884921402 3.75203051,1.98504859 3.14113321,1.99994114 C3.05068144,2.0020229 2.96857907,1.94853782 2.89467148,1.8944122 C2.3369629,1.48622818 2.03978633,0.881558568 1.3362726,0.707171594 C0.89115511,0.596908699 0.421355623,0.636346844 0,0.805584892" id="Fill-64"></path>
                <path d="M13.3248198,1.65052665 C13.3334786,1.6287483 13.3399726,1.60616927 13.3438382,1.58278957 C13.5864377,0.172480957 10.9871128,-0.187982842 10.1513891,0.0839263233 C9.72216267,0.22356401 9.29139002,0.466648882 8.94890566,0.768503285 C8.81701439,0.884921402 7.96737486,1.98504859 8.57843499,1.99994114 C8.66888797,2.0020229 8.75083682,1.94853782 8.82459079,1.8944122 C9.3826161,1.48622818 9.67979666,0.881558568 10.3831652,0.707171594 C11.1550307,0.51597045 12.0009593,0.774908683 12.5402755,1.38021884 C12.7105127,1.57158012 13.1405122,2.11523831 13.3248198,1.65052665" id="Fill-65"></path>
            </g>
            <g id="Group-24" transform="translate(101.038066, 31.742370)" fill="#2D2E2C">
                <path d="M3,2.5 C3,3.88076537 2.32842758,5 1.49989437,5 C0.671572424,5 0,3.88076537 0,2.5 C0,1.11923463 0.671572424,0 1.49989437,0 C2.32842758,0 3,1.11923463 3,2.5" id="Fill-7"></path>
                <path d="M14,2.5 C14,3.88076537 13.3283803,5 12.4997887,5 C11.6714085,5 11,3.88076537 11,2.5 C11,1.11923463 11.6714085,0 12.4997887,0 C13.3283803,0 14,1.11923463 14,2.5" id="Fill-8"></path>
                <path d="M10.5443971,7 C11.6257174,7 12.3268597,8.09268955 11.8454131,9.02281688 C10.937528,10.7764204 8.88574478,12 6.49987597,12 C4.11434361,12 2.06222392,10.7764204 1.15467529,9.02281688 C0.673060513,8.09268955 1.37420281,7 2.45552303,7 L10.5443971,7" id="Fill-9"></path>
            </g>
            <path d="M232.129976,57.6154725 C231.869496,79.2278435 232.206482,96.0357375 233.994582,96.0694511 C239.140715,96.1664785 239.008753,83.605667 239.847872,65.0363999" id="Path" stroke="#2D2E2C" stroke-width="2" fill="#FFFFFF" stroke-linecap="round" stroke-linejoin="round" transform="translate(235.949964, 76.842741) rotate(8.000000) translate(-235.949964, -76.842741) "></path>
            <g id="Group-8-Copy-4" transform="translate(212.038066, 16.742370)">
                <path d="M0,5.38594821 C0.818777818,6.20468393 1.81877782,6.61405179 3,6.61405179 C3.69114547,6.61405179 4.32024875,6.47390296 4.88730985,6.19360529 C5.15537058,6.06110317 5.52626729,5.79188414 6,5.38594821" id="Line-4" stroke="#2D2E2C" stroke-width="1.5" stroke-linecap="round" stroke-linejoin="round"></path>
                <path d="M7.49991843,0 C8.32851161,0 9,0.67148839 9,1.50008157 C9,2.32834847 8.32851161,3 7.49991843,3 C6.67165153,3 6,2.32834847 6,1.50008157 C6,0.67148839 6.67165153,0 7.49991843,0 Z" id="Fill-13" fill="#2D2E2C"></path>
            </g>
            <g id="Group-18" transform="translate(129.597802, 16.394892)" fill="#FFFFFF" stroke="#2D2E2C" stroke-linejoin="round" stroke-width="2">
                <path d="M9.44026402,34.7136902 C5.75398951,41.0271594 3.91085226,49.759326 3.91085226,60.9101899 C3.91085226,65.7356814 4.99329625,86.0850236 3.91085226,97.1491509 C3.49868937,101.362046 -0.140960781,103.182561 0.00422799652,103.823268 C0.67669873,106.790826 9.24016372,106.142347 10.940264,102.230303 C11.861571,92.0895537 16.8487803,75.5231555 18.1403643,76.7314161 C19.4299398,76.3024105 19.7753122,83.0653696 20.440264,92.0473965 C20.6777234,95.2549467 20.4560728,100.120311 19.7753122,106.643488 C16.2996821,111.563424 15.8786403,114.47713 18.5121866,115.384606 C22.4625061,116.745821 27.461312,113.007662 29.3521001,104.415904 C29.3521001,100.562781 31.2979741,92.0473965 31.7294525,84.8963753 C31.9022189,82.0330647 31.9022189,78.3387365 31.7294525,73.8133907 C31.7294525,67.8279267 31.7294525,62.5651487 31.7294525,58.0250568 C31.7294525,54.5810549 31.7294525,46.8105994 31.7294525,34.7136902 C33.6510397,33.1936893 35.1208025,31.5010573 36.1387409,29.6357941 C40.3478841,21.9229893 39.9056193,13.2294532 38.7835022,10.347478 C36.4897381,4.45631864 30.9598107,-0.388200412 21.4718991,0.0245667369 C11.9839876,0.437333886 5.15831746,6.55821311 2.95968802,16.847478 C1.49393507,23.706988 3.65412707,29.662392 9.44026402,34.7136902 Z" id="Path-138"></path>
                <path d="M31.2979741,35.0332433 C29.6118256,35.399222 28.6046991,35.8527431 28.2765945,36.3938069 C27.7474302,37.26643 27.4686533,38.9334391 27.440264,41.3948342 C27.1797836,63.0072052 27.9435985,73.8133907 29.7317085,73.8133907 C32.5416934,73.8133907 34.3662455,64.5287572 35.2053648,45.9594901" id="Path" stroke-linecap="round" transform="translate(31.297974, 54.423317) scale(-1, 1) translate(-31.297974, -54.423317) "></path>
            </g>
            <g id="Group-8-Copy-6" transform="translate(139.038066, 33.742370)">
                <path d="M0,1.50008157 C0,0.67148839 0.67148839,0 1.49991843,0 C2.32851161,0 3,0.67148839 3,1.50008157 C3,2.32834847 2.32851161,3 1.49991843,3 C0.67148839,3 0,2.32834847 0,1.50008157" id="Fill-12" fill="#2D2E2C"></path>
                <path d="M5,4.38594821 C5.68231485,5.20468393 6.51564818,5.61405179 7.5,5.61405179 C8.07595456,5.61405179 8.60020729,5.47390296 9.07275821,5.19360529 C9.29614215,5.06110317 9.60522275,4.79188414 10,4.38594821" id="Line-4" stroke="#2D2E2C" stroke-width="1.5" stroke-linecap="round" stroke-linejoin="round"></path>
                <path d="M11,1.50008157 C11,0.67148839 11.6716515,0 12.4999184,0 C13.3285116,0 14,0.67148839 14,1.50008157 C14,2.32834847 13.3285116,3 12.4999184,3 C11.6716515,3 11,2.32834847 11,1.50008157" id="Fill-13" fill="#2D2E2C"></path>
            </g>
            <g id="Group-8-Copy-2" transform="translate(62.038066, 31.742370)" fill="#2D2E2C">
                <path d="M0,1.50008157 C0,0.67148839 0.67148839,0 1.49991843,0 C2.32851161,0 3,0.67148839 3,1.50008157 C3,2.32834847 2.32851161,3 1.49991843,3 C0.67148839,3 0,2.32834847 0,1.50008157" id="Fill-12"></path>
                <path d="M11,1.50008157 C11,0.67148839 11.6716515,0 12.4999184,0 C13.3285116,0 14,0.67148839 14,1.50008157 C14,2.32834847 13.3285116,3 12.4999184,3 C11.6716515,3 11,2.32834847 11,1.50008157" id="Fill-13"></path>
            </g>
            <g id="Group-8-Copy-3" transform="translate(30.038066, 19.742370)" fill="#2D2E2C">
                <path d="M0,1.50008157 C0,0.67148839 0.67148839,0 1.49991843,0 C2.32851161,0 3,0.67148839 3,1.50008157 C3,2.32834847 2.32851161,3 1.49991843,3 C0.67148839,3 0,2.32834847 0,1.50008157" id="Fill-12"></path>
                <path d="M11,1.50008157 C11,0.67148839 11.6716515,0 12.4999184,0 C13.3285116,0 14,0.67148839 14,1.50008157 C14,2.32834847 13.3285116,3 12.4999184,3 C11.6716515,3 11,2.32834847 11,1.50008157" id="Fill-13"></path>
            </g>
            <path d="M40.5824636,24.7423699 C41.6637838,24.7423699 42.3649261,25.8350594 41.8834795,26.7651868 C40.9755945,28.5187903 38.9238112,29.7423699 36.5379424,29.7423699 C34.15241,29.7423699 32.1002904,28.5187903 31.1927417,26.7651868 C30.7111269,25.8350594 31.4122692,24.7423699 32.4935895,24.7423699 L40.5824636,24.7423699" id="Fill-9" fill="#2D2E2C"></path>
        </g>
    </g>
</svg>