<?xml version="1.0" encoding="UTF-8"?>
<svg width="258px" height="157px" viewBox="0 0 258 157" version="1.1" xmlns="http://www.w3.org/2000/svg" xmlns:xlink="http://www.w3.org/1999/xlink">
    <title>Group 29</title>
    <g id="Page-1" stroke="none" stroke-width="1" fill="none" fill-rule="evenodd">
        <g id="Artboard" transform="translate(-78.000000, -367.000000)">
            <g id="Group-29" transform="translate(79.000000, 368.311671)">
                <g id="gatherpeople" transform="translate(0.000000, 1.688329)">
                    <g id="Marty-Copy-3" fill="#FFFFFF" stroke="#2D2E2C">
                        <path d="M114.261737,66.0900172 C114.809242,72.33509 111.775857,115.449798 111.775857,120.639837 C111.775857,125.829875 110.647152,125.661655 107.7517,125.73792 C105.785444,125.789711 105.073116,124.029892 104.492193,118.40535 C103.176346,105.66521 106.406403,92.4274536 101.837628,92.4274536 C97.2688527,92.4274536 96.7906737,121.307222 96.7906737,128.175021 C96.7906737,132.149046 96.4384546,135.728452 93.9503219,135.860215 C92.1385331,135.956162 89.6646974,135.515623 89.1217064,125.73792 C88.8623918,121.068411 87.9808932,115.189703 88.2288493,109.716797 C88.588357,101.781713 89.3942057,78.2828834 89.1217064,68.8929167 C88.9594795,63.3027872 87.0020435,72.4180151 88.2288493,66.0900172 C87.3195781,67.725087 86.5692561,70.8317014 86.5692561,76.6945287 C86.5692561,86.260485 85.6360908,97.1559748 83.7728749,97.1559748 C78.4214044,97.1559748 78.9783169,79.9488255 80.6608949,65.2193584 C82.1825722,52.8462521 90.9565229,52.9006437 91.6761204,52.8462521 C93.4012899,52.7158532 89.0324843,50.9401427 87.2829208,47.4756996 C80.7924229,34.6233727 86.4371702,21.6030694 102.934806,21.6030694 C120.806263,21.6030694 124.332774,34.0088591 118.826002,47.4756996 C117.230805,51.376764 111.780932,53.3575407 112.871526,53.9491828 C114.82986,53.9491828 120.185764,59.1471494 122.326796,65.2193584 C123.775246,69.3273283 129.930637,51.2153072 132.054388,53.9491828 C136.231994,59.3269564 126.661586,74.7666364 122.326796,74.7666364 C121.091546,74.7666364 115.202738,68.4144367 114.261737,66.0900172 Z" id="Ele" stroke-linejoin="round"></path>
                        <g id="Group-19" transform="translate(42.143685, 15.641511)" stroke-linejoin="round">
                            <path d="M34.104311,64.0885126 C33.4191065,81.0816695 31.5958291,108.109854 32.6000652,110.532882 C34.104311,114.162336 39.4796149,115.455169 35.7541959,117.83206 C31.9984812,120.22828 24.9835335,115.256005 23.7583342,109.482796 C20.7289415,95.208126 22.5229546,80.4227119 22.5229546,80.4227119 C22.5229546,80.4227119 18.5735326,102.82924 18.5735326,110.532882 C18.5735326,114.990564 25.9496616,120.22828 21.979727,122.461222 C20.1960966,123.464449 8.91996268,121.500577 8.37804271,110.532882 C8.13196626,105.552642 8.37804271,103.340162 8.37804271,89.4758979 C8.37804271,80.0753888 9.75066724,57.8085565 8.37804271,48.9245947 C7.72626309,44.7061177 6.28979891,35.106635 7.0079771,35.0456237 C8.729744,34.8993546 4.36955504,32.9075319 2.62344228,29.0214499 C-3.85425437,14.6049349 1.77935977,0 18.2444574,0 C36.0806661,0 39.6002214,13.9156321 34.104311,29.0214499 C32.5122598,33.3972921 27.0731358,35.6191385 28.1615788,36.2827862 C30.1160502,36.2827862 34.3799894,57.2516555 34.104311,64.0885126 Z" id="Ele"></path>
                            <path d="M7.0079771,35.0456237 C4.33588479,35.3872666 2.99983863,38.2301714 2.99983863,43.5743381 C2.99983863,47.7967384 2.99983863,80.4227119 7.0079771,80.4227119 C10.5541062,80.4227119 10.6188382,68.1350756 11.3596897,55.6432151 C11.5917121,51.7309702 12.8951447,50.6665671 13.100438,46.2663223" id="Path" stroke-linecap="round"></path>
                        </g>
                        <g id="Group-22" transform="translate(174.928210, 10.929524)" stroke-linecap="round" stroke-linejoin="round">
                            <path d="M17.3734626,37.1495758 C4.70899723,42.6667612 0.569639279,47.4470785 0,51.4130033 C0,54.6195893 5.08971221,60.6139576 16.9419407,68.2671982 L16.9419407,59.8379027 C9.99584143,56.3447619 5.6577583,53.3875927 5.6577583,51.4130033 C7.02553798,49.6371481 11.4795022,47.5697161 17.0578218,46.5237285" id="Path"></path>
                            <path d="M48.2292852,44.2983589 C48.4388103,51.4115893 47.9966699,68.5725546 48.2292852,69.4583293 C50.051873,76.3985531 54.3252671,84.4812711 55.5260096,93.9117297 C55.6874091,95.9575094 56.0596175,98.8357341 55.5260096,100.397656 C53.8247507,105.377407 48.9150832,106.930628 48.3451663,107.986059 C47.610469,109.346647 51.2050114,113.006824 51.2050114,115.996553 C51.2050114,120.250857 41.4054357,113.105696 40.1802364,107.1572 C39.7935218,105.279652 45.7268994,101.614736 48.2292852,96.9143226 C48.2292852,90.6152539 40.1802364,81.4045737 40.1802364,81.4045737 C40.1802364,81.4045737 38.3121638,101.616366 38.3121638,109.553908 C38.3121638,114.146935 45.8569418,116.775708 43.4138472,119.339059 C41.7921088,121.040625 29.4819844,120.854606 28.9400644,109.553908 C28.8125337,106.894501 30.2307797,86.6306874 26.8026363,80.3311391 C23.3744929,74.0315909 21.6667696,56.2718786 23.2473882,46.830325 C22.3399104,48.7200767 8.73526259,41.0837729 8.73526259,39.397462 C8.73526259,29.9026043 26.3575053,36.1725488 27.0756835,36.1096851 C28.7974504,35.958975 24.4372614,33.9066762 22.6911487,29.9026043 C16.213452,15.0483725 21.8470662,0 38.3121638,0 C56.1483725,0 59.6679278,14.338141 54.1720174,29.9026043 C52.5799662,34.4113065 47.1408422,36.7006131 48.2292852,37.3844105" id="Path" transform="translate(32.643553, 60.061456) scale(-1, 1) translate(-32.643553, -60.061456) "></path>
                        </g>
                        <g id="Group-21" transform="translate(0.000000, 2.980779)" stroke-linecap="round">
                            <path d="M18.4090236,39.9064606 C16.8681848,38.2933301 15.9257356,36.9226568 14.0839113,32.0357973 C7.25114604,13.9066168 8.81361492,0 26.1812309,0 C44.9951141,0 48.4626678,14.5185266 42.6655045,33.514525 C40.9861865,39.0172719 35.2489222,41.8113075 36.3970272,42.6458634 C38.458631,42.6458634 42.9562939,69.0148171 42.6655045,77.6123607 C41.9427412,98.9817422 38.1415839,123.730351 41.0788049,129.157427 C43.4657687,133.567797 54.9281352,133.632745 48.9631305,136.913397 C47.4170466,137.763717 38.3467571,138.293084 34.7232158,134.429399 C33.6192118,133.252229 33.8655376,131.132431 33.8655376,129.157427 C33.8655376,118.087372 34.7232158,87.9554343 33.7319297,87.9554343 C33.7319297,87.9554343 33.8655376,127.901571 33.8655376,133.713983 C33.8655376,139.319646 46.2016142,139.450868 41.0788049,144.789617 C39.3301299,146.612004 20.9475932,145.715656 20.3759684,131.923465 C20.1164035,125.660671 17.4577538,99.4456051 16.6744223,94.5892144 C14.8076673,83.0159648 19.3425047,74.7004908 16.8633634,58.71627" id="Path" stroke-linejoin="round"></path>
                            <path d="M16.8633634,58.71627 C16.1677842,59.191013 11.4559992,57.008342 10.6737501,56.7303142 C5.69070314,54.9592346 3.39738426,52.4465231 2.0958792,47.7063549 C0.823019042,43.0705133 -0.893450573,35.4969371 0.547556602,25.0806453 C1.04212248,21.5056857 0.432044686,12.5665172 8.17939613,13.6543243 C8.19843118,13.656997 10.4074655,14.3154779 10.6737501,15.6415106 C10.8626483,16.5821771 10.3877316,19.802385 9.60992535,24.0870522 C8.93080864,27.8280727 8.48485922,36.4610319 10.6737501,39.9064606 C13.7415826,44.7353891 14.625305,38.5017879 18.4090236,39.9064606" id="Path"></path>
                        </g>
                        <path d="M245.322221,80.5931401 C244.599458,101.962522 248.380126,131.795771 248.380126,137.016327 C248.380587,139.771003 256.149393,141.79198 255.99781,143.232243 C255.74654,145.619685 247.294812,146.432297 245.393606,146.499396 C243.323662,146.572451 240.346101,142.95579 239.053744,135.695815 C235.858298,117.745008 235.049857,99.143138 235.049857,99.143138 C235.049857,99.143138 239.053744,130.530514 239.053744,140.218064 C239.053744,145.823727 249.814348,149.010266 247.350836,151.450206 C244.790354,153.986189 234.066237,153.817697 228.593025,147.849059 C226.380437,145.436192 227.617946,144.188559 227.453386,140.218064 C227.297371,136.453708 223.310523,104.175672 219.284675,97.8143804 C216.612684,93.5923327 209.650686,86.6718947 213.11157,62.7522092 C213.11157,58.5856739 215.983083,44.1475989 216.740628,44.0708755 C218.556772,43.886938 213.957583,41.3821639 212.115759,36.4953044 C205.282994,18.366124 211.225409,0 228.593025,0 C247.406908,0 251.119384,17.499306 245.322221,36.4953044 C243.642903,41.9980513 237.905639,44.7920869 239.053744,45.6266428 C241.115348,45.6266428 245.61301,71.9955965 245.322221,80.5931401 Z" id="Ele-Copy-3" stroke-linejoin="round" transform="translate(232.674258, 76.500000) scale(-1, 1) translate(-232.674258, -76.500000) "></path>
                        <path d="M248.106637,44.0708755 C241.988769,47.6224937 239.55823,50.0359427 240.81502,51.3112227 C241.936687,52.4493918 245.719848,52.4493918 252.164503,51.3112227 C253.016851,48.9996988 253.016851,47.411493 252.164503,46.5466052 C251.312155,45.6817174 249.959533,44.8564742 248.106637,44.0708755 Z" id="Path-139" stroke-linecap="round" stroke-linejoin="round"></path>
                    </g>
                    <g id="18-copy-2" transform="translate(62.000000, 29.000000)" fill="#2D2E2C">
                        <path d="M5.45557039,0.152410788 C5.57070684,0.12812737 5.71144661,0.113525576 5.78558631,0.205580364 C5.82218494,0.251131612 5.8320807,0.312871806 5.83506514,0.371437696 C5.85642743,0.795365864 5.58500072,1.18739229 5.24571733,1.43752736 C4.63469309,1.88764353 3.83612052,1.96493781 3.08042961,1.99160196 C2.22955085,2.02159912 1.32636591,1.99318911 0.607430699,1.53196288 C0.313542172,1.343568 0.0491838667,1.06089631 0.00551683823,0.71172298 C-0.0504020903,0.263193963 0.327207753,-0.0991527261 0.755710105,0.0244863764 C1.15703837,0.140665867 1.48438401,0.405244023 1.90628918,0.503329987 C3.09865038,0.78076407 4.29258234,0.398736702 5.45557039,0.152410788" id="Fill-136" transform="translate(2.918123, 1.000000) scale(1, -1) translate(-2.918123, -1.000000) "></path>
                        <path d="M11.7231324,0.193233827 C11.6863774,0.238785076 11.6766389,0.300525269 11.6736545,0.35909116 C11.6524497,0.783019328 11.9237141,1.17504575 12.2629908,1.42518083 C12.8740032,1.875297 13.6725602,1.95259128 14.4280793,1.97925542 C15.2790986,2.00925258 15.9687669,1.88640706 16.6876881,1.42518083 C16.9815709,1.23678594 17.1815617,-0.111499262 16.7529106,0.0121398402 C16.3515902,0.128319331 16.024408,0.392897487 15.602511,0.49098345 C14.4101731,0.768417534 13.2162643,0.386390166 12.0531419,0.140064252 C11.9381647,0.115780834 11.7971136,0.10117904 11.7231324,0.193233827 Z" id="Fill-137" transform="translate(14.336245, 0.993827) scale(1, -1) translate(-14.336245, -0.993827) "></path>
                        <path d="M6.02798912,8.18082775 C8.00770954,8.39258587 9.97557773,8.41796273 11.963266,8.06108739 C12.4764974,7.96896301 12.8700112,8.39525151 12.499405,8.89500493 C12.3148489,9.1438687 12.0047986,9.34027276 11.7411613,9.48155146 C10.9342138,9.91327786 10.0220903,9.99090117 9.13377077,9.99612582 C8.18439737,10.0015637 7.22725529,10.0229954 6.28734375,9.85495374 C5.60220531,9.73233449 3.94378982,9.31766816 3.89140098,8.34289842 C3.86600335,7.86884172 4.6953605,8.01353244 4.93698658,8.04679958 C5.30121849,8.09691353 5.6648528,8.14201609 6.02798912,8.18082775" id="Fill-138"></path>
                    </g>
                    <g id="Group-17" transform="translate(184.000000, 28.000000)" fill="#2D2E2C">
                        <path d="M10.6827127,6 C11.6384208,6 12.286363,6.89165147 11.9258297,7.70580553 C11.074853,9.6273471 8.82727835,11 6.18850085,11 C3.54972334,11 1.30214865,9.6273471 0.451172036,7.70580553 C0.0906386632,6.89165147 0.738446956,6 1.69415504,6 L10.6827127,6" id="Fill-63"></path>
                        <path d="M0.0276081985,0.084956013 C0.610587007,-0.0322900305 1.20329865,-0.0239446844 1.52597206,0.0839263233 C1.94348434,0.22356401 2.36280206,0.466648882 2.69590915,0.768503285 C2.82439761,0.884921402 3.65099668,1.98504859 3.05654948,1.99994114 C2.96853338,2.0020229 2.88864184,1.94853782 2.81672441,1.8944122 C2.27403369,1.48622818 1.98485943,0.881558568 1.30028976,0.707171594 C0.867158286,0.596908699 0.410009454,0.636346844 0,0.805584892" id="Fill-64"></path>
                        <path d="M12.9660121,1.65052665 C12.9744377,1.6287483 12.9807569,1.60616927 12.9845183,1.58278957 C13.2205852,0.172480957 10.6912543,-0.187982842 9.87803481,0.0839263233 C9.46036647,0.22356401 9.04119356,0.466648882 8.70793155,0.768503285 C8.57959182,0.884921402 7.75283118,1.98504859 8.34743683,1.99994114 C8.43545411,2.0020229 8.51519626,1.94853782 8.5869642,1.8944122 C9.12996313,1.48622818 9.41914128,0.881558568 10.1035697,0.707171594 C10.8546505,0.51597045 11.6778002,0.774908683 12.2025938,1.38021884 C12.3682469,1.57158012 12.7866675,2.11523831 12.9660121,1.65052665" id="Fill-65"></path>
                    </g>
                    <g id="Group-24" transform="translate(104.000000, 32.000000)" fill="#2D2E2C">
                        <path d="M3,2.5 C3,3.88076537 2.32842758,5 1.49989437,5 C0.671572424,5 0,3.88076537 0,2.5 C0,1.11923463 0.671572424,0 1.49989437,0 C2.32842758,0 3,1.11923463 3,2.5" id="Fill-7"></path>
                        <path d="M14,2.5 C14,3.88076537 13.3283803,5 12.4997887,5 C11.6714085,5 11,3.88076537 11,2.5 C11,1.11923463 11.6714085,0 12.4997887,0 C13.3283803,0 14,1.11923463 14,2.5" id="Fill-8"></path>
                        <path d="M10.5443971,7 C11.6257174,7 12.3268597,8.09268955 11.8454131,9.02281688 C10.937528,10.7764204 8.88574478,12 6.49987597,12 C4.11434361,12 2.06222392,10.7764204 1.15467529,9.02281688 C0.673060513,8.09268955 1.37420281,7 2.45552303,7 L10.5443971,7" id="Fill-9"></path>
                    </g>
                    <path d="M238.212668,57.2566577 C237.849586,78.7452153 238.120383,95.4544223 239.953411,95.4803192 C245.228848,95.5535951 245.149373,83.0660013 246.092159,64.60038" id="Path" stroke="#2D2E2C" fill="#FFFFFF" stroke-linecap="round" stroke-linejoin="round" transform="translate(242.082876, 76.368488) rotate(8.000000) translate(-242.082876, -76.368488) "></path>
                    <g id="Group-8-Copy-4" transform="translate(218.000000, 17.000000)">
                        <path d="M0,5.38594821 C0.818777818,6.20468393 1.81877782,6.61405179 3,6.61405179 C3.69114547,6.61405179 4.32024875,6.47390296 4.88730985,6.19360529 C5.15537058,6.06110317 5.52626729,5.79188414 6,5.38594821" id="Line-4" stroke="#2D2E2C" stroke-width="1.5" stroke-linecap="round" stroke-linejoin="round"></path>
                        <path d="M7.49991843,0 C8.32851161,0 9,0.67148839 9,1.50008157 C9,2.32834847 8.32851161,3 7.49991843,3 C6.67165153,3 6,2.32834847 6,1.50008157 C6,0.67148839 6.67165153,0 7.49991843,0 Z" id="Fill-13" fill="#2D2E2C"></path>
                    </g>
                    <g id="Group-18" transform="translate(134.000000, 16.000000)" fill="#FFFFFF" stroke="#2D2E2C" stroke-linejoin="round">
                        <path d="M9.54752464,34.5162832 C5.81936655,40.7938495 3.9552875,49.4763587 3.9552875,60.5638108 C3.9552875,65.3618611 5.05003026,85.5954822 3.9552875,96.5966909 C3.5384416,100.785628 -0.142562383,102.595791 0.00427603516,103.232854 C0.684387405,106.183537 9.34515079,105.538745 11.0645677,101.648948 C11.9963426,91.5658663 17.0402168,75.0936766 18.3464758,76.2950661 C19.6507035,75.8685001 20,82.5930001 20.672507,91.5239488 C20.9126644,94.7132585 20.6884954,99.5509545 20,106.037037 C16.4848797,110.928994 16.059054,113.82613 18.7225227,114.728446 C22.7177259,116.08192 27.7733285,112.36502 29.6855997,103.82212 C29.6855997,99.9909084 31.6535828,91.5239488 32.0899636,84.4135935 C32.264693,81.5665657 32.264693,77.8932461 32.0899636,73.3936347 C32.0899636,67.4422083 32.0899636,62.2093583 32.0899636,57.6950846 C32.0899636,54.2706678 32.0899636,46.5444006 32.0899636,34.5162832 C34.033384,33.0049261 35.5198463,31.3219196 36.5493505,29.4672637 C40.8063182,21.7983194 40.3590284,13.154221 39.2241617,10.2886348 C36.9043358,4.43097681 31.3115771,-0.385992825 21.7158636,0.0244270328 C12.1201501,0.434846891 5.21692645,6.52091839 2.9933161,16.7516712 C1.51090921,23.572173 3.69564539,29.4937104 9.54752464,34.5162832 Z" id="Path-138"></path>
                        <path d="M31.6535828,34.8340191 C29.9482762,35.1979165 28.9297067,35.6488587 28.5978742,36.1868455 C28.0626974,37.0545063 27.7807531,38.7120356 27.7520413,41.1594334 C27.4886013,62.6489009 28.2610946,73.3936347 30.0695212,73.3936347 C32.9114333,73.3936347 34.756716,64.1618003 35.6053694,45.6981314" id="Path" stroke-linecap="round" transform="translate(31.653583, 54.113827) scale(-1, 1) translate(-31.653583, -54.113827) "></path>
                    </g>
                    <g id="Group-8-Copy-6" transform="translate(143.000000, 34.000000)">
                        <path d="M0,1.50008157 C0,0.67148839 0.67148839,0 1.49991843,0 C2.32851161,0 3,0.67148839 3,1.50008157 C3,2.32834847 2.32851161,3 1.49991843,3 C0.67148839,3 0,2.32834847 0,1.50008157" id="Fill-12" fill="#2D2E2C"></path>
                        <path d="M5,4.38594821 C5.68231485,5.20468393 6.51564818,5.61405179 7.5,5.61405179 C8.07595456,5.61405179 8.60020729,5.47390296 9.07275821,5.19360529 C9.29614215,5.06110317 9.60522275,4.79188414 10,4.38594821" id="Line-4" stroke="#2D2E2C" stroke-width="1.5" stroke-linecap="round" stroke-linejoin="round"></path>
                        <path d="M11,1.50008157 C11,0.67148839 11.6716515,0 12.4999184,0 C13.3285116,0 14,0.67148839 14,1.50008157 C14,2.32834847 13.3285116,3 12.4999184,3 C11.6716515,3 11,2.32834847 11,1.50008157" id="Fill-13" fill="#2D2E2C"></path>
                    </g>
                    <g id="Group-8-Copy-2" transform="translate(64.000000, 32.000000)" fill="#2D2E2C">
                        <path d="M0,1.50008157 C0,0.67148839 0.67148839,0 1.49991843,0 C2.32851161,0 3,0.67148839 3,1.50008157 C3,2.32834847 2.32851161,3 1.49991843,3 C0.67148839,3 0,2.32834847 0,1.50008157" id="Fill-12"></path>
                        <path d="M11,1.50008157 C11,0.67148839 11.6716515,0 12.4999184,0 C13.3285116,0 14,0.67148839 14,1.50008157 C14,2.32834847 13.3285116,3 12.4999184,3 C11.6716515,3 11,2.32834847 11,1.50008157" id="Fill-13"></path>
                    </g>
                    <g id="Group-8-Copy-3" transform="translate(31.000000, 20.000000)" fill="#2D2E2C">
                        <path d="M0,1.50008157 C0,0.67148839 0.67148839,0 1.49991843,0 C2.32851161,0 3,0.67148839 3,1.50008157 C3,2.32834847 2.32851161,3 1.49991843,3 C0.67148839,3 0,2.32834847 0,1.50008157" id="Fill-12"></path>
                        <path d="M11,1.50008157 C11,0.67148839 11.6716515,0 12.4999184,0 C13.3285116,0 14,0.67148839 14,1.50008157 C14,2.32834847 13.3285116,3 12.4999184,3 C11.6716515,3 11,2.32834847 11,1.50008157" id="Fill-13"></path>
                    </g>
                    <path d="M41.5443971,25 C42.6257174,25 43.3268597,26.0926895 42.8454131,27.0228169 C41.937528,28.7764204 39.8857448,30 37.499876,30 C35.1143436,30 33.0622239,28.7764204 32.1546753,27.0228169 C31.6730605,26.0926895 32.3742028,25 33.455523,25 L41.5443971,25" id="Fill-9" fill="#2D2E2C"></path>
                </g>
                <path id="Line-38" d="M138.062957,-0.637875727 L138.395686,0.30514678 L137.924175,0.471511253 C128.291927,3.87008092 123.988135,7.11001824 124.806533,9.97441134 C125.36758,11.938075 127.369319,14.2069214 130.823425,16.7416365 L132.916206,13.3781631 L138.182402,21.9523792 L128.163312,21.0208062 L130.294065,17.5934728 C126.637693,14.9204766 124.484038,12.4857325 123.845009,10.2491325 C122.820178,6.66222233 127.313308,3.21269703 137.127509,-0.306497207 L137.591446,-0.471511253 L138.062957,-0.637875727 Z" fill="#2D2E2C" fill-rule="nonzero"></path>
            </g>
        </g>
    </g>
</svg>