<?xml version="1.0" encoding="UTF-8"?>
<svg width="165px" height="119px" viewBox="0 0 165 119" version="1.1" xmlns="http://www.w3.org/2000/svg" xmlns:xlink="http://www.w3.org/1999/xlink">
    <title>Plotwist2.0 Off</title>
    <g id="Page-1" stroke="none" stroke-width="1" fill="none" fill-rule="evenodd">
        <g id="Plotwist2.0-Off" fill="#080808">
            <path d="M23.6872372,81.6996225 C26.3650135,89.0170882 28.1560295,94.0390759 29.0602851,96.7655856 C32.6532866,107.599196 34.3485683,113.500619 37.1394362,114.241845 C38.386273,114.572991 40.0378541,114.204512 41.2484018,112.541983 C42.9766463,110.168465 44.2789112,105.479424 46.2562429,99.1705174 C46.8616815,97.2387952 47.9377612,93.9823181 49.484482,89.4010863 C50.9954234,96.1748646 52.0654504,100.818651 52.6945631,103.332444 C55.0536238,112.758724 55.0536238,116.801085 58.1327476,116.367909 C59.2105981,116.216276 61.1850684,115.645208 62.215694,114.241845 C64.316615,111.3811 65.5193907,105.777421 68.3860709,98.2293202 C69.3211521,95.7672086 70.8919791,91.6830958 73.098552,85.9769818 C75.8735363,86.3452804 77.6576836,86.3542893 78.4509939,86.0040087 C79.4732692,85.5526302 79.1260092,84.5181946 79.2287204,83.3441998 C79.3812038,81.6013063 76.5764648,81.191885 72.5989643,81.0122842 C68.9878958,80.8492292 64.6793763,80.5079968 62.8215623,81.3913377 C62.2513824,81.662443 62.3530553,82.5388201 62.215694,82.9480053 C61.4970907,85.0886505 62.5684997,86.0983093 65.4299209,85.9769818 L59.067443,104.456213 C56.72737,91.1368769 54.7636072,83.3805612 53.1761546,81.1872655 C52.2655391,79.9291184 50.4284918,79.7947931 49.484482,79.7947931 C46.0719701,79.7947931 42.4634148,88.0152662 38.6588162,104.456213 L31.8612741,82.4528742 C32.7627381,82.2183518 33.4115161,82.1001333 33.8076083,82.0982186 C37.0418829,82.0825842 38.6588162,81.6060642 38.6588162,79.7947931 C38.6588162,77.134569 32.2613728,77.0930213 28.2764775,77.134569 C23.5012371,77.1843571 17.8395101,77.134569 17.8395101,79.7947931 C17.8395101,80.2943167 18.0389466,80.8841498 18.6173225,81.1872655 C19.2328034,81.5098272 20.922775,81.6806129 23.6872372,81.6996225 Z" id="Path-131" transform="translate(48.537079, 96.763192) rotate(-5.000000) translate(-48.537079, -96.763192) "></path>
            <path d="M87.3381826,106.430337 C86.0705063,106.712745 85.2122257,106.900262 84.7633407,106.992888 C82.517402,107.45633 81.4136245,108.338552 81.6436917,110.347841 C81.7439184,110.959627 82.1942312,111.70372 83.0253492,112.067118 C84.7608505,112.825949 87.8634482,112.837565 90.8484985,112.920606 C95.876881,113.06049 99.8185345,113.06049 99.8185345,110.347841 C100.381349,108.435318 100.251168,107.512089 98.1268024,106.992888 C97.4595152,106.829801 95.8165566,106.829801 93.1979268,106.992888 C92.7018043,94.1444463 92.7018043,86.2539802 93.1979268,83.32149 C93.3654804,82.3311107 95.7418595,84.096277 96.8473976,83.32149 C98.577359,82.1090924 98.1509502,79.0510376 98.1268024,78.9681104 C94.6151067,77.0859547 79.0891589,77.9538252 80.1558667,80.7787781 C80.1558667,83.3061311 81.3111782,83.3088219 82.6909702,83.32149 C84.4943253,83.3380469 86.3000555,82.4666838 86.652742,83.32149 C88.161303,88.957986 88.3897832,96.6609349 87.3381826,106.430337 Z" id="Path-132"></path>
            <path d="M125.069291,77.8470012 C124.814592,75.4220382 124.814592,73.8316806 125.069291,73.0759283 C125.878921,70.673574 130.324361,71.0893688 130.820166,73.5188142 C131.620145,77.4387122 130.73992,85.3026864 129.975016,87.9029006 C129.683382,88.8942846 128.624667,88.6972983 127.932084,89.067052 C125.26968,90.4884459 125.052842,82.3047867 121.161159,79.6216169 C117.071913,76.8022351 110.450571,79.193246 109.742306,80.6596527 C109.034041,82.1260594 108.477305,85.7852159 111.788662,87.9029006 C115.235674,90.1073403 121.719919,91.0519232 125.947704,93.0794892 C129.718964,94.8881145 131.466873,97.765058 131.248504,99.915347 C130.970289,102.654945 132.84688,108.257108 123.442757,110.933156 C117.173341,112.717188 111.684513,111.705113 106.976272,107.896931 C107.834935,110.430629 106.750615,111.841002 103.723313,112.128052 C100.939216,111.640776 101.317035,107.150467 101.385708,102.889785 C101.450393,98.8766015 101.065276,95.0648942 103.042479,95.0648942 C105.113778,95.3558758 105.486124,95.2837776 106.47651,97.3867085 C106.718874,97.9013305 106.557393,101.631688 109.742306,104.045103 C110.764265,104.819508 113.263081,105.445607 117.238755,105.923401 C120.838712,105.281755 122.906713,104.655656 123.442757,104.045103 C123.897226,103.527464 125.334919,101.464403 121.654912,98.8752914 C118.174187,96.4263867 110.225169,95.52881 105.823544,92.3860421 C103.055588,90.4097161 102.938204,86.2628121 102.310328,84.3000386 C100.630317,79.0482364 105.832924,74.7646081 111.788662,73.0759283 C114.251694,72.3775643 118.439216,72.401904 121.654912,74.130838 C122.658294,74.670311 123.79642,75.909032 125.069291,77.8470012 Z" id="Path-133" transform="translate(116.298552, 91.799631) rotate(-11.000000) translate(-116.298552, -91.799631) "></path>
            <path d="M140.864893,25.6707208 C139.583003,69.4905552 139.156124,95.2559767 139.584256,102.966985 C139.762334,106.174315 141.109414,109.543191 141.467268,110.519072 C141.900013,111.699181 144.289768,113.950373 148.194012,113.756212 C152.05838,113.564034 156.05429,110.601684 157.324274,108.203206 C158.289831,106.379667 159.130551,101.401125 157.942913,99.3266713 C157.121979,97.8927426 154.533626,98.7352668 153.616255,99.3266713 C152.472107,100.064273 152.726457,102.238012 152.006114,103.868617 C151.509984,104.991682 150.199696,105.823427 149.019084,105.771544 C147.699199,105.71354 146.517886,104.65983 146.342938,103.868617 C145.434896,99.7619426 145.856803,73.6959773 147.608657,25.6707208 C153.721132,25.1782156 157.509955,24.6351759 158.975125,24.0416018 C160.493181,23.4266025 161.000653,21.7002779 161.095599,21.1115124 C161.190228,20.5247075 160.729575,18.5164334 158.975125,17.9618533 C157.561593,17.5150372 153.967889,17.3475396 148.194012,17.4593606 C149.503416,8.89197714 149.56917,4.03350075 148.391274,2.88393144 C147.843359,2.34919291 145.47063,3.14348851 144.679435,3.14348851 C140.864893,3.14348851 143.278365,14.3891624 140.864893,17.4593606 C137.398422,19.0082084 131.230819,18.8841536 129.578062,19.7007568 C127.621729,20.667352 128.247514,22.658526 128.247514,23.4084743 C128.247514,24.0438549 128.993195,25.8903504 130.460235,26.3632691 C131.565768,26.7196519 135.033988,26.4888024 140.864893,25.6707208 Z" id="Path-134" transform="translate(144.629764, 58.233445) rotate(4.000000) translate(-144.629764, -58.233445) "></path>
            <path d="M21.5162246,4.76060128 C29.980111,4.52736943 41.498566,4.68345869 48.6785014,8.78850604 C53.5219678,11.5577035 55.7468223,16.3561245 56.1741888,23.1626869 C55.7791148,32.1889264 51.4567046,38.4350413 44.0770533,41.7403143 C40.6508736,43.2748663 33.9629014,44.1626078 24.0131367,44.4035387 L24.152648,44.3998926 L24.1550857,44.4496943 C24.1785969,45.0655448 24.1915281,46.1539422 24.1938792,47.7148866 L24.1941047,48.619794 C24.1905563,52.5918852 24.1302336,58.3705322 24.0131367,65.9557351 C32.3836875,65.7591046 36.2308154,66.7303033 35.5545204,68.8693312 C35.0620168,71.2084097 28.9572865,71.3751548 22.5048455,71.2926028 L21.7867442,71.2825022 C21.1875798,71.2733929 20.5871059,71.2627569 19.9895018,71.2521207 L19.9895018,71.2521207 L19.3189963,71.2403295 C19.0960442,71.2364311 18.8737153,71.2325408 18.6522295,71.2285868 L17.9905219,71.2164618 C11.7325115,71.0980951 6.3381094,70.8696728 6.90110642,68.8693312 C9.16375563,64.0979846 15.5240161,67.837746 16.2359735,62.8586755 C16.1404901,60.770284 16.0232533,58.9969596 15.9577575,57.1908161 C15.7830034,52.3717137 16.2052259,48.5168872 16.061459,44.9873081 C16.0382777,44.4181922 15.9779786,43.4750796 15.9120354,42.4924634 L15.8756958,41.9545836 C15.7783066,40.5205128 15.6810834,39.1315344 15.6808832,38.8170116 C15.6807062,38.5387925 15.6806119,38.2614215 15.6805639,37.9845529 L15.6798714,34.6641098 C15.6741033,28.5396817 15.6200259,21.9888528 15.128782,11.3291181 C14.3829973,9.34085475 6.34307059,12.4664885 7.30636025,6.65614042 C7.37942362,6.65614042 7.55963636,5.36375973 8.8076842,5.15258204 C11.3415724,4.72383192 16.0595939,4.91096484 21.5162246,4.76060128 Z M23.6772759,11.9995806 C23.2995192,10.9672577 23.1106409,12.8392498 23.1106409,17.6155569 C23.1106409,22.391864 23.2995192,29.1868718 23.6772759,38.0005802 C29.7974246,37.7391558 33.9942546,37.3724875 36.2677661,36.9005752 C38.7519133,36.3849412 41.2272786,35.7617811 42.7011172,34.8524617 C46.198259,32.6948177 48.0658497,28.887956 48.3038892,23.4318766 C48.0658497,18.4808083 46.198259,15.1589982 42.7011172,13.4664462 C39.2039753,11.7738942 32.8626949,11.284939 23.6772759,11.9995806 Z" id="Combined-Shape" transform="translate(31.517418, 38.000580) rotate(-13.000000) translate(-31.517418, -38.000580) "></path>
            <path d="M78.0652498,16.3691298 C78.3410226,18.7558513 76.8964177,18.9657361 76.4631588,19.0720156 C74.9248686,19.4493623 73.5667397,19.4115954 72.7188276,19.7436894 C72.5302357,19.8175535 71.9373181,20.3121769 71.9010219,21.2261507 C71.861964,22.2096639 72.3569538,24.846832 72.4907226,28.7286744 C72.6292462,32.748497 72.4077131,38.1068411 72.424566,44.570687 C72.4310103,47.0423718 71.995995,51.1074133 71.8180195,55.8125893 C71.7692425,57.1021164 71.79691,59.0662689 71.9010219,61.7050469 C75.9275899,61.9334479 78.6583722,62.0476484 80.0933688,62.0476484 C81.5283654,62.0476484 82.8336819,61.9334479 84.0093183,61.7050469 C84.6481562,61.5645879 85.0938163,61.3777831 85.3462985,61.1446326 C85.5987807,60.9114821 85.8569415,60.4483552 86.1207808,59.7552519 C86.3945856,56.7079251 86.573439,54.6029406 86.6573412,53.4402983 C86.9541991,49.3267033 87.4504404,47.2439362 89.3027973,47.2439362 C89.7963266,47.3555127 91.4183246,47.5771164 91.7386997,48.395652 C92.1099302,49.3441198 91.9540561,51.7581222 91.7386997,55.459468 C91.6393102,57.1676809 91.427607,60.3599375 91.1035901,65.0362377 C90.9565943,65.8220266 90.7085042,66.3355588 90.3593199,66.5768344 C90.0101357,66.8181101 89.2837165,66.9779338 88.1800624,67.0563057 C80.2846442,67.0483614 74.8582973,67.0483614 71.9010219,67.0563057 C62.6785448,67.0810809 57.8381667,66.9309895 57.8381667,65.5789534 C57.8381667,64.6667312 57.9196693,63.8224105 58.7816434,63.2053434 C59.4683642,62.7137361 61.2304269,62.2136373 64.0678314,61.7050469 C64.556225,61.3621794 64.9015762,61.0636574 65.103885,60.8094809 C65.3061937,60.5553044 65.4781477,60.2038947 65.619747,59.7552519 C65.6179585,52.6155421 65.6343886,47.4526658 65.6690375,44.2666231 C65.8122008,31.1024134 65.9261005,22.7582267 65.619747,21.7292464 C65.103885,20.9170476 64.7610814,20.4962817 64.0678314,20.2499082 C62.103017,19.5516347 60.1069379,19.737863 59.7272709,19.5920231 C58.8763323,19.2651554 58.6353576,18.4962316 58.5816579,18.3169587 C58.1670217,16.9327222 58.8255878,15.817561 59.2611183,15.7219791 C63.6444251,14.7600155 77.1995548,15.0382603 78.0652498,16.3691298 Z" id="Path-137" transform="translate(74.900296, 41.104786) rotate(-7.000000) translate(-74.900296, -41.104786) "></path>
            <path d="M112.218644,2 C115.850354,2 119.963165,3.47622221 122.605306,7.95974893 C126.191035,14.0444787 128,24.2155338 128,34.7791339 C128,45.1916263 126.103292,54.204496 122.605306,60.295577 C119.939649,64.9373118 116.202213,68 112.5,68 C108.788761,68 104.70474,66.1800161 102.036172,61.5178798 C98.5493712,55.4262447 97,45.1722812 97,34.7791339 C97,21.8811396 99.298491,10.5696971 104.309678,5.06559958 C104.538252,4.81454282 106.097579,4.04209735 107.893231,3.20904348 C109.598199,2.41806005 111.240935,2 112.218644,2 Z M114.004251,7.89047204 C113.24459,7.96586607 111.819866,8.49490152 110.559331,9.12460307 C109.461922,9.67281477 108.180737,10.0195088 107.657186,11.1046332 C105.148082,16.3050613 105.003075,26.2386873 104.994787,33.8718093 L104.994292,35.3988168 C104.994292,43.9282793 105.362999,51.7518992 107.840537,56.7511907 C109.736681,60.5773192 110.415323,61.8692664 113.052336,61.8692664 C115.682935,61.8692664 118.338562,60.5605761 120.232638,56.7511907 C122.718124,51.7523539 122.994292,43.9441555 122.994292,35.3988168 L122.992768,34.2189143 C122.970031,25.9775597 122.664659,18.1552883 120.232638,13.3886467 C118.355271,9.70909981 116.583288,7.63451066 114.004251,7.89047204 Z" id="Combined-Shape" transform="translate(112.500000, 35.000000) rotate(5.000000) translate(-112.500000, -35.000000) "></path>
        </g>
    </g>
</svg>