<?xml version="1.0" encoding="UTF-8"?>
<svg width="69px" height="55px" viewBox="0 0 69 55" version="1.1" xmlns="http://www.w3.org/2000/svg" xmlns:xlink="http://www.w3.org/1999/xlink">
    <title>Group 3</title>
    <g id="Page-1" stroke="none" stroke-width="1" fill="none" fill-rule="evenodd">
        <g id="Artboard" transform="translate(-418.000000, -1401.000000)">
            <g id="Button" transform="translate(218.000000, 1394.000000)">
                <g id="Group-3" transform="translate(201.000000, 8.000000)">
                    <g id="Group-2">
                        <g id="Group-4" transform="translate(0.000000, 18.037228)" fill="#F5F5F5" stroke="#000000" stroke-linecap="round" stroke-linejoin="round">
                            <path d="M32.7290129,5.29805778 C30.1614366,3.85069086 18,0 16.6681437,0 C15.3362874,0 6.48885777,5.15877554 0,8.34160592 C2.47887528,10.3696364 8.45475813,12.608528 12.8816265,13.824522 C18.2675027,12.6693164 21.986989,11.7158756 24.0400856,10.9641995 C30.5614266,8.57661748 33.8916741,5.95346083 32.7290129,5.29805778 Z" id="Path"></path>
                            <path d="M12.4071382,13.824522 C6.52394101,11.8144351 3.45657666,10.2431297 0,8.34160592 C0.308455984,15.5088345 2.65588739,29.8846733 3.60584755,30.980883 C4.23915432,31.7116895 8.59325304,33.0200994 16.6681437,34.9061129 C14.9055242,26.2487348 13.6433518,19.2215378 12.8816265,13.824522 C22.1065349,11.9436249 29.6639202,9.01985305 32.7290129,5.81898587 C34.1353768,14.34545 37.6860117,24.7420922 36.9870408,26.0931179 C36.2880698,27.4441437 25.2775941,31.8425135 17.0391594,34.9061129" id="Path-42"></path>
                        </g>
                        <g id="Group-4-Copy" transform="translate(44.970248, 20.844864) rotate(14.000000) translate(-44.970248, -20.844864) translate(27.069042, 3.825135)" fill="#F5F5F5" stroke="#000000" stroke-linecap="round" stroke-linejoin="round">
                            <path d="M32.244786,4.66000289 C29.6772096,3.21263598 19.3539935,-0.347217595 17.8512844,0.027449863 C16.3485753,0.402117321 6.69602384,3.89689414 2.74138505e-12,6.65656428 C2.47887528,8.68459471 7.88384195,11.4035443 12.3107103,12.6195383 C17.9891454,11.3833903 21.8374642,10.4238966 23.8556666,9.74105737 C31.008852,7.32084629 33.4475016,5.33798498 32.244786,4.66000289 Z" id="Path-Copy-2"></path>
                            <path d="M12.3107103,12.6195383 C7.9914186,11.0271783 3.88784851,9.03952025 1.62175522e-13,6.65656428 C0.308455984,13.8237928 2.39704384,29.6282574 3.44006311,30.1142285 C4.13540929,30.4382092 8.48950801,31.7466188 16.5023593,34.0394572 C14.469652,25.1565271 13.0724356,18.0165541 12.3107103,12.6195383 C21.5356187,10.7386413 29.4981357,8.15319853 32.5632285,4.95233135 C33.9695924,13.4787955 36.3356619,25.5822093 35.6944859,26.2726242 C35.05331,26.9630392 25.1118097,30.975859 16.873375,34.0394572" id="Path-42-Copy-2"></path>
                        </g>
                        <g id="Group-15" transform="translate(25.000000, 39.526634) rotate(-21.000000) translate(-25.000000, -39.526634) translate(18.000000, 32.026634)" fill="#2D2E2C">
                            <path d="M11.0368408,14.051388 C9.74346526,15.2747578 8.30334644,13.9738429 6.8557298,14.0348487 C6.1632517,14.0638603 5.55351749,14.4307086 4.8937085,14.5971866 C3.71280036,14.894895 3.0171089,14.0313239 2.42960041,13.1297937 C1.43720913,11.6070888 0.519796138,9.95694955 0.402508663,8.09803489 C0.285221188,6.23532431 1.08641782,3.90056437 3.12475631,3.5188036 C4.5849586,3.24522646 5.70267074,4.23324936 7.09084031,4.33953503 C7.1146727,4.34766914 7.14198622,4.35146506 7.17438755,4.34685573 C7.57284363,4.34143299 7.96299854,4.25005985 8.34940454,4.13075961 C8.53497582,4.08195497 8.71519151,4.02013575 8.89192606,3.95045356 C9.71427728,3.66331958 10.5302018,3.36398443 11.3854899,3.60041581 C13.7095493,4.24301029 13.8474558,7.16966211 13.4074938,9.12455924 C13.0301924,10.8007276 12.3023673,12.8545897 11.0368408,14.051388 Z M4.87683839,1.31527393 C4.95262002,1.03952769 5.05250182,0.745886414 5.20861734,0.508912754 C5.93965571,1.10893874 6.61606704,2.06442521 6.85653314,3.03726445 C6.43504801,2.24229103 5.73266206,1.63087729 4.87683839,1.31527393 Z M10.2549243,0.413743699 C10.4975327,1.27433225 10.2894679,2.3567108 9.66259581,3.00499916 C9.08392405,3.60312718 8.19328902,3.80485304 7.38968237,3.92225533 C7.39289573,3.90571597 7.39798354,3.89026117 7.39637686,3.87046818 C7.27373379,2.18236977 8.59843959,0.627670721 10.2549243,0.413743699 Z M11.7483313,3.30813022 C11.1252081,3.06871633 10.5368963,3.10884459 9.95795674,3.24793783 C9.99250031,3.21079207 10.0307928,3.17879792 10.0631941,3.13866965 C10.7015808,2.34939011 10.9224989,1.16940227 10.604109,0.206323962 C10.5982178,0.188700063 10.5880422,0.176498902 10.5792055,0.162399782 C10.5714399,0.071840054 10.5122606,-0.00895874549 10.3957764,0.000802183308 C8.8913905,0.123356067 7.58462594,1.21983373 7.15296518,2.63164363 C6.81395618,1.60864407 6.06122766,0.65586896 5.26645774,0.0580120715 C5.207814,0.013816755 5.15077694,0.0146301658 5.10284439,0.0376768032 C5.09722102,0.0398458985 5.0921332,0.0439129521 5.08650983,0.0468954582 C5.07499531,0.0542161548 5.06401634,0.0612657144 5.05437628,0.0710266432 C5.04661067,0.077805066 5.0383095,0.0805164351 5.03081167,0.0889216794 C4.72768514,0.432994419 4.56996294,0.946798865 4.45428214,1.38251588 C4.43526979,1.45490944 4.45669216,1.51293274 4.49498464,1.55550123 C4.51721035,1.58532629 4.54613055,1.61135543 4.59031419,1.62491228 C5.67026941,1.95895295 6.4760183,2.81791469 6.77753815,3.90707166 C5.57681432,3.70453239 4.55416394,2.93694379 3.25489721,3.10043935 C2.00168857,3.25796989 1.02643518,4.13401325 0.505603818,5.27305942 C-0.836775433,8.21082785 0.711526348,11.73615 2.60526384,14.0489478 C3.59711957,15.2603875 4.51881703,15.128615 5.87699528,14.6720204 C6.86162095,14.3412334 7.52973111,14.5321138 8.48704327,14.7753236 C9.01805026,14.9103498 9.61466326,15.0510698 10.1649504,14.9632215 C11.483765,14.752277 12.3347687,13.1289803 12.8095419,12.0197592 C13.5084468,10.3864304 14.0480227,8.70917749 13.996609,6.90909954 C13.9537643,5.41676198 13.1951446,3.8647743 11.7483313,3.30813022 L11.7483313,3.30813022 Z" id="Fill-14"></path>
                            <path d="M3.77101309,4.01656475 C2.47704884,4.60350148 1.82320638,6.3991792 2.04141772,7.84734388 C2.08152428,8.1146616 2.4509268,8.00134213 2.41082024,7.73518666 C2.2311323,6.54097381 2.78893011,4.9152753 3.87286264,4.42364315 C4.09793432,4.32165562 3.99925107,3.91341498 3.77101309,4.01656475" id="Fill-16"></path>
                            <path d="M2,8.95 C1.93336897,8.95 1.93329771,9.05 2,9.05 C2.06663103,9.05 2.06670229,8.95 2,8.95" id="Fill-17"></path>
                        </g>
                        <g id="v642-nap-05-fastfood" transform="translate(9.000000, 21.026634)" fill="#2D2E2C">
                            <path d="M8.46758672,2.20254697 C8.33404303,2.2635553 8.19633642,2.33827824 8.10292905,2.43885197 C8.01171797,2.53706393 7.96130354,2.67404624 8.03640841,2.78955053 C8.11438426,2.90946266 8.28796378,2.97242354 8.44586775,2.99200748 C8.63118958,3.01498206 8.8196695,2.98409206 9.00112986,2.95411403 C9.16863726,2.92645099 9.33961854,2.89516346 9.49897235,2.84388279 C9.64326787,2.79745425 9.77200267,2.72770037 9.86332858,2.62418028 C9.96026726,2.51432319 10.026429,2.36930854 9.98972352,2.23301606 C9.94849623,2.07988724 9.73666089,1.97937197 9.55044905,2.00359759 C9.53841964,2.00515261 9.51662889,2.00788851 9.51233677,2.02010655 C9.50814514,2.0320206 9.52456715,2.04444909 9.53394091,2.05054057 C9.56935446,2.07356192 9.63241556,2.09008257 9.67804981,2.08414309 C9.68486839,2.0832662 9.6916439,2.08235423 9.69853426,2.0819567 C9.69658199,2.08207362 9.69286407,2.0806589 9.69128503,2.08111489 C9.70160621,2.07812176 9.70433364,2.08407294 9.69366794,2.08120842 C9.67118816,2.07516371 9.70241008,2.08649316 9.69356746,2.08159425 C9.70077362,2.08559288 9.72517696,2.10180955 9.73829735,2.11524354 C9.77811786,2.15608335 9.79448245,2.21183034 9.7952289,2.26325131 C9.7968223,2.36898117 9.74543173,2.4795164 9.66969525,2.5643996 C9.49854171,2.7562403 9.20713712,2.81243158 8.93793957,2.86198185 C8.86114082,2.87612905 8.78385401,2.88835878 8.70617961,2.89882303 C8.63291217,2.90870268 8.55803698,2.91902663 8.48354938,2.91880449 C8.45109293,2.91871095 8.41915327,2.91685194 8.38732844,2.91148536 C8.40416675,2.91432649 8.36901158,2.90720612 8.36295381,2.90552249 C8.38124196,2.91059677 8.33305254,2.8939592 8.34333065,2.89832028 C8.29887351,2.87946124 8.25800509,2.84907399 8.23429079,2.80999966 C8.17333986,2.70969485 8.21416521,2.58783017 8.29324639,2.5023273 C8.37458128,2.4144159 8.49068376,2.34773699 8.60510672,2.29114819 C8.86705504,2.16157855 9.17577165,2.0886094 9.48265083,2.08912384 C9.50844659,2.08917061 9.5643446,2.0826816 9.53517543,2.05221251 C9.50798724,2.02381288 9.44222741,2.00786513 9.3999235,2.00779498 C9.07326327,2.00725715 8.75287612,2.07220566 8.46758672,2.20254697 Z" id="Fill-3"></path>
                            <path d="M0.739825504,5.13573011 C0.560716109,5.39784171 0.389468231,5.66536051 0.226569155,5.93784811 C0.15620533,6.05555638 0.0538594246,6.185508 0.00875315915,6.31500497 C-0.0118589585,6.3741595 0.00706390758,6.43490535 0.0330848788,6.48948081 C0.15568556,6.7465262 0.534792595,7.07475837 0.843243434,6.98481685 C0.983467557,6.9439299 1.12045936,6.86621549 1.25577816,6.81053585 C1.41000358,6.74707828 1.56508987,6.68566668 1.72093957,6.62631729 C2.02523225,6.51042766 2.3325136,6.40239715 2.64239381,6.30235567 C3.24701593,6.10716031 3.86148119,5.94241095 4.48268721,5.80908185 C4.73584754,5.75473372 5.09408258,5.65274369 5.33506081,5.7952959 C5.5400125,5.91654403 5.57862165,6.18817101 5.63712823,6.39715232 C5.69126549,6.59049656 5.77174858,6.76898316 5.95625059,6.86798542 C6.15186267,6.97293073 6.38520679,6.96604588 6.57056966,6.84265435 C6.79002618,6.69657853 6.87005447,6.44591462 6.856443,6.19161344 C6.8484353,6.04207895 6.81239252,5.89598689 6.76853695,5.75333726 C6.75036125,5.69423144 6.72539606,5.66139848 6.77402702,5.61948855 C6.79728671,5.59946726 6.82782318,5.59178675 6.85710896,5.59511552 C6.92334711,5.60264989 7.00449616,5.67682445 7.05673301,5.71361945 C7.13193719,5.76658736 7.20598814,5.82135767 7.28349879,5.87098058 C7.42901807,5.96413721 7.6008182,6.04563505 7.77775106,6.03983813 C8.27752588,6.02340541 8.16010666,5.3749788 8.28782382,5.05155303 C8.489998,4.53950823 9.16433423,4.36540586 9.62447661,4.18440239 C10.2752608,3.92839623 10.9260612,3.67240631 11.5768454,3.41641639 C11.8832496,3.29588273 12.1956474,3.18475079 12.4969514,3.05199001 C12.7093261,2.95842744 12.9392917,2.82199691 12.9898718,2.57617189 C13.0758287,2.15837166 12.5955128,1.8716597 12.273483,1.73904507 C12.0121687,1.63145298 11.7303236,1.57150279 11.4566161,1.50453784 C11.1211535,1.42245544 10.7832869,1.35026189 10.443585,1.28802216 C9.7796766,1.16636809 9.10860517,1.08196367 8.43522726,1.03597804 C7.20264212,0.951800956 5.97824334,0.994019402 4.79950309,1.39463998 C3.85374961,1.71605225 2.96939393,2.24305212 2.33046701,3.0213654 C2.173058,3.21311833 2.03244405,3.41784532 1.90693591,3.63171422 C1.87912823,3.67912879 2.09556359,3.76759267 2.1342377,3.70166694 C2.75757153,2.63943461 3.77718104,1.92115271 4.92715528,1.51965529 C6.36238565,1.01855481 7.88930664,1.05396959 9.38120814,1.22915991 C10.1974577,1.32501202 11.0079087,1.4793042 11.8021006,1.69062376 C12.0810707,1.76486327 12.3650436,1.84762766 12.58195,2.04936688 C12.7856835,2.23886275 12.8428744,2.52622422 12.6370619,2.73968718 C12.525149,2.85577167 12.3724991,2.92356475 12.2255504,2.98315771 C12.0377674,3.05929705 11.8483925,3.13165297 11.6598298,3.20582753 C11.274177,3.35753789 10.8885241,3.50923202 10.5028874,3.66094238 C10.1332987,3.80631997 9.76370992,3.95169757 9.39412117,4.0970914 C9.0908193,4.21640722 8.7736948,4.32291137 8.49677125,4.49847515 C8.21497485,4.67712413 8.04725166,4.91288167 7.99790602,5.24384181 C7.96584273,5.45907469 7.96555036,5.91108811 7.66044554,5.92526376 C7.5489062,5.93044364 7.43689583,5.83952784 7.35059782,5.77939903 C7.25591851,5.71342459 7.16424413,5.64181561 7.06389609,5.58446348 C6.89794337,5.48960188 6.66286127,5.41078329 6.51315135,5.57364906 C6.50527359,5.58003054 6.50278844,5.58808452 6.50571215,5.597811 C6.62967722,5.97243476 6.75378848,6.49060123 6.35882847,6.75102408 C6.28570337,6.79925054 6.16795929,6.85509255 6.07948474,6.81683615 C6.0127593,6.78798146 5.96450193,6.70505469 5.93482633,6.64349695 C5.8711383,6.51138569 5.84666039,6.36336133 5.80507882,6.2237157 C5.71176391,5.91038988 5.5065036,5.71019326 5.18168002,5.6422378 C4.81202629,5.56492933 4.42721803,5.6723428 4.06791098,5.75426282 C3.20067521,5.95199129 2.34734328,6.21082283 1.51652388,6.52851664 C1.30882715,6.60793603 1.10249482,6.69096023 0.89773804,6.77768666 C0.826399646,6.80787284 0.728942825,6.87647782 0.652422978,6.88021253 C0.603077341,6.88261573 0.557662462,6.84918197 0.518419849,6.82139899 C0.415846544,6.7487995 0.315774632,6.64650096 0.259720717,6.53277096 C0.190266489,6.39184254 0.284783362,6.29621776 0.357112567,6.17188444 C0.866080816,5.29706953 1.45991771,4.47403717 2.1264574,3.7124976 C2.174195,3.65798709 1.95871797,3.57062738 1.91471621,3.62088357 C1.4934591,4.10215761 1.10067563,4.60765855 0.739825504,5.13573011 Z" id="Fill-7"></path>
                            <path d="M0.663946654,7.99795681 C0.888192307,8.01082592 1.10502719,7.96055888 1.31744351,7.91293377 C1.56004555,7.85855706 1.80260109,7.80406294 2.04518763,7.74961579 C3.02333216,7.53010112 4.00147669,7.31057471 4.97962122,7.0910483 C5.06117073,7.07275443 4.87554482,6.98821281 4.81681677,7.00138721 C3.97952344,7.18930445 3.14223011,7.37720995 2.30493678,7.56511544 C1.89219702,7.65774723 1.48004641,7.75209333 1.0666245,7.84298732 C0.883990801,7.88313284 0.671822538,7.93398698 0.480971875,7.89863214 C0.31008999,7.86695252 0.203750047,7.74165479 0.211548413,7.61272881 C0.214339081,7.56678279 0.0037987072,7.51010468 0.000465409677,7.56515067 C-0.0151933368,7.82374235 0.367484722,7.98093106 0.663946654,7.99795681 Z" id="Fill-8"></path>
                            <path d="M11.3297386,4.73556334 C12.2055231,4.38606959 13.0936818,4.03029166 13.8717095,3.47482754 C14.2412381,3.21104604 14.6325948,2.89767781 14.8507118,2.48067193 C15.0322011,2.1338567 15.0719637,1.67663887 14.8356977,1.3444524 C14.5883774,0.996624139 14.1257449,0.958318045 13.7473234,1.03026001 C13.3479317,1.10618541 12.9363966,1.3032961 12.7977059,1.72950505 C12.6620509,2.14632206 12.8009727,2.61571336 13.148244,2.86945046 C13.4995247,3.12612361 13.990783,3.15596493 14.3818097,2.98718461 C14.4289969,2.96678674 14.4186025,2.93900581 14.3819747,2.91606679 C14.3395722,2.88938474 14.2554272,2.89626987 14.2112099,2.91534566 C13.8625691,3.06582285 13.4534429,2.97427283 13.2020309,2.67604847 C12.9761428,2.40806034 12.9234779,1.99603374 13.0625646,1.67160808 C13.2262349,1.28986922 13.661908,1.10621975 14.0450647,1.10003857 C14.4697495,1.09317061 14.7444582,1.44333398 14.7588123,1.86468384 C14.7726715,2.27006568 14.5533995,2.62223793 14.2872703,2.89899989 C13.9995274,3.19828879 13.6553084,3.44460848 13.3064036,3.65986778 C12.5920456,4.10058531 11.8098766,4.40413235 11.0370295,4.71245262 C10.0352586,5.11211688 9.03348764,5.51174679 8.03173319,5.91139388 C7.98349006,5.93064136 7.99588082,5.96017362 8.03145271,5.98251169 C8.07491113,6.0097947 8.15704324,6.00129558 8.20226706,5.98323283 C9.24475759,5.567343 10.2872646,5.15152185 11.3297386,4.73556334 Z" id="Fill-10"></path>
                            <path d="M7.00673135,2.53064772 C6.9487261,2.90731806 7.27976027,2.99234128 7.4561075,2.9994909 C7.66426831,3.00795604 7.97886923,2.91349532 7.99921337,2.51734944 C8.01581584,2.19435841 7.76612064,1.9845601 7.58059786,2.00088982 C7.4376436,2.01347314 7.66144796,2.22604551 7.73312252,2.21975385 C7.69882703,2.19801902 7.69914667,2.2186671 7.73402503,2.28161232 C7.74363303,2.32739846 7.74477998,2.37409974 7.73744706,2.42171618 C7.72541356,2.51082899 7.68810969,2.58793044 7.64341651,2.64584232 C7.54876548,2.76847253 7.42273333,2.78603198 7.30360164,2.78065547 C7.21929191,2.77685187 7.24023773,2.7913227 7.26844125,2.6518194 C7.28545738,2.56765413 7.32058017,2.48777863 7.36109923,2.42600595 C7.44424322,2.29925757 7.55216871,2.23634095 7.66913812,2.24615023 C7.72755702,2.25104056 7.72721858,2.18992565 7.6977365,2.13596035 C7.65847719,2.06414962 7.57486314,2.03217654 7.51665107,2.0273148 C7.30501182,2.00955516 7.05890787,2.19192754 7.00673135,2.53064772 Z" id="Fill-15"></path>
                            <path d="M1.12117473,5.42110986 C0.866737011,5.62467638 1.04431543,5.88248975 1.36397677,5.96302748 C1.71763713,6.052116 2.17625388,5.96589444 2.50704645,5.85591092 C2.81142336,5.75471608 3.08395353,5.5298915 2.97586962,5.26409071 C2.87330089,5.01179843 2.43906523,4.93941087 2.14970371,5.05063381 C2.0982512,5.07040205 2.17102455,5.0959668 2.19333746,5.1010497 C2.2466732,5.11318106 2.31282162,5.10776013 2.36190328,5.0888933 C2.50859338,5.03250562 2.66927319,5.14993822 2.72075933,5.2451738 C2.78075363,5.35619642 2.75242112,5.48914064 2.6729892,5.59037304 C2.50228793,5.80789877 2.09690603,5.88510632 1.78413866,5.91676805 C1.59349533,5.93604803 1.40471842,5.90260853 1.29443181,5.77675034 C1.20069072,5.66974646 1.23571542,5.54612925 1.34406835,5.45337252 C1.56299374,5.26598115 1.96884645,5.17502723 2.28179878,5.12032968 C2.32487765,5.11280548 2.35445444,5.09944721 2.32649185,5.07042709 C2.30012664,5.04308457 2.19382508,5.05007043 2.15821187,5.05629261 C1.80564446,5.1179009 1.37534341,5.21776869 1.12117473,5.42110986 Z" id="Fill-17"></path>
                            <path d="M5.15138676,2.60245774 C5.11721934,2.65408581 5.07343196,2.71689313 5.07920784,2.8029454 C5.08826191,2.93785145 5.19664737,2.99194192 5.26376264,2.99919776 C5.38211928,3.01195293 5.43638518,2.87034918 5.50700305,2.73544313 C5.52558927,2.6999519 5.55323931,2.64292298 5.58143573,2.63177657 C5.61224689,2.61961237 5.61603243,2.64909537 5.63596505,2.68714748 C5.66936171,2.75092334 5.70843667,2.79301377 5.75769746,2.81377991 C5.84184766,2.84928755 5.94377428,2.81558566 5.98440053,2.67235673 C6.0301197,2.51111954 5.96812661,2.32944452 5.89182068,2.23104748 C5.69939235,1.98288798 5.38376813,1.96039816 5.15621624,2.04336424 C5.08044692,2.07097582 4.95085074,2.17528259 5.01934168,2.3395239 C5.08627158,2.5 5.25977221,2.42232582 5.3528594,2.4074694 C5.38375838,2.40252821 5.37911426,2.36905615 5.3622452,2.34134607 C5.34004906,2.30486989 5.29306154,2.29720365 5.26399679,2.30183294 C5.23790779,2.30600259 5.21181879,2.31015581 5.18572979,2.31432546 C5.17268529,2.31641028 5.15964079,2.3184951 5.14659629,2.32057993 C5.12900524,2.31842944 5.12900524,2.324569 5.14658654,2.33898218 C5.1236489,2.26356743 5.16869487,2.19565475 5.20458919,2.16958627 C5.30025211,2.10011408 5.42992635,2.10362709 5.53114074,2.12142195 C5.63985792,2.14053009 5.77984482,2.18452476 5.83685231,2.36234203 C5.8562971,2.42299887 5.86640488,2.49760924 5.85640442,2.56560399 C5.85037488,2.60661096 5.8385597,2.64504064 5.81935882,2.67288204 C5.809934,2.68906814 5.798753,2.70019814 5.78581582,2.70625561 C5.77039073,2.72712025 5.76494657,2.7256264 5.7694541,2.70172482 C5.74196991,2.67632939 5.72320808,2.60564242 5.69533363,2.57389403 C5.66662012,2.54119351 5.63392594,2.52141232 5.59988535,2.51134936 C5.52614539,2.48956543 5.45544947,2.52781453 5.40066647,2.61348924 C5.3754458,2.65295311 5.23171239,2.98519497 5.21753613,2.83085247 C5.21096997,2.75932829 5.28565632,2.67547576 5.31254536,2.63528958 C5.35349358,2.5740746 5.39444179,2.51285963 5.43539001,2.45164465 C5.46351813,2.40960347 5.33697575,2.32501223 5.30493525,2.37291389 C5.25375242,2.4494285 5.20232567,2.52548347 5.15138676,2.60245774 Z" id="Fill-19"></path>
                            <path d="M6.02694641,5.19334668 C5.91140847,5.54871119 6.19294636,5.87135448 6.38770131,5.96256403 C6.59335479,6.05884638 6.96016693,5.981713 6.99790647,5.58643801 C7.02794499,5.27179026 6.72783006,4.99026686 6.54084369,5.06504861 C6.41888822,5.11382808 6.67781841,5.38221596 6.76338539,5.34794939 C6.70119171,5.25657187 6.67885422,5.24404105 6.69639545,5.31039054 C6.70576278,5.34542979 6.70583034,5.38164485 6.69659811,5.41906933 C6.688154,5.47241768 6.66338461,5.51807284 6.63893047,5.55653875 C6.58452788,5.64220518 6.49245331,5.71550877 6.41161503,5.71769242 C6.32014843,5.72014483 6.28538121,5.60202594 6.30720079,5.47046918 C6.31616281,5.41644894 6.33703665,5.36827417 6.36639963,5.33410839 C6.4155331,5.27696384 6.45268718,5.33548577 6.3839859,5.23957296 C6.42692701,5.29953946 6.53343539,5.39424286 6.59529131,5.3624287 C6.6612004,5.32853167 6.62188463,5.2551273 6.58407753,5.20235006 C6.44861149,5.01327921 6.1333422,4.86616811 6.02694641,5.19334668 Z" id="Fill-21"></path>
                            <path d="M7.87778717,4.69040084 C7.97680505,4.65296047 8.04499749,4.5417262 7.9644772,4.45182175 C7.92963155,4.41289825 7.87721783,4.39796512 7.82608222,4.39334593 C7.79813831,4.39083254 7.77060107,4.39135333 7.74284306,4.3958027 C7.72835406,4.39813494 7.71259857,4.40165595 7.69855109,4.40603739 C7.6680626,4.41551353 7.67150185,4.42554442 7.66143972,4.4007389 C7.62108662,4.30121112 7.92233476,4.27500173 7.8383055,4.12131164 C7.78678646,4.02708235 7.64875167,4.00013706 7.5501637,4 C7.42458457,3.99982005 7.30194508,4.04062293 7.20535559,4.11945491 C7.0002438,4.28685539 6.91762045,4.67706405 7.10406036,4.88595803 C7.18944906,4.98163648 7.34504029,5.02412627 7.46968988,4.98621039 C7.52910991,4.96814119 7.5833362,4.92635334 7.6057959,4.86868134 C7.62447939,4.82071192 7.56802224,4.68039259 7.6149866,4.6551342 C7.66815555,4.62654728 7.51199499,4.5873181 7.47175808,4.60894227 C7.37772479,4.65950432 7.46844664,4.77042158 7.43636633,4.84889127 C7.42408495,4.87892735 7.39148179,4.92646655 7.35419613,4.92899126 C7.3162598,4.93156125 7.27075945,4.886309 7.25111156,4.86149216 C7.21307066,4.81342084 7.19317878,4.75213727 7.18334903,4.69308405 C7.14396032,4.45656548 7.24318735,4.16280513 7.49637893,4.08225228 C7.55706544,4.06293771 7.62257386,4.0567335 7.66426316,4.11293369 C7.71546849,4.18198385 7.65154025,4.22405474 7.59552462,4.25910627 C7.53189849,4.29893549 7.44013092,4.37413325 7.51930339,4.44807431 C7.57730589,4.50225927 7.69006916,4.49710796 7.76101532,4.4794237 C7.77352908,4.47629895 7.83416911,4.47085328 7.80018327,4.45697306 C7.82457174,4.4669247 7.83213577,4.51339968 7.8308809,4.53648433 C7.82419993,4.65910807 7.68991811,4.64032561 7.61032734,4.59691878 C7.57208892,4.5760758 7.40911957,4.59107686 7.48617737,4.63309114 C7.60235665,4.69644655 7.74740936,4.73971753 7.87778717,4.69040084 Z" id="Fill-23"></path>
                            <path d="M12.0716151,1.00232121 C12.0566326,0.996411352 12.0001149,0.994527586 12,1.09056276 C11.9998671,1.19003304 12.0516194,1.2117887 12.067555,1.21810486 C12.3519164,1.33028133 12.6293109,1.59094295 12.896555,1.98254484 C12.9373088,2.04227133 13.0544235,1.93932901 12.970295,1.81607156 C12.680825,1.39185465 12.3793938,1.12376877 12.0716151,1.00232121 Z" id="Fill-24"></path>
                            <path d="M12.051204,0.950534365 C11.8984702,0.95270434 12.1287479,1.00531788 12.2052944,1.00422955 C12.4251984,1.00111147 12.6365241,1.01102658 12.8399299,1.03999074 C12.8714901,1.04448425 12.9749485,1.0586859 12.9970726,1.04232763 C13.0185383,1.02646345 12.9158379,1.00831578 12.8881081,1.00436309 C12.621143,0.966351811 12.3418492,0.946408075 12.051204,0.950534365 Z" id="Fill-25"></path>
                            <path d="M12.0562909,0.963944798 C11.9358839,0.977300788 12.0352634,1.00559836 12.1077329,1.01751922 C12.2089065,1.03416212 12.3970268,1.05588586 12.5182682,1.04243728 C12.555984,1.03824762 12.6008341,1.03741432 12.6353375,1.03384963 C12.6567821,1.03162749 12.6382997,1.03538893 12.6186073,1.03250709 C12.6274105,1.03303948 12.6362136,1.03356029 12.6450585,1.03408111 C12.5602813,1.02541244 12.5427167,1.02409305 12.592323,1.03012292 C12.6845266,1.04191647 12.8840367,1.06205461 12.9757813,1.04042347 C13.0687358,1.01852612 12.8674317,0.988237886 12.8205372,0.982242736 C12.589194,0.952660491 12.3006511,0.936839314 12.0562909,0.963944798 Z" id="Fill-26"></path>
                            <path d="M0.991602307,6.09445695 C1.04832796,6.05004165 0.80114462,5.96865021 0.744966589,6.01265548 C0.416433688,6.26993619 0.164416209,6.57500033 0.00181149487,6.91453647 C-0.024190908,6.96882184 0.237872525,7.03636004 0.266424183,6.97674425 C0.425667657,6.64423723 0.669659703,6.34658297 0.991602307,6.09445695 Z" id="Fill-27"></path>
                            <path d="M1.99244217,5.98818809 C2.06668812,5.9714649 1.57177884,5.93504402 1.47577905,5.95667626 C1.37687366,5.97895707 1.2281906,5.99724579 1.05549804,6.00614693 C0.943861488,6.01190584 1.02460683,6.02555947 1.08921839,6.03247575 C1.17244879,6.04138808 1.34862044,6.05425895 1.45811601,6.04861746 C1.68173319,6.03708847 1.86253087,6.01745787 1.99244217,5.98818809 Z" id="Fill-28"></path>
                            <path d="M9.02976766,2.99548152 C8.961057,3.01062923 9.02028797,3.03595649 9.1159032,3.04449708 C9.21158663,3.05303767 9.32384245,3.04990698 9.42825537,3.04660342 C9.53631694,3.04318462 9.64441262,3.03975942 9.75247419,3.03634063 C9.81586531,3.03433673 9.88167751,3.03214716 9.93384987,3.02509829 C10.0969823,3.00306178 9.92996251,2.94302156 9.74043704,2.95556355 L9.51974455,2.95 C9.34249492,2.9588479 9.17482728,2.97441175 9.02976766,2.99548152 Z" id="Fill-31"></path>
                            <path d="M9.02117765,3.01402422 C9.13946837,3.05420207 9.43173112,3.05304748 9.63889733,3.04659818 C9.78422393,3.04207461 10.0582684,3.039214 9.98896415,2.99885521 C9.93589544,2.96796574 9.70509908,2.94782942 9.54050446,2.95461477 C9.46616163,2.95767786 9.52828117,2.97028783 9.5609155,2.97490617 C9.61648018,2.98276856 9.71375336,2.99038107 9.78590347,2.98740413 C9.67815651,2.97373436 9.64136998,2.97254531 9.67556722,2.98383698 C9.67729341,2.98540946 9.6790196,2.98697762 9.68072247,2.98854579 C9.68286854,2.99434888 9.67379438,2.99907061 9.65063076,3.00295657 C9.59630241,3.01207263 9.45967675,3.01174951 9.39349833,3.01380881 C9.37131444,3.01449812 9.34915389,3.01519173 9.32697,3.01588103 C9.27907988,3.01531236 9.27049558,3.01654018 9.30119378,3.0195602 C9.32321437,3.02395452 9.32932602,3.02236912 9.3195987,3.01479538 C9.33438796,3.01118945 9.35216306,3.00824698 9.37290067,3.00597659 C9.44976281,2.9954173 9.54391019,2.98853718 9.63493176,2.98366465 C9.70642871,2.9798304 9.65025753,2.96842671 9.61452072,2.96336894 C9.56219848,2.95596322 9.45846375,2.94717889 9.38953275,2.95087098 C9.25148415,2.95826377 8.91235765,2.97705594 9.02117765,3.01402422 Z" id="Fill-32"></path>
                            <path d="M3.95,5.02520611 C3.97084903,5.04011642 3.9933926,5.05536923 4.01576153,5.04815383 C4.03813046,5.04093843 4.05748791,5.00020337 4.04713184,4.96742961 L4.02852017,4.95 C3.99673921,4.95143851 3.96598725,4.9808938 3.95,5.02520611 Z" id="Fill-33"></path>
                            <path d="M3.00762408,5.00974391 C2.98409264,5.01675927 3.0194882,5.0226349 3.05325314,5.02538276 C3.27037775,5.04304608 3.52424738,5.05859647 3.76127672,5.04456053 C3.91705653,5.03533855 4.04997963,5.00776628 3.98157821,4.97674878 C3.93749542,4.95677476 3.53599905,4.95732121 3.58230284,4.97831007 C3.61092292,4.99128954 3.57814197,5.00539833 3.52070502,5.01391253 C3.50130634,5.0167853 3.47808416,5.01833617 3.48772727,5.01821127 C3.45005448,5.01868486 3.38769757,5.01146652 3.35351092,5.00868223 C3.3687206,5.01389692 3.38393029,5.01911161 3.39913998,5.02432109 C3.46565776,5.00449279 3.58325872,4.98257237 3.71854341,4.9811464 C3.76577497,4.98065199 3.89729237,4.97907509 3.87072462,4.96483098 C3.84660278,4.95190876 3.6780311,4.94950438 3.62360235,4.95007686 C3.37782955,4.95266338 3.1421778,4.96962933 3.00762408,5.00974391 Z" id="Fill-34"></path>
                            <path d="M0.330780388,7.95174561 C0.548933139,8.02768519 0.779073501,8.00064861 1.00481944,7.96130328 C1.41536401,7.8897275 1.82590857,7.81808057 2.23615811,7.74555614 C2.72575568,7.65899167 3.20858304,7.56085364 3.68577375,7.44014955 C4.12242087,7.32970277 4.55639717,7.21303045 4.99096354,7.09791156 C5.04015622,7.0848676 4.87552845,6.98455953 4.8095966,7.00203844 C4.21853913,7.15861342 3.62926739,7.32308592 3.02928133,7.4590633 C2.55055335,7.56755349 2.06156137,7.64785687 1.57500729,7.73271377 C1.34991352,7.77198795 1.12486634,7.81141629 0.899896802,7.85104622 C0.673017319,7.89099632 0.251214959,7.98107081 0.204599929,7.72172127 C0.195422886,7.67067194 -0.00786957792,7.61323107 0.000236033613,7.65833947 C0.0252516278,7.79739996 0.170205428,7.8958463 0.330780388,7.95174561 Z" id="Fill-35"></path>
                            <path d="M6.91953842,7.00701045 C7.01073234,6.99975971 7.03192454,6.98358001 6.94388993,6.96913419 C6.85184407,6.95403004 6.68851858,6.94473019 6.58142164,6.95323265 C6.41443986,6.96648238 6.24745809,6.97973212 6.08047632,6.99299113 C5.98928241,7.00022332 5.96805471,7.01640302 6.05612481,7.03085812 C6.14813518,7.04596226 6.31146067,7.05527138 6.41855761,7.04676893 C6.58553938,7.03350992 6.75252116,7.02025091 6.91953842,7.00701045 Z" id="Fill-36"></path>
                            <path d="M13.6355009,0.593404174 C12.8154356,0.361759182 11.985807,0.213445227 11.1388889,0.137725261 C10.2624444,0.0593889898 9.38163654,0.037728017 8.50251824,0.0155064072 C7.67871289,-0.00532210478 6.81414459,-0.0342713579 6.00359335,0.146695452 C5.6737661,0.22034276 5.31962871,0.356407648 5.13182386,0.666337944 C4.89820374,1.05186928 5.02310078,1.52878444 5.13992724,1.93208628 C5.1597756,2.00063688 5.39121404,2.0293313 5.37130006,1.9606108 C5.2672028,1.60125951 5.15216433,1.18752643 5.31129568,0.826068506 C5.44219643,0.528744047 5.7356733,0.371697746 6.02604988,0.28750027 C6.37767751,0.185515313 6.75597741,0.15996386 7.11900555,0.1385917 C7.52058216,0.114943014 7.92306096,0.114246465 8.32509687,0.121517757 C9.93081277,0.150568944 11.5754544,0.166385701 13.1437865,0.562195384 C13.4713829,0.64486385 13.8148087,0.723302055 14.1245415,0.864276764 C14.4258757,1.00147991 14.640927,1.22626135 14.7667426,1.54240962 C14.7939726,1.61046755 15.0224748,1.63195863 14.9981974,1.57093415 C14.7569004,0.964885612 14.2047551,0.754222032 13.6355009,0.593404174 Z" id="Fill-38"></path>
                            <path d="M5.97132102,0.98032429 C6.00921237,0.97890859 6.00526459,0.970328727 5.98421788,0.96227637 C5.95801243,0.952253755 5.89858998,0.94895346 5.86303582,0.950278988 C5.57281403,0.961126677 5.28834436,0.984986181 5.01368358,1.02156444 C4.95376464,1.02954466 5.10734023,1.05510391 5.15244898,1.04909395 C5.4177005,1.01376908 5.69100499,0.990797765 5.97132102,0.98032429 Z" id="Fill-39"></path>
                            <path d="M5.97198051,0.989437362 C6.05778871,0.985555866 5.92311766,0.948129741 5.88010665,0.95007308 C5.58990051,0.963204872 5.30195632,0.983405237 5.01667923,1.01124422 C4.97981265,1.01484588 5.01347197,1.03035632 5.02800028,1.03551782 C5.05527885,1.04522416 5.10265623,1.05255184 5.13740714,1.04915748 C5.41311874,1.02224611 5.69147491,1.00212866 5.97198051,0.989437362 Z" id="Fill-40"></path>
                        </g>
                        <g id="Group-28" transform="translate(3.397841, 33.953421)" fill="#2D2E2C">
                            <path d="M8.63592246,10.5571518 C8.39174414,11.3656052 7.73998064,11.7242608 6.90907019,11.7144738 C6.03632427,11.7042789 5.30875987,11.2004483 5.27458733,10.2886189 C5.25843304,9.85696796 5.41024195,9.25710165 5.82300479,9.01976502 C6.12061654,8.84869505 6.51950325,8.836869 6.86847736,8.84645218 C6.85584387,9.15127888 6.83202665,9.44978475 6.79971807,9.73850354 C6.67545429,9.6940539 6.55450422,9.62024302 6.50956215,9.50707993 C6.44225261,9.33784505 6.16183069,9.41145203 6.22996866,9.58292978 C6.32585887,9.82414047 6.54766971,9.9660531 6.79454041,10.0363977 C7.13025971,10.1324334 7.40612529,10.0353782 7.70000912,9.87368755 C7.86279467,9.78397267 7.71678473,9.53725675 7.55358497,9.62717553 C7.40032632,9.71158908 7.25410927,9.78621554 7.08448922,9.79029349 C7.11907597,9.4936227 7.14247898,9.18553365 7.156148,8.87214326 C8.07238623,9.00916235 8.97433414,9.43693921 8.63592246,10.5571518 Z M6.65950711,0.357997304 C6.93992903,0.334141302 7.22407886,0.333121815 7.50532921,0.338015354 C7.60308338,0.339646533 7.72361924,0.366153202 7.81971656,0.348006329 C7.8540962,0.341685508 7.87957028,0.339238738 7.89986669,0.339034841 C7.82737949,0.830835498 7.43408464,1.47820991 7.05880804,1.75020912 C6.36852277,2.25036957 5.61672693,2.18920033 4.86120317,1.95349488 C4.84981232,0.969077972 5.73726279,0.436905619 6.65950711,0.357997304 Z M3.59557662,10.6332056 C3.1538189,11.5548221 2.10006208,11.7297661 1.23891412,11.3168737 C0.419187412,10.9237594 0.0331412828,10.073711 0.47179241,9.2371197 C0.919970427,8.38217768 1.72602812,8.36994383 2.52504419,8.74205669 C2.35583835,8.99427784 2.18186907,9.24221714 2.00603582,9.48669019 C1.91076693,9.39432464 1.83703709,9.27851089 1.84138632,9.14822041 C1.8473924,8.96450881 1.55744359,8.96471271 1.55123041,9.14822041 C1.54273905,9.40594679 1.71380885,9.62901061 1.91159535,9.7815259 C2.17254928,9.98297659 2.44841486,10.0011235 2.76901541,9.96809207 C2.95271869,9.94933351 2.95478975,9.66346928 2.76901541,9.68263564 C2.58821161,9.70119031 2.40865046,9.717706 2.24317253,9.64919646 C2.4231479,9.39921818 2.60043088,9.14536585 2.77295042,8.88784337 C3.4006896,9.28014207 3.97955168,9.83188857 3.59557662,10.6332056 Z M7.16526067,8.58770631 C7.18762815,7.49624325 7.06667808,6.35604869 6.70610602,5.38223445 C6.32772283,4.36009652 5.82134794,3.22234873 5.12857739,2.32112198 C5.90667574,2.49851277 6.68580961,2.44509164 7.35310608,1.88906328 C7.73687404,1.56955597 8.22875149,0.749480415 8.20555558,0.230561396 C8.20265609,0.165925903 8.16227037,0.111893078 8.09910295,0.0929306149 C7.54198702,-0.0746730917 6.66717004,0.00831317178 6.11233228,0.153488159 C5.27272337,0.373085716 4.62344515,0.969281869 4.57291121,1.81341733 C4.51305749,1.84114738 4.46894385,1.90904523 4.48261287,1.98204052 C4.92892693,4.36274718 3.95946237,6.54546942 2.6832734,8.500846 C2.68285919,8.500846 2.68265208,8.5006421 2.68244498,8.5004382 C1.68750635,8.03249355 0.778102616,8.04778586 0.221400903,9.0929642 C-0.292636915,10.0584186 0.125510689,11.0903437 1.09248997,11.5633857 C2.10565395,12.0588566 3.19958939,11.8569981 3.7923276,10.8656487 C4.36435518,9.90896181 3.7167338,9.156988 2.92869436,8.65009894 C4.15662756,6.7632319 5.08777745,4.67634147 4.83552199,2.40737061 C5.56598588,3.32021951 6.11005411,4.53809899 6.47435408,5.58959816 C6.78832722,6.49551455 6.89395143,7.54946048 6.87531186,8.56425811 C5.7573521,8.55732559 4.95875023,9.07033159 4.98463852,10.2886189 C5.007006,11.3448077 5.88617221,11.9950367 6.90907019,11.9999653 C7.97048994,12.0050276 8.78379635,11.455524 8.97143465,10.3930144 C9.18392571,9.19063108 8.17407542,8.73573587 7.16526067,8.58770631 L7.16526067,8.58770631 Z" id="Fill-69"></path>
                        </g>
                    </g>
                    <g id="Group-49-Copy" transform="translate(50.500000, 25.026634) rotate(-3.000000) translate(-50.500000, -25.026634) translate(43.000000, 17.026634)" fill="#1C1B19">
                        <path d="M4.11872495,15.7912179 C3.27134872,15.7468088 2.88033539,15.1864732 2.88033539,14.9305758 L2.92802044,14.0206908 L5.31021466,13.9969513 L5.26252961,14.9068363 C5.26252961,15.1627337 4.96610117,15.835627 4.11872495,15.7912179 Z M10.7762966,15.8079703 C9.94599917,15.7644562 9.69983978,15.192783 9.69983978,14.9368855 L9.73811269,14.0265072 L11.9659721,13.9946794 L11.9182871,14.9045644 C11.9182871,15.1604618 11.6065941,15.8514843 10.7762966,15.8079703 Z M14.3942543,13.8266392 L0.611308906,13.7506921 C0.406688088,13.7506921 0.358156887,13.3097296 0.358156887,13.0910385 C0.358156887,12.8723474 0.468963411,12.5624081 0.673584229,12.5624081 L14.1732591,12.6379735 C14.3778799,12.6379735 14.6707104,12.8363199 14.6707104,13.055011 C14.6707104,13.273702 14.5988751,13.8266392 14.3942543,13.8266392 Z M11.13375,3.03689982 L12.0056977,8.23613361 C12.0183685,8.324051 12.3785373,8.369445 13.0862039,8.37231562 C13.2418936,8.46243783 13.901591,8.94598082 14.1009548,9.92740345 C14.3508672,11.1589359 14.4944978,12.3691339 14.4706389,12.3691339 L0.916434865,12.3341799 C0.847284352,12.3341799 0.463944907,12.2913657 0.399242672,12.307075 C0.418248954,11.7882522 0.578074988,10.8025597 0.831222483,9.55449104 C1.03018185,8.57389522 1.79031131,8.39338125 1.94680984,8.30243222 C2.61207693,8.28544553 2.9510459,8.23299349 2.96371675,8.14507611 L3.71250366,3.05814117 L11.13375,3.03689982 Z M9.92977112,0.404309743 L9.92977112,2.91698318 L8.84560429,2.91698318 L8.84560429,1.4593184 C8.84560429,1.34769914 8.75704311,1.25716353 8.64785809,1.25716353 L6.91424258,1.25716353 L6.91424258,0.404309743 L9.92977112,0.404309743 Z M5.30841399,2.8479446 L8.45011188,2.8479446 L8.45011188,1.66147327 L5.30841399,1.66147327 L5.30841399,2.8479446 Z M1.76920174,8.08247423 C1.7303804,8.09983722 0.810395492,8.5252306 0.523279325,9.9403147 C0.205833985,11.5029843 0.168225811,11.7001783 0.163373143,12.5356691 C0.0606583452,12.687802 3.32732203e-16,12.8725939 3.32732203e-16,13.0722683 C3.32732203e-16,13.5881973 0.403175801,14.0082164 0.898552287,14.0082164 L2.68999542,14.0082164 L2.68999542,14.9206005 C2.68999542,15.5262383 3.31275443,16 4.10778314,16 C4.90240746,16 5.52516647,15.5262383 5.52516647,14.9206005 L5.52516647,14.0082164 L9.38910307,14.0082164 L9.38910307,14.9206005 C9.38910307,15.5262383 10.0114577,16 10.8064864,16 C11.6015151,16 12.2242741,15.5262383 12.2242741,14.9206005 L12.2242741,14.0082164 L14.1014477,14.0082164 C14.5968242,14.0082164 15,13.5881973 15,13.0722683 C15,12.7985944 14.8859623,12.5530321 14.7060092,12.3814691 C14.6963039,11.6691729 14.6437333,11.4021135 14.3473162,9.9403147 C14.0602,8.5252306 13.1402151,8.09983722 13.1013938,8.08247423 C13.0682339,8.06759166 13.0322433,8.06015038 12.9958483,8.06015038 L12.1344998,8.06015038 L12.0467474,7.45285895 L12.4782304,7.45285895 C12.6602054,7.45285895 12.8078074,7.30196626 12.8078074,7.11593417 C12.8078074,6.92990207 12.6602054,6.77900938 12.4782304,6.77900938 L11.9484808,6.77900938 L11.4065996,3.04513862 C11.387189,2.91326254 11.275982,2.81528564 11.1453644,2.81528564 L10.3256679,2.81528564 L10.3256679,0.202568276 C10.3256679,0.0905356174 10.2371067,5.81767148e-16 10.1275173,5.81767148e-16 L6.71649637,5.81767148e-16 C6.60690696,5.81767148e-16 6.51875017,0.0905356174 6.51875017,0.202568276 L6.51875017,1.25716353 L5.11066778,1.25716353 C5.00148276,1.25716353 4.91292158,1.34769914 4.91292158,1.4593184 L4.91292158,2.81528564 L3.72523118,2.81528564 C3.59461354,2.81528564 3.48381096,2.91326254 3.46440029,3.04513862 L2.91240935,6.84639434 L2.29328984,6.84639434 C2.14770981,6.84639434 2.02962823,6.96710849 2.02962823,7.11593417 C2.02962823,7.26475984 2.14770981,7.38547399 2.29328984,7.38547399 L2.83395789,7.38547399 L2.73609576,8.06015038 L1.87474726,8.06015038 C1.83835225,8.06015038 1.80276602,8.06759166 1.76920174,8.08247423 Z" id="Fill-58"></path>
                        <path d="M7.2725638,4.51252825 L7.2725638,5.00697652 L6.54729491,5.00697652 C6.47540702,5.00697652 6.41709796,5.06396777 6.41709796,5.13510858 L6.41709796,5.65824899 C6.41709796,5.7293898 6.47540702,5.7867741 6.54729491,5.7867741 L8.63084548,5.7867741 C8.70313274,5.7867741 8.76144181,5.7293898 8.76144181,5.65824899 L8.76144181,5.13510858 C8.76144181,5.06396777 8.70313274,5.00697652 8.63084548,5.00697652 L7.92195104,5.00697652 L7.92195104,4.51252825 L10.4250759,4.30260376 L10.7568515,7.66999818 L4.27820795,7.66137505 L4.6584852,4.22654711 L7.2725638,4.51252825 Z M7.53255833,5.00697652 L7.66155714,5.00697652 L7.66155714,4.58995775 L7.53255833,4.58995775 L7.53255833,5.00697652 Z M7.40276075,5.26324064 L8.50064853,5.26324064 L8.50064853,5.53011693 L6.67749186,5.53011693 L6.67749186,5.26324064 L7.40276075,5.26324064 Z M10.7395568,8 C10.8134416,8 10.8841313,7.96894959 10.9336541,7.91470964 C10.9827775,7.86007664 11.0067401,7.78775671 10.9983532,7.71543677 L10.6077624,4.22835806 C10.5929854,4.09826078 10.4815592,4 10.348966,4 L4.65105222,4 C4.518459,4 4.4066334,4.09826078 4.39185645,4.22835806 L4.00166498,7.71543677 C3.99327806,7.78775671 4.01684131,7.86007664 4.06636407,7.91470964 C4.11588684,7.96894959 4.18617722,8 4.26046137,8 L10.7395568,8 Z" id="Fill-59"></path>
                        <path d="M3.59832046,11.6645022 C2.78151486,11.6216952 2.24966569,11.0118675 2.24966569,10.5130844 C2.24966569,10.0143013 2.66664051,9.19371341 3.48782061,9.23674964 C4.30900071,9.27978586 4.84563042,9.99312675 4.84563042,10.4919098 C4.84563042,10.9906929 4.41512606,11.7073092 3.59832046,11.6645022 Z M2,10.5 C2,11.3273502 2.6730038,12 3.50022814,12 C4.3269962,12 5,11.3273502 5,10.5 C5,9.67310618 4.3269962,9 3.50022814,9 C2.6730038,9 2,9.67310618 2,10.5 Z" id="Fill-61"></path>
                        <path d="M11.6134969,11.5844049 C10.7966914,11.541598 10.2648422,10.9317702 10.2648422,10.4329872 C10.2648422,9.93420407 10.681817,9.11361614 11.5029971,9.15665237 C12.3241772,9.19968859 12.8608069,9.91302948 12.8608069,10.4118126 C12.8608069,10.9105956 12.4303025,11.6272119 11.6134969,11.5844049 Z M10.0151765,10.4199027 C10.0151765,11.2472529 10.6881803,11.9199027 11.5154046,11.9199027 C12.3421727,11.9199027 13.0151765,11.2472529 13.0151765,10.4199027 C13.0151765,9.59300891 12.3421727,8.91990273 11.5154046,8.91990273 C10.6881803,8.91990273 10.0151765,9.59300891 10.0151765,10.4199027 Z" id="Fill-61-Copy"></path>
                    </g>
                    <path d="M43.9445717,14.7567428 C45.0471555,14.2632711 45.6046598,13.9840284 45.6170844,13.9190145 C45.667154,13.657798 45.6498366,13.3586989 45.6915612,13.048722 C45.7947601,12.2790042 45.8350628,11.4563935 46.1649654,10.5438773 C46.215035,10.4080447 45.8052044,10.2448687 45.6983894,10.175211 L43.2413714,8.27118527 L44.153849,8.22841181 C44.1819436,8.25975779 44.2122635,8.28762088 44.2461995,8.31200108 C44.3146279,8.35379572 44.3891759,8.37817592 44.4642802,8.37817592 C44.5124026,8.37817592 44.560525,8.36772726 44.6078129,8.35031283 C44.6742941,8.32244974 44.7329867,8.2806551 44.7830563,8.22144604 L45.6303442,8.21099738 C45.6737378,8.31548397 45.741888,8.40603901 45.8322913,8.46524808 C45.9007197,8.5105256 45.9752677,8.53490581 46.0500938,8.53490581 C46.0984944,8.53490581 46.1466168,8.52445715 46.1936265,8.50355983 C46.3146279,8.45828231 46.292952,8.55579864 46.3510883,8.41648318 L46.4770757,8.20054872 L47.0648365,8.19358295 C47.1468949,8.19010006 47.2322959,8.14359681 47.2614985,8.04381883 C48.0156541,5.46706194 49.0974026,4.35188645 49.3917003,4.32680967 C49.5138143,4.60962004 49.7944466,6.34586831 48.601436,9.13744066 C48.5634419,9.22634453 48.5713943,9.33596518 48.6178477,9.42303734 L48.9007406,9.93850452 L48.8762622,9.99771359 C48.8178477,10.137029 48.8067211,10.2972418 48.8448296,10.4504888 C48.8829381,10.6002529 48.9661092,10.7256368 49.0784875,10.7987775 C49.1483067,10.844055 49.2228546,10.8649523 49.29629,10.8649523 C49.3316168,10.8649523 49.3666655,10.8579865 49.4006015,10.8475379 L49.8503929,11.669499 C49.8303651,11.7739856 49.8317559,11.8819551 49.8579033,11.9864417 C49.89629,12.1362058 49.9791829,12.2615897 50.0915612,12.3347303 C50.1416307,12.3660763 50.1950382,12.3869736 50.2492802,12.3974223 L50.7665575,13.8559785 L48.0397203,11.8273713 C47.9326271,11.7577136 47.7381322,11.6667893 47.6772143,11.7956561 C47.2076733,12.7952445 46.667764,13.813431 46.2112967,14.4333848 C46.1452791,14.5239399 46.27631,15.2826352 46.6043894,16.7094709 C46.3462092,16.3517759 45.9168158,15.7697051 45.4858845,15.418636 C44.9238107,14.9607284 44.203892,14.8513714 43.9445717,14.7567428 Z M47.8714578,11.9973243 L50.7076726,14.1080892 C50.7891773,14.1677947 50.8890941,14.139698 50.9499771,14.0413596 C51.0106146,13.9430211 51.016752,13.7990255 50.9649524,13.6901508 L50.3021133,12.3099001 C50.3190525,12.2782913 50.3340278,12.2466825 50.3467936,12.2115617 L50.4877082,11.825232 C50.5392624,11.6812363 50.5490822,11.5196803 50.5154493,11.3686605 C50.4815708,11.2141286 50.408413,11.0912055 50.3092327,11.0174517 C50.2100523,10.9436978 50.0966332,10.9296495 49.9900879,10.9753066 C49.9002364,11.0174517 49.8256056,11.1017418 49.773315,11.2106165 L49.4777378,10.592489 L49.5936119,10.2764011 C49.6451661,10.1324055 49.6552314,9.97084943 49.621353,9.81982964 C49.58772,9.66529776 49.5143167,9.54237467 49.4151364,9.46862082 C49.315956,9.39486697 49.2025369,9.38081862 49.0959916,9.42998785 C49.0478744,9.45106038 49.0044216,9.48618126 48.9658788,9.52832632 L48.8779912,9.34569774 C49.6454116,7.07337672 50.1469598,4.49901612 49.5852651,4.08142884 C49.0213608,3.66313914 47.7504282,5.70682323 46.884073,7.92330205 L46.6648451,7.92681413 C46.6724555,7.84252402 46.6685275,7.75472182 46.6498698,7.6704317 C46.6162369,7.51941191 46.5428336,7.39297674 46.4438987,7.31922289 C46.3444729,7.24546904 46.2312992,7.23142068 46.1245085,7.28058992 C46.0179632,7.32975915 45.9308122,7.43160971 45.879258,7.57560532 L45.7466902,7.94086249 L45.2286937,7.94788666 C45.3234551,7.65989544 45.243669,7.31219871 45.0440807,7.16469101 C44.9449004,7.09093716 44.8314812,7.07688881 44.724936,7.12254595 C44.6183907,7.17171519 44.5312397,7.27707783 44.4796855,7.41756135 L44.3387708,7.80740314 C44.3206041,7.85657237 44.3095568,7.90925369 44.3019464,7.96193502 L43.1981966,7.97949546 C43.1063811,7.97949546 43.0268404,8.07080975 43.0054823,8.19724492 C42.9841241,8.32719218 43.0265949,8.45713944 43.1080996,8.52035703 L45.9450509,10.6276099 C45.6885076,11.5267045 45.5871178,12.3871661 45.5043857,13.0930958 C45.4761536,13.3354299 45.4491491,13.5637156 45.4187076,13.7744409 L43.932966,14.4452497 C43.8367316,14.4873948 43.7783035,14.6278783 43.7962248,14.7683618 C43.8143915,14.9123574 43.903752,15.0106959 44.0036688,15.0036717 C44.0176621,15.0036717 45.4255815,14.9228937 46.5602638,16.9212718 C46.5992977,16.9915136 46.6569892,17.0266345 46.7156628,17.0266345 C46.7480682,17.0266345 46.7804737,17.0160982 46.8104242,16.9950257 C46.8951203,16.928296 46.9356271,16.7878125 46.9064131,16.6543531 L46.4380068,14.536564 C46.4898065,14.4522739 46.5445521,14.3679838 46.6019981,14.2766695 C46.9663141,13.7112233 47.4550966,12.9491002 47.8714578,11.9973243 L47.8714578,11.9973243 Z" id="Fill-45-Copy" fill="#1C1B19" transform="translate(47.000000, 10.526634) rotate(-95.000000) translate(-47.000000, -10.526634) "></path>
                    <g id="Fill-4" transform="translate(34.500000, 22.026634) scale(-1, 1) rotate(-17.000000) translate(-34.500000, -22.026634) translate(30.000000, 14.026634)" fill="#1C1B19">
                        <path d="M8.11920423,12.7664229 L6.69523563,15.6322656 L1.55266863,15.6596221 L0.367162916,12.703096 L8.11920423,12.7664229 Z M3,11 L3.75,11 L3.75,2 L3,2 L3,11 Z M4.24307599,0.927083183 C6.03049784,2.18671986 7.61474443,5.18186776 8.12021519,7.33950635 C8.24641048,7.87843991 8.7218674,11.0065505 8.75600219,11.3402894 L4.08200432,11.2008266 L4.24307599,0.927083183 Z M1.52225634,16 L6.74076895,16 C6.83717578,16 6.92748999,15.9349056 6.98196523,15.8262519 L8.36104884,13.0722217 C8.42233348,12.9503533 8.42914289,12.7917776 8.37860994,12.66061 C8.3277186,12.5299318 8.22844465,12.4481968 8.11985257,12.4481968 L3.35326939,12.4481968 L3.35326939,11.6582546 L8.70761169,11.6582546 C8.78968294,11.6582546 8.86745351,11.6112692 8.92300391,11.5290447 C8.97819593,11.4468202 9.00579194,11.3366982 8.99898253,11.2255973 C8.99396508,11.1409256 8.86458639,9.13083112 8.23131177,6.81533144 C7.39483018,3.75932214 6.063054,1.63763727 4.3771888,0.666116056 C4.32880618,0.618151785 4.27003027,0.589275336 4.20587851,0.589275336 L3.35326939,0.589275336 L3.35326939,0.399375975 C3.35326939,0.17864244 3.22245714,0 3.06082338,0 C2.89954801,0 2.76873576,0.17864244 2.76873576,0.399375975 L2.76873576,12.4481968 L0.29190446,12.4481968 C0.186537885,12.4481968 0.0890558827,12.5255269 0.037447764,12.6518002 C-0.0141603546,12.777584 -0.012368406,12.9317549 0.04246522,13.0550916 L1.2728171,15.8086323 C1.32585878,15.9275642 1.42011528,16 1.52225634,16 Z" id="Fill-2"></path>
                    </g>
                </g>
            </g>
        </g>
    </g>
</svg>