<?xml version="1.0" encoding="UTF-8"?>
<svg width="94px" height="63px" viewBox="0 0 94 63" version="1.1" xmlns="http://www.w3.org/2000/svg" xmlns:xlink="http://www.w3.org/1999/xlink">
    <title>Group 16</title>
    <g id="Page-1" stroke="none" stroke-width="1" fill="none" fill-rule="evenodd">
        <g id="NEW-PROTOTYPE" transform="translate(-5623.000000, -3014.000000)">
            <g id="Button-Copy" transform="translate(5543.000000, 3014.869747)">
                <g id="Group-16" transform="translate(81.000000, 0.000000)">
                    <g id="Sit" transform="translate(46.822897, 30.424115) scale(1, -1) rotate(153.000000) translate(-46.822897, -30.424115) translate(19.750367, 10.072475)">
                        <path d="M0.343025479,17.0417994 C1.93612497,7.27312361 10.1093526,0.463465106 24.9963779,0.463465106 C50.3041339,0.463465106 61.6427422,22.7046956 47.90644,40.2398149" id="Path" stroke="#3A3939" fill="#FFFFFF" stroke-linejoin="round" transform="translate(27.072530, 20.351640) rotate(1.000000) translate(-27.072530, -20.351640) "></path>
                        <g id="Group-8" transform="translate(31.231644, 21.064874) rotate(35.000000) translate(-31.231644, -21.064874) translate(17.497130, 15.622307)">
                            <path d="M-4.55722731e-17,3.28440889 C-4.55722731e-17,1.62722253 1.34297678,0.284245747 2.99983686,0.284245747 C4.65702322,0.284245747 6,1.62722253 6,3.28440889 C6,4.94094269 4.65702322,6.28424575 2.99983686,6.28424575 C1.34297678,6.28424575 -4.55722731e-17,4.94094269 -4.55722731e-17,3.28440889" id="Fill-12" fill="#2D2E2C"></path>
                            <path d="M7.78477912,8.46405585 C9.01294585,9.69215943 10.5129458,10.3062112 12.2847791,10.3062112 C13.3214973,10.3062112 14.2651523,10.095988 15.1157439,9.67554147 C15.517835,9.47678829 16.0741801,9.07295975 16.7847791,8.46405585" id="Line-4" stroke="#2D2E2C" stroke-linecap="round" stroke-linejoin="round"></path>
                            <path d="M21.469029,3.00016314 C21.469029,1.34297678 22.812332,-1.21356934e-16 24.4688658,-1.21356934e-16 C26.1260522,-1.21356934e-16 27.469029,1.34297678 27.469029,3.00016314 C27.469029,4.65669694 26.1260522,6 24.4688658,6 C22.812332,6 21.469029,4.65669694 21.469029,3.00016314" id="Fill-13" fill="#2D2E2C"></path>
                        </g>
                    </g>
                    <path d="M78,38.1913033 C80.0967953,42.0677205 82.3051153,44.0059291 84.6249601,44.0059291 C86.9448048,44.0059291 89.3390075,42.0677205 91.8075681,38.1913033 C89.5712399,37.2189774 87.2699786,36.7328145 84.903784,36.7328145 C82.5375895,36.7328145 80.2363281,37.2189774 78,38.1913033 Z" id="Path-20" stroke="#3A3939" fill="#FFFFFF" stroke-linejoin="round"></path>
                    <path d="M0,38.1913033 C2.09679529,42.0677205 4.30511531,44.0059291 6.62496007,44.0059291 C8.94480483,44.0059291 11.3390075,42.0677205 13.8075681,38.1913033 C11.4683844,37.2189774 9.07418175,36.7328145 6.62496007,36.7328145 C4.17573839,36.7328145 1.96741837,37.2189774 0,38.1913033 Z" id="Path-20-Copy" stroke="#3A3939" fill="#FFFFFF" stroke-linejoin="round"></path>
                </g>
            </g>
        </g>
    </g>
</svg>