<?xml version="1.0" encoding="UTF-8"?>
<svg width="41px" height="38px" viewBox="0 0 41 38" version="1.1" xmlns="http://www.w3.org/2000/svg" xmlns:xlink="http://www.w3.org/1999/xlink">
    <title>ONZ74S1</title>
    <defs>
        <polygon id="path-1" points="0 0 38 0 38 38 0 38"></polygon>
    </defs>
    <g id="Page-1" stroke="none" stroke-width="1" fill="none" fill-rule="evenodd">
        <g id="Main-menu" transform="translate(-279.000000, -760.000000)">
            <g id="Settings" transform="translate(29.000000, 743.000000)">
                <g id="ONZ74S1" transform="translate(250.000000, 17.000000)">
                    <path d="M26.7202268,21.6692256 C26.3964852,22.2904853 25.9728911,22.8690688 25.4220486,23.3022511 C24.8636487,23.7413816 24.1890533,24.0187769 23.4942418,24.1670106 C21.3950701,24.6149218 19.0637907,23.8135157 17.7293369,22.1331877 C16.394883,20.452954 16.1522894,17.9644219 17.18728,16.0851586 C18.222365,14.2058009 20.4963023,13.0753537 22.6115335,13.4392344 C24.4575311,13.5074974 26.21898,14.7205589 26.9751957,16.3830422 C27.7314114,18.0454312 27.5644866,20.0497017 26.7202268,21.6692256 M40.8585792,19.6320037 C40.7359598,19.504164 40.5576044,19.4494969 40.3874677,19.3998339 C39.2546084,19.0687157 38.0730981,18.967407 36.9402388,18.6362888 C36.7794544,17.3412739 36.7915463,16.5057835 36.6307619,15.2106742 C36.5932581,14.9089195 36.0852096,13.6437402 36.156155,13.5358223 C36.259314,13.3789968 36.7566876,12.9682856 37.4042652,12.7631188 C37.8733929,12.6145075 38.3026551,12.3576005 38.7248323,12.1047535 C39.0856052,11.8886345 39.432208,11.5552503 39.4458114,11.135003 C39.4565808,10.8038848 39.2582926,10.5064733 39.0681287,10.2350262 C38.2550433,9.07408263 37.4420524,7.9130446 36.6288725,6.75210098 C36.4934055,6.55864185 36.3359275,6.35017052 36.1044811,6.30249025 C35.8667053,6.25339374 35.6344087,6.39114722 35.4304525,6.52304688 C34.5274336,7.10710651 33.6243203,7.69116614 32.7213014,8.27522577 C31.68291,7.19680206 30.37708,6.24555718 29.0200483,5.61249546 C28.7783049,5.49966791 28.3847515,5.28439859 28.2394599,5.06063181 C28.2394599,5.06063181 28.3060598,4.29123286 28.449651,3.86673688 C28.6584251,3.24972594 28.7843508,2.60486217 28.8228938,1.95461667 C28.8393312,1.67873205 28.835458,1.38462508 28.6890327,1.15009483 C28.4577752,0.779888266 27.9673923,0.689342972 27.5341624,0.633920566 C26.1552141,0.457267548 24.7814616,0.202437781 23.4024189,0.0257847631 C23.1601087,-0.00518380446 22.8961653,-0.0320924683 22.6873912,0.0948975418 C22.4140011,0.26116476 22.3428667,0.61928603 22.2978055,0.935958516 C22.2126899,1.5341806 22.1224731,2.21048502 22.037263,2.8087071 C21.9874784,3.1583309 21.8500276,3.57574565 21.7667069,3.71038338 C21.7667069,3.71038338 21.1334884,3.91583339 20.8712455,3.9291461 C19.3543741,4.00609544 17.8522397,4.36459437 16.464317,4.98103882 C16.1172418,4.39858426 15.8391283,3.78808805 15.5435381,3.22706601 C15.2478536,2.66604398 14.7985641,2.10020671 14.1690299,2.02193554 C13.650401,1.95744916 13.1595457,2.24258658 12.7147907,2.51686612 C11.9643376,2.97950631 11.2140733,3.44214649 10.4638091,3.90478668 C10.1159782,4.11930066 9.75199333,4.35071517 9.5633409,4.71308517 C9.23478147,5.34416415 11.0582013,7.67209403 11.3731573,8.31006541 C9.89889095,9.50075018 8.72314321,11.0577704 7.9816645,12.8011686 C6.81064016,12.4220869 6.09126694,12.2548755 4.88916265,12.1485627 C4.62569162,12.1253363 4.34606657,12.1588541 4.12104399,12.2981182 C3.73296977,12.5383135 3.67770604,13.0577923 3.57823131,13.5029654 C3.25675698,14.9420597 2.91733374,16.5502536 3.01803655,17.8749152 C2.93745541,18.5995608 5.66814512,18.9282242 6.89471661,19.0283055 C6.91351572,20.3115183 7.0299002,21.328477 7.27835083,22.5875192 C7.40673274,23.2381424 7.71082497,24.0341667 7.58830008,24.1225405 C7.07779544,24.4912364 5.0212288,25.3767674 4.55040069,26.5669801 C5.21668293,28.0543211 6.35851669,29.613985 7.43819055,30.8349775 C7.67832801,31.1066133 7.96825006,31.3893904 8.33072347,31.3989264 C8.58484217,31.4055356 8.81950049,31.274108 9.03932734,31.1466459 C9.82473363,30.6914646 10.6670096,30.1766122 11.4523214,29.721242 C12.5728054,31.1685505 14.2032273,32.2779428 15.9703442,32.7564449 C15.9817748,32.9435781 15.443969,34.8645735 15.1882443,35.9908663 C15.1417661,36.1958442 15.1252342,36.4891014 15.1973132,36.6866205 C15.3086909,36.9917742 15.6217576,37.0524839 15.9329349,37.1467114 C17.1147286,37.5043606 18.3233512,37.7733528 19.5452937,37.9506668 C20.1080391,38.0323369 20.7691256,38.0611339 21.1501148,37.6392816 C21.3854344,37.3785036 21.4475942,37.0096189 21.499835,36.6623555 C21.6346407,35.766533 21.8885705,34.4946502 21.9042522,33.9746992 C23.5388306,34.0739308 24.3385016,33.8843428 25.8574513,33.3372944 C26.2105723,33.2102099 27.3771567,32.8817354 27.5571181,32.9064725 C27.7690096,32.9354583 27.9333838,33.1121113 28.0621436,33.2828161 C28.4457778,33.7910594 28.5023641,34.0602405 28.8344188,34.6666768 C29.1402115,35.2250552 29.4678262,35.7719147 29.8302997,36.2216199 C30.0974549,36.5529269 32.1016863,35.3445863 32.4344024,35.0791819 C33.6806232,34.0848831 34.2950425,33.8594169 34.710229,32.979834 C34.7924161,32.5907442 33.0644089,30.5964817 32.7411397,30.0178038 C32.4179649,29.4391259 33.2458818,28.901708 33.5979637,28.4587064 C34.4401452,27.3995436 34.9980728,26.1338923 35.6813593,24.9659618 C36.796742,25.1927499 37.9120303,25.4197269 39.027413,25.646515 C39.271707,25.6962724 39.5373508,25.7433862 39.760673,25.6327302 C40.0761959,25.475999 40.1725531,25.0803001 40.2338628,24.7336032 C40.4673875,23.4130015 40.7009122,22.0924942 40.9343425,20.7718925 C40.9897951,20.4583358 41.0790673,19.862002 40.8585792,19.6320037" id="Fill-4" fill="#3A3A3F"></path>
                    <path d="M33,31 C33.000305,30.5340444 33.6819971,30.102635 34.0009875,29.7367982 C34.9072334,28.697822 35.5076023,27.4562925 36.2428661,26.3106216 C37.4430955,26.5330874 38.6432233,26.7557384 39.8434528,26.9782042 C39.8489421,26.9792229 39.8544314,26.9802417 39.8600224,26.9812605 C39.8544314,26.9802417 39.8489421,26.9792229 39.8434528,26.9782042 C38.6432233,26.7557384 37.4430955,26.5330874 36.2428661,26.3106216 C35.5076023,27.4562925 34.9072334,28.697822 34.0009875,29.7367982 C33.6819971,30.102635 33.000305,30.5340444 33,31 M40,27.0238341 C39.9532099,27.0155675 39.9066959,27.0067675 39.8607339,26.9978341 C39.9066959,27.0067675 39.9532099,27.0155675 40,27.0238341 M37.6164157,20.0301777 C37.5540654,19.6561907 37.5117745,19.3208249 37.4771496,19.0000926 C37.4771496,19 37.4771496,19 37.4771496,19 C37.5117745,19.3207323 37.5540654,19.6560981 37.6164157,20.0301777" id="Fill-6" fill="#F4F4F1"></path>
                    <path d="M19.822388,38 C19.6205302,38 19.4152203,37.9788923 19.2213217,37.9518854 C17.9809274,37.7787835 16.7540541,37.5161811 15.5544149,37.1670277 C15.2385387,37.0750385 14.9207446,37.0157709 14.807685,36.717866 C14.7722041,36.6244942 14.7579158,36.5090929 14.7579158,36.392309 C14.7579158,36.2678748 14.774122,36.1417813 14.7984792,36.0386391 C15.0552844,34.9508992 15.5922932,33.1039257 15.5925809,32.8875022 C15.5925809,32.8851057 15.5925809,32.8829857 15.5923891,32.88105 C13.798588,32.4139145 12.1435462,31.3308754 11.0061424,29.9179471 C10.2089721,30.3625001 9.35397742,30.8651225 8.55671118,31.3094911 C8.33903084,31.4308837 8.10696634,31.5560553 7.85620243,31.5560553 C7.84996929,31.5560553 7.84373615,31.5559632 7.83740712,31.5557788 C7.46946022,31.5464693 7.17516023,31.2704095 6.93139661,31.0052262 C5.83541925,29.813238 4.67634336,28.2906232 4,26.8386133 C4.4779378,25.6766736 6.56555939,24.812178 7.08377285,24.4522403 C7.10391068,24.4383221 7.11273297,24.4061535 7.11273297,24.3594215 C7.11273297,24.1177425 6.878367,23.4858928 6.76914325,22.9536828 C6.74689574,22.8452867 6.72608665,22.7393793 6.70594882,22.6343015 C8.84046278,25.4280816 14.1463971,29.4640846 20.5313354,29.4639924 C21.6902195,29.4639924 22.8848723,29.330986 24.1023479,29.033542 C31.9190858,27.1233374 35.6564751,21.6271211 36.7653982,18 C36.7913856,18.3192892 36.8231266,18.6530496 36.8699231,19.0252463 C36.870019,19.0260759 36.8701149,19.0268133 36.8702108,19.0276428 C36.8704026,19.0290254 36.8704985,19.0303159 36.8706903,19.0316063 C36.870882,19.0331733 36.8710738,19.034648 36.8712656,19.036215 C36.8713615,19.0371367 36.8715533,19.0380585 36.8716492,19.0389802 C36.8717451,19.0400863 36.8719369,19.0411924 36.8720328,19.0422984 C36.8722246,19.0438654 36.8724164,19.0454323 36.8726081,19.0469993 C36.8727999,19.0481975 36.8729917,19.049488 36.8730876,19.0506862 C36.8731835,19.0515158 36.8732794,19.0523454 36.8733753,19.0530827 C36.873663,19.054834 36.8738548,19.0565853 36.8740466,19.0583366 C36.8741425,19.0592584 36.8742384,19.0599958 36.8744301,19.0608253 C36.8746219,19.0626688 36.8748137,19.0644201 36.8751014,19.0662636 C36.8751014,19.0665401 36.8751973,19.0668166 36.8751973,19.0670009 C36.875485,19.0692131 36.8757727,19.0713331 36.8759645,19.0735453 C36.8760603,19.0740983 36.8761562,19.0747435 36.8762521,19.0753887 C36.8765398,19.0773244 36.8767316,19.07926 36.8770193,19.0811035 C36.8770193,19.0812878 36.8770193,19.0814722 36.8770193,19.0816565 C36.877307,19.0837765 36.8775947,19.0860809 36.8778823,19.0882009 C36.8779782,19.0887539 36.8779782,19.0892148 36.8780741,19.0897678 C36.8783618,19.09198 36.8786495,19.0941 36.8789372,19.0963121 C38.0289031,19.4195648 39.2282546,19.518467 40.3782206,19.8417196 C40.5509264,19.8902029 40.7319751,19.9435714 40.856446,20.0683743 C40.9656698,20.1779687 41,20.3729157 41,20.5792923 C41,20.7956236 40.9622176,21.0245827 40.9333534,21.1811855 C40.6963983,22.4704169 40.4593472,23.7595561 40.2222962,25.0487875 C40.2203783,25.0593874 40.2183646,25.0699874 40.2163508,25.0806795 C40.1537317,25.4112138 40.0522754,25.7783411 39.7419611,25.9264639 C39.6398335,25.9752238 39.5289796,25.9926446 39.4153447,25.9926446 C39.3167652,25.9926446 39.2160761,25.9794637 39.1172089,25.9623195 C39.1150033,25.9619508 39.1129895,25.9615821 39.110784,25.9612134 L39.1106881,25.9612134 C39.0781799,25.9554986 39.0458635,25.9494152 39.0139306,25.9432395 C39.0137388,25.9431474 39.0134511,25.9431474 39.0132593,25.9430552 C39.0079852,25.9420413 39.0028069,25.9410274 38.9976286,25.9400135 C37.8654031,25.7186126 36.7332736,25.4970274 35.6010481,25.2756265 C34.9074437,26.4158133 34.3410913,27.6513997 33.4861925,28.6854025 C33.1852758,29.049488 32.5422078,29.4788323 32.5419201,29.9425574 C32.5418242,30.0297536 32.5645512,30.1180559 32.6164301,30.2074642 C32.9369092,30.7591229 34.6171713,32.6287711 34.6181303,33.0699136 C34.6182262,33.0804214 34.6172672,33.0901918 34.6152534,33.0991326 C34.1937974,33.9578214 33.5701001,34.1779318 32.3050609,35.1486114 C32.0075005,35.3769253 30.3929261,36.3195841 29.8275326,36.3195841 C29.7512006,36.3195841 29.6939517,36.3023477 29.6616352,36.2639113 C29.2936883,35.8248887 28.9611265,35.2910195 28.6507162,34.7459052 C28.3136473,34.1538745 28.2562066,33.8910877 27.8667793,33.3949176 C27.7360752,33.2282678 27.5692189,33.0558111 27.3541277,33.0275138 C27.347511,33.0265921 27.3396477,33.0262234 27.3305377,33.0262234 C27.0872536,33.0262234 25.9743029,33.3284604 25.6287953,33.4481017 C24.3464951,33.8921938 23.5692708,34.0949756 22.3895776,34.0949756 C22.1507046,34.0949756 21.8953377,34.08668 21.6159014,34.0703653 C21.6157096,34.0753427 21.6155178,34.08032 21.615326,34.0854817 C21.5949964,34.6022066 21.3409721,35.8280226 21.2053773,36.6941774 C21.1523477,37.0331917 21.0892492,37.3933137 20.8503762,37.6478971 C20.5949134,37.9199934 20.2153633,38 19.822388,38" id="Fill-7" fill="#2C2C2E"></path>
                    <g id="Group-11" transform="translate(3.000000, 0.000000)">
                        <mask id="mask-2" fill="white">
                            <use xlink:href="#path-1"></use>
                        </mask>
                        <g id="Clip-9"></g>
                        <path d="M21.6928984,23.5488113 C19.7753743,24.5492544 17.2749695,24.1510088 15.6353828,22.7920791 C13.9645704,21.4071749 13.3136118,19.0309233 13.9931705,16.9751811 C14.7478399,14.6925131 17.2052976,13.2319356 19.5703908,13.6029875 L19.5773299,13.6033626 C19.5868945,13.6058007 19.596928,13.6074885 19.6077117,13.6080512 C21.7886386,13.7225456 23.6690293,15.3279055 24.1459489,17.453976 C24.6350586,19.6346212 23.7650509,22.4677252 21.6928984,23.5488113 Z M24.5441007,18.2571248 C24.3578714,15.6252535 22.2703405,13.4671133 19.6089307,13.3268319 C17.4413193,13.0026654 15.16634,14.0918159 14.1020387,16.0241554 C13.00473,18.0166021 13.318019,20.646223 14.7951005,22.3615764 C16.2900922,24.0978407 18.8521046,24.8136887 21.0331253,24.1220336 C23.4519494,23.3549866 24.7153266,20.6775425 24.5441007,18.2571248 L24.5441007,18.2571248 Z" id="Fill-8" fill="#2D2E2C" mask="url(#mask-2)"></path>
                        <path d="M37.7003655,20.445553 C37.6322878,21.0437184 37.4958509,21.6401021 37.3911086,22.232735 C37.2858038,22.8288374 37.1804051,23.4251273 37.0751002,24.0212297 C36.9853613,24.5288123 36.9831108,25.4908092 36.2739204,25.5010303 C35.6890704,25.5095634 35.0280784,25.2700723 34.454012,25.1532336 C33.842156,25.0287056 33.2303937,24.9042715 32.6184439,24.7797436 C32.5570238,24.7671782 32.4923218,24.7879954 32.4596895,24.8443518 C31.8661188,25.8700193 31.3675382,26.9566379 30.6811341,27.9263241 C30.4098545,28.3095663 30.0728414,28.6054138 29.7747432,28.9626815 C29.5868261,29.1880132 29.409505,29.461262 29.4585473,29.7690185 C29.4998065,30.0270764 29.7048838,30.2603787 29.8542611,30.4643306 C30.0773424,30.769274 30.3098946,31.0672783 30.5371956,31.3689397 C30.7469614,31.6474397 30.9566335,31.9269711 31.1496143,32.21738 C31.2737671,32.4040781 31.5035999,32.6777957 31.4472436,32.9013458 C31.3632247,33.2356395 30.9526951,33.5683391 30.6975441,33.7747291 C30.3209596,34.0792974 29.9168064,34.3494518 29.533189,34.645018 C29.0157604,35.0436387 28.4661683,35.3822458 27.8800993,35.672936 C27.6516731,35.7863052 27.2352359,36.0432378 26.9598303,36.009574 C26.6268493,35.9686898 26.1495547,34.9173291 25.9894876,34.6297334 C25.6845441,34.0816417 25.2979261,32.7721293 24.5541342,32.6658868 C24.2820106,32.6269718 23.9573753,32.7553443 23.7003489,32.8233283 C23.2863497,32.9327591 22.8836969,33.0643199 22.4795437,33.2047889 C21.2932462,33.6173814 20.1620861,33.7914204 18.9056479,33.7218423 C18.8271615,33.7175288 18.7685546,33.7900138 18.7649913,33.8624988 C18.7405171,34.3708316 18.6384942,34.8761636 18.5533501,35.3769009 C18.4629548,35.9084888 18.4309789,36.4983086 18.2618159,37.0110485 C17.9867855,37.8447667 17.124467,37.752496 16.4283107,37.6499105 C15.7358116,37.5477939 15.0476259,37.4087315 14.367317,37.2446322 C14.0268343,37.1625825 13.6881333,37.0729374 13.3516828,36.9762595 C13.0040736,36.8763933 12.6191434,36.838041 12.4486677,36.4992463 C12.2097391,36.0249524 12.5111192,35.3242016 12.6370537,34.8270276 C12.758581,34.3479514 12.8844217,33.8699067 13.0031359,33.3900804 C13.0614614,33.1541525 13.1505439,32.8981576 13.156264,32.6525713 C13.1576705,32.5907762 13.1115352,32.5332945 13.0530221,32.5169784 C11.2961278,32.0229926 9.75818893,30.9697565 8.63031083,29.5387169 C8.59233356,29.4905186 8.50915864,29.4880805 8.45992884,29.5166807 C7.65931168,29.9826289 6.87773004,30.4887111 6.06464133,30.9323418 C5.75407164,31.1018798 5.47969757,31.2540739 5.12768107,31.0726233 C4.936857,30.9742575 4.7875735,30.8009686 4.64579168,30.6448399 C4.35453883,30.3244243 4.08016476,29.9861922 3.81291728,29.6457096 C3.23050534,28.9039808 2.69104053,28.1232432 2.23446932,27.2972143 C2.07083885,27.0011791 1.74498448,26.6216878 1.93984071,26.3022099 C2.10947252,26.0241788 2.34774474,25.7909703 2.59501898,25.5821422 C3.08075298,25.1719878 3.63803429,24.8549479 4.18931425,24.542878 C4.44718462,24.397064 4.86296542,24.275443 4.86165262,23.9328037 C4.86071491,23.653366 4.73234236,23.3516108 4.66126391,23.0853011 C4.55033276,22.6690516 4.4676267,22.2485823 4.39636071,21.8237995 C4.24041947,20.8944349 4.16493378,19.9600066 4.14749236,19.0182642 C4.14599203,18.9375274 4.08400937,18.8840779 4.0068358,18.8776077 C3.12238733,18.8036224 2.22762404,18.7023497 1.36708718,18.4782369 C1.06495688,18.399563 0.567782811,18.3056044 0.364862274,18.0406075 C0.241459582,17.8794151 0.283000154,17.6188255 0.281593588,17.4244381 C0.279436854,17.1090862 0.298191063,16.7937342 0.328197797,16.4799764 C0.395900489,15.7722864 0.528492744,15.0717231 0.674212944,14.3765047 C0.78083062,13.8682658 0.819370518,13.090904 1.1260956,12.6550562 C1.53812556,12.0692686 2.66197151,12.3785255 3.25347924,12.4892691 C3.86364742,12.6034822 4.45787451,12.7797717 5.04835077,12.9692829 C5.10142518,12.9863493 5.18366239,12.9592494 5.20729269,12.9046747 C5.95567938,11.1761934 7.09462246,9.6664799 8.55163692,8.47277475 C8.60124181,8.43217189 8.6003041,8.35406063 8.57367312,8.30239279 C8.25203844,7.67684629 7.80278138,7.11309488 7.43604283,6.51352295 C7.22571438,6.16975837 7.01088492,5.81530389 6.8668526,5.43740666 C6.67527836,4.93488774 6.82934418,4.66660884 7.27700714,4.3424424 C7.8146903,3.95310511 8.41238693,3.63109541 8.97707614,3.28264228 C9.53398237,2.93906524 10.1571847,2.42444985 10.8094561,2.29026352 C11.6067913,2.12616422 12.1313465,2.77074625 12.4704226,3.39601145 C12.7832428,3.97307834 13.0530221,4.57049354 13.3844089,5.13790201 C13.4259495,5.20916799 13.5070614,5.2188264 13.5769209,5.18844459 C14.4706527,4.79891975 15.403487,4.51029254 16.3634212,4.33681614 C17.094554,4.20478654 17.8426594,4.22297812 18.5578511,4.01640055 C18.6750649,3.98245544 18.8047503,3.96473271 18.8906445,3.87602532 C19.0980661,3.66175853 19.1438264,3.13654702 19.1848981,2.86498613 C19.2491312,2.43992207 19.3027683,2.01307637 19.361844,1.58726214 C19.4114489,1.22971322 19.4050725,0.557468744 19.7540883,0.33570027 C20.0038944,0.176945924 20.4458373,0.292284285 20.7124284,0.328667443 C20.950513,0.36129976 21.1882226,0.395995039 21.4257447,0.4317218 C21.9013514,0.50308155 22.3763017,0.579129851 22.8515334,0.652927648 C23.2968521,0.722036894 23.7423583,0.789176948 24.188896,0.849846801 C24.602145,0.906015645 25.0981938,0.917361939 25.4103576,1.22718141 C25.7740955,1.58838739 25.6340015,2.26485157 25.5617041,2.72517353 C25.4883751,3.19187192 25.339748,3.62734457 25.2212214,4.08175895 C25.1443291,4.3761062 24.9578185,4.95467343 25.0946305,5.24545738 C25.2202837,5.51251725 25.655944,5.69583961 25.897967,5.81567898 C26.3339086,6.03135234 26.7616921,6.25471492 27.1740971,6.51352295 C28.0395101,7.05683227 28.8304688,7.70704056 29.5434101,8.43817324 C29.5546626,8.44970708 29.5666653,8.45786515 29.5788555,8.4645229 L29.5917959,8.47127441 L29.594234,8.47239966 C29.6291168,8.48805942 29.6709387,8.48796565 29.7138858,8.46020943 C30.5107521,7.94456256 31.3075247,7.4289157 32.1042972,6.91326883 C32.2905265,6.79267929 32.5376132,6.57616199 32.759288,6.53340241 C33.1986053,6.4486334 33.4171856,6.92123937 33.610729,7.19777012 C33.8563154,7.54866129 34.1020893,7.89964624 34.3476757,8.25053742 C34.8880782,9.02255427 35.505748,9.77947398 35.9802295,10.5936878 C36.2910805,11.1270574 36.152862,11.5878482 35.6495928,11.9447407 C35.27479,12.210394 34.8356602,12.4428524 34.4076891,12.607233 C33.9465232,12.7843665 33.2769979,12.9801604 32.9834945,13.4236036 C32.8037355,13.6951645 33.0193151,14.0815948 33.1119609,14.3601886 C33.3056918,14.9426942 33.4183109,15.4619981 33.472323,16.0801367 C33.5464959,16.9300773 33.5884115,17.7814244 33.6900594,18.6289269 C33.6972797,18.6894092 33.7285055,18.7493289 33.793395,18.7646136 C34.7795851,18.997072 35.783029,19.1501063 36.7653745,19.4004749 C37.0103044,19.4629264 37.5016647,19.5281911 37.6509482,19.7597117 C37.7675056,19.9404085 37.723527,20.241601 37.7003655,20.445553 Z M37.6327566,19.382846 C37.1178598,19.0903742 36.4008864,19.0182642 35.8278516,18.8992688 C35.2050243,18.7698648 34.5789151,18.6564956 33.9589947,18.5135886 C33.8815398,17.8343113 33.8365297,17.1532523 33.7850494,16.471537 C33.7432275,15.9183817 33.7269114,15.3493791 33.5595301,14.8174161 C33.4931402,14.6060562 33.4196237,14.3970406 33.3504206,14.1867122 C33.309724,14.0629344 33.1535952,13.7571471 33.1886656,13.6284933 C33.2398646,13.4409512 33.6109166,13.2680374 33.7594499,13.1836435 C34.0712386,13.0064163 34.4156597,12.9157397 34.7416078,12.7711448 C35.2580987,12.5419684 35.9172154,12.2305548 36.2531033,11.7526039 C36.5870219,11.2775599 36.4411142,10.7818862 36.1451728,10.3312227 C35.7000416,9.65316441 35.2136513,8.99873643 34.7484531,8.3340874 C34.3338913,7.74192338 33.9536498,7.01669827 33.4459733,6.49992615 C32.9546131,5.99993904 32.4497498,6.35486237 31.9623279,6.67040187 C31.1955621,7.16654437 30.42889,7.66268686 29.6621242,8.15892313 C29.0686473,7.56019513 28.4230337,7.01641696 27.7269712,6.54024769 C27.3457919,6.27947047 26.9504532,6.03932287 26.5421741,5.82327443 C26.2312293,5.65861251 25.5970557,5.48035379 25.4000428,5.16978416 C25.2988638,5.01027964 25.3781941,4.73796859 25.4176717,4.51254304 C25.4940951,4.07669532 25.6554751,3.66494675 25.7505589,3.23313118 C25.8885899,2.60720958 26.1470229,1.60217174 25.6635394,1.06064407 C25.1704913,0.508238956 24.1234438,0.562813693 23.4610452,0.463510177 C22.497829,0.319102799 21.5372385,0.154534649 20.5713967,0.0283188496 C19.8856491,-0.0612324794 19.3717838,0.0295378729 19.2017769,0.772204392 C18.998575,1.66012223 18.9678181,2.58010976 18.7583336,3.46840268 C18.7114481,3.66729102 18.7178245,3.67601173 18.5302824,3.73133663 C18.361307,3.78131659 18.1893309,3.83335951 18.0152919,3.86299115 C17.5605023,3.94025848 17.0898654,3.93950831 16.6317939,4.0088051 C15.5742441,4.16868469 14.551202,4.47306544 13.5680126,4.88978388 C13.2008052,4.23601229 12.9215551,3.52110199 12.50343,2.89996272 C12.2057069,2.45783234 11.782612,2.04692771 11.2274874,1.98747688 C10.5462408,1.91461679 9.94291788,2.35637209 9.39379466,2.6951668 C8.64381386,3.15773927 7.85182363,3.5864604 7.13503778,4.09948168 C6.82146742,4.32396951 6.45641675,4.63303881 6.47910934,5.05407071 C6.49805109,5.40243007 6.68737483,5.75182091 6.84687937,6.05423247 C7.26641101,6.8495983 7.84910427,7.55119311 8.2738871,8.3405576 C6.86657129,9.51382067 5.75304016,10.9876199 5.00962333,12.6622766 C4.29658832,12.4367573 3.57895853,12.2430264 2.8368545,12.1376277 C2.27291545,12.0575473 1.53296815,11.8852899 1.05708011,12.306228 C0.621044763,12.6919083 0.587193416,13.4478903 0.472792744,13.9753523 C0.304755036,14.7499009 0.150126587,15.5294195 0.0636696854,16.31794 C0.0180031876,16.7353149 -0.00928418583,17.1559717 0.00290604972,17.5759721 C0.00759460185,17.7402589 -0.00947172791,17.9283636 0.0571994834,18.0825232 C0.179758236,18.3657117 0.545183989,18.5047741 0.812900316,18.6031399 C1.77377219,18.956094 2.8511077,19.0613989 3.87011762,19.1473869 C3.90462536,20.5708311 4.07294438,21.991087 4.44652822,23.3668018 C4.50269707,23.5737544 4.64738579,23.878604 4.50457249,24.0353892 C4.38998428,24.1611361 4.15171206,24.2408415 4.00467907,24.3240164 C3.5424816,24.5857313 3.08347234,24.8545728 2.65887706,25.1748947 C2.29373262,25.4503939 1.93749643,25.7659334 1.69697371,26.1602406 C1.61014172,26.302585 1.53596883,26.4186735 1.55838011,26.5764902 C1.60320266,26.8919359 1.91827337,27.3126865 2.07243296,27.5833097 C2.46289558,28.2691509 2.90896443,28.9226412 3.38635281,29.5504382 C3.78572368,30.075556 4.19522182,30.6466215 4.68611323,31.090346 C5.17897383,31.5358522 5.65298645,31.4876538 6.20670446,31.1752088 C6.97956539,30.7392673 7.73339081,30.2688181 8.49921891,29.8203112 C9.62540913,31.2145926 11.147782,32.2462614 12.8675429,32.7546879 C12.8348168,33.1235831 12.6803759,33.5224851 12.5911997,33.8715946 C12.4339456,34.486545 12.2645951,35.1002764 12.128252,35.7203841 C12.0312928,36.1606391 11.9860014,36.6801306 12.4137849,36.9549735 C12.7052253,37.1422342 13.1176303,37.203748 13.4453601,37.2952685 C13.8388234,37.4050744 14.2349123,37.5055032 14.6334392,37.5957109 C15.3927033,37.7675932 16.1830057,37.9509155 16.961868,37.9948941 C17.4369121,38.0217126 17.9512462,37.9516657 18.2785072,37.5730183 C18.7043215,37.0802516 18.6953195,36.2108066 18.7999679,35.5964189 C18.8893317,35.07177 18.9972622,34.5415886 19.0365523,34.009438 C20.0464664,34.0541668 21.0081822,33.9663971 21.980963,33.6660485 C22.3773332,33.5437711 22.7636699,33.3917683 23.1599463,33.2697722 C23.5228403,33.1579971 23.9624389,32.9780505 24.3438058,32.9601403 C24.8358224,32.9370726 25.1011945,33.5076693 25.2992389,33.8969128 C25.5771763,34.4435979 25.8492061,34.9870947 26.1813431,35.5042419 C26.3228436,35.7244163 26.5463938,36.2007731 26.829301,36.2801972 C27.0302524,36.3367411 27.2875601,36.2308736 27.4711638,36.1616706 C28.0842389,35.9303375 28.6761217,35.5908864 29.2202751,35.2279925 C29.8798606,34.7880188 30.5913015,34.2926265 31.1643363,33.7400339 C31.3711015,33.5406767 31.6628232,33.2344205 31.738684,32.9454182 C31.7876324,32.7587201 31.7003316,32.5948083 31.611718,32.4298651 C31.2651402,31.7845329 30.7659969,31.210748 30.326117,30.6286175 C30.1492648,30.394565 29.8922384,30.1367885 29.7841203,29.8616643 C29.5619767,29.2965063 30.4084479,28.7487897 30.7116097,28.3565455 C31.4913159,27.3476631 32.0227164,26.1755253 32.6529516,25.0732469 C33.3740509,25.2199985 34.0951503,25.3667502 34.8162496,25.5134081 C35.3287083,25.6176814 36.1525807,25.9495371 36.6677588,25.7131403 C37.0540955,25.5357256 37.162026,25.1025972 37.23573,24.7219806 C37.3907335,23.919957 37.5202314,23.1119321 37.6622945,22.3075643 C37.7746322,21.6723593 37.9288856,21.0305904 37.9873049,20.3876963 C38.0226566,19.997515 38.0071844,19.5956124 37.6327566,19.382846 L37.6327566,19.382846 Z" id="Fill-10" fill="#2D2E2C" mask="url(#mask-2)"></path>
                    </g>
                    <path d="M0.0246268794,24.2888437 C1.77136509,27.4618997 4.00328567,30.3736842 6.65300218,32.9421122 C6.83583044,33.11939 7.12429886,32.84921 6.94174287,32.6721867 C4.31503304,30.1257753 2.10870569,27.2413524 0.377214516,24.0960398 C0.257007998,23.877656 -0.0955796393,24.0704599 0.0246268794,24.2888437" id="Fill-12" fill="#2D2E2C"></path>
                    <g id="Group-16" transform="translate(0.000000, 26.000000)" fill="#2D2E2C">
                        <path d="M0.0369101707,0.372540774 C1.13213261,2.34535595 2.33993687,4.19878876 3.66085274,5.92373521 C3.84124856,6.15940804 4.12230576,5.79507709 3.94190995,5.55940426 C2.64483493,3.86537698 1.45570601,2.04990605 0.380086049,0.112476152 C0.232007843,-0.154287625 -0.112889875,0.10268508 0.0369101707,0.372540774" id="Fill-13"></path>
                    </g>
                </g>
            </g>
        </g>
    </g>
</svg>