<?xml version="1.0" encoding="UTF-8"?>
<svg width="62px" height="38px" viewBox="0 0 62 38" version="1.1" xmlns="http://www.w3.org/2000/svg" xmlns:xlink="http://www.w3.org/1999/xlink">
    <title>ONZ74S1</title>
    <defs>
        <polygon id="path-1" points="0 0 38 0 38 38 0 38"></polygon>
    </defs>
    <g id="Page-1" stroke="none" stroke-width="1" fill="none" fill-rule="evenodd">
        <g id="Main-menu" transform="translate(-265.000000, -713.000000)">
            <g id="Settings" transform="translate(29.000000, 696.000000)">
                <g id="ONZ74S1" transform="translate(236.000000, 17.000000)">
                    <path d="M47.7202268,21.6692256 C47.3964852,22.2904853 46.9728911,22.8690688 46.4220486,23.3022511 C45.8636487,23.7413816 45.1890533,24.0187769 44.4942418,24.1670106 C42.3950701,24.6149218 40.0637907,23.8135157 38.7293369,22.1331877 C37.394883,20.452954 37.1522894,17.9644219 38.18728,16.0851586 C39.222365,14.2058009 41.4963023,13.0753537 43.6115335,13.4392344 C45.4575311,13.5074974 47.21898,14.7205589 47.9751957,16.3830422 C48.7314114,18.0454312 48.5644866,20.0497017 47.7202268,21.6692256 M61.8585792,19.6320037 C61.7359598,19.504164 61.5576044,19.4494969 61.3874677,19.3998339 C60.2546084,19.0687157 59.0730981,18.967407 57.9402388,18.6362888 C57.7794544,17.3412739 57.7915463,16.5057835 57.6307619,15.2106742 C57.5932581,14.9089195 57.0852096,13.6437402 57.156155,13.5358223 C57.259314,13.3789968 57.7566876,12.9682856 58.4042652,12.7631188 C58.8733929,12.6145075 59.3026551,12.3576005 59.7248323,12.1047535 C60.0856052,11.8886345 60.432208,11.5552503 60.4458114,11.135003 C60.4565808,10.8038848 60.2582926,10.5064733 60.0681287,10.2350262 C59.2550433,9.07408263 58.4420524,7.9130446 57.6288725,6.75210098 C57.4934055,6.55864185 57.3359275,6.35017052 57.1044811,6.30249025 C56.8667053,6.25339374 56.6344087,6.39114722 56.4304525,6.52304688 C55.5274336,7.10710651 54.6243203,7.69116614 53.7213014,8.27522577 C52.68291,7.19680206 51.37708,6.24555718 50.0200483,5.61249546 C49.7783049,5.49966791 49.3847515,5.28439859 49.2394599,5.06063181 C49.2394599,5.06063181 49.3060598,4.29123286 49.449651,3.86673688 C49.6584251,3.24972594 49.7843508,2.60486217 49.8228938,1.95461667 C49.8393312,1.67873205 49.835458,1.38462508 49.6890327,1.15009483 C49.4577752,0.779888266 48.9673923,0.689342972 48.5341624,0.633920566 C47.1552141,0.457267548 45.7814616,0.202437781 44.4024189,0.0257847631 C44.1601087,-0.00518380446 43.8961653,-0.0320924683 43.6873912,0.0948975418 C43.4140011,0.26116476 43.3428667,0.61928603 43.2978055,0.935958516 C43.2126899,1.5341806 43.1224731,2.21048502 43.037263,2.8087071 C42.9874784,3.1583309 42.8500276,3.57574565 42.7667069,3.71038338 C42.7667069,3.71038338 42.1334884,3.91583339 41.8712455,3.9291461 C40.3543741,4.00609544 38.8522397,4.36459437 37.464317,4.98103882 C37.1172418,4.39858426 36.8391283,3.78808805 36.5435381,3.22706601 C36.2478536,2.66604398 35.7985641,2.10020671 35.1690299,2.02193554 C34.650401,1.95744916 34.1595457,2.24258658 33.7147907,2.51686612 C32.9643376,2.97950631 32.2140733,3.44214649 31.4638091,3.90478668 C31.1159782,4.11930066 30.7519933,4.35071517 30.5633409,4.71308517 C30.2347815,5.34416415 32.0582013,7.67209403 32.3731573,8.31006541 C30.8988909,9.50075018 29.7231432,11.0577704 28.9816645,12.8011686 C27.8106402,12.4220869 27.0912669,12.2548755 25.8891626,12.1485627 C25.6256916,12.1253363 25.3460666,12.1588541 25.121044,12.2981182 C24.7329698,12.5383135 24.677706,13.0577923 24.5782313,13.5029654 C24.256757,14.9420597 23.9173337,16.5502536 24.0180365,17.8749152 C23.9374554,18.5995608 26.6681451,18.9282242 27.8947166,19.0283055 C27.9135157,20.3115183 28.0299002,21.328477 28.2783508,22.5875192 C28.4067327,23.2381424 28.710825,24.0341667 28.5883001,24.1225405 C28.0777954,24.4912364 26.0212288,25.3767674 25.5504007,26.5669801 C26.2166829,28.0543211 27.3585167,29.613985 28.4381906,30.8349775 C28.678328,31.1066133 28.9682501,31.3893904 29.3307235,31.3989264 C29.5848422,31.4055356 29.8195005,31.274108 30.0393273,31.1466459 C30.8247336,30.6914646 31.6670096,30.1766122 32.4523214,29.721242 C33.5728054,31.1685505 35.2032273,32.2779428 36.9703442,32.7564449 C36.9817748,32.9435781 36.443969,34.8645735 36.1882443,35.9908663 C36.1417661,36.1958442 36.1252342,36.4891014 36.1973132,36.6866205 C36.3086909,36.9917742 36.6217576,37.0524839 36.9329349,37.1467114 C38.1147286,37.5043606 39.3233512,37.7733528 40.5452937,37.9506668 C41.1080391,38.0323369 41.7691256,38.0611339 42.1501148,37.6392816 C42.3854344,37.3785036 42.4475942,37.0096189 42.499835,36.6623555 C42.6346407,35.766533 42.8885705,34.4946502 42.9042522,33.9746992 C44.5388306,34.0739308 45.3385016,33.8843428 46.8574513,33.3372944 C47.2105723,33.2102099 48.3771567,32.8817354 48.5571181,32.9064725 C48.7690096,32.9354583 48.9333838,33.1121113 49.0621436,33.2828161 C49.4457778,33.7910594 49.5023641,34.0602405 49.8344188,34.6666768 C50.1402115,35.2250552 50.4678262,35.7719147 50.8302997,36.2216199 C51.0974549,36.5529269 53.1016863,35.3445863 53.4344024,35.0791819 C54.6806232,34.0848831 55.2950425,33.8594169 55.710229,32.979834 C55.7924161,32.5907442 54.0644089,30.5964817 53.7411397,30.0178038 C53.4179649,29.4391259 54.2458818,28.901708 54.5979637,28.4587064 C55.4401452,27.3995436 55.9980728,26.1338923 56.6813593,24.9659618 C57.796742,25.1927499 58.9120303,25.4197269 60.027413,25.646515 C60.271707,25.6962724 60.5373508,25.7433862 60.760673,25.6327302 C61.0761959,25.475999 61.1725531,25.0803001 61.2338628,24.7336032 C61.4673875,23.4130015 61.7009122,22.0924942 61.9343425,20.7718925 C61.9897951,20.4583358 62.0790673,19.862002 61.8585792,19.6320037" id="Fill-4" fill="#3A3A3F"></path>
                    <path d="M54,31 C54.000305,30.5340444 54.6819971,30.102635 55.0009875,29.7367982 C55.9072334,28.697822 56.5076023,27.4562925 57.2428661,26.3106216 C58.4430955,26.5330874 59.6432233,26.7557384 60.8434528,26.9782042 C60.8489421,26.9792229 60.8544314,26.9802417 60.8600224,26.9812605 C60.8544314,26.9802417 60.8489421,26.9792229 60.8434528,26.9782042 C59.6432233,26.7557384 58.4430955,26.5330874 57.2428661,26.3106216 C56.5076023,27.4562925 55.9072334,28.697822 55.0009875,29.7367982 C54.6819971,30.102635 54.000305,30.5340444 54,31 M61,27.0238341 C60.9532099,27.0155675 60.9066959,27.0067675 60.8607339,26.9978341 C60.9066959,27.0067675 60.9532099,27.0155675 61,27.0238341 M58.6164157,20.0301777 C58.5540654,19.6561907 58.5117745,19.3208249 58.4771496,19.0000926 C58.4771496,19 58.4771496,19 58.4771496,19 C58.5117745,19.3207323 58.5540654,19.6560981 58.6164157,20.0301777" id="Fill-6" fill="#F4F4F1"></path>
                    <path d="M40.822388,38 C40.6205302,38 40.4152203,37.9788923 40.2213217,37.9518854 C38.9809274,37.7787835 37.7540541,37.5161811 36.5544149,37.1670277 C36.2385387,37.0750385 35.9207446,37.0157709 35.807685,36.717866 C35.7722041,36.6244942 35.7579158,36.5090929 35.7579158,36.392309 C35.7579158,36.2678748 35.774122,36.1417813 35.7984792,36.0386391 C36.0552844,34.9508992 36.5922932,33.1039257 36.5925809,32.8875022 C36.5925809,32.8851057 36.5925809,32.8829857 36.5923891,32.88105 C34.798588,32.4139145 33.1435462,31.3308754 32.0061424,29.9179471 C31.2089721,30.3625001 30.3539774,30.8651225 29.5567112,31.3094911 C29.3390308,31.4308837 29.1069663,31.5560553 28.8562024,31.5560553 C28.8499693,31.5560553 28.8437362,31.5559632 28.8374071,31.5557788 C28.4694602,31.5464693 28.1751602,31.2704095 27.9313966,31.0052262 C26.8354193,29.813238 25.6763434,28.2906232 25,26.8386133 C25.4779378,25.6766736 27.5655594,24.812178 28.0837728,24.4522403 C28.1039107,24.4383221 28.112733,24.4061535 28.112733,24.3594215 C28.112733,24.1177425 27.878367,23.4858928 27.7691432,22.9536828 C27.7468957,22.8452867 27.7260867,22.7393793 27.7059488,22.6343015 C29.8404628,25.4280816 35.1463971,29.4640846 41.5313354,29.4639924 C42.6902195,29.4639924 43.8848723,29.330986 45.1023479,29.033542 C52.9190858,27.1233374 56.6564751,21.6271211 57.7653982,18 C57.7913856,18.3192892 57.8231266,18.6530496 57.8699231,19.0252463 C57.870019,19.0260759 57.8701149,19.0268133 57.8702108,19.0276428 C57.8704026,19.0290254 57.8704985,19.0303159 57.8706903,19.0316063 C57.870882,19.0331733 57.8710738,19.034648 57.8712656,19.036215 C57.8713615,19.0371367 57.8715533,19.0380585 57.8716492,19.0389802 C57.8717451,19.0400863 57.8719369,19.0411924 57.8720328,19.0422984 C57.8722246,19.0438654 57.8724164,19.0454323 57.8726081,19.0469993 C57.8727999,19.0481975 57.8729917,19.049488 57.8730876,19.0506862 C57.8731835,19.0515158 57.8732794,19.0523454 57.8733753,19.0530827 C57.873663,19.054834 57.8738548,19.0565853 57.8740466,19.0583366 C57.8741425,19.0592584 57.8742384,19.0599958 57.8744301,19.0608253 C57.8746219,19.0626688 57.8748137,19.0644201 57.8751014,19.0662636 C57.8751014,19.0665401 57.8751973,19.0668166 57.8751973,19.0670009 C57.875485,19.0692131 57.8757727,19.0713331 57.8759645,19.0735453 C57.8760603,19.0740983 57.8761562,19.0747435 57.8762521,19.0753887 C57.8765398,19.0773244 57.8767316,19.07926 57.8770193,19.0811035 C57.8770193,19.0812878 57.8770193,19.0814722 57.8770193,19.0816565 C57.877307,19.0837765 57.8775947,19.0860809 57.8778823,19.0882009 C57.8779782,19.0887539 57.8779782,19.0892148 57.8780741,19.0897678 C57.8783618,19.09198 57.8786495,19.0941 57.8789372,19.0963121 C59.0289031,19.4195648 60.2282546,19.518467 61.3782206,19.8417196 C61.5509264,19.8902029 61.7319751,19.9435714 61.856446,20.0683743 C61.9656698,20.1779687 62,20.3729157 62,20.5792923 C62,20.7956236 61.9622176,21.0245827 61.9333534,21.1811855 C61.6963983,22.4704169 61.4593472,23.7595561 61.2222962,25.0487875 C61.2203783,25.0593874 61.2183646,25.0699874 61.2163508,25.0806795 C61.1537317,25.4112138 61.0522754,25.7783411 60.7419611,25.9264639 C60.6398335,25.9752238 60.5289796,25.9926446 60.4153447,25.9926446 C60.3167652,25.9926446 60.2160761,25.9794637 60.1172089,25.9623195 C60.1150033,25.9619508 60.1129895,25.9615821 60.110784,25.9612134 L60.1106881,25.9612134 C60.0781799,25.9554986 60.0458635,25.9494152 60.0139306,25.9432395 C60.0137388,25.9431474 60.0134511,25.9431474 60.0132593,25.9430552 C60.0079852,25.9420413 60.0028069,25.9410274 59.9976286,25.9400135 C58.8654031,25.7186126 57.7332736,25.4970274 56.6010481,25.2756265 C55.9074437,26.4158133 55.3410913,27.6513997 54.4861925,28.6854025 C54.1852758,29.049488 53.5422078,29.4788323 53.5419201,29.9425574 C53.5418242,30.0297536 53.5645512,30.1180559 53.6164301,30.2074642 C53.9369092,30.7591229 55.6171713,32.6287711 55.6181303,33.0699136 C55.6182262,33.0804214 55.6172672,33.0901918 55.6152534,33.0991326 C55.1937974,33.9578214 54.5701001,34.1779318 53.3050609,35.1486114 C53.0075005,35.3769253 51.3929261,36.3195841 50.8275326,36.3195841 C50.7512006,36.3195841 50.6939517,36.3023477 50.6616352,36.2639113 C50.2936883,35.8248887 49.9611265,35.2910195 49.6507162,34.7459052 C49.3136473,34.1538745 49.2562066,33.8910877 48.8667793,33.3949176 C48.7360752,33.2282678 48.5692189,33.0558111 48.3541277,33.0275138 C48.347511,33.0265921 48.3396477,33.0262234 48.3305377,33.0262234 C48.0872536,33.0262234 46.9743029,33.3284604 46.6287953,33.4481017 C45.3464951,33.8921938 44.5692708,34.0949756 43.3895776,34.0949756 C43.1507046,34.0949756 42.8953377,34.08668 42.6159014,34.0703653 C42.6157096,34.0753427 42.6155178,34.08032 42.615326,34.0854817 C42.5949964,34.6022066 42.3409721,35.8280226 42.2053773,36.6941774 C42.1523477,37.0331917 42.0892492,37.3933137 41.8503762,37.6478971 C41.5949134,37.9199934 41.2153633,38 40.822388,38" id="Fill-7" fill="#2C2C2E"></path>
                    <g id="Group-11" transform="translate(24.000000, 0.000000)">
                        <mask id="mask-2" fill="white">
                            <use xlink:href="#path-1"></use>
                        </mask>
                        <g id="Clip-9"></g>
                        <path d="M21.6928984,23.5488113 C19.7753743,24.5492544 17.2749695,24.1510088 15.6353828,22.7920791 C13.9645704,21.4071749 13.3136118,19.0309233 13.9931705,16.9751811 C14.7478399,14.6925131 17.2052976,13.2319356 19.5703908,13.6029875 L19.5773299,13.6033626 C19.5868945,13.6058007 19.596928,13.6074885 19.6077117,13.6080512 C21.7886386,13.7225456 23.6690293,15.3279055 24.1459489,17.453976 C24.6350586,19.6346212 23.7650509,22.4677252 21.6928984,23.5488113 Z M24.5441007,18.2571248 C24.3578714,15.6252535 22.2703405,13.4671133 19.6089307,13.3268319 C17.4413193,13.0026654 15.16634,14.0918159 14.1020387,16.0241554 C13.00473,18.0166021 13.318019,20.646223 14.7951005,22.3615764 C16.2900922,24.0978407 18.8521046,24.8136887 21.0331253,24.1220336 C23.4519494,23.3549866 24.7153266,20.6775425 24.5441007,18.2571248 L24.5441007,18.2571248 Z" id="Fill-8" fill="#2D2E2C" mask="url(#mask-2)"></path>
                        <path d="M37.7003655,20.445553 C37.6322878,21.0437184 37.4958509,21.6401021 37.3911086,22.232735 C37.2858038,22.8288374 37.1804051,23.4251273 37.0751002,24.0212297 C36.9853613,24.5288123 36.9831108,25.4908092 36.2739204,25.5010303 C35.6890704,25.5095634 35.0280784,25.2700723 34.454012,25.1532336 C33.842156,25.0287056 33.2303937,24.9042715 32.6184439,24.7797436 C32.5570238,24.7671782 32.4923218,24.7879954 32.4596895,24.8443518 C31.8661188,25.8700193 31.3675382,26.9566379 30.6811341,27.9263241 C30.4098545,28.3095663 30.0728414,28.6054138 29.7747432,28.9626815 C29.5868261,29.1880132 29.409505,29.461262 29.4585473,29.7690185 C29.4998065,30.0270764 29.7048838,30.2603787 29.8542611,30.4643306 C30.0773424,30.769274 30.3098946,31.0672783 30.5371956,31.3689397 C30.7469614,31.6474397 30.9566335,31.9269711 31.1496143,32.21738 C31.2737671,32.4040781 31.5035999,32.6777957 31.4472436,32.9013458 C31.3632247,33.2356395 30.9526951,33.5683391 30.6975441,33.7747291 C30.3209596,34.0792974 29.9168064,34.3494518 29.533189,34.645018 C29.0157604,35.0436387 28.4661683,35.3822458 27.8800993,35.672936 C27.6516731,35.7863052 27.2352359,36.0432378 26.9598303,36.009574 C26.6268493,35.9686898 26.1495547,34.9173291 25.9894876,34.6297334 C25.6845441,34.0816417 25.2979261,32.7721293 24.5541342,32.6658868 C24.2820106,32.6269718 23.9573753,32.7553443 23.7003489,32.8233283 C23.2863497,32.9327591 22.8836969,33.0643199 22.4795437,33.2047889 C21.2932462,33.6173814 20.1620861,33.7914204 18.9056479,33.7218423 C18.8271615,33.7175288 18.7685546,33.7900138 18.7649913,33.8624988 C18.7405171,34.3708316 18.6384942,34.8761636 18.5533501,35.3769009 C18.4629548,35.9084888 18.4309789,36.4983086 18.2618159,37.0110485 C17.9867855,37.8447667 17.124467,37.752496 16.4283107,37.6499105 C15.7358116,37.5477939 15.0476259,37.4087315 14.367317,37.2446322 C14.0268343,37.1625825 13.6881333,37.0729374 13.3516828,36.9762595 C13.0040736,36.8763933 12.6191434,36.838041 12.4486677,36.4992463 C12.2097391,36.0249524 12.5111192,35.3242016 12.6370537,34.8270276 C12.758581,34.3479514 12.8844217,33.8699067 13.0031359,33.3900804 C13.0614614,33.1541525 13.1505439,32.8981576 13.156264,32.6525713 C13.1576705,32.5907762 13.1115352,32.5332945 13.0530221,32.5169784 C11.2961278,32.0229926 9.75818893,30.9697565 8.63031083,29.5387169 C8.59233356,29.4905186 8.50915864,29.4880805 8.45992884,29.5166807 C7.65931168,29.9826289 6.87773004,30.4887111 6.06464133,30.9323418 C5.75407164,31.1018798 5.47969757,31.2540739 5.12768107,31.0726233 C4.936857,30.9742575 4.7875735,30.8009686 4.64579168,30.6448399 C4.35453883,30.3244243 4.08016476,29.9861922 3.81291728,29.6457096 C3.23050534,28.9039808 2.69104053,28.1232432 2.23446932,27.2972143 C2.07083885,27.0011791 1.74498448,26.6216878 1.93984071,26.3022099 C2.10947252,26.0241788 2.34774474,25.7909703 2.59501898,25.5821422 C3.08075298,25.1719878 3.63803429,24.8549479 4.18931425,24.542878 C4.44718462,24.397064 4.86296542,24.275443 4.86165262,23.9328037 C4.86071491,23.653366 4.73234236,23.3516108 4.66126391,23.0853011 C4.55033276,22.6690516 4.4676267,22.2485823 4.39636071,21.8237995 C4.24041947,20.8944349 4.16493378,19.9600066 4.14749236,19.0182642 C4.14599203,18.9375274 4.08400937,18.8840779 4.0068358,18.8776077 C3.12238733,18.8036224 2.22762404,18.7023497 1.36708718,18.4782369 C1.06495688,18.399563 0.567782811,18.3056044 0.364862274,18.0406075 C0.241459582,17.8794151 0.283000154,17.6188255 0.281593588,17.4244381 C0.279436854,17.1090862 0.298191063,16.7937342 0.328197797,16.4799764 C0.395900489,15.7722864 0.528492744,15.0717231 0.674212944,14.3765047 C0.78083062,13.8682658 0.819370518,13.090904 1.1260956,12.6550562 C1.53812556,12.0692686 2.66197151,12.3785255 3.25347924,12.4892691 C3.86364742,12.6034822 4.45787451,12.7797717 5.04835077,12.9692829 C5.10142518,12.9863493 5.18366239,12.9592494 5.20729269,12.9046747 C5.95567938,11.1761934 7.09462246,9.6664799 8.55163692,8.47277475 C8.60124181,8.43217189 8.6003041,8.35406063 8.57367312,8.30239279 C8.25203844,7.67684629 7.80278138,7.11309488 7.43604283,6.51352295 C7.22571438,6.16975837 7.01088492,5.81530389 6.8668526,5.43740666 C6.67527836,4.93488774 6.82934418,4.66660884 7.27700714,4.3424424 C7.8146903,3.95310511 8.41238693,3.63109541 8.97707614,3.28264228 C9.53398237,2.93906524 10.1571847,2.42444985 10.8094561,2.29026352 C11.6067913,2.12616422 12.1313465,2.77074625 12.4704226,3.39601145 C12.7832428,3.97307834 13.0530221,4.57049354 13.3844089,5.13790201 C13.4259495,5.20916799 13.5070614,5.2188264 13.5769209,5.18844459 C14.4706527,4.79891975 15.403487,4.51029254 16.3634212,4.33681614 C17.094554,4.20478654 17.8426594,4.22297812 18.5578511,4.01640055 C18.6750649,3.98245544 18.8047503,3.96473271 18.8906445,3.87602532 C19.0980661,3.66175853 19.1438264,3.13654702 19.1848981,2.86498613 C19.2491312,2.43992207 19.3027683,2.01307637 19.361844,1.58726214 C19.4114489,1.22971322 19.4050725,0.557468744 19.7540883,0.33570027 C20.0038944,0.176945924 20.4458373,0.292284285 20.7124284,0.328667443 C20.950513,0.36129976 21.1882226,0.395995039 21.4257447,0.4317218 C21.9013514,0.50308155 22.3763017,0.579129851 22.8515334,0.652927648 C23.2968521,0.722036894 23.7423583,0.789176948 24.188896,0.849846801 C24.602145,0.906015645 25.0981938,0.917361939 25.4103576,1.22718141 C25.7740955,1.58838739 25.6340015,2.26485157 25.5617041,2.72517353 C25.4883751,3.19187192 25.339748,3.62734457 25.2212214,4.08175895 C25.1443291,4.3761062 24.9578185,4.95467343 25.0946305,5.24545738 C25.2202837,5.51251725 25.655944,5.69583961 25.897967,5.81567898 C26.3339086,6.03135234 26.7616921,6.25471492 27.1740971,6.51352295 C28.0395101,7.05683227 28.8304688,7.70704056 29.5434101,8.43817324 C29.5546626,8.44970708 29.5666653,8.45786515 29.5788555,8.4645229 L29.5917959,8.47127441 L29.594234,8.47239966 C29.6291168,8.48805942 29.6709387,8.48796565 29.7138858,8.46020943 C30.5107521,7.94456256 31.3075247,7.4289157 32.1042972,6.91326883 C32.2905265,6.79267929 32.5376132,6.57616199 32.759288,6.53340241 C33.1986053,6.4486334 33.4171856,6.92123937 33.610729,7.19777012 C33.8563154,7.54866129 34.1020893,7.89964624 34.3476757,8.25053742 C34.8880782,9.02255427 35.505748,9.77947398 35.9802295,10.5936878 C36.2910805,11.1270574 36.152862,11.5878482 35.6495928,11.9447407 C35.27479,12.210394 34.8356602,12.4428524 34.4076891,12.607233 C33.9465232,12.7843665 33.2769979,12.9801604 32.9834945,13.4236036 C32.8037355,13.6951645 33.0193151,14.0815948 33.1119609,14.3601886 C33.3056918,14.9426942 33.4183109,15.4619981 33.472323,16.0801367 C33.5464959,16.9300773 33.5884115,17.7814244 33.6900594,18.6289269 C33.6972797,18.6894092 33.7285055,18.7493289 33.793395,18.7646136 C34.7795851,18.997072 35.783029,19.1501063 36.7653745,19.4004749 C37.0103044,19.4629264 37.5016647,19.5281911 37.6509482,19.7597117 C37.7675056,19.9404085 37.723527,20.241601 37.7003655,20.445553 Z M37.6327566,19.382846 C37.1178598,19.0903742 36.4008864,19.0182642 35.8278516,18.8992688 C35.2050243,18.7698648 34.5789151,18.6564956 33.9589947,18.5135886 C33.8815398,17.8343113 33.8365297,17.1532523 33.7850494,16.471537 C33.7432275,15.9183817 33.7269114,15.3493791 33.5595301,14.8174161 C33.4931402,14.6060562 33.4196237,14.3970406 33.3504206,14.1867122 C33.309724,14.0629344 33.1535952,13.7571471 33.1886656,13.6284933 C33.2398646,13.4409512 33.6109166,13.2680374 33.7594499,13.1836435 C34.0712386,13.0064163 34.4156597,12.9157397 34.7416078,12.7711448 C35.2580987,12.5419684 35.9172154,12.2305548 36.2531033,11.7526039 C36.5870219,11.2775599 36.4411142,10.7818862 36.1451728,10.3312227 C35.7000416,9.65316441 35.2136513,8.99873643 34.7484531,8.3340874 C34.3338913,7.74192338 33.9536498,7.01669827 33.4459733,6.49992615 C32.9546131,5.99993904 32.4497498,6.35486237 31.9623279,6.67040187 C31.1955621,7.16654437 30.42889,7.66268686 29.6621242,8.15892313 C29.0686473,7.56019513 28.4230337,7.01641696 27.7269712,6.54024769 C27.3457919,6.27947047 26.9504532,6.03932287 26.5421741,5.82327443 C26.2312293,5.65861251 25.5970557,5.48035379 25.4000428,5.16978416 C25.2988638,5.01027964 25.3781941,4.73796859 25.4176717,4.51254304 C25.4940951,4.07669532 25.6554751,3.66494675 25.7505589,3.23313118 C25.8885899,2.60720958 26.1470229,1.60217174 25.6635394,1.06064407 C25.1704913,0.508238956 24.1234438,0.562813693 23.4610452,0.463510177 C22.497829,0.319102799 21.5372385,0.154534649 20.5713967,0.0283188496 C19.8856491,-0.0612324794 19.3717838,0.0295378729 19.2017769,0.772204392 C18.998575,1.66012223 18.9678181,2.58010976 18.7583336,3.46840268 C18.7114481,3.66729102 18.7178245,3.67601173 18.5302824,3.73133663 C18.361307,3.78131659 18.1893309,3.83335951 18.0152919,3.86299115 C17.5605023,3.94025848 17.0898654,3.93950831 16.6317939,4.0088051 C15.5742441,4.16868469 14.551202,4.47306544 13.5680126,4.88978388 C13.2008052,4.23601229 12.9215551,3.52110199 12.50343,2.89996272 C12.2057069,2.45783234 11.782612,2.04692771 11.2274874,1.98747688 C10.5462408,1.91461679 9.94291788,2.35637209 9.39379466,2.6951668 C8.64381386,3.15773927 7.85182363,3.5864604 7.13503778,4.09948168 C6.82146742,4.32396951 6.45641675,4.63303881 6.47910934,5.05407071 C6.49805109,5.40243007 6.68737483,5.75182091 6.84687937,6.05423247 C7.26641101,6.8495983 7.84910427,7.55119311 8.2738871,8.3405576 C6.86657129,9.51382067 5.75304016,10.9876199 5.00962333,12.6622766 C4.29658832,12.4367573 3.57895853,12.2430264 2.8368545,12.1376277 C2.27291545,12.0575473 1.53296815,11.8852899 1.05708011,12.306228 C0.621044763,12.6919083 0.587193416,13.4478903 0.472792744,13.9753523 C0.304755036,14.7499009 0.150126587,15.5294195 0.0636696854,16.31794 C0.0180031876,16.7353149 -0.00928418583,17.1559717 0.00290604972,17.5759721 C0.00759460185,17.7402589 -0.00947172791,17.9283636 0.0571994834,18.0825232 C0.179758236,18.3657117 0.545183989,18.5047741 0.812900316,18.6031399 C1.77377219,18.956094 2.8511077,19.0613989 3.87011762,19.1473869 C3.90462536,20.5708311 4.07294438,21.991087 4.44652822,23.3668018 C4.50269707,23.5737544 4.64738579,23.878604 4.50457249,24.0353892 C4.38998428,24.1611361 4.15171206,24.2408415 4.00467907,24.3240164 C3.5424816,24.5857313 3.08347234,24.8545728 2.65887706,25.1748947 C2.29373262,25.4503939 1.93749643,25.7659334 1.69697371,26.1602406 C1.61014172,26.302585 1.53596883,26.4186735 1.55838011,26.5764902 C1.60320266,26.8919359 1.91827337,27.3126865 2.07243296,27.5833097 C2.46289558,28.2691509 2.90896443,28.9226412 3.38635281,29.5504382 C3.78572368,30.075556 4.19522182,30.6466215 4.68611323,31.090346 C5.17897383,31.5358522 5.65298645,31.4876538 6.20670446,31.1752088 C6.97956539,30.7392673 7.73339081,30.2688181 8.49921891,29.8203112 C9.62540913,31.2145926 11.147782,32.2462614 12.8675429,32.7546879 C12.8348168,33.1235831 12.6803759,33.5224851 12.5911997,33.8715946 C12.4339456,34.486545 12.2645951,35.1002764 12.128252,35.7203841 C12.0312928,36.1606391 11.9860014,36.6801306 12.4137849,36.9549735 C12.7052253,37.1422342 13.1176303,37.203748 13.4453601,37.2952685 C13.8388234,37.4050744 14.2349123,37.5055032 14.6334392,37.5957109 C15.3927033,37.7675932 16.1830057,37.9509155 16.961868,37.9948941 C17.4369121,38.0217126 17.9512462,37.9516657 18.2785072,37.5730183 C18.7043215,37.0802516 18.6953195,36.2108066 18.7999679,35.5964189 C18.8893317,35.07177 18.9972622,34.5415886 19.0365523,34.009438 C20.0464664,34.0541668 21.0081822,33.9663971 21.980963,33.6660485 C22.3773332,33.5437711 22.7636699,33.3917683 23.1599463,33.2697722 C23.5228403,33.1579971 23.9624389,32.9780505 24.3438058,32.9601403 C24.8358224,32.9370726 25.1011945,33.5076693 25.2992389,33.8969128 C25.5771763,34.4435979 25.8492061,34.9870947 26.1813431,35.5042419 C26.3228436,35.7244163 26.5463938,36.2007731 26.829301,36.2801972 C27.0302524,36.3367411 27.2875601,36.2308736 27.4711638,36.1616706 C28.0842389,35.9303375 28.6761217,35.5908864 29.2202751,35.2279925 C29.8798606,34.7880188 30.5913015,34.2926265 31.1643363,33.7400339 C31.3711015,33.5406767 31.6628232,33.2344205 31.738684,32.9454182 C31.7876324,32.7587201 31.7003316,32.5948083 31.611718,32.4298651 C31.2651402,31.7845329 30.7659969,31.210748 30.326117,30.6286175 C30.1492648,30.394565 29.8922384,30.1367885 29.7841203,29.8616643 C29.5619767,29.2965063 30.4084479,28.7487897 30.7116097,28.3565455 C31.4913159,27.3476631 32.0227164,26.1755253 32.6529516,25.0732469 C33.3740509,25.2199985 34.0951503,25.3667502 34.8162496,25.5134081 C35.3287083,25.6176814 36.1525807,25.9495371 36.6677588,25.7131403 C37.0540955,25.5357256 37.162026,25.1025972 37.23573,24.7219806 C37.3907335,23.919957 37.5202314,23.1119321 37.6622945,22.3075643 C37.7746322,21.6723593 37.9288856,21.0305904 37.9873049,20.3876963 C38.0226566,19.997515 38.0071844,19.5956124 37.6327566,19.382846 L37.6327566,19.382846 Z" id="Fill-10" fill="#2D2E2C" mask="url(#mask-2)"></path>
                    </g>
                    <path d="M21.0246269,24.2888437 C22.7713651,27.4618997 25.0032857,30.3736842 27.6530022,32.9421122 C27.8358304,33.11939 28.1242989,32.84921 27.9417429,32.6721867 C25.315033,30.1257753 23.1087057,27.2413524 21.3772145,24.0960398 C21.257008,23.877656 20.9044204,24.0704599 21.0246269,24.2888437" id="Fill-12" fill="#2D2E2C"></path>
                    <g id="Group-16" transform="translate(21.000000, 26.000000)" fill="#2D2E2C">
                        <path d="M0.0369101707,0.372540774 C1.13213261,2.34535595 2.33993687,4.19878876 3.66085274,5.92373521 C3.84124856,6.15940804 4.12230576,5.79507709 3.94190995,5.55940426 C2.64483493,3.86537698 1.45570601,2.04990605 0.380086049,0.112476152 C0.232007843,-0.154287625 -0.112889875,0.10268508 0.0369101707,0.372540774" id="Fill-13"></path>
                    </g>
                    <path d="M8.27806928,26 C7.56072148,27.7860346 6.25995287,29.2337759 5.0152824,30.6359988 C3.89249257,31.9008735 2.22114508,33.3503798 1.36679969,34.8584116 C1.19413547,35.163121 1.05865779,35.5980388 1.00940951,35.9552711 C0.919180057,36.6119988 1.49085123,37.1503713 2.16709974,36.9618991 C3.10045496,36.7017007 4.27396003,35.9376478 5.0152824,35.3138583 C6.56878798,34.0066346 7.91160069,32.5172974 9.26220809,30.9810329 C10.3152,29.783179 11.2517096,28.1828279 12,26.7416897 C11.661364,26.6518199 10.4207204,26.40459 8.27806928,26 Z" id="Fill-17" fill="#FFFFFE"></path>
                    <path d="M25.9525896,10.2687533 C27.4357786,9.16225425 28.8956493,7.92895654 30.1240787,6.55281893 C30.6700474,5.94113322 31.4869874,4.85493082 30.6226663,4.1532 C29.9396885,3.59877056 28.4853217,4.69894364 27.907298,5.07912029 C26.3444887,6.10700069 25.1842116,7.30212607 23.4470387,8.05738715 C22.5134375,8.46339742 19.6769219,9.97670393 18.8145396,10.0171932 C17.8556046,10.0621536 17.0228115,10.318185 16.0665909,10.2687533 C15.2292839,10.2254075 13.3065171,10.0188932 12.5750691,10.4797999 C12.0179846,10.8711546 11.2691475,11.5884653 10.8267113,12.0934631 C9.51206948,13.5941735 8.49872108,15.7083471 7.59109992,17.4615563 C7.09269673,18.4239833 6.6521993,19.4157214 6.30282591,20.437516 C5.99765736,21.3296457 5.81928692,22.1523474 6.28343782,23.0324296 C7.01217153,24.4141563 8.799495,24.6698844 10.2181862,24.9992631 C11.7565666,25.3564628 13.3209271,25.6618709 14.8148441,26.1725819 C15.707601,26.4778659 16.8997101,26.8913281 17.1900145,27.8638153 C17.5961304,29.2239311 16.4923017,30.6749614 15.682138,31.6821003 C15.2482325,32.2215016 14.7774897,32.7258784 14.4078234,33.310861 C14.0488852,33.8792009 13.434929,34.9089443 13.8543581,35.5881949 C14.4230754,36.5090148 15.9253939,35.672651 16.4554643,35.1416954 C16.9121185,34.6842662 17.3324523,34.1808831 17.7450309,33.6870633 C19.1789741,31.9712383 20.440234,30.0354548 21.0269177,27.8871649 C21.3134736,26.8381705 21.3278208,25.6900643 20.5380793,24.8411564 C20.0001244,24.2628805 19.2885814,23.4227907 18.5992702,23.0324296 C17.9655381,22.6734912 17.3364153,22.5319947 16.7218128,22.142503 C16.3491737,21.9062744 15.8691685,21.8618433 15.68873,21.4501198 C15.4882571,20.9926907 15.2270182,20.3950924 15.2959106,19.9216415 C15.4143072,19.1083789 15.7437145,18.015558 16.0665909,17.2563225 C16.5683547,16.0755517 17.4014739,14.5655136 18.5992702,13.9150775 C19.8296384,13.2471291 21.3328543,12.6354725 22.6257815,12.0934631 C23.2153087,11.8463048 23.8398711,11.3858094 24.4122076,11.1028815" id="Fill-19" fill="#FFFFFE"></path>
                    <path d="M13.4018134,0.838525125 C12.8980356,1.14846408 12.1832815,1.53310063 11.6371316,2.14272312 C11.0133306,2.83902106 10.5752832,3.78513063 10.3293322,4.4904634 C9.84914013,5.86754735 9.88832176,7.75193144 10.484671,8.94620538 C10.9784574,9.93508268 11.8797868,10.297921 12.9553709,10.8797443 C12.9673653,10.8863348 12.9777183,10.8937668 12.9873138,10.9017596 C13.3115401,10.8472121 13.6447306,10.8373964 13.9711033,10.8413227 C14.9822905,10.8539429 15.9875436,11.0112752 16.9996145,10.999356 C18.0625668,10.9870163 18.9036866,10.6698277 19.8692952,10.2209681 C20.1074147,10.1103307 20.3478068,10.0041805 20.5887039,9.89901186 C20.5935017,9.87881948 20.6004458,9.85834666 20.6123139,9.83759338 C21.7986186,7.76240622 22.5227918,5.34101967 21.5397598,3.04820358 C20.9299416,1.62562275 19.2992478,0.338763855 17.8720459,0.103466601 C16.3929527,-0.140384366 14.7252325,0.024379801 13.4018134,0.838525125 Z" id="Fill-20" fill="#FFFFFE"></path>
                    <path d="M24.5586271,6.5209164 C25.2422715,5.86242968 25.9314684,5.20127291 26.6726203,4.65149562 C26.9385426,4.45416575 27.5509355,4.0195707 27.8907252,3.91620138 C27.9537281,3.54756162 28.1014255,3.15017808 27.8907252,3.03479041 C27.6265899,2.89013969 26.691044,3.23576148 26.4554802,3.35486548 C26.2908899,3.4381458 26.1355207,3.55575542 25.9824319,3.66840636 C25.6074437,3.94405788 25.2431639,4.2437399 24.8803713,4.54443908 C23.9644166,5.30375221 22.7036107,6.46344639 21.6524144,6.89192684 C21.5347941,7.66495987 21.2794699,8.13734438 21.0005585,8.83418042 C20.9846358,8.87396176 21.3146175,8.9589655 21.2961706,9 C21.77259,8.75880492 22.2462332,8.50883681 22.697964,8.20038174 C23.3652486,7.74469215 23.9562862,7.10108146 24.5586271,6.5209164 Z" id="Fill-21" fill="#FFFFFE"></path>
                    <path d="M29.958498,7.1834908 C28.7010424,8.63701494 28.7556158,8.53586757 27.237381,9.70459019 C26.7237612,10.0999802 23.7307039,12.2633552 23.1272469,12.5244123 C21.8037696,13.0969014 20.1950667,13.6510751 18.9356264,14.3565853 C17.7095278,15.0435985 16.4036807,16.0547066 15.8900609,17.3018775 C15.5595554,18.1038083 14.9472811,19.2722247 14.826087,20.1312207 C14.7555668,20.631296 14.6208772,21.4602374 14.826087,21.9433899 C15.010789,22.3782665 15.5086168,23.1009531 15.8900609,23.350466 C16.5191857,23.7618606 17.1237616,24.0868387 17.7724679,24.4659618 C18.4780667,24.8782747 19.1473836,25.1784105 19.6980497,25.7892055 C20.5064518,26.6858515 20.9525692,27.2840606 20.7732886,28.313766 C20.3660791,30.6525901 19.2402934,32.8367568 17.7724679,34.6490706 C17.3501407,35.1706601 16.9472497,35.7336914 16.4798054,36.2168438 C15.9372101,36.7776575 13.6123882,37.9532406 13.0302329,36.9806388 C12.6008933,36.2631908 13.686543,34.6266017 14.0877321,34.0698823 C14.4889212,33.5131628 14.9676519,33.0206001 15.41181,32.4508659 C15.8741375,31.8578254 16.1777763,31.3935135 16.3369999,30.8579148 C16.463386,30.4327756 16.5209579,29.9661114 16.3369999,29.3303962 C16.1451194,28.6671433 15.9870018,28.5250369 15.62829,28.313766 C15.4314676,28.1978434 15.149859,27.9555351 14.826087,27.8412925 C13.796428,27.4780806 10.5164731,26.6313543 7.8570848,26.0329596 C7.16086016,25.8763006 6.39224405,25.4800962 5.88641319,24.9858459 C5.4658047,24.5748668 5.25687911,24.0657888 5.14624506,23.8493376 C4.67112688,22.9197643 5.23735874,21.3829801 5.54973802,20.4406819 C5.90736666,19.3614271 6.50982008,18.3184262 7.01999989,17.3018775 C7.94906696,15.4500773 9.05926374,13.6468153 10.4049688,12.0617131 C10.6619304,11.7590741 10.8106457,11.6721259 11.3615001,11.283393 C11.9123544,10.8946601 11.814868,11.0361298 12.0615678,10.8573015 C13.0302329,10.5413988 13.5979219,10.5651195 14.4550134,10.6109029 C14.7256363,10.6253383 15.7411999,10.6828435 16.0248754,10.6998672 C16.7672249,10.7444166 16.8197641,10.6452619 17.5299665,10.6109029 C18.4127257,10.5681367 19.2465001,10.1596802 20.0493453,9.80731867 C21.0080494,9.38634764 21.8358544,8.9458191 22.7915154,8.516977 C24.5697355,7.71924412 26.0183763,6.34561133 27.6181128,5.25992849 C28.2097944,4.85837277 29.2342756,4.01265662 29.9333913,4.59826418 C30.8181352,5.33945655 30.5173672,6.53740718 29.958498,7.1834908 Z M9.52693023,30.9629707 C7.95202566,32.4553589 6.52651219,34.226096 4.71501387,35.4959849 C3.85057911,36.1019588 2.54112692,37.3289865 1.45276815,37.5817535 C0.664214149,37.7648429 0.149226667,36.9591518 0.254440649,36.3211805 C0.311867652,35.9741508 0.696307207,35.2604656 0.897646005,34.9644588 C1.89387368,33.4994969 3.25720702,32.3970764 4.56646006,31.168327 C6.01783461,29.8061521 7.08264252,28.0965475 7.91912122,26.3615227 L7.92518067,26.3443503 C8.74802561,26.540041 9.60171864,26.6696366 10.3692023,26.8330828 C10.9447118,26.9557601 11.5381241,27.0723838 12.1304348,27.2033384 C11.2578749,28.6033171 10.7547939,29.7993279 9.52693023,30.9629707 Z M11.9698102,10.4214311 C8.03910117,8.54414423 9.05483004,2.64803422 12.4542474,0.801511575 C13.8902968,0.021525365 16.2097784,-0.134072937 17.8147506,0.0995467697 C19.3634152,0.324971651 21.02603,1.47689458 21.687747,2.83978816 C22.7544405,5.03640451 21.5656669,7.43488723 20.2784012,9.42300572 C20.265523,9.44288825 19.7305323,9.68429976 19.4721475,9.79029513 C18.4243603,10.220322 17.5116565,10.5242022 16.3582412,10.5360243 C15.2600375,10.5474433 14.1692318,10.3967122 13.071987,10.3846215 C12.7178382,10.38086 12.3562914,10.3902639 12.0044716,10.4425227 C11.9940595,10.4348652 11.9828254,10.4277451 11.9698102,10.4214311 Z M26.3170801,4.44471383 C26.7799811,4.16885645 27.9831949,3.38416635 28.425236,3.38416635 C29.0296765,3.38416635 29.4775533,3.32396302 29.2963906,4.08609922 C28.86284,4.18092884 28.0450841,4.66720578 27.7057836,4.84823354 C26.7601195,5.35259181 26.2359246,6.01002626 25.3636364,6.61411309 C24.5950866,7.1463487 24.0191307,7.63088587 23.1677167,8.04892936 C22.591336,8.33190187 21.6229386,8.75855227 21.0150568,8.97982138 C21.4508847,8.28277119 21.7736731,7.66182399 21.9323169,6.91216844 C23.2735787,6.51908626 25.1483783,5.14129745 26.3170801,4.44471383 Z M29.8404923,4.34575846 C29.8867698,3.77014577 29.448853,3.24849265 28.8588817,3.1180134 C28.1799256,2.96774458 27.4746574,3.38490876 26.9143037,3.7131518 C25.3092699,4.65315648 23.4603052,6.12433952 21.687747,6.73992714 C21.8051595,5.80256107 21.8605099,4.33518204 21.5069503,3.36364598 C20.9644465,1.87243575 19.680799,1.15222159 18.2043037,0.576143355 C16.7278083,6.51155276e-05 14.6450438,0.0919927771 13.1350771,0.774337225 C11.3372647,1.58676513 10.1852805,3.45767693 9.87826277,5.38716021 C9.54757741,7.46638459 10.0029407,9.69712263 11.877177,10.8189275 C11.6838695,10.8847608 11.4973054,10.9711753 11.3215833,11.0860867 C9.97173651,12.0710797 8.94821177,13.5464583 8.04408283,14.9264511 C6.79644306,16.8307357 5.7329875,18.8868722 4.9977051,21.0434079 C4.71924714,21.8599256 4.47040674,22.6327744 4.66133423,23.4965232 C4.84353512,24.3195056 5.34703366,25.066364 6.05798735,25.5252182 C6.52499282,25.8265475 7.05969558,26.0413303 7.61925593,26.2103332 C6.78414648,28.1011609 5.46404947,29.7440912 4.01715227,31.2130051 C2.68951865,32.5610708 0.957684645,33.9228572 0.197941312,35.703391 C-0.067294526,36.3250474 -0.117009718,37.1320662 0.370093387,37.6731131 C1.01824198,38.3930577 2.1175295,37.7574166 2.76422366,37.352522 C4.89959693,36.0158024 6.86942919,34.2728688 8.56860455,32.4214883 C9.19705217,31.7365053 9.86582728,31.078436 10.4675662,30.3702332 C11.2508449,29.448435 11.8541705,28.3898248 12.4379274,27.336096 C13.3612284,27.5775288 14.2707784,27.8742405 15.0884346,28.3226722 C15.7074946,28.6622612 16.1321892,29.0823279 16.1353625,29.8332762 C16.1393292,30.7802732 15.5672078,31.691517 15.0442727,32.442993 C14.1344583,33.7501602 12.7276241,34.9772456 12.5397377,36.6477494 C12.3622968,38.2244506 14.3252141,37.991989 15.5,37.352522 C16.1374387,37.0055448 16.2194553,36.9827209 16.6827585,36.4407504 C17.3276016,35.6866358 18.1210093,34.8460542 18.681363,34.0270298 C19.3511959,33.0479737 19.9474691,32.0799979 20.4007235,30.9844472 C20.8588702,29.8770227 21.2493119,28.7206496 21.1002985,27.5025355 C20.89562,25.8289973 19.2298688,24.8626634 17.8917897,24.0891549 C17.2222213,23.7023348 16.5169531,23.3528509 15.8915466,22.8951841 C15.8054734,22.8322593 15.2759617,22.5175779 15.1380176,21.827862 C14.9969064,21.1223105 15.2510328,20.0318717 15.5,19.0991503 C15.7339128,18.2228283 16.4719959,16.9736973 17.006204,16.2723262 C17.2448005,15.9590688 17.5750933,15.722813 17.6354206,15.4992729 C18.2490101,15.2123817 18.7275603,14.9874909 19.0710711,14.8246008 C19.8171956,14.4706313 20.5773356,14.1462142 21.3353601,13.8188947 C22.5319624,13.302255 23.8410851,12.8593643 24.8806086,12.0566993 C26.5350932,10.7790845 28.249474,9.52152316 29.6988834,8.00775282 C30.5264562,7.14321238 31.8522387,5.35990807 30.2375528,4.46251693 C30.1100915,4.39167027 29.9768124,4.3559171 29.8404923,4.34575846 Z" id="Fill-23" fill="#2D2E2C"></path>
                    <path d="M20.0180769,5.28107593 C20.2562018,5.79813632 20.4542731,6.32840136 20.6178467,6.87077069 C20.6861962,7.09745074 21.0602448,7.00110561 20.991637,6.77332516 C20.8186314,6.19977816 20.6045386,5.64249246 20.352718,5.09596611 C20.2533593,4.88004541 19.919235,5.06650015 20.0180769,5.28107593" id="Fill-25" fill="#2D2E2C"></path>
                    <path d="M7.28429904,6.79069389 C7.33233136,4.4081471 7.92103517,2.15342524 8.96220911,0.376311681 C9.08385309,0.16866847 8.88348158,-0.13903679 8.76126917,0.0694740112 C7.66903129,1.93392496 7.05048491,4.29044406 7.00008414,6.79069389 C6.99439984,7.06991328 7.27861474,7.06962409 7.28429904,6.79069389" id="Fill-26" fill="#2D2E2C"></path>
                    <path d="M4.38528078,2.88886763 C4.653005,1.92441673 5.17268952,1.0466395 5.95392405,0.272354748 C6.10985568,0.11778671 5.83280445,-0.10261204 5.67529643,0.0534005586 C4.85149927,0.869990311 4.28793846,1.78811207 4.00523849,2.80652765 C3.951247,3.00082111 4.33115792,3.08367701 4.38528078,2.88886763" id="Fill-27" fill="#2D2E2C"></path>
                </g>
            </g>
        </g>
    </g>
</svg>