<?xml version="1.0" encoding="UTF-8"?>
<svg width="81px" height="84px" viewBox="0 0 81 84" version="1.1" xmlns="http://www.w3.org/2000/svg" xmlns:xlink="http://www.w3.org/1999/xlink">
    <title>Group</title>
    <g id="Page-1" stroke="none" stroke-width="1" fill="none" fill-rule="evenodd">
        <g id="Group-8-Copy" transform="translate(31.353285, 17.966575)">
            <g id="Group-6" stroke="#2D2E2C">
                <g id="Group-5">
                    <path d="M0,9.47086904 C0.16313109,11.3473494 1.69907103,25.8727769 1.99713415,26.5728654 C5.33259613,26.3197609 26.9163715,24.2368134 27.5603838,23.7316874 C27.9897253,23.3949368 27.1485126,17.3494937 25.0367457,5.59535825 C16.6985805,6.85681978 10.1888208,7.84284172 5.50746637,8.55342407 C0.826111977,9.26400641 0.233483607,9.35605531 3.72958126,8.82957076 L3.72958126,6.64863666 L25.0367457,2.41046402 L25.9027299,5.59535825 L27.2318901,5.59535825 L26.3394616,0 L2.42499557,4.87077948 L2.42499557,9.0432681 C2.13975462,9.0432681 1.33142277,9.18580174 0,9.47086904 Z" id="Path-41" stroke-width="0.5" fill="#FFFFFF" stroke-linecap="round" stroke-linejoin="round"></path>
                    <ellipse id="Oval" stroke-width="0.5" fill="#FFFFFF" cx="5.64442243" cy="19.6216415" rx="3.75049355" ry="4.24164363"></ellipse>
                    <ellipse id="Oval-Copy-2" stroke-width="0.5" fill="#FFFFFF" cx="21.6463966" cy="17.6253554" rx="3.75049355" ry="4.24164363"></ellipse>
                    <line x1="9.54490364" y1="19.6216415" x2="18.1459648" y2="18.6234984" id="Line-3" stroke-width="0.5" fill="#FFFFFF" stroke-linecap="square"></line>
                    <ellipse id="Oval" stroke-width="0.8" fill="#2D2E2C" cx="6.14448412" cy="19.6216415" rx="1.10018508" ry="1.09721454"></ellipse>
                    <ellipse id="Oval-Copy-3" stroke-width="0.8" fill="#2D2E2C" cx="21.6463966" cy="18.2242412" rx="1.10018508" ry="1.09721454"></ellipse>
                    <path d="M27.8759024,23.7316874 C30.2330133,23.1856503 31.4115687,22.9126317 31.4115687,22.9126317 C31.4115687,20.8924758 30.172832,7.19039238 29.6437356,6.57494823 C29.2910046,6.16465213 27.8106281,5.83978593 25.2026058,5.60034963 L27.8759024,23.7316874 Z" id="Path-43" stroke-width="0.5" fill="#FFFFFF" stroke-linejoin="round"></path>
                    <path d="M4.27984154,9.02130389 C4.52281321,10.9560448 4.72627707,12.2246225 4.89023311,12.8270371 C9.64491597,12.0529531 15.6456563,11.1849875 20.6462732,10.3407892 C20.6462732,9.46113232 20.4788286,8.17295043 20.1439393,6.4762435 L4.27984154,9.02130389 Z" id="Path-44" stroke-width="0.5" fill="#FFFFFF" stroke-linecap="round" stroke-linejoin="round"></path>
                    <polygon id="Path-45" stroke-width="0.5" fill="#FFFFFF" stroke-linecap="round" stroke-linejoin="round" points="9.14485428 12.3117188 9.64491597 16.063534 17.6459031 15.1299978 16.9815571 11.0867521"></polygon>
                    <ellipse id="Oval" stroke-width="0.8" fill="#FFFFFF" cx="11.1451011" cy="13.6327833" rx="1" ry="1"></ellipse>
                    <ellipse id="Oval-Copy-4" stroke-width="0.8" fill="#FFFFFF" cx="15.1455946" cy="13.1337118" rx="1" ry="1"></ellipse>
                </g>
                <g id="Group-2-Copy-2" transform="translate(8.525698, 6.918262)" fill="#FFFFFF" stroke-linejoin="round" stroke-width="0.5">
                    <path d="M10.9655111,17.9380013 C13.5926736,18.8218228 12.3569549,17.1950226 16.3891325,16.8970598 C17.2697663,16.8319842 15.0396562,15.9458163 14.1465702,14.2168865 C10.8334164,7.80293516 13.7148465,1.30515516 22.136266,1.30515516 C31.258969,1.30515516 34.7583443,7.38979655 30.5638096,15.1723489 C29.6342482,16.8970598 26.6518787,17.1522183 27.2085857,17.4474772 C29.823818,18.8345092 34.568679,18.2130745 35.3526336,16.4924907 C36.1401778,14.7640284 37.0607878,10.2849746 36.6135851,9.14527151 C36.2736638,6.42768392 34.2675885,4.16848964 36.6135851,4.16848964 C38.9595818,4.16848964 39.7128652,6.90875375 39.777803,7.2034933 C40.3350897,9.73290453 40.8643492,17.2904636 38.3403289,19.4385694 C34.6463092,22.5824209 28.6278859,23.1903003 27.9182358,23.5063583 C27.2085857,23.8224164 27.3275385,25.7132695 27.9182358,29.172739 C30.0695964,42.4525007 31.4711987,50.4845393 32.1230429,53.2688548 C33.1008091,57.4453282 28.7580322,60.8359337 27.2085857,54.4850895 C25.6591393,48.1342453 23.8632401,36.8019317 21.2058517,36.8019317 C18.5484633,36.8019317 16.3891325,51.0577157 16.3891325,54.4850895 C16.3891325,56.4683259 15.4166679,58.2546277 14.1465702,58.3203844 C13.2217206,58.3682665 11.958921,58.1484159 11.6817446,53.2688548 C11.2431959,45.5484075 12.225758,35.6275753 14.6294309,23.5063583 C11.088361,21.32914 7.69412566,20.745741 6.65768869,18.4329802 L10.9655111,17.9380013 Z" id="Path"></path>
                    <path d="M0,0.999053141 C1.77148315,2.58390661 3.08393625,3.14516277 3.9373593,2.68282161 C4.8762715,2.17416677 5.03035147,1.2798929 4.39959923,0 L0,0.999053141 Z" id="Path-2"></path>
                </g>
            </g>
            <g id="Group-6" transform="translate(22.646520, 13.133712)" fill="#2D2E2C">
                <path d="M2.00024677,2.49533043 C2.00024677,2.21975416 2.22411603,1.99628606 2.50030847,1.99628606 C2.77644651,1.99628606 3.00037016,2.21975416 3.00037016,2.49533043 C3.00037016,2.77096099 2.77644651,2.99442909 2.50030847,2.99442909 C2.22411603,2.99442909 2.00024677,2.77096099 2.00024677,2.49533043" id="Fill-230"></path>
                <path d="M8.00098709,2.49533043 C8.00098709,2.21975416 8.22504954,1.99628606 8.50077686,1.99628606 C8.77704803,1.99628606 9.00111048,2.21975416 9.00111048,2.49533043 C9.00111048,2.77096099 8.77704803,2.99442909 8.50077686,2.99442909 C8.22504954,2.99442909 8.00098709,2.77096099 8.00098709,2.49533043" id="Fill-231"></path>
                <path d="M3.22902833,4.17810595 C3.52275838,4.17810595 3.89509488,4.16721633 4.46538071,4.39375279 C4.67224356,4.47589623 4.82140665,4.53808481 4.99394716,4.74108269 C5.05668464,4.81489479 5.21550518,5.02983622 5.27909007,4.935958 C5.31554541,4.88216007 5.28502466,4.7926702 5.25987331,4.74108269 C5.19911441,4.61609594 5.09200919,4.52790632 4.99394716,4.44449514 C4.86536437,4.3350464 4.72265161,4.24802701 4.57485206,4.17810595 C4.32362109,4.05910035 4.05345595,3.99717584 3.7830082,3.97627428 C3.68127237,3.96840775 3.57897135,3.96632735 3.47667032,3.96993555 C3.3227101,3.97562415 3.17776481,3.99295002 3.03457163,4.02181562 C2.76177831,4.07681629 2.49585216,4.18437966 2.25456869,4.34096255 C2.22820215,4.35806087 2.2020617,4.37561427 2.17626036,4.39375279 C2.08972839,4.45450708 2.00633327,4.51555393 1.95670879,4.62171953 C1.93867894,4.660207 1.85373148,4.71429499 1.93915936,4.74800653 C2.0287104,4.78334516 2.13765859,4.63404478 2.41225299,4.46729369 C2.59899314,4.35389326 2.87125159,4.25749735 3.22902833,4.17810595 Z" id="Fill-232"></path>
                <path d="M3.91392144,0.643310473 C3.9725416,0.627568786 4.00912724,0.567488014 3.99873359,0.503471821 C3.97071232,0.332149794 3.90951454,0.165550274 3.81971344,0.0174035092 C3.72417505,-0.140363175 1.74081801,0.823727696 1.53951388,0.925611392 C1.05650038,1.16995736 0.526258151,1.43721622 0.0538045939,1.75957098 C-0.0668448448,1.84186503 0.0346802859,2.04248408 0.168799889,1.98660109 C0.6707714,1.77784883 1.16717192,1.52956745 1.67030752,1.34810078 C2.40800691,1.08206627 3.15659884,0.846815504 3.91392144,0.643310473" id="Fill-233"></path>
                <path d="M7.08168764,0.56219855 C7.02296331,0.544547342 6.9897713,0.489027682 7.00423962,0.432885954 C7.04424024,0.282578529 7.1165818,0.138491794 7.21785999,0.0126005772 C7.32594679,-0.121455295 9.28938185,0.8560484 9.48853391,0.958845304 C9.96683929,1.20541791 10.4911028,1.47516258 10.9523867,1.79024054 C11.0706864,1.87064296 10.9540888,2.04241177 10.8204697,1.98463711 C10.3217385,1.76846812 9.83066694,1.51761879 9.3285314,1.32563275 C8.59149856,1.04414652 7.84255064,0.789331498 7.08168764,0.56219855" id="Fill-234"></path>
            </g>
        </g>
    </g>
</svg>