<?xml version="1.0" encoding="UTF-8"?>
<svg width="91px" height="96px" viewBox="0 0 91 96" version="1.1" xmlns="http://www.w3.org/2000/svg" xmlns:xlink="http://www.w3.org/1999/xlink">
    <title>ominomusicOff</title>
    <g id="Page-1" stroke="none" stroke-width="1" fill="none" fill-rule="evenodd">
        <g id="ominomusicOff">
            <g id="omino" transform="translate(40.863787, 29.009149)" stroke="#2D2E2C">
                <g id="Group-5">
                    <path d="M0,9.59678627 C0.164367107,11.4982149 1.7119446,26.216761 2.0122661,26.9261573 C5.37300031,26.6696877 27.1203123,24.559047 27.7692042,24.0472053 C28.2017988,23.7059774 27.3542124,17.5801589 25.226445,5.66974974 C16.8251029,6.94798267 10.2660197,7.94711398 5.54919551,8.66714367 C0.832371289,9.38717336 0.235252673,9.48044607 3.75783967,8.94696179 L3.75783967,6.7370317 L25.226445,2.44251165 L26.0989906,5.66974974 L27.4382216,5.66974974 L26.5390313,0 L2.44336935,4.93553754 L2.44336935,9.16350028 C2.15596719,9.16350028 1.34151073,9.30792894 0,9.59678627 Z" id="Path-41" stroke-width="0.5" fill="#FFFFFF" stroke-linecap="round" stroke-linejoin="round"></path>
                    <ellipse id="Oval" stroke-width="0.5" fill="#FFFFFF" cx="5.68718927" cy="19.8825154" rx="3.78080461" ry="4.301361"></ellipse>
                    <ellipse id="Oval-Copy-2" stroke-width="0.5" fill="#FFFFFF" cx="21.8104077" cy="17.8596883" rx="3.78080461" ry="4.301361"></ellipse>
                    <line x1="9.61722377" y1="19.8825154" x2="18.2834537" y2="18.8711018" id="Line-3" stroke-width="0.5" fill="#FFFFFF" stroke-linecap="square"></line>
                    <ellipse id="Oval" stroke-width="0.8" fill="#2D2E2C" cx="6.19103985" cy="19.8825154" rx="1.11155173" ry="1.11712033"></ellipse>
                    <ellipse id="Oval-Copy-3" stroke-width="0.8" fill="#2D2E2C" cx="21.8104077" cy="18.4665364" rx="1.11155173" ry="1.11712033"></ellipse>
                    <path d="M28.0871135,24.0472053 C30.4620837,23.4939085 31.6495689,23.2172601 31.6495689,23.2172601 C31.6495689,21.1702457 30.4014464,7.28599019 29.8683412,6.66236358 C29.5129377,6.2466125 28.0213445,5.91742713 25.3935617,5.67480747 L28.0871135,24.0472053 Z" id="Path-43" stroke-width="0.5" fill="#FFFFFF" stroke-linejoin="round"></path>
                    <path d="M4.31226918,9.14124406 C4.55708181,11.1017077 4.76208727,12.3871515 4.92728559,12.9975753 C9.71799388,12.2131997 15.7642008,11.3336943 20.8027066,10.4782722 C20.8027066,9.5869201 20.6339932,8.28161155 20.2965665,6.56234654 L4.31226918,9.14124406 Z" id="Path-44" stroke-width="0.5" fill="#FFFFFF" stroke-linecap="round" stroke-linejoin="round"></path>
                    <polygon id="Path-45" stroke-width="0.5" fill="#FFFFFF" stroke-linecap="round" stroke-linejoin="round" points="9.21414331 12.4754057 9.71799388 16.2771021 17.7796031 15.3311544 17.1102235 11.2341528"></polygon>
                    <ellipse id="Oval" stroke-width="0.8" fill="#FFFFFF" cx="11.2295456" cy="13.8140341" rx="1" ry="1"></ellipse>
                    <ellipse id="Oval-Copy-4" stroke-width="0.8" fill="#FFFFFF" cx="15.2603502" cy="13.3083273" rx="1" ry="1"></ellipse>
                </g>
                <g id="Group-2-Copy-2" transform="translate(8.590296, 7.010242)" fill="#FFFFFF" stroke-linejoin="round" stroke-width="0.5">
                    <path d="M11.0485949,18.1764909 C13.695663,19.072063 12.4505815,17.4236341 16.5133102,17.1217098 C17.4006164,17.0557691 15.1536092,16.1578193 14.2537564,14.4059031 C10.9154994,7.90667685 13.8187616,1.32250748 22.3039888,1.32250748 C31.4958129,1.32250748 35.0217024,7.48804548 30.7953864,15.3740685 C29.858782,17.1217098 26.8538155,17.3802607 27.4147406,17.6794451 C30.0497881,19.0849181 34.8306001,18.4552213 35.6204946,16.7117619 C36.4140059,14.9603193 37.3415912,10.4217155 36.8910001,9.26685985 C36.5485033,6.51314135 34.5272282,4.2239106 36.8910001,4.2239106 C39.254772,4.2239106 40.0137629,7.00060711 40.0791927,7.29926529 C40.6407019,9.86230558 41.1739715,17.520344 38.6308271,19.6970093 C34.9088185,22.8826591 28.8447946,23.4986203 28.1297676,23.8188804 C27.4147406,24.1391405 27.5345947,26.0551329 28.1297676,29.5605968 C30.2974286,43.0169158 31.7096507,51.1557421 32.3664338,53.9770757 C33.3516084,58.2090761 28.9759269,61.6447605 27.4147406,55.2094804 C25.8535543,48.7742004 24.0440478,37.2912213 21.3665248,37.2912213 C18.6890019,37.2912213 16.5133102,51.736539 16.5133102,55.2094804 C16.5133102,57.2190844 15.5334774,59.0291355 14.2537564,59.0957664 C13.3218993,59.1442851 12.0495317,58.9215115 11.7702552,53.9770757 C11.3283837,46.1539833 12.3183905,36.1012516 14.7402757,23.8188804 C11.1723756,21.6127155 7.75242276,21.02156 6.70813288,18.6780506 L11.0485949,18.1764909 Z" id="Path"></path>
                    <path d="M0,1.01233577 C1.78490538,2.6182602 3.10730272,3.18697838 3.96719201,2.71849029 C4.91321819,2.20307278 5.0684656,1.29690935 4.43293425,0 L0,1.01233577 Z" id="Path-2"></path>
                </g>
            </g>
            <g id="viso" transform="translate(63.681896, 42.317477)" fill="#2D2E2C">
                <path d="M2.01540231,2.52850639 C2.01540231,2.24926626 2.24096778,2.02282711 2.51925288,2.02282711 C2.79748318,2.02282711 3.02310346,2.24926626 3.02310346,2.52850639 C3.02310346,2.80780151 2.79748318,3.03424066 2.51925288,3.03424066 C2.24096778,3.03424066 2.01540231,2.80780151 2.01540231,2.52850639" id="Fill-230"></path>
                <path d="M8.06160923,2.52850639 C8.06160923,2.24926626 8.28736936,2.02282711 8.56518582,2.02282711 C8.84355025,2.02282711 9.06931038,2.24926626 9.06931038,2.52850639 C9.06931038,2.80780151 8.84355025,3.03424066 8.56518582,3.03424066 C8.28736936,3.03424066 8.06160923,2.80780151 8.06160923,2.52850639" id="Fill-231"></path>
                <path d="M3.25349413,4.23365476 C3.54944972,4.23365476 3.92460736,4.22262037 4.49921415,4.45216867 C4.70764437,4.53540423 4.85793764,4.59841962 5.03178545,4.8041164 C5.09499829,4.87890984 5.25502219,5.09670897 5.31908885,5.00158262 C5.35582041,4.94706943 5.32506841,4.85638978 5.29972648,4.8041164 C5.23850722,4.67746792 5.13059049,4.58810581 5.03178545,4.50358565 C4.90222842,4.39268177 4.75843435,4.30450544 4.60951495,4.23365476 C4.35638044,4.11306696 4.0841683,4.05031914 3.81167142,4.0291397 C3.70916476,4.02116858 3.60608861,4.01906052 3.50301247,4.02271669 C3.34788572,4.02848093 3.2018422,4.04603714 3.05756407,4.07528652 C2.78270384,4.13101844 2.51476281,4.24001189 2.27165118,4.39867657 C2.24508487,4.41600222 2.21874635,4.433789 2.19274952,4.45216867 C2.10556191,4.51373071 2.02153492,4.57558918 1.97153445,4.68316628 C1.95336799,4.72216544 1.86777689,4.77697255 1.95385205,4.8111323 C2.0440816,4.84694076 2.15385527,4.69565539 2.43053023,4.52668732 C2.61868528,4.41177921 2.89300658,4.31410169 3.25349413,4.23365476 Z" id="Fill-232"></path>
                <path d="M3.94357657,0.651863423 C4.00264088,0.635912447 4.03950372,0.575032889 4.02903132,0.510165586 C4.00079774,0.336565797 3.93913627,0.1677513 3.84865476,0.0176348926 C3.7523925,-0.142229334 1.75400789,0.834679332 1.55117852,0.937917594 C1.0645053,1.18551219 0.53024552,1.45632432 0.0542122623,1.78296486 C-0.067351317,1.86635302 0.0349430526,2.06963934 0.170078858,2.01301338 C0.675853722,1.80148571 1.17601538,1.54990337 1.68296315,1.36602407 C2.42625197,1.09645257 3.18051586,0.858074097 3.94357657,0.651863423" id="Fill-233"></path>
                <path d="M7.1353444,0.5696731 C7.07617513,0.551787215 7.04273163,0.49552941 7.05730956,0.438641265 C7.09761327,0.286335471 7.17050295,0.140333072 7.2725485,0.0127681046 C7.38145426,-0.123070069 9.35976594,0.867429746 9.56042694,0.971593358 C10.0423564,1.2214442 10.5705922,1.49477519 11.0353711,1.81404217 C11.1545671,1.89551356 11.0370861,2.06956607 10.9024546,2.01102328 C10.3999446,1.79198029 9.90515225,1.53779586 9.39921212,1.34325732 C8.6565949,1.05802867 7.90197233,0.799825829 7.1353444,0.5696731" id="Fill-234"></path>
            </g>
        </g>
    </g>
</svg>