<?xml version="1.0" encoding="UTF-8"?>
<svg width="69px" height="70px" viewBox="0 0 69 70" version="1.1" xmlns="http://www.w3.org/2000/svg" xmlns:xlink="http://www.w3.org/1999/xlink">
    <title>Group 8</title>
    <g id="Page-1" stroke="none" stroke-width="1" fill="none" fill-rule="evenodd">
        <g id="Settings_Sound" transform="translate(-282.000000, -140.000000)">
            <g id="Group-8" transform="translate(282.000000, 140.000000)">
                <g id="Group-6" transform="translate(19.356274, 3.841854)">
                    <g id="Group-5" stroke="#2D2E2C">
                        <path d="M0,9.48848888 C0.163110965,11.3684603 1.69886141,25.9209113 1.99688776,26.6223022 C5.33193824,26.3687268 26.9130508,24.2819041 27.5569836,23.7758384 C27.9862722,23.4384613 27.1451633,17.3817711 25.0336569,5.605768 C16.6965204,6.86957638 10.1875637,7.85743274 5.5067869,8.56933707 C0.826010058,9.2812414 0.233454802,9.37346155 3.72912114,8.84599751 L3.72912114,6.66100595 L25.0336569,2.41494851 L25.8995343,5.605768 L27.2285305,5.605768 L26.3362121,0 L2.42469639,4.87984121 L2.42469639,9.06009242 C2.13949064,9.06009242 1.33125851,9.20289124 0,9.48848888 Z" id="Path-41" stroke-width="0.5" fill="#FFFFFF" stroke-linecap="round" stroke-linejoin="round"></path>
                        <ellipse id="Oval" stroke-width="0.5" fill="#FFFFFF" cx="5.64372607" cy="19.6581461" rx="3.75" ry="4.25"></ellipse>
                        <ellipse id="Oval-Copy-2" stroke-width="0.5" fill="#FFFFFF" cx="21.6437261" cy="17.6581461" rx="3.75" ry="4.25"></ellipse>
                        <line x1="9.54372607" y1="19.6581461" x2="18.1437261" y2="18.6581461" id="Line-3" stroke-width="0.5" fill="#FFFFFF" stroke-linecap="square"></line>
                        <circle id="Oval" stroke-width="0.8" fill="#2D2E2C" cx="6.14372607" cy="19.6581461" r="1.1"></circle>
                        <circle id="Oval-Copy-3" stroke-width="0.8" fill="#2D2E2C" cx="21.6437261" cy="18.2581461" r="1.1"></circle>
                        <path d="M27.8724633,23.7758384 C30.2292834,23.2287855 31.4076934,22.955259 31.4076934,22.955259 C31.4076934,20.9313447 30.1691095,7.20376957 29.6400784,6.58718043 C29.287391,6.17612101 27.807197,5.85065042 25.1994966,5.61076866 L27.8724633,23.7758384 Z" id="Path-43" stroke-width="0.5" fill="#FFFFFF" stroke-linejoin="round"></path>
                        <path d="M4.27931353,9.03808735 C4.52225522,10.9764277 4.72569398,12.2473655 4.8896298,12.8509009 C9.64372607,12.0753767 15.6437261,11.2057964 20.6437261,10.3600274 C20.6437261,9.47873405 20.4763021,8.18815559 20.1414541,6.48829207 L4.27931353,9.03808735 Z" id="Path-44" stroke-width="0.5" fill="#FFFFFF" stroke-linecap="round" stroke-linejoin="round"></path>
                        <polygon id="Path-45" stroke-width="0.5" fill="#FFFFFF" stroke-linecap="round" stroke-linejoin="round" points="9.14372607 12.3346238 9.64372607 16.093419 17.6437261 15.1581461 16.9794621 11.1073782"></polygon>
                        <circle id="Oval" stroke-width="0.8" fill="#FFFFFF" cx="11.1437261" cy="13.6581461" r="1"></circle>
                        <circle id="Oval-Copy-4" stroke-width="0.8" fill="#FFFFFF" cx="15.1437261" cy="13.1581461" r="1"></circle>
                    </g>
                    <g id="Group-2-Copy" transform="translate(8.524646, 6.931133)" fill="#FFFFFF" stroke="#2D2E2C" stroke-linejoin="round" stroke-width="0.5">
                        <path d="M10.9641583,17.9713736 C13.5909966,18.8568394 12.3554304,17.2270127 16.3871106,16.9284955 C17.2676357,16.8632989 15.0378008,15.9754823 14.1448249,14.243336 C10.8320799,7.81745194 13.7131545,1.30758331 22.133535,1.30758331 C31.2551125,1.30758331 34.7540561,7.40354472 30.5600389,15.2005759 C29.6305922,16.9284955 26.6485906,17.1841287 27.205229,17.4799369 C29.8201386,18.8695494 34.5644142,18.2469586 35.3482721,16.5231737 C36.1357192,14.7914958 37.0562156,10.304109 36.6090681,9.1622856 C36.2691887,6.43964215 34.2633608,4.1762448 36.6090681,4.1762448 C38.9547753,4.1762448 39.7079657,6.92160697 39.7728955,7.21689486 C40.3301135,9.75101187 40.8593077,17.3226312 38.3355988,19.4747334 C34.6420349,22.6244338 28.6243541,23.2334441 27.9147915,23.5500902 C27.205229,23.8667362 27.3241671,25.7611071 27.9147915,29.2270127 C30.0658866,42.5314804 31.4673161,50.578462 32.1190798,53.3679576 C33.0967254,57.5522009 28.7544842,60.9491144 27.205229,54.5864549 C25.6559737,48.2237954 23.860296,36.870399 21.2032355,36.870399 C18.5461749,36.870399 16.3871106,51.1527048 16.3871106,54.5864549 C16.3871106,56.573381 15.414766,58.3630061 14.1448249,58.4288851 C13.2200894,58.4768563 11.9574456,58.2565967 11.6803034,53.3679576 C11.2418088,45.6331469 12.2242497,35.6938578 14.6276261,23.5500902 C11.086993,21.3688213 7.69317643,20.7843369 6.65686733,18.4672733 L10.9641583,17.9713736 Z" id="Path"></path>
                        <path d="M0,1.0009118 C1.7712646,2.58871378 3.08355578,3.15101411 3.93687354,2.68781279 C4.87566991,2.17821165 5.02973087,1.28227405 4.39905644,0 L0,1.0009118 Z" id="Path-2"></path>
                    </g>
                    <g id="Group-11" transform="translate(22.643726, 13.158146)" fill="#2D2E2C">
                        <path d="M6.60652597,4 C6.86287376,4 7.04968858,4.21266968 6.98822379,4.43180349 C6.73679025,5.32902392 5.71829375,6 4.50007335,6 C3.2817796,6 2.26320975,5.32902392 2.01177621,4.43180349 C1.95031142,4.21266968 2.13712624,4 2.39347403,4 L6.60652597,4" id="Fill-168"></path>
                        <path d="M2.85684839,0.909217895 C3.00933005,1.12279359 3.08292718,1.43042419 2.85608087,1.59285709 C2.66999867,1.72609568 2.39019312,1.68627887 2.14543789,1.66327516 C1.5283477,1.60537899 0.890363776,1.71026744 0.3473824,1.95887631 C0.312246806,1.97505628 0.276514248,1.99201008 0.236858784,1.99784895 C0.156268647,2.00980806 0.0720967268,1.97062438 0.0314178959,1.91202472 C-0.0437142844,1.8043927 0.0247660116,1.65989847 0.14313544,1.58321945 C0.261504868,1.50647008 0.415436293,1.48065247 0.563312798,1.45708598 C1.18620207,1.35782534 1.83296989,1.25877574 2.44861031,1.38497956 C2.47837323,1.39102947 2.50958592,1.39764215 2.539093,1.39095912 C2.63759205,1.36865889 2.61158148,1.24576141 2.55307901,1.1766096 C2.34806452,0.934965162 2.01555559,0.786320418 1.67571253,0.69472768 C1.39675979,0.619596309 0.614566419,0.605386069 0.441702708,0.402503229 C0.214174153,0.135533611 0.876036641,-0.0100158334 1.10527081,0.000536325445 C1.74990662,0.0301527178 2.53661986,0.460751145 2.85684839,0.909217895" id="Fill-169"></path>
                        <path d="M7.14315193,0.909217895 C6.99066993,1.12279359 6.91707264,1.43042419 7.14391945,1.59285709 C7.32991679,1.72609568 7.60980823,1.68627887 7.85447873,1.66327516 C8.47157029,1.60537899 9.10955564,1.71026744 9.65253822,1.95887631 C9.68784446,1.97505628 9.72349181,1.99201008 9.76306208,1.99784895 C9.8436524,2.00980806 9.92782451,1.97062438 9.96867399,1.91202472 C10.0436358,1.8043927 9.97524061,1.65989847 9.85687092,1.58321945 C9.73850123,1.50647008 9.58456946,1.48065247 9.43669262,1.45708598 C8.81380197,1.35782534 8.1670327,1.25877574 7.55130563,1.38497956 C7.52154265,1.39102947 7.49041517,1.39764215 7.46090803,1.39095912 C7.36232347,1.36865889 7.38833411,1.24576141 7.44692199,1.1766096 C7.65185165,0.934965162 7.98436132,0.786320418 8.32429042,0.69472768 C8.6031585,0.619596309 9.38535361,0.605386069 9.5582177,0.402503229 C9.78574677,0.135533611 9.12396809,-0.0100158334 8.89473341,0.000536325445 C8.25001088,0.0301527178 7.46338117,0.460751145 7.14315193,0.909217895" id="Fill-170"></path>
                    </g>
                </g>
                <g id="Group-7" fill="#2D2E2C">
                    <path d="M16.9257052,15.7510516 L15.1965839,18.4033519 C15.3663922,18.4263541 15.5455842,18.4946186 15.7119639,18.6092585 C16.1499285,18.9108839 16.3334514,19.418787 16.1215971,19.7436001 C15.9099232,20.0684132 15.3831746,20.0871489 14.9452099,19.785338 C14.5072452,19.483527 14.3237224,18.975624 14.5353963,18.6509964 C14.5366594,18.6491413 14.5381031,18.6472863 14.5393663,18.6454313 L16.1862,16.119272 L14.4395746,14.1687238 L12.7754171,16.7214099 C12.9374659,16.7475656 13.1067328,16.8145316 13.2644506,16.92305 C13.7024153,17.2248609 13.8859381,17.732764 13.6740838,18.0575771 C13.4624099,18.3823902 12.9356613,18.4009403 12.4976966,18.0993149 C12.059732,17.797504 11.8762091,17.2896009 12.0880634,16.9647878 L14.542434,13.1998496 C14.7057459,12.949608 15.0572726,12.9310579 15.244585,13.1629348 L16.8988174,15.2117987 C17.0229706,15.3655795 17.0339783,15.5850277 16.9257052,15.7510516" id="Fill-103"></path>
                    <path d="M13.6532725,6.60056677 C13.6012009,6.68722652 13.4704388,6.62878623 13.4962804,6.53031834 C13.6629874,5.89027706 13.5561239,5.16757879 13.1438252,4.66587288 C12.7097651,4.13760866 12.0299191,3.92065909 11.3667826,3.81250452 C11.1880291,3.78322433 11.0267624,3.92782403 11.0267624,4.11429259 L11.0267624,9.87582493 C11.0267624,10.4968531 10.3490536,11 9.5137698,11 C8.67770878,11 8,10.4968531 8,9.87582493 C8,9.25499689 8.67770878,8.75184999 9.5137698,8.75184999 C9.81473623,8.75184999 10.0949129,8.81689484 10.3305954,8.92977266 L10.3305954,2.32794097 C10.3305954,2.02377126 10.5550087,1.91917915 10.7796163,2.06499968 C10.9449633,2.24368288 11.1375118,2.40443371 11.3261745,2.55263589 C11.8064772,2.92973588 12.3681906,3.18132935 12.8716147,3.52436586 C13.3752332,3.86798277 13.8405751,4.34190952 13.9682283,4.95026896 C14.0644055,5.4089452 13.9373351,6.12784085 13.6532725,6.60056677" id="Fill-104"></path>
                    <path d="M0.0719033185,2.46301888 L1.56090876,4.61621659 C1.42941972,4.64595142 1.29302727,4.71473798 1.16902609,4.82217981 C0.842640122,5.10525533 0.72584358,5.54850244 0.908154521,5.81215121 C1.09048316,6.07579998 1.50288223,6.05994141 1.8292859,5.77706412 C2.15565417,5.4939886 2.27246841,5.05074149 2.09013977,4.78709272 L2.08686494,4.78273161 L0.668737541,2.73201992 L1.93126603,0.967357243 L3.36422754,3.039478 C3.23911115,3.07159161 3.11040129,3.13859408 2.99282587,3.24068364 C2.6664399,3.52375917 2.54964335,3.96680804 2.731972,4.23045681 C2.91426523,4.49410558 3.3266643,4.47844524 3.65306797,4.19536972 C3.97945394,3.9122942 4.09625049,3.46904709 3.91392184,3.20539832 L1.80039655,0.149253123 C1.65984418,-0.0541330724 1.3842624,-0.0487808041 1.25011808,0.159957659 L0.0647871909,2.00272381 C-0.0241644039,2.14089162 -0.021261307,2.32822102 0.0719033185,2.46301888" id="Fill-102"></path>
                    <path d="M8.50716276,14.351431 C8.70264202,14.5211222 8.46884601,14.8159475 8.24176259,14.6860245 C8.12137624,14.6173152 7.99073395,14.5654709 7.85265279,14.5350722 C7.3489889,14.4240963 6.83240603,14.5960777 6.37440971,14.8226102 C6.24893941,14.884865 6.21033655,15.0370664 6.2948931,15.1445028 L8.87329571,18.4213111 C9.15115268,18.7744352 8.95675184,19.3561738 8.43942068,19.7203331 C7.92173739,20.0849087 7.27695516,20.0942781 6.99907619,19.741154 C6.72119721,19.38803 6.91562006,18.8064995 7.43330335,18.4419239 C7.61975913,18.3105434 7.82243516,18.2253855 8.01883877,18.1868667 L5.06435537,14.4322165 C4.92823297,14.2594022 5.02044847,14.1019955 5.22475312,14.0870044 C5.40711533,14.116362 5.59830293,14.1238576 5.78141342,14.1259397 C6.2476189,14.1309367 6.70797012,14.029122 7.17331727,14.0045533 C7.63890651,13.9804009 8.13911507,14.0468199 8.49039231,14.3372728 C8.49600447,14.3418534 8.50157261,14.3466422 8.50716276,14.351431" id="Fill-105"></path>
                </g>
            </g>
        </g>
    </g>
</svg>