<?xml version="1.0" encoding="UTF-8"?>
<svg width="76px" height="74px" viewBox="0 0 76 74" version="1.1" xmlns="http://www.w3.org/2000/svg" xmlns:xlink="http://www.w3.org/1999/xlink">
    <title>Sit</title>
    <g id="Page-1" stroke="none" stroke-width="1" fill="none" fill-rule="evenodd">
        <g id="AlertTest" transform="translate(-126.000000, 3.000000)">
            <g id="Sit" transform="translate(164.151631, 34.388561) scale(1, -1) rotate(153.000000) translate(-164.151631, -34.388561) translate(137.006057, 9.624737)">
                <path d="M4.36310697,35.8917602 C-4.82808211,17.2330029 2.00000698,0.462723666 25.3622967,0.462723666 C50.6700527,0.462723666 61.6332133,23.1886422 47.8969111,40.7237615 C42.5390744,47.5633247 31.2556415,48.2059899 32.8000308,49.0649242" id="Path" stroke="#3A3939" stroke-width="3" fill="#FFFFFF" stroke-linejoin="round" transform="translate(27.145574, 24.763824) rotate(1.000000) translate(-27.145574, -24.763824) "></path>
                <g id="Group-8" transform="translate(31.674535, 21.069916) rotate(35.000000) translate(-31.674535, -21.069916) translate(17.940020, 15.627349)">
                    <path d="M-1.12400142e-13,3.28440889 C-1.12400142e-13,1.62722253 1.34297678,0.284245747 2.99983686,0.284245747 C4.65702322,0.284245747 6,1.62722253 6,3.28440889 C6,4.94094269 4.65702322,6.28424575 2.99983686,6.28424575 C1.34297678,6.28424575 -1.12400142e-13,4.94094269 -1.12400142e-13,3.28440889" id="Fill-12" fill="#2D2E2C"></path>
                    <path d="M7.78477912,8.46405585 C9.01294585,9.69215943 10.5129458,10.3062112 12.2847791,10.3062112 C13.3214973,10.3062112 14.2651523,10.095988 15.1157439,9.67554147 C15.517835,9.47678829 16.0741801,9.07295975 16.7847791,8.46405585" id="Line-4" stroke="#2D2E2C" stroke-linecap="round" stroke-linejoin="round"></path>
                    <path d="M21.469029,3.00016314 C21.469029,1.34297678 22.812332,-4.3133198e-13 24.4688658,-4.3133198e-13 C26.1260522,-4.3133198e-13 27.469029,1.34297678 27.469029,3.00016314 C27.469029,4.65669694 26.1260522,6 24.4688658,6 C22.812332,6 21.469029,4.65669694 21.469029,3.00016314" id="Fill-13" fill="#2D2E2C"></path>
                </g>
            </g>
        </g>
    </g>
</svg>