<?xml version="1.0" encoding="UTF-8"?>
<svg width="81px" height="84px" viewBox="0 0 81 84" version="1.1" xmlns="http://www.w3.org/2000/svg" xmlns:xlink="http://www.w3.org/1999/xlink">
    <title>Group 8</title>
    <g id="Page-1" stroke="none" stroke-width="1" fill="none" fill-rule="evenodd">
        <g id="Settings_Sound-Copy" transform="translate(-267.000000, -130.000000)">
            <g id="Group-8" transform="translate(267.000000, 130.000000)">
                <g id="Group-6" transform="translate(31.356274, 17.841854)">
                    <g id="Group-5" stroke="#2D2E2C">
                        <path d="M0,9.48848888 C0.163110965,11.3684603 1.69886141,25.9209113 1.99688776,26.6223022 C5.33193824,26.3687268 26.9130508,24.2819041 27.5569836,23.7758384 C27.9862722,23.4384613 27.1451633,17.3817711 25.0336569,5.605768 C16.6965204,6.86957638 10.1875637,7.85743274 5.5067869,8.56933707 C0.826010058,9.2812414 0.233454802,9.37346155 3.72912114,8.84599751 L3.72912114,6.66100595 L25.0336569,2.41494851 L25.8995343,5.605768 L27.2285305,5.605768 L26.3362121,0 L2.42469639,4.87984121 L2.42469639,9.06009242 C2.13949064,9.06009242 1.33125851,9.20289124 0,9.48848888 Z" id="Path-41" stroke-width="0.5" fill="#FFFFFF" stroke-linecap="round" stroke-linejoin="round"></path>
                        <ellipse id="Oval" stroke-width="0.5" fill="#FFFFFF" cx="5.64372607" cy="19.6581461" rx="3.75" ry="4.25"></ellipse>
                        <ellipse id="Oval-Copy-2" stroke-width="0.5" fill="#FFFFFF" cx="21.6437261" cy="17.6581461" rx="3.75" ry="4.25"></ellipse>
                        <line x1="9.54372607" y1="19.6581461" x2="18.1437261" y2="18.6581461" id="Line-3" stroke-width="0.5" fill="#FFFFFF" stroke-linecap="square"></line>
                        <circle id="Oval" stroke-width="0.8" fill="#2D2E2C" cx="6.14372607" cy="19.6581461" r="1.1"></circle>
                        <circle id="Oval-Copy-3" stroke-width="0.8" fill="#2D2E2C" cx="21.6437261" cy="18.2581461" r="1.1"></circle>
                        <path d="M27.8724633,23.7758384 C30.2292834,23.2287855 31.4076934,22.955259 31.4076934,22.955259 C31.4076934,20.9313447 30.1691095,7.20376957 29.6400784,6.58718043 C29.287391,6.17612101 27.807197,5.85065042 25.1994966,5.61076866 L27.8724633,23.7758384 Z" id="Path-43" stroke-width="0.5" fill="#FFFFFF" stroke-linejoin="round"></path>
                        <path d="M4.27931353,9.03808735 C4.52225522,10.9764277 4.72569398,12.2473655 4.8896298,12.8509009 C9.64372607,12.0753767 15.6437261,11.2057964 20.6437261,10.3600274 C20.6437261,9.47873405 20.4763021,8.18815559 20.1414541,6.48829207 L4.27931353,9.03808735 Z" id="Path-44" stroke-width="0.5" fill="#FFFFFF" stroke-linecap="round" stroke-linejoin="round"></path>
                        <polygon id="Path-45" stroke-width="0.5" fill="#FFFFFF" stroke-linecap="round" stroke-linejoin="round" points="9.14372607 12.3346238 9.64372607 16.093419 17.6437261 15.1581461 16.9794621 11.1073782"></polygon>
                        <circle id="Oval" stroke-width="0.8" fill="#FFFFFF" cx="11.1437261" cy="13.6581461" r="1"></circle>
                        <circle id="Oval-Copy-4" stroke-width="0.8" fill="#FFFFFF" cx="15.1437261" cy="13.1581461" r="1"></circle>
                    </g>
                    <g id="Group-2-Copy" transform="translate(8.524646, 6.931133)" fill="#FFFFFF" stroke="#2D2E2C" stroke-linejoin="round" stroke-width="0.5">
                        <path d="M10.9641583,17.9713736 C13.5909966,18.8568394 12.3554304,17.2270127 16.3871106,16.9284955 C17.2676357,16.8632989 15.0378008,15.9754823 14.1448249,14.243336 C10.8320799,7.81745194 13.7131545,1.30758331 22.133535,1.30758331 C31.2551125,1.30758331 34.7540561,7.40354472 30.5600389,15.2005759 C29.6305922,16.9284955 26.6485906,17.1841287 27.205229,17.4799369 C29.8201386,18.8695494 34.5644142,18.2469586 35.3482721,16.5231737 C36.1357192,14.7914958 37.0562156,10.304109 36.6090681,9.1622856 C36.2691887,6.43964215 34.2633608,4.1762448 36.6090681,4.1762448 C38.9547753,4.1762448 39.7079657,6.92160697 39.7728955,7.21689486 C40.3301135,9.75101187 40.8593077,17.3226312 38.3355988,19.4747334 C34.6420349,22.6244338 28.6243541,23.2334441 27.9147915,23.5500902 C27.205229,23.8667362 27.3241671,25.7611071 27.9147915,29.2270127 C30.0658866,42.5314804 31.4673161,50.578462 32.1190798,53.3679576 C33.0967254,57.5522009 28.7544842,60.9491144 27.205229,54.5864549 C25.6559737,48.2237954 23.860296,36.870399 21.2032355,36.870399 C18.5461749,36.870399 16.3871106,51.1527048 16.3871106,54.5864549 C16.3871106,56.573381 15.414766,58.3630061 14.1448249,58.4288851 C13.2200894,58.4768563 11.9574456,58.2565967 11.6803034,53.3679576 C11.2418088,45.6331469 12.2242497,35.6938578 14.6276261,23.5500902 C11.086993,21.3688213 7.69317643,20.7843369 6.65686733,18.4672733 L10.9641583,17.9713736 Z" id="Path"></path>
                        <path d="M0,1.0009118 C1.7712646,2.58871378 3.08355578,3.15101411 3.93687354,2.68781279 C4.87566991,2.17821165 5.02973087,1.28227405 4.39905644,0 L0,1.0009118 Z" id="Path-2"></path>
                    </g>
                    <g id="Group-11" transform="translate(22.643726, 13.158146)" fill="#2D2E2C">
                        <path d="M6.60652597,4 C6.86287376,4 7.04968858,4.21266968 6.98822379,4.43180349 C6.73679025,5.32902392 5.71829375,6 4.50007335,6 C3.2817796,6 2.26320975,5.32902392 2.01177621,4.43180349 C1.95031142,4.21266968 2.13712624,4 2.39347403,4 L6.60652597,4" id="Fill-168"></path>
                        <path d="M2.85684839,0.909217895 C3.00933005,1.12279359 3.08292718,1.43042419 2.85608087,1.59285709 C2.66999867,1.72609568 2.39019312,1.68627887 2.14543789,1.66327516 C1.5283477,1.60537899 0.890363776,1.71026744 0.3473824,1.95887631 C0.312246806,1.97505628 0.276514248,1.99201008 0.236858784,1.99784895 C0.156268647,2.00980806 0.0720967268,1.97062438 0.0314178959,1.91202472 C-0.0437142844,1.8043927 0.0247660116,1.65989847 0.14313544,1.58321945 C0.261504868,1.50647008 0.415436293,1.48065247 0.563312798,1.45708598 C1.18620207,1.35782534 1.83296989,1.25877574 2.44861031,1.38497956 C2.47837323,1.39102947 2.50958592,1.39764215 2.539093,1.39095912 C2.63759205,1.36865889 2.61158148,1.24576141 2.55307901,1.1766096 C2.34806452,0.934965162 2.01555559,0.786320418 1.67571253,0.69472768 C1.39675979,0.619596309 0.614566419,0.605386069 0.441702708,0.402503229 C0.214174153,0.135533611 0.876036641,-0.0100158334 1.10527081,0.000536325445 C1.74990662,0.0301527178 2.53661986,0.460751145 2.85684839,0.909217895" id="Fill-169"></path>
                        <path d="M7.14315193,0.909217895 C6.99066993,1.12279359 6.91707264,1.43042419 7.14391945,1.59285709 C7.32991679,1.72609568 7.60980823,1.68627887 7.85447873,1.66327516 C8.47157029,1.60537899 9.10955564,1.71026744 9.65253822,1.95887631 C9.68784446,1.97505628 9.72349181,1.99201008 9.76306208,1.99784895 C9.8436524,2.00980806 9.92782451,1.97062438 9.96867399,1.91202472 C10.0436358,1.8043927 9.97524061,1.65989847 9.85687092,1.58321945 C9.73850123,1.50647008 9.58456946,1.48065247 9.43669262,1.45708598 C8.81380197,1.35782534 8.1670327,1.25877574 7.55130563,1.38497956 C7.52154265,1.39102947 7.49041517,1.39764215 7.46090803,1.39095912 C7.36232347,1.36865889 7.38833411,1.24576141 7.44692199,1.1766096 C7.65185165,0.934965162 7.98436132,0.786320418 8.32429042,0.69472768 C8.6031585,0.619596309 9.38535361,0.605386069 9.5582177,0.402503229 C9.78574677,0.135533611 9.12396809,-0.0100158334 8.89473341,0.000536325445 C8.25001088,0.0301527178 7.46338117,0.460751145 7.14315193,0.909217895" id="Fill-170"></path>
                    </g>
                </g>
                <g id="Group-7" fill="#2D2E2C">
                    <path d="M28.8662694,26.7160884 L25.7538511,31.2628889 C26.059506,31.3023212 26.3820516,31.4193462 26.681535,31.6158718 C27.4698713,32.1329439 27.8002126,33.0036349 27.4188747,33.5604574 C27.0378617,34.1172799 26.0897142,34.1493981 25.3013778,33.632008 C24.5130414,33.1146178 24.1827002,32.2439268 24.5637133,31.6874223 C24.565987,31.6842423 24.5685855,31.6810623 24.5708593,31.6778823 L27.53516,27.3473235 L24.3912342,24.0035266 L21.3957508,28.3795597 C21.6874385,28.4243981 21.992119,28.539197 22.2760111,28.7252285 C23.0643475,29.2426187 23.3946887,30.1133097 23.0133508,30.6701322 C22.6323378,31.2269546 21.6841903,31.2587549 20.895854,30.7416827 C20.1075176,30.2242926 19.7771764,29.3536016 20.1585142,28.7967791 L24.5763812,22.3425992 C24.8703427,21.9136138 25.5030906,21.8818135 25.840253,22.2793167 L28.8178714,25.791655 C29.041347,26.0552791 29.061161,26.4314761 28.8662694,26.7160884" id="Fill-103"></path>
                    <path d="M23.4221209,12.1787854 C23.3353348,12.3328471 23.117398,12.2289533 23.1604673,12.0538993 C23.4383123,10.9160481 23.2602065,9.63125117 22.5730419,8.73932956 C21.8496085,7.80019318 20.7165318,7.41450504 19.6113043,7.22223025 C19.3133819,7.17017659 19.044604,7.42724271 19.044604,7.75874238 L19.044604,18.0014665 C19.044604,19.1055166 17.9150894,20 16.5229497,20 C15.1295146,20 14,19.1055166 14,18.0014665 C14,16.8977723 15.1295146,16.0032889 16.5229497,16.0032889 C17.0245604,16.0032889 17.4915214,16.1189242 17.8843257,16.3195958 L17.8843257,4.58300617 C17.8843257,4.04226002 18.2583479,3.85631848 18.6326939,4.11555499 C18.9082721,4.43321401 19.2291864,4.71899326 19.5436241,4.9824638 C20.3441287,5.65286379 21.2803176,6.10014106 22.1193579,6.70998375 C22.958722,7.32085825 23.7342918,8.1633947 23.9470472,9.24492259 C24.1073425,10.060347 23.8955585,11.3383837 23.4221209,12.1787854" id="Fill-104"></path>
                    <path d="M0.125830807,4.10503147 L2.73159033,7.69369432 C2.5014845,7.74325236 2.26279773,7.85789663 2.04579566,8.03696635 C1.47462021,8.50875889 1.27022627,9.24750406 1.58927041,9.68691868 C1.90834553,10.1263333 2.6300439,10.0999023 3.20125033,9.6284402 C3.7723948,9.15664766 3.97681972,8.41790248 3.6577446,7.97848786 L3.65201364,7.97121935 L1.1702907,4.55336654 L3.37971555,1.61226207 L5.8873982,5.06579667 C5.66844451,5.11931935 5.44320225,5.23099014 5.23744527,5.40113941 C4.66626982,5.87293194 4.46187587,6.61134674 4.78095099,7.05076136 C5.09996416,7.49017597 5.82166252,7.46407541 6.39286895,6.99228287 C6.9640444,6.52049033 7.16843835,5.78174515 6.84936323,5.34233053 L3.15069396,0.248755205 C2.90472731,-0.0902217873 2.4224592,-0.0813013401 2.18770665,0.266596099 L0.113377584,3.33787302 C-0.0422877068,3.56815271 -0.0372072873,3.88036836 0.125830807,4.10503147" id="Fill-102"></path>
                    <path d="M15.1375348,24.5857184 C15.4796235,24.8685369 15.0704805,25.3599124 14.6730845,25.1433741 C14.4624084,25.0288586 14.2337844,24.9424515 13.9921424,24.891787 C13.1107306,24.7068272 12.2067105,24.9934629 11.405217,25.371017 C11.185644,25.4747749 11.118089,25.7284441 11.2660629,25.9075046 L15.7782675,31.3688519 C16.2645172,31.957392 15.9243157,32.9269564 15.0189862,33.5338884 C14.1130404,34.1415145 12.9846715,34.1571302 12.4983833,33.5685901 C12.0120951,32.9800499 12.3523351,32.0108326 13.2582809,31.4032065 C13.5845785,31.184239 13.9392615,31.0423092 14.2829678,30.9781112 L9.1126219,24.7203609 C8.8744077,24.4323371 9.03578482,24.1699925 9.39331796,24.1450073 C9.71245182,24.1939367 10.0470301,24.2064293 10.3674735,24.2098994 C11.1833331,24.2182278 11.9889477,24.0485367 12.8033052,24.0075888 C13.6180864,23.9673348 14.4934514,24.0780331 15.1081865,24.5621213 C15.1180078,24.5697556 15.1277521,24.577737 15.1375348,24.5857184" id="Fill-105"></path>
                </g>
            </g>
        </g>
    </g>
</svg>