<?xml version="1.0" encoding="UTF-8"?>
<svg width="91px" height="96px" viewBox="0 0 91 96" version="1.1" xmlns="http://www.w3.org/2000/svg" xmlns:xlink="http://www.w3.org/1999/xlink">
    <title>Group 8</title>
    <g id="Page-1" stroke="none" stroke-width="1" fill="none" fill-rule="evenodd">
        <g id="Group-8">
            <g id="omino" transform="translate(40.701874, 29.038502)">
                <g id="Group-5" stroke="#2D2E2C">
                    <path d="M0,9.59306837 C0.164908729,11.4937604 1.71758579,26.2066044 2.01889691,26.9157258 C5.39070538,26.6593556 27.209679,24.5495326 27.8607091,24.0378891 C28.2947291,23.6967935 27.4443498,17.5733482 25.3095709,5.66755322 C16.8805448,6.94529095 10.2998483,7.94403519 5.56748118,8.66378593 C0.835114112,9.38353667 0.236027876,9.47677325 3.77022247,8.94349565 L3.77022247,6.73442171 L25.3095709,2.4415654 L26.1849918,5.66755322 L27.5286358,5.66755322 L26.6264825,0 L2.45142073,4.93362546 L2.45142073,9.15995025 C2.16307151,9.15995025 1.34593127,9.30432296 0,9.59306837 Z" id="Path-41" stroke-width="0.5" fill="#FFFFFF" stroke-linecap="round" stroke-linejoin="round"></path>
                    <ellipse id="Oval" stroke-width="0.5" fill="#FFFFFF" cx="5.70592965" cy="19.8748127" rx="3.79408689" ry="4.29959775"></ellipse>
                    <ellipse id="Oval-Copy-2" stroke-width="0.5" fill="#FFFFFF" cx="21.8822772" cy="17.8527693" rx="3.79408689" ry="4.29959775"></ellipse>
                    <line x1="9.64891437" y1="19.8748127" x2="18.3437012" y2="18.863791" id="Line-3" stroke-width="0.5" fill="#FFFFFF" stroke-linecap="square"></line>
                    <circle id="Oval" stroke-width="0.8" fill="#2D2E2C" cx="6.21144052" cy="19.8748127" r="1.11653258"></circle>
                    <circle id="Oval-Copy-3" stroke-width="0.8" fill="#2D2E2C" cx="21.8822772" cy="18.4593823" r="1.11653258"></circle>
                    <path d="M28.1796659,24.0378891 C30.5624622,23.4848067 31.7538603,23.2082655 31.7538603,23.2082655 C31.7538603,21.1620442 30.5016251,7.28316752 29.9667631,6.65978251 C29.6101885,6.2441925 28.1136802,5.91513466 25.4772384,5.672609 L28.1796659,24.0378891 Z" id="Path-43" stroke-width="0.5" fill="#FFFFFF" stroke-linejoin="round"></path>
                    <path d="M4.32647894,9.13770265 C4.57209827,11.0974068 4.77777927,12.3823526 4.94352194,12.9925399 C9.75001655,12.2084681 15.8161469,11.3293035 20.8712555,10.4742128 C20.8712555,9.58320603 20.7019862,8.27840317 20.3634476,6.55980422 L4.32647894,9.13770265 Z" id="Path-44" stroke-width="0.5" fill="#FFFFFF" stroke-linecap="round" stroke-linejoin="round"></path>
                    <polygon id="Path-45" stroke-width="0.5" fill="#FFFFFF" stroke-linecap="round" stroke-linejoin="round" points="9.24450568 12.4705726 9.75001655 16.2707962 17.8381903 15.325215 17.166605 11.2298006"></polygon>
                    <circle id="Oval" stroke-width="0.8" fill="#FFFFFF" cx="11.2665491" cy="13.8086824" r="1"></circle>
                    <circle id="Oval-Copy-4" stroke-width="0.8" fill="#FFFFFF" cx="15.310636" cy="13.3031715" r="1"></circle>
                </g>
                <g id="Group-2-Copy" transform="translate(8.618603, 7.007526)" fill="#FFFFFF" stroke="#2D2E2C" stroke-linejoin="round" stroke-width="0.5">
                    <path d="M11.0850022,18.1694491 C13.7407928,19.0646743 12.4916085,17.4168841 16.5677248,17.1150767 C17.4579548,17.0491615 15.2035432,16.1515596 14.3007253,14.4003221 C10.9514681,7.90361373 13.8642971,1.32199513 22.3774847,1.32199513 C31.5995977,1.32199513 35.1371057,7.48514453 30.8968632,15.3681124 C29.9571724,17.1150767 26.942304,17.3735274 27.5050775,17.6725959 C30.1488079,19.0775244 34.9453736,18.4480715 35.737871,16.7052876 C36.5339971,14.9545235 37.4646389,10.417678 37.0125631,9.26326977 C36.6689376,6.5106181 34.6410021,4.22227421 37.0125631,4.22227421 C39.384124,4.22227421 40.1456159,6.997895 40.2112614,7.29643748 C40.7746208,9.85848482 41.3096477,17.5135564 38.7581231,19.6893785 C35.0238498,22.8737941 28.9398438,23.4895167 28.2224606,23.8096527 C27.5050775,24.1297888 27.6253265,26.0450389 28.2224606,29.5491447 C30.3972645,43.0002506 31.8141401,51.1359238 32.4730874,53.9561644 C33.4615083,58.1865253 29.0714082,61.6208787 27.5050775,55.1880917 C25.9387467,48.7553047 24.1232776,37.2767743 21.4369317,37.2767743 C18.7505857,37.2767743 16.5677248,51.7164957 16.5677248,55.1880917 C16.5677248,57.1969172 15.5846632,59.006267 14.3007253,59.0728721 C13.3657975,59.121372 12.0892372,58.8986847 11.8090405,53.9561644 C11.3657129,46.1361028 12.358982,36.0872656 14.7888477,23.8096527 C11.2091908,21.6043425 7.77796848,21.0134161 6.73023747,18.6708145 L11.0850022,18.1694491 Z" id="Path"></path>
                    <path d="M0,1.01194358 C1.79078699,2.61724586 3.11754188,3.18574371 3.98026467,2.71743712 C4.92940819,2.20221929 5.08516717,1.29640692 4.44754162,0 L0,1.01194358 Z" id="Path-2"></path>
                </g>
                <g id="Group-11" transform="translate(22.893299, 13.303172)" fill="#2D2E2C">
                    <path d="M6.67934127,4.04408689 C6.93851445,4.04408689 7.12738829,4.25910056 7.06524605,4.4806496 C6.81104129,5.38775894 5.7813192,6.06613034 4.54967191,6.06613034 C3.31795046,6.06613034 2.28815422,5.38775894 2.03394945,4.4806496 C1.97180722,4.25910056 2.16068106,4.04408689 2.41985423,4.04408689 L6.67934127,4.04408689" id="Fill-168"></path>
                    <path d="M2.88833578,0.919239042 C3.04249805,1.13516871 3.11690635,1.44618993 2.8875598,1.61041312 C2.69942665,1.74512023 2.41653717,1.70486457 2.16908432,1.68160732 C1.54519273,1.62307303 0.900177119,1.72911754 0.351211153,1.9804665 C0.315688304,1.99682481 0.279561912,2.01396547 0.239469376,2.01986868 C0.157990997,2.03195961 0.072891357,1.99234405 0.0317641753,1.93309853 C-0.0441960911,1.82428022 0.0250389757,1.67819341 0.144713039,1.60066926 C0.264387102,1.52307398 0.420015117,1.49697181 0.569521476,1.47314558 C1.19927606,1.37279091 1.85317238,1.27264962 2.47559822,1.40024442 C2.50568917,1.40636101 2.53724588,1.41304658 2.56707818,1.40628988 C2.66666286,1.38374387 2.64036561,1.25949185 2.58121834,1.18957786 C2.37394424,0.945270089 2.03777048,0.794987024 1.69418177,0.702384776 C1.41215449,0.626425328 0.62134,0.612058466 0.446571033,0.406939508 C0.216534721,0.137027424 0.885692074,-0.0101262251 1.1174528,0.000542236676 C1.76919361,0.0304850527 2.56457778,0.465829417 2.88833578,0.919239042" id="Fill-169"></path>
                    <path d="M7.22188177,0.919239042 C7.06771916,1.13516871 6.9933107,1.44618993 7.22265775,1.61041312 C7.4107051,1.74512023 7.69368143,1.70486457 7.94104861,1.68160732 C8.56494159,1.62307303 9.20995864,1.72911754 9.75892582,1.9804665 C9.79462119,1.99682481 9.83066144,2.01396547 9.87066785,2.01986868 C9.95214641,2.03195961 10.0372462,1.99234405 10.078546,1.93309853 C10.1543339,1.82428022 10.0851849,1.67819341 9.96551062,1.60066926 C9.84583629,1.52307398 9.69020793,1.49697181 9.54070124,1.47314558 C8.91094525,1.37279091 8.25704747,1.27264962 7.63453403,1.40024442 C7.60444301,1.40636101 7.57297245,1.41304658 7.54314009,1.40628988 C7.44346896,1.38374387 7.46976628,1.25949185 7.5289999,1.18957786 C7.73618823,0.945270089 8.07236274,0.794987024 8.41603844,0.702384776 C8.69798013,0.626425328 9.48879637,0.612058466 9.66356573,0.406939508 C9.89360255,0.137027424 9.22452993,-0.0101262251 8.9927687,0.000542236676 C8.34094021,0.0304850527 7.54564049,0.465829417 7.22188177,0.919239042" id="Fill-170"></path>
                </g>
            </g>
            <g id="note" fill="#2D2E2C">
                <path d="M37.8216926,35.2881178 L33.6718015,41.3505186 C34.0793414,41.403095 34.5094021,41.5591282 34.9087133,41.8211623 C35.9598285,42.5105919 36.4002834,43.6715132 35.891833,44.4139432 C35.3838156,45.1563731 34.119619,45.1991975 33.0685038,44.5093439 C32.0173886,43.8194904 31.5769337,42.6585691 32.084951,41.9165631 C32.0879827,41.9123231 32.0914474,41.908083 32.094479,41.903843 L36.04688,36.1297646 L31.854979,31.6713688 L27.8610011,37.5060797 C28.249918,37.5658641 28.6561587,37.7189294 29.0346814,37.9669714 C30.0857966,38.6568249 30.5262516,39.8177462 30.0178011,40.5601762 C29.5097838,41.3026062 28.2455871,41.3450065 27.1944719,40.655577 C26.1433567,39.9657234 25.7029018,38.8048021 26.2113523,38.0623721 L32.1018416,29.456799 C32.4937902,28.8848184 33.3374541,28.842418 33.787004,29.3724223 L37.7571618,34.0555399 C38.0551294,34.4070388 38.081548,34.9086348 37.8216926,35.2881178" id="Fill-103"></path>
                <path d="M31.2487571,16.7346558 C31.1359352,16.9368619 30.8526174,16.8005012 30.9086074,16.5707428 C31.269806,15.0773131 31.0382685,13.3910172 30.1449545,12.2203701 C29.2044911,10.9877535 27.7314913,10.4815379 26.2946956,10.2291772 C25.9073964,10.1608568 25.5579852,10.4982561 25.5579852,10.9333494 L25.5579852,24.3769248 C25.5579852,25.8259906 24.0896162,27 22.2798346,27 C20.468369,27 19,25.8259906 19,24.3769248 C19,22.9283261 20.468369,21.7543167 22.2798346,21.7543167 C22.9319285,21.7543167 23.5389778,21.906088 24.0496234,22.1694695 L24.0496234,6.7651956 C24.0496234,6.05546627 24.5358522,5.81141801 25.022502,6.15166593 C25.3807538,6.56859338 25.7979423,6.94367866 26.2067113,7.28948374 C27.2473674,8.16938373 28.4644129,8.75643515 29.5551652,9.55685367 C30.6463385,10.3586265 31.6545793,11.4644555 31.9311614,12.8839609 C32.1395452,13.9542055 31.864226,15.6316286 31.2487571,16.7346558" id="Fill-104"></path>
                <path d="M0.161782467,5.33654091 L3.51204471,10.0018026 C3.21619436,10.0662281 2.90931136,10.2152656 2.63030871,10.4480563 C1.89594027,11.0613866 1.63314806,12.0217553 2.04334767,12.5929943 C2.45358712,13.1642333 3.38148501,13.1298731 4.11589328,12.5169723 C4.85022188,11.903642 5.11305393,10.9432732 4.70281449,10.3720342 L4.69544611,10.3625852 L1.50465947,5.9193765 L4.34534856,2.09594069 L7.56951197,6.58553567 C7.28800008,6.65511516 6.9984029,6.80028718 6.7338582,7.02148123 C5.99948976,7.63481153 5.73669755,8.59475076 6.14693699,9.16598976 C6.55709678,9.73722877 7.48499467,9.70329803 8.21940294,9.08996773 C8.95377137,8.47663743 9.21656359,7.5162687 8.80632415,6.94502969 L4.05089223,0.323381766 C3.7346494,-0.117288323 3.1145904,-0.105691742 2.81276569,0.346574929 L0.14577118,4.33923492 C-0.0543699087,4.63859852 -0.0478379408,5.04447887 0.161782467,5.33654091" id="Fill-102"></path>
                <path d="M19.8911162,32.7614339 C20.3309445,33.129098 19.8049035,33.7678862 19.2939658,33.4863863 C19.0230965,33.3375162 18.7291514,33.2251869 18.4184688,33.1593232 C17.285225,32.9188754 16.1229136,33.2915018 15.0924218,33.7823221 C14.8101137,33.9172074 14.7232572,34.2469773 14.9135095,34.479756 L20.7149154,41.5795074 C21.3400935,42.3446096 20.9026916,43.6050433 19.7386965,44.3940549 C18.5739091,45.1839688 17.1231491,45.2042693 16.4979214,44.4391671 C15.8726937,43.6740649 16.3101451,42.4140823 17.4749325,41.6241685 C17.8944581,41.3395107 18.3504791,41.155002 18.7923872,41.0715445 L12.1447996,32.9364691 C11.8385242,32.5620382 12.0460091,32.2209903 12.5056945,32.1885095 C12.9160095,32.2521177 13.3461816,32.268358 13.7581802,32.2728693 C14.8071425,32.2836962 15.8429328,32.0630977 16.8899639,32.0098654 C17.9375396,31.9575353 19.0630089,32.1014431 19.8533827,32.7307577 C19.86601,32.7406823 19.8785384,32.7510581 19.8911162,32.7614339" id="Fill-105"></path>
            </g>
        </g>
    </g>
</svg>