<?xml version="1.0" encoding="UTF-8"?>
<svg width="112px" height="320px" viewBox="0 0 112 320" version="1.1" xmlns="http://www.w3.org/2000/svg" xmlns:xlink="http://www.w3.org/1999/xlink">
    <title>Dice_fall</title>
    <g id="Page-1" stroke="none" stroke-width="1" fill="none" fill-rule="evenodd">
        <g id="NEW-PROTOTYPE" transform="translate(-2100.000000, -942.000000)">
            <g id="Dice_fall" transform="translate(2100.877363, 942.290671)">
                <g id="Group-25" transform="translate(26.544049, 0.000000)">
                    <g id="up-copy" transform="translate(41.570875, 95.658363) rotate(37.000000) translate(-41.570875, -95.658363) translate(11.530623, 66.447289)" fill="#F5F5F5" stroke="#2D2E2C" stroke-linecap="round" stroke-linejoin="round">
                        <g id="Group-4-Copy" transform="translate(30.040252, 29.211074) rotate(14.000000) translate(-30.040252, -29.211074) translate(5.031826, 5.341044)">
                            <path d="M45.0467599,6.53561585 C41.4597925,4.50569562 27.0380054,-0.48696983 24.9386838,0.0384982078 C22.8393622,0.563966246 9.35451017,5.46536208 4.05428365e-12,9.33577682 C3.46304979,12.1800729 11.0139213,15.9933774 17.1983654,17.698799 C25.1312791,15.9651115 30.5074752,14.6194296 33.3269536,13.6617531 C43.3201297,10.2674269 46.7269832,7.48648017 45.0467599,6.53561585 Z" id="Path-Copy-2"></path>
                            <path d="M17.1983654,17.698799 C11.1642085,15.4655271 5.43142009,12.677853 -5.10616538e-14,9.33577682 C0.430920603,19.3877561 3.34872926,41.5533881 4.80585286,42.2349586 C5.77726859,42.6893389 11.8600517,44.5243726 23.0542022,47.7400597 C20.21446,35.281823 18.2625144,25.2680694 17.1983654,17.698799 C30.0857895,15.0608563 41.2096219,11.4347941 45.4916319,6.94560412 C47.4563569,18.9039002 50.7618142,35.8788388 49.8660757,36.8471401 C48.9703371,37.8154414 35.0818164,43.4433883 23.5725203,47.7400597" id="Path-42-Copy-2"></path>
                        </g>
                    </g>
                    <g id="Group" transform="translate(42.585983, 31.500000) scale(-1, 1) translate(-42.585983, -31.500000) translate(29.585983, 0.000000)" stroke="#2D2E2C" stroke-linecap="square">
                        <line x1="0.341987175" y1="19.8355553" x2="0.341987175" y2="62.8751593" id="Line"></line>
                        <line x1="12.7229396" y1="0.498921669" x2="12.7229396" y2="47.2810999" id="Line-2"></line>
                        <line x1="25.1038919" y1="24.201892" x2="25.1038919" y2="62.8751593" id="Line-3"></line>
                    </g>
                    <g id="cat" transform="translate(27.103242, 88.544508) rotate(46.000000) translate(-27.103242, -88.544508) translate(20.031404, 81.664841)">
                        <path d="M10.0610215,2.71796119 C11.6159041,2.07391948 12.6694386,1.91266885 13.9555438,2.23911844 C14.8823758,2.9824155 12.0893088,6.80897612 11.9762616,6.67511329" id="Fill-84" stroke="#2D2E2C" stroke-width="0.7"></path>
                        <path d="M10.5258558,3.16684653 C11.4346469,2.86804199 12.0262588,2.78920897 12.9721572,2.78920897 C13.6577547,2.78920897 11.5889051,5.44536329 11.52911,5.37853644" id="Fill-85" stroke="#2D2E2C" stroke-width="0.7"></path>
                        <path d="M1.83697781,4.76174032 C0.58845087,4.42907605 0.372243429,1.75748875 0.618190991,0.265690051 C0.777581901,-0.701395647 4.25479293,1.27256486 4.2083479,1.40751802" id="Fill-86" stroke="#2D2E2C" stroke-width="0.7"></path>
                        <path d="M2.20117644,3.84841599 C1.76796457,3.64191659 2.02322294,2.23389063 1.98445113,1.33450301 C1.95552233,0.660561887 3.22234583,1.85310416 3.2061409,1.93656733" id="Fill-87" stroke="#2D2E2C" stroke-width="0.7"></path>
                        <path d="M2.05431401,3.83804224 C0.200955721,7.89260268 0.755405763,13.179865 5.43763193,13.6974013 C10.1295692,14.2167424 11.7308048,11.3707441 12.0215888,8.87104852 C12.4353192,5.31439676 9.99764455,1.14207088 6.76915488,0.937673387 C5.18477632,0.837730683 3.22441248,1.27765906 2.05431401,3.83804224" id="Fill-88" stroke="#2D2E2C" stroke-width="0.7"></path>
                        <path d="M2.4795684,8.85615198 C3.04113635,10.0819113 3.85980486,8.34254576 3.36292445,7.27633731 C2.79381551,6.05557143 1.90657115,7.60542573 2.4795684,8.85615198" id="Fill-91" fill="#2D2E2C"></path>
                        <path d="M2.85362812,7.64817044 C3.13442515,7.95460377 3.54367913,7.51974389 3.29512429,7.25325019 C3.01074481,6.94802194 2.56686033,7.33536744 2.85362812,7.64817044" id="Fill-92" fill="#FFFFFE"></path>
                        <path d="M7.66484898,8.76565129 C8.22616751,9.99139303 9.04493378,8.25205243 8.54806554,7.18585922 C7.97897056,5.96511081 7.09151229,7.51470517 7.66484898,8.76565129" id="Fill-95" fill="#2D2E2C"></path>
                        <path d="M8.03867019,7.55758565 C8.31943119,7.86420196 8.72880323,7.42915456 8.48028029,7.16282361 C8.19576672,6.85741242 7.75210976,7.24494375 8.03867019,7.55758565" id="Fill-96" fill="#FFFFFE"></path>
                        <path d="M5.57939311,10.0976588 C5.78618065,10.2959383 6.08791226,10.0149743 5.90509117,9.84253372 C5.69553827,9.64507019 5.36830389,9.89584344 5.57939311,10.0976588 Z M6.43481142,10.7360154 C6.6412917,10.934023 6.94302331,10.653331 6.75989496,10.4808904 C6.55034206,10.2834268 6.22341494,10.5339281 6.43481142,10.7360154 Z M5.51824791,11.0694731 C5.72534271,11.2672087 6.02676705,10.9862447 5.84363871,10.8138041 C5.63377854,10.6168845 5.30715869,10.8671138 5.51824791,11.0694731 L5.51824791,11.0694731 Z" id="Fill-99" fill="#2D2E2C"></path>
                        <path d="M3.85130729,10.1279418 C4.05811938,10.3259942 4.3598868,10.0449666 4.17642942,9.87275895 C3.96685164,9.67525065 3.64019301,9.9258087 3.85130729,10.1279418 Z M4.70590525,10.7667152 C4.91302464,10.9644956 5.21448477,10.6834679 5.03164198,10.5112603 C4.8220642,10.313752 4.49479098,10.56431 4.70590525,10.7667152 Z M3.78984753,11.0994324 C3.99665962,11.2974848 4.29873434,11.0167292 4.11496966,10.8442495 C3.90569917,10.6470132 3.57873325,10.8975713 3.78984753,11.0994324 L3.78984753,11.0994324 Z" id="Fill-102" fill="#2D2E2C"></path>
                        <path d="M4.74762023,9.39468589 C4.80510564,9.36254966 4.61080694,12.0790923 5.10792169,11.5681558 C5.16808776,11.5065368 5.25029488,11.2647781 5.28216502,11.2986833 C5.31919794,11.3378954 5.23043809,11.8629835 4.98580243,11.838218 C4.84233712,11.8237715 4.76995912,11.5873196 4.73689756,11.2591764 C4.72518206,11.1415401 4.71306941,10.9584521 4.69976536,10.710502 C4.6766322,10.9510814 4.64853485,11.1633574 4.62599739,11.276866 C4.55391724,11.6418628 4.36190208,11.7813163 4.22022388,11.504473 C4.16164635,11.3894902 4.08261632,11.0787418 4.07000726,10.8812072 C4.05005119,10.5692795 4.17782963,10.9372245 4.24524343,11.1111729 C4.66283173,12.1920113 4.6513148,9.79447227 4.69797825,9.51851353 C4.69599257,9.48873593 4.69321262,9.4692773 4.68973769,9.46249626 C4.69440403,9.47134109 4.69867324,9.48166006 4.70274388,9.49315834 C4.7137644,9.44008935 4.72835914,9.40529968 4.74762023,9.39468589" id="Fill-103" fill="#2D2E2C"></path>
                        <path d="M4.32964625,8.25813111 C4.5688055,7.94861062 6.12666227,8.2880135 5.16919486,9.02488619 C4.95511412,9.18940915 4.92654788,9.37040139 4.79799978,9.36598694 C4.63474038,9.36055378 4.76577972,9.23423274 4.48111378,8.9714035 C4.42912986,8.92335397 4.11390468,8.5377692 4.32964625,8.25813111" id="Fill-104" fill="#2D2E2C"></path>
                        <path d="M3.58803035,1.58161332 C3.50252938,2.13280875 3.14806178,5.964759 4.69829667,1.50180969 C4.86979717,1.00785273 3.65383869,1.15755334 3.58803035,1.58161332" id="Fill-105" fill="#2D2E2C"></path>
                        <path d="M4.97290452,1.55548425 C4.84437186,2.24469426 4.31310353,7.03447863 6.63819814,1.45548122 C6.89550829,0.838345458 5.07181346,1.02551328 4.97290452,1.55548425" id="Fill-106" fill="#2D2E2C"></path>
                        <path d="M7.00054656,1.06293654 C6.73395273,1.61916879 5.11376353,5.59252855 8.10018166,1.48066664 C8.43097459,1.02608735 7.20577741,0.635676478 7.00054656,1.06293654" id="Fill-107" fill="#2D2E2C"></path>
                        <path d="M2.42315384,9.86294641 C2.3421888,9.83555194 0.221281169,9.26562781 0.748683714,9.51991998 C0.865235722,9.57589999 2.39415706,9.9594226 2.41524563,9.90284706 C2.41901144,9.89361631 2.41825828,9.86145758 2.42296555,9.86324418 L2.42315384,9.86294641 Z M2.44179463,11.1210078 C2.35593402,11.147509 0.149165791,11.9919733 0.727595143,11.8910307 C0.855068018,11.868996 2.43897027,11.2335633 2.44461899,11.1644816 C2.44537216,11.1534643 2.4363342,11.1227944 2.44179463,11.1210078 Z M2.29869362,10.5224981 C2.19174444,10.5165428 -0.593264853,10.5492971 0.115273446,10.6847806 C0.271743105,10.7142594 2.27553385,10.656195 2.29455122,10.5757982 C2.29737558,10.5635898 2.29210344,10.5224981 2.29869362,10.5224981 L2.29869362,10.5224981 Z" id="Fill-120" fill="#2D2E2C"></path>
                        <path d="M9.11808669,11.0011574 C9.19886222,10.9731677 11.320114,10.4035465 10.7925312,10.6578364 C10.6761693,10.7138159 9.14727132,11.097335 9.1258065,11.04076 C9.1226056,11.0318271 9.12298218,10.9993709 9.11808669,11.0011574 Z M9.09982277,12.2586118 C9.18530549,12.2854105 11.3922283,13.1298672 10.8136195,13.0289254 C10.6859603,13.0065932 9.1024588,12.3714641 9.09662187,12.302383 C9.09605701,12.2913658 9.10509483,12.2603984 9.09982277,12.2586118 Z M9.2427333,11.6607031 C9.34968085,11.6544501 12.1346476,11.6872041 11.4259318,11.8226864 C11.2698411,11.8521649 9.26589272,11.7943988 9.24668735,11.7140028 C9.24367474,11.7014967 9.24913509,11.6601076 9.2427333,11.6607031 L9.2427333,11.6607031 Z" id="Fill-121" fill="#2D2E2C"></path>
                    </g>
                    <g id="owl" transform="translate(52.700006, 84.529962) rotate(30.000000) translate(-52.700006, -84.529962) translate(44.143682, 80.251800)">
                        <path d="M11.536359,0.485662086 C12.3604223,0.557525404 13.1048401,0.701871552 13.7564193,0.93840099 C14.196669,0.847456722 14.4370108,1.11663638 15.0883457,0.465158231 C15.5657308,-0.0116177138 16.2891987,1.21123379 15.232062,1.77263499 C16.2239674,2.61876361 17.5449431,3.35902574 16.974955,5.85239088 M16.974955,5.85239088 C16.7043841,7.54618434 12.0717659,8.658547 8.09305929,8.54888412 C3.53809277,8.42333811 0.412315232,7.55640948 0.0523883447,5.99922092 C-0.307538542,4.44203236 1.24887818,2.74506459 2.82953437,1.8744196 C1.40187505,1.49372678 2.09631732,-0.426395742 2.59244762,0.086461682 C3.50552358,1.03010954 3.71901845,0.82530954 4.64704372,1.0940483 C6.52224808,0.481363123 8.84523106,0.229527713 11.5290998,0.471809056" id="Shape" stroke="#2D2E2C" stroke-width="0.7"></path>
                        <path d="M14.1850249,2.07030364 C11.3305987,1.25733971 9.6624776,2.58260276 8.71809994,3.14084434 C8.0605014,2.80918876 7.56532041,2.22253899 5.77918038,2.00302106 C2.46060696,1.59470411 -0.401521045,4.61902235 2.58904594,6.17358989 C3.66548696,6.7331907 5.54880569,7.35490898 8.6891049,7.31154909 C15.8581296,7.21218834 17.8889153,3.12548488 14.1850249,2.07030364" id="Fill-426" stroke="#2D2E2C" stroke-width="0.7"></path>
                        <path d="M8.1641801,4.35101633 C8.41154798,4.18471245 9.44178867,4.19976118 9.38418872,4.40599029 C8.71451802,6.80856703 8.16304127,4.35178413 8.1641801,4.35101633" id="Fill-427" fill="#2D2E2C"></path>
                        <path d="M11.7813266,3.86123574 C11.671263,4.09254259 12.1709746,4.42745908 12.7893735,4.48663316 C13.5119357,4.55537628 14.3686167,4.29173266 14.1857068,3.71451042 C14.0286675,3.21857004 12.1952567,2.99067285 11.7813266,3.86123574" id="Fill-431" fill="#2D2E2C"></path>
                        <path d="M13.6519886,3.83034627 C13.6244635,3.94595244 13.7492959,4.1136284 13.9041734,4.14314087 C14.08425,4.17754075 14.29883,4.04558053 14.253084,3.75722301 C14.2135408,3.50909268 13.7554988,3.3951783 13.6519886,3.83034627" id="Fill-432" fill="#FFFFFE"></path>
                        <path d="M3.8392803,3.6365632 C3.72946625,3.86782829 4.2291663,4.20309558 4.84767777,4.26203016 C5.57023573,4.3308058 6.42683144,4.06710992 6.24365422,3.48995365 C6.08700772,2.99387436 4.25338999,2.76618784 3.8392803,3.6365632" id="Fill-435" fill="#2D2E2C"></path>
                        <path d="M5.96220208,3.91858951 C6.14260915,3.95280407 6.35653447,3.82110668 6.31118624,3.53267221 C6.27175301,3.28456886 5.81334161,3.17045661 5.71002652,3.6058799 C5.68242326,3.72152129 5.80722946,3.88915352 5.96220208,3.91858951 Z" id="Fill-436" fill="#FFFFFE"></path>
                    </g>
                    <g id="dog" transform="translate(43.647569, 105.856996) rotate(36.000000) translate(-43.647569, -105.856996) translate(31.585257, 97.911838)">
                        <path d="M6.11165984,2.34402702 C2.70613623,-1.83054569 2.12413173,6.19921528 1.41862835,7.31051922 C0.306480658,9.06238778 -0.638844878,11.2283017 0.55144711,13.2446565 C1.41862835,14.7133119 4.19131541,13.9974156 4.19131541,11.0924281" id="Fill-724" stroke="#2D2E2C" stroke-width="0.7"></path>
                        <path d="M14.2469848,15.5951373 C21.0591961,14.2921775 20.6910779,9.1519656 18.3322355,4.1289391 C17.0217957,1.33775014 13.95406,-0.260071405 11.1498807,0.0347903244 C8.02847163,0.36331438 5.18732862,2.88444544 4.49337272,5.48201275 C2.46897604,13.0595795 6.65524407,17.04692 14.2469848,15.5951373 Z" id="Fill-725" stroke="#2D2E2C" stroke-width="0.7"></path>
                        <path d="M16.179466,1.63724281 C20.2889026,-3.12139846 21.5609382,6.03266388 22.4127226,7.29911534 C23.7552701,9.29631919 24.8955125,11.7655571 23.4588635,14.0638381 C22.4127226,15.738405 19.7029224,15.0579254 19.7029224,11.7460775" id="Fill-730" stroke="#2D2E2C" stroke-width="0.7"></path>
                        <path d="M11.9903681,7.28223756 C12.4923789,7.50791699 12.2526963,8.45737437 11.9931737,8.9128573 C11.7224286,9.387586 11.4192181,9.63044913 11.3959713,9.53238741 C9.9488575,8.75705831 10.1751131,6.46658402 11.9903681,7.28223756" id="Fill-735" fill="#2D2E2C"></path>
                        <path d="M6.98292114,8.57293145 C8.10595422,9.79835537 9.74337295,8.05929142 8.74956975,6.99314959 C7.61133315,5.77207205 5.83682938,7.32194057 6.98292114,8.57293145" id="Fill-737" fill="#2D2E2C"></path>
                        <path d="M8.30217994,7.41146577 C8.58285349,7.71786959 8.99193977,7.28316495 8.74355285,7.01656585 C8.45884348,6.71127286 8.01508576,7.09876724 8.30217994,7.41146577" id="Fill-738" fill="#FFFFFE"></path>
                        <path d="M14.9368843,8.09043221 C16.0598769,9.31592953 17.6972365,7.57676141 16.7037226,6.51055573 C15.565527,5.28966073 13.7908339,6.83962209 14.9368843,8.09043221" id="Fill-740" fill="#2D2E2C"></path>
                        <path d="M16.4271067,7.05308014 C16.7076614,7.35970661 17.1172089,6.92476363 16.8685813,6.65831708 C16.5841733,6.35298673 16.1403133,6.74034336 16.4271067,7.05308014" id="Fill-741" fill="#FFFFFE"></path>
                        <path d="M11.0040751,10.5513482 C11.0040751,11.2649863 11.2142435,12.033395 11.6484975,11.6026843 C11.8237723,11.4286499 12.0040896,10.6307494 11.8794408,10.3773139 C11.6525315,9.91549084 11.6374042,8.55983771 11.5153774,8.6787774 C11.5133604,8.681046 11.272534,9.94887173 11.2208995,10.0710523 C11.1365901,10.2700413 11.0040751,10.404213 11.0040751,10.5513482" id="Fill-742" stroke="#2D2E2C" stroke-width="0.3"></path>
                        <path d="M11.5732412,9.71109414 C11.4617613,10.3153843 11.207889,10.867929 10.2284237,10.995183 C9.73163229,11.0595873 9.17666688,10.8741473 9.13358404,10.3078335 C9.10924345,9.98114811 9.32173679,10.8341722 10.0366199,10.8341722 C10.5519101,10.8339501 10.9717853,10.4677338 11.1825747,10.0453303 C11.5223694,9.36397706 11.3695105,8.36437761 11.6097521,8.68417837 C11.7555522,8.64264868 11.6684129,9.4996703 11.9704796,10.105293 C12.1812691,10.5276965 12.6011442,10.8941349 13.1164345,10.8941349 C13.8313175,10.8941349 14.0435675,10.0413328 14.0192269,10.367574 C13.9763874,10.934332 13.4211786,11.1197721 12.9243872,11.0551457 C11.9123056,10.923672 11.6793661,10.3131635 11.5732412,9.71109414" id="Fill-743" fill="#2D2E2C"></path>
                        <path d="M12.6322127,10.6294585 C12.7043682,10.7141156 12.810354,10.5942697 12.7457689,10.5208323 C12.6726671,10.4366852 12.5584012,10.5435265 12.6322127,10.6297135 L12.6322127,10.6294585 Z M13.5636103,9.8994187 C13.6355292,9.98382079 13.741515,9.86422992 13.6774031,9.79104744 C13.6038281,9.70690035 13.4897987,9.81348667 13.5636103,9.89967369 L13.5636103,9.8994187 Z M13.3880713,10.6294585 C13.4604634,10.7141156 13.565976,10.5942697 13.5021007,10.5208323 C13.4287623,10.4366852 13.3142597,10.5435265 13.3880713,10.6297135 L13.3880713,10.6294585 Z M12.9813981,10.1207511 C13.0537902,10.2051531 13.1593028,10.0855623 13.0951909,10.0118698 C13.0223256,9.92797772 12.9075865,10.034819 12.9811615,10.1207511 L12.9813981,10.1207511 Z M12.9343196,9.43125486 C13.0067117,9.51591194 13.1122243,9.39606608 13.0481124,9.32262861 C12.9750105,9.23848152 12.8607446,9.34506784 12.9343196,9.43150986 L12.9343196,9.43125486 Z M12.3547097,9.93919733 C12.4268652,10.0241094 12.5326145,9.90400855 12.4682659,9.83082607 C12.3949275,9.74667898 12.280425,9.85352029 12.3547097,9.93919733 L12.3547097,9.93919733 Z" id="Fill-746" fill="#2D2E2C"></path>
                        <path d="M9.90134042,10.5135452 C9.97373071,10.597708 10.0792407,10.4783499 10.0151304,10.4048988 C9.94179382,10.320736 9.82753071,10.4275972 9.90134042,10.5135452 Z M10.8329514,9.78336958 C10.9051051,9.86804241 11.0108517,9.74817424 10.9465048,9.67497815 C10.8734048,9.59056035 10.7591417,9.69716651 10.8329514,9.78362461 L10.8329514,9.78336958 Z M10.6571802,10.5135452 C10.7298071,10.597708 10.8350805,10.4783499 10.7714433,10.4048988 C10.6981068,10.320736 10.5836071,10.4275972 10.6571802,10.5135452 Z M10.2509903,10.0044881 C10.3229074,10.0889059 10.428654,9.96929275 10.3645436,9.89584162 C10.2912071,9.8119339 10.1764708,9.91854006 10.2509903,10.0044881 Z M10.2036763,9.31537364 C10.2760666,9.39979144 10.3815767,9.27992327 10.3174663,9.2062171 C10.2443663,9.12256442 10.1298666,9.22917058 10.2036763,9.31537364 Z M9.62360774,9.82366568 C9.6962346,9.9075734 9.80174463,9.78821531 9.73763428,9.71476418 C9.66429771,9.63009134 9.5500346,9.73720758 9.62360774,9.82366568 L9.62360774,9.82366568 Z" id="Fill-747" fill="#2D2E2C"></path>
                    </g>
                </g>
                <g id="Group-3" transform="translate(-0.000000, 168.000000)">
                    <g id="PORTADI" transform="translate(0.000000, 43.047262)">
                        <path d="M8.95952158,71.115739 C8.95952158,72.8449974 11.5608247,81.0578433 9.21369261,86.6449508 C3.35942958,95.6921018 1.9013036,108.369383 7.06958158,107.697391 C12.2378596,107.025398 12.1257731,101.107192 18.1379457,88.2525509 C19.3032446,85.1371733 19.6279462,82.4516618 19.6279462,78.9109988" id="Path-37" stroke="#2D2E2C" fill="#FFFFFF"></path>
                        <path d="M31.0757961,33.1894586 C35.8098809,34.5784513 38.8313628,35.3296438 40.1402418,35.4430359 C43.2331538,33.9592083 48.1973598,32.1538914 48.9991782,31.6661854 C51.4340323,30.1851853 48.470025,24.952738 44.2454757,27.089702 C42.6027744,27.920653 38.2128812,29.9539052 31.0757961,33.1894586 Z M16.1955311,35.9143403 C10.1128442,45.557838 5.77305377,58.8293454 5.77305377,69.6256586 C5.77305377,81.4357024 24.881118,79.5709574 24.881118,83.9221204 C23.2281429,93.4788188 18.5927744,104.509717 20.4215387,107.021514 C21.0343864,108.263146 23.4393263,108.263146 24.881118,107.021514 C29.5969844,102.960339 35.5548892,83.7267001 34.8876931,81.108846 C34.2204969,78.4909919 29.9102558,74.2628064 28.8169934,71.115739 C27.5572244,67.4893652 29.1376782,63.95825 30.4463498,58.7709954 C32.7167513,49.7716781 31.6507656,44.4917237 35.5556281,44.4917237 C43.3661624,44.4917237 43.7716144,45.8300965 50.2870964,43.082116 C50.372539,43.0460796 54.359926,40.9357869 54.4450908,40.899528 C64.5115422,36.6137369 69.3973579,32.6470679 65.951622,29.6944888 C61.7309261,26.5672696 57.7920158,35.2648579 47.5028731,35.9143403 C39.782619,36.4016665 33.4986651,33.5502758 27.8685635,32.6461078" id="Path-39" stroke="#2D2E2C" fill="#FFFFFF"></path>
                        <path d="M21.5106847,34.7115412 C24.6455558,34.6981628 27.2340524,34.8524005 29.6227054,33.577363 C33.6521857,31.4264696 36.210307,26.5532185 36.2317472,21.5290076 C36.2655572,13.5264731 29.7013672,5.48056539 21.2782014,5.51639212 C12.8550357,5.55245887 4.9549089,13.6600945 4.92081659,21.6626291 C4.90362644,25.7513325 6.37731847,29.9874331 9.49978488,32.2033834" id="Path" stroke="#2D2E2C" fill="#FFFFFF" stroke-linecap="round" stroke-linejoin="round" transform="translate(20.576282, 20.113967) rotate(-27.000000) translate(-20.576282, -20.113967) "></path>
                        <g id="11" transform="translate(20.456869, 8.160122)">
                            <path d="M4.07566042,2.89785943 C4.06959247,4.2622926 3.37727227,5.37125083 2.52929595,5.37505286 C1.68154516,5.37883439 0.999061211,4.2760245 1.00512916,2.91159134 C1.01119616,1.54737345 1.70351636,0.438415214 2.55126715,0.434614185 C3.39924346,0.430831651 4.08172742,1.53364154 4.07566042,2.89785943" id="Fill-206" fill="#2D2E2C" transform="translate(2.540395, 2.904834) rotate(-29.000000) translate(-2.540395, -2.904834) "></path>
                            <path d="M11.7179861,9.4467561 C12.2367132,9.11377415 12.7212273,8.72149994 13.1537048,8.2727262 C13.349764,8.06907014 13.5423404,7.85402825 13.7123813,7.62631157 C13.8416533,7.45337578 14.1745647,6.8050277 14.4283968,7.16765579 C14.6598983,7.49827464 14.1317472,8.25811796 13.9660085,8.53374108 C12.9381831,10.2435497 11.1404616,11.3580725 9.27943584,11.7718294 C8.27721895,11.9946051 7.24550099,12.0560456 6.22402645,11.9819303 C5.74033183,11.9469135 5.25909564,11.8809616 4.77970326,11.8066314 C4.37324408,11.7439019 3.93011343,11.7108185 3.58757323,11.4472257 C3.41732748,11.3159664 3.42183458,11.08782 3.56974967,10.9402338 C3.74614148,10.764935 4.04893718,10.7612829 4.27531692,10.7840546 C4.63936831,10.8205752 4.99829799,10.8856678 5.36357859,10.912736 C7.53538997,11.0738563 9.84343893,10.6504321 11.7179861,9.4467561 Z" id="Fill-208" fill="#3F403E"></path>
                            <path d="M4.04284219,11.1903527 C3.82059151,9.14418011 4.16226568,8.12109382 5.0678647,8.12109382 C5.97346372,8.12109382 6.91628813,9.14418011 7.89633792,11.1903527 L4.04284219,11.1903527 Z" id="Path-12" stroke="#2D2E2C" stroke-linecap="round" stroke-linejoin="round"></path>
                        </g>
                    </g>
                    <g id="dice" transform="translate(33.050066, 0.000000)">
                        <g id="donw" transform="translate(10.166895, 37.763700)">
                            <path d="M46.637162,7.47309684 C42.9784976,5.4315349 25.6490752,0 23.7512484,0 C21.8534216,0 9.24628896,7.27663436 0,11.7661285 C3.53226992,14.6267368 12.047596,17.7847722 18.3556559,19.4999745 C26.0302528,17.8705165 31.3303298,16.5256546 34.2558869,15.465389 C43.5484628,12.0976206 48.2938945,8.39756591 46.637162,7.47309684 Z" id="Path" stroke="#2D2E2C" fill="#F5F5F5" stroke-linecap="round" stroke-linejoin="round"></path>
                            <path d="M17.6795346,19.4999745 C9.29628078,16.6646763 4.92544416,14.4482948 0,11.7661285 C0.43953393,21.8757565 3.78450308,42.1533829 5.1381475,43.6996252 C6.04057712,44.7304534 12.2449441,46.5760117 23.7512484,49.2363 C21.2396063,37.0247636 19.4410754,27.1126551 18.3556559,19.4999745 C31.5006765,16.8469031 42.2695622,12.72282 46.637162,8.20788424 C48.6411582,20.2347619 53.7006306,34.8995913 52.7046329,36.8052606 C51.7086352,38.7109299 36.019273,44.9149854 24.2799268,49.2363" id="Path-42" stroke="#2D2E2C" fill="#F5F5F5" stroke-linecap="round" stroke-linejoin="round"></path>
                            <g id="Group-15" transform="translate(35.623716, 30.311564) rotate(-21.000000) translate(-35.623716, -30.311564) translate(25.649075, 19.732550)" fill="#2D2E2C">
                                <path d="M15.7269312,19.8199771 C13.8839374,21.5455831 11.8318421,19.7105969 9.76906275,19.7966477 C8.78231703,19.8375697 7.91347712,20.355022 6.9732832,20.5898452 C5.29054977,21.0097733 4.29922518,19.7916759 3.46205576,18.5200358 C2.04794917,16.372207 0.740682792,14.0446276 0.573554165,11.422563 C0.406425539,8.79514426 1.54808958,5.50188324 4.45261721,4.96339625 C6.53333045,4.57750607 8.12601284,5.97114712 10.1040832,6.1210668 C10.1380431,6.13254024 10.1769634,6.13789452 10.2231337,6.1313929 C10.7909131,6.12374393 11.3468638,5.99485891 11.8974725,5.82658172 C12.1619021,5.75774105 12.4187002,5.67054288 12.6705378,5.5722537 C13.8423461,5.16724111 15.0049966,4.74501835 16.2237382,5.07851314 C19.5354034,5.98491526 19.731913,10.1130606 19.1049899,12.8705117 C18.5673547,15.2348062 17.5302414,18.1318509 15.7269312,19.8199771 Z M6.94924415,1.85524014 C7.05722909,1.46629037 7.19955552,1.05209902 7.42201212,0.71783934 C8.46370424,1.56419709 9.42755563,2.91194437 9.77020747,4.28416833 C9.16961282,3.16283036 8.16874892,2.30040978 6.94924415,1.85524014 Z M14.6127403,0.58360004 C14.9584448,1.79749047 14.6619631,3.32422348 13.7687026,4.238657 C12.9441251,5.08233762 11.6750159,5.36687905 10.5299177,5.53247909 C10.5344966,5.50914976 10.5417465,5.48735021 10.539457,5.4594315 C10.364697,3.07830932 12.2523347,0.88535163 14.6127403,0.58360004 Z M16.7407685,4.66623404 C15.85285,4.32853232 15.0145359,4.38513465 14.1895768,4.58133055 C14.2387996,4.52893515 14.2933644,4.48380627 14.3395346,4.42720394 C15.2492028,3.31389738 15.5639998,1.64948303 15.1103105,0.291027205 C15.1019159,0.266168075 15.0874162,0.248957909 15.0748243,0.229070605 C15.0637587,0.101332923 14.9794312,-0.0126366256 14.8134473,0.00113150777 C12.6697747,0.173998071 10.8077023,1.72061839 10.1926079,3.7120259 C9.70953749,2.26904903 8.63693802,0.925126237 7.50443171,0.0818280673 C7.4208674,0.0194890189 7.33959252,0.0206363634 7.27129109,0.0531444561 C7.26327808,0.0562040413 7.25602821,0.0619407635 7.24801519,0.0661476932 C7.23160759,0.0764737932 7.21596312,0.0864174451 7.20222653,0.100185579 C7.19116093,0.109746782 7.17933219,0.113571264 7.16864817,0.125427156 C6.73670843,0.610753858 6.5119624,1.3354931 6.34712321,1.95008728 C6.32003159,2.05220093 6.35055736,2.13404484 6.40512219,2.1940892 C6.43679268,2.23615849 6.47800248,2.27287352 6.54096189,2.29199592 C8.0798426,2.76317204 9.22799337,3.97476778 9.65764367,5.511062 C7.9466739,5.22537323 6.48944964,4.14266252 4.6380613,4.37327875 C2.85230338,4.59548113 1.46261741,5.8311711 0.720459465,7.43783578 C-1.192362,11.5816615 1.01388849,16.5542523 3.71236713,19.816535 C5.12571058,21.5253134 6.43908211,21.3394436 8.37441634,20.6954009 C9.77745734,20.2288141 10.72948,20.4980576 12.0936006,20.8411136 C12.8502583,21.0315728 13.7004012,21.2300634 14.4845321,21.1061502 C16.3637752,20.8086055 17.5764117,18.5188885 18.2529392,16.9542931 C19.2488426,14.6504254 20.0177106,12.2846012 19.9444488,9.74552791 C19.8833972,7.64053329 18.8024032,5.45140009 16.7407685,4.66623404 L16.7407685,4.66623404 Z" id="Fill-14"></path>
                                <path d="M5.37349992,5.66550585 C3.52966733,6.49340076 2.59797542,9.02626733 2.90891538,11.0689546 C2.96606516,11.4460156 3.49244477,11.2861745 3.43529499,10.9107529 C3.1792489,9.22627363 3.97408212,6.93316869 5.5186303,6.23970425 C5.83934587,6.09584726 5.69872732,5.52000947 5.37349992,5.66550585" id="Fill-16"></path>
                                <path d="M2.84989725,12.6242898 C2.75495145,12.6242898 2.75484991,12.7653433 2.84989725,12.7653433 C2.94484304,12.7653433 2.94494459,12.6242898 2.84989725,12.6242898" id="Fill-17"></path>
                            </g>
                            <g id="Group-28" transform="translate(4.841749, 22.450350)" fill="#2D2E2C">
                                <path d="M12.3057458,14.891234 C11.9578043,16.0315859 11.0290748,16.5374823 9.84507007,16.5236773 C8.60145197,16.509297 7.56471008,15.7986263 7.51601596,14.5124588 C7.49299693,13.9036 7.70931683,13.0574675 8.29748267,12.7226958 C8.72156412,12.4813956 9.2899572,12.4647145 9.78722737,12.478232 C9.7692253,12.9082007 9.73528698,13.3292538 9.68924891,13.7365018 C9.51217941,13.673804 9.33983177,13.5696911 9.27579164,13.4100706 C9.17987899,13.1713589 8.78029216,13.2751841 8.87738527,13.5170595 C9.0140239,13.8572957 9.33009295,14.0574684 9.68187102,14.156692 C10.1602538,14.2921537 10.5533481,14.155254 10.9721174,13.9271836 C11.2040784,13.8006376 10.9960218,13.4526361 10.7634705,13.5794697 C10.5450848,13.698538 10.336733,13.8038012 10.0950332,13.8095533 C10.1443175,13.3910887 10.1776656,12.9565183 10.1971432,12.5144701 C11.5027357,12.7077404 12.7879651,13.3111347 12.3057458,14.891234 Z M9.4894555,0.504967789 C9.88904233,0.471318059 10.2939412,0.469880037 10.6947085,0.476782546 C10.8340032,0.479083382 11.0057606,0.516471971 11.1426944,0.490875167 C11.1916836,0.481959427 11.2279828,0.478508173 11.2569042,0.478220568 C11.1536136,1.17192269 10.5931887,2.08506707 10.0584388,2.46873152 C9.07481776,3.17422543 8.00354731,3.08794407 6.92696477,2.75547323 C6.9107334,1.36691856 8.17530472,0.616270742 9.4894555,0.504967789 Z M5.12351196,14.9985105 C4.4940299,16.2984829 2.99248057,16.5452476 1.76538897,15.9628484 C0.597320526,15.4083469 0.0472246253,14.2093236 0.672279946,13.0292822 C1.31091059,11.8233564 2.45950139,11.8061002 3.59805825,12.3309784 C3.35694862,12.6867452 3.10905133,13.0364724 2.85849799,13.3813102 C2.72274471,13.2510253 2.61768347,13.087666 2.62388091,12.9038867 C2.63243927,12.644755 2.21927711,12.6450426 2.21042363,12.9038867 C2.19832389,13.2674188 2.44208956,13.5820581 2.72392517,13.7971863 C3.09577111,14.0813396 3.48886539,14.1069364 3.94570469,14.0603445 C4.20747243,14.0338849 4.21042359,13.6306633 3.94570469,13.6576981 C3.68806858,13.6838701 3.43220316,13.7071661 3.19640561,13.610531 C3.45286126,13.2579278 3.70548041,12.8998602 3.95131189,12.5366157 C4.84580797,13.0899668 5.6706567,13.8682247 5.12351196,14.9985105 Z M10.2101283,12.1132618 C10.2420009,10.5737148 10.0696532,8.96543024 9.55585656,7.591831 C9.01667994,6.1500695 8.29512175,4.54523622 7.30795931,3.2740242 C8.41670947,3.52424014 9.52693521,3.44888775 10.4777984,2.6645902 C11.024648,2.2139139 11.7255481,1.05716849 11.6924951,0.325214958 C11.6883635,0.234044323 11.6308159,0.157829122 11.5408056,0.131081901 C10.746944,-0.105329022 9.50037478,0.0117260212 8.70975948,0.216500446 C7.51335992,0.526250525 6.58817181,1.36720617 6.51616354,2.55788892 C6.43087507,2.59700314 6.3680154,2.69277545 6.38749304,2.79573787 C7.02346765,6.15380835 5.64203047,9.23261484 3.82352674,11.9907423 C3.82293651,11.9907423 3.82264139,11.9904547 3.82234628,11.9901671 C2.40460985,11.3301147 1.10875625,11.351685 0.315484912,12.8259458 C-0.41699257,14.1877533 0.178846284,15.6433198 1.55674208,16.3105623 C3.0004487,17.0094413 4.5592505,16.7247128 5.40387199,15.3263796 C6.21898191,13.9769392 5.29615472,12.9162537 4.173239,12.2012688 C5.92298073,9.53977648 7.24982149,6.59614412 6.89037041,3.39568092 C7.93124393,4.6832864 8.70651321,6.40114825 9.22562195,7.88432481 C9.67301754,9.16215173 9.82352661,10.6487795 9.79696619,12.0801873 C8.20393096,12.0704087 7.06596433,12.7940217 7.10285381,14.5124588 C7.13472632,16.0022503 8.387493,16.9194211 9.84507007,16.9263732 C11.3575387,16.9335137 12.5164585,16.1584195 12.7838335,14.6597123 C13.0866223,12.9637084 11.6476375,12.3220627 10.2101283,12.1132618 L10.2101283,12.1132618 Z" id="Fill-69"></path>
                            </g>
                        </g>
                        <g id="up">
                            <g id="Group-4-Copy" transform="translate(30.640464, 29.378848) rotate(14.000000) translate(-30.640464, -29.378848) translate(5.132164, 5.371922)" fill="#F5F5F5" stroke="#2D2E2C" stroke-linecap="round" stroke-linejoin="round">
                                <path d="M45.9471634,6.57309798 C42.2884991,4.53153604 27.5784464,-0.489762631 25.4371632,0.0387189973 C23.2958799,0.567200625 9.54148997,5.49670624 4.91917489e-12,9.38931804 C3.53226992,12.2499263 11.2340697,16.0851004 17.5421297,17.8003026 C25.6336081,16.0566724 31.1172646,14.7032728 33.9930994,13.740104 C44.186021,10.3263112 47.6609714,7.52941557 45.9471634,6.57309798 Z" id="Path-Copy-2"></path>
                                <path d="M17.5421297,17.8003026 C11.3873609,15.5542228 5.53998439,12.7505613 6.67484705e-13,9.38931804 C0.43953393,19.498946 3.41566432,41.7916992 4.90191319,42.4771785 C5.89274578,42.9341647 12.0971128,44.7797225 23.5150141,48.0138517 C20.6185107,35.4841663 18.6275492,25.4129833 17.5421297,17.8003026 C30.6871503,15.1472312 42.0333279,11.5003733 46.4009277,6.98543756 C48.4049239,19.0123152 51.7764514,36.0846061 50.8628087,37.0584606 C49.9491659,38.0323151 35.7830387,43.6925387 24.0436925,48.0138517" id="Path-42-Copy-2"></path>
                            </g>
                            <g id="Group-49-Copy" transform="translate(38.418882, 35.282240) rotate(-3.000000) translate(-38.418882, -35.282240) translate(27.747488, 23.997958)" fill="#1C1B19">
                                <path d="M5.86033828,22.2740683 C4.65464686,22.2114277 4.09829254,21.4210547 4.09829254,21.0601023 L4.16614134,19.7766775 L7.55565245,19.7431921 L7.48780365,21.0266169 C7.48780365,21.3875692 7.06602969,22.3367089 5.86033828,22.2740683 Z M15.3330811,22.2976981 C14.1516902,22.23632 13.8014417,21.4299548 13.8014417,21.0690024 L13.8558984,19.7848818 L17.0258139,19.7399875 L16.9579651,21.0234123 C16.9579651,21.3843647 16.5144719,22.3590762 15.3330811,22.2976981 Z M20.4809013,19.5029609 L0.869802433,19.3958348 C0.578657181,19.3958348 0.509604439,18.7738417 0.509604439,18.4653703 C0.509604439,18.1568988 0.667265784,17.7197185 0.958411035,17.7197185 L20.1664578,17.8263061 C20.4576031,17.8263061 20.8742576,18.1060807 20.8742576,18.4145521 C20.8742576,18.7230236 20.7720466,19.5029609 20.4809013,19.5029609 Z M15.8416846,4.28365401 L17.0823375,11.6173561 C17.1003663,11.7413667 17.6128333,11.8053966 18.6197385,11.8094457 C18.841262,11.9365662 19.7799142,12.6186206 20.0635794,14.0029517 C20.4191679,15.7400716 20.6235332,17.4470984 20.5895854,17.4470984 L1.30395168,17.3977946 C1.2055607,17.3977946 0.660125192,17.3374036 0.568063452,17.3595622 C0.595106589,16.6277444 0.822515469,15.2373904 1.18270703,13.4769457 C1.46579688,12.0937808 2.547349,11.8391595 2.77002334,11.7108727 C3.71660031,11.6869123 4.19890317,11.6129269 4.21693193,11.4889163 L5.28234528,4.31361568 L15.8416846,4.28365401 Z M14.1286001,0.570293114 L14.1286001,4.11450737 L12.5859906,4.11450737 L12.5859906,2.05841993 C12.5859906,1.90097705 12.4599811,1.77327337 12.3046269,1.77327337 L9.83794766,1.77327337 L9.83794766,0.570293114 L14.1286001,0.570293114 Z M7.55309036,4.01712603 L12.0232632,4.01712603 L12.0232632,2.34356649 L7.55309036,2.34356649 L7.55309036,4.01712603 Z M2.51731319,11.4006142 C2.46207615,11.4251053 1.15307329,12.0251376 0.74454932,14.0211635 C0.292871409,16.2253639 0.239360523,16.503513 0.232455893,17.6820021 C0.086307881,17.896591 3.90286523e-13,18.1572464 3.90286523e-13,18.4388942 C3.90286523e-13,19.1666302 0.573659716,19.759082 1.27850741,19.759082 L3.82746683,19.759082 L3.82746683,21.0460318 C3.82746683,21.9003052 4.71356107,22.5685628 5.8447697,22.5685628 C6.97540294,22.5685628 7.86149718,21.9003052 7.86149718,21.0460318 L7.86149718,19.759082 L13.3593092,19.759082 L13.3593092,21.0460318 C13.3593092,21.9003052 14.2448281,22.5685628 15.3760367,22.5685628 C16.5072453,22.5685628 17.3933396,21.9003052 17.3933396,21.0460318 L17.3933396,19.759082 L20.0642808,19.759082 C20.7691285,19.759082 21.3427882,19.1666302 21.3427882,18.4388942 C21.3427882,18.0528676 21.1805294,17.7064933 20.9244827,17.4644977 C20.9106734,16.4597789 20.8358732,16.0830822 20.4141154,14.0211635 C20.0055914,12.0251376 18.6965886,11.4251053 18.6413515,11.4006142 C18.5941699,11.3796218 18.5429605,11.3691256 18.4911758,11.3691256 L17.2656039,11.3691256 L17.1407452,10.5125197 L17.7546819,10.5125197 C18.0136055,10.5125197 18.2236214,10.2996802 18.2236214,10.0372754 C18.2236214,9.77487062 18.0136055,9.56203117 17.7546819,9.56203117 L17.0009264,9.56203117 L16.2299093,4.29527513 C16.2022908,4.10925928 16.0440597,3.97105941 15.85821,3.97105941 L14.6919029,3.97105941 L14.6919029,0.285729679 C14.6919029,0.127703673 14.5658934,-2.09001351e-13 14.4099638,-2.09001351e-13 L9.55658397,-2.09001351e-13 C9.4006544,-2.09001351e-13 9.27522028,0.127703673 9.27522028,0.285729679 L9.27522028,1.77327337 L7.27172666,1.77327337 C7.11637248,1.77327337 6.99036297,1.90097705 6.99036297,2.05841993 L6.99036297,3.97105941 L5.30045466,3.97105941 C5.11460503,3.97105941 4.9569493,4.10925928 4.92933078,4.29527513 L4.14392906,9.65708002 L3.26301329,9.65708002 C3.05587437,9.65708002 2.8878617,9.82735158 2.8878617,10.0372754 C2.8878617,10.2471993 3.05587437,10.4174708 3.26301329,10.4174708 L4.0323042,10.4174708 L3.89306082,11.3691256 L2.66748891,11.3691256 C2.61570418,11.3691256 2.56507022,11.3796218 2.51731319,11.4006142 Z" id="Fill-58"></path>
                                <path d="M10.3477859,6.36507982 L10.3477859,7.06251649 L9.31583523,7.06251649 C9.21354937,7.06251649 9.13058417,7.14290466 9.13058417,7.24325127 L9.13058417,7.98115922 C9.13058417,8.08150583 9.21354937,8.1624484 9.31583523,8.1624484 L12.2804205,8.1624484 C12.3832746,8.1624484 12.4662398,8.08150583 12.4662398,7.98115922 L12.4662398,7.24325127 C12.4662398,7.14290466 12.3832746,7.06251649 12.2804205,7.06251649 L11.2717682,7.06251649 L11.2717682,6.36507982 L14.8333458,6.06897394 L15.3054135,10.8188022 L6.08725907,10.806639 L6.62833753,5.96169337 L10.3477859,6.36507982 Z M10.7177198,7.06251649 L10.9012661,7.06251649 L10.9012661,6.47429685 L10.7177198,6.47429685 L10.7177198,7.06251649 Z M10.533037,7.42398605 L12.0951694,7.42398605 L12.0951694,7.80042444 L9.50108629,7.80042444 L9.50108629,7.42398605 L10.533037,7.42398605 Z M15.2808058,11.2842814 C15.3859329,11.2842814 15.486514,11.2404837 15.5569776,11.1639763 C15.6268729,11.0869146 15.6609682,10.9849048 15.6490349,10.8828949 L15.0932817,5.96424777 C15.0722562,5.78074098 14.9137132,5.64214069 14.7250526,5.64214069 L6.61776149,5.64214069 C6.4291009,5.64214069 6.26998956,5.78074098 6.24896413,5.96424777 L5.6937792,10.8828949 C5.68184585,10.9849048 5.71537288,11.0869146 5.78583648,11.1639763 C5.85630007,11.2404837 5.95631291,11.2842814 6.0620083,11.2842814 L15.2808058,11.2842814 Z" id="Fill-59"></path>
                                <path d="M5.11987943,16.4531906 C3.95768551,16.3928099 3.20094256,15.5326264 3.20094256,14.8290754 C3.20094256,14.1255243 3.79423625,12.9680561 4.96265444,13.0287603 C6.13107264,13.0894644 6.89461758,14.0956568 6.89461758,14.7992079 C6.89461758,15.5027589 6.28207335,16.5135714 5.11987943,16.4531906 Z M2.84570509,14.8106193 C2.84570509,15.9776258 3.80329027,16.9264221 4.98030852,16.9264221 C6.15667756,16.9264221 7.11426273,15.9776258 7.11426273,14.8106193 C7.11426273,13.6442565 6.15667756,12.6948166 4.98030852,12.6948166 C3.80329027,12.6948166 2.84570509,13.6442565 2.84570509,14.8106193 Z" id="Fill-61"></path>
                                <path d="M16.5242937,16.3402106 C15.3620998,16.2798299 14.6053568,15.4196464 14.6053568,14.7160953 C14.6053568,14.0125443 15.1986505,12.8550761 16.3670687,12.9157802 C17.5354869,12.9764843 18.2990318,13.9826768 18.2990318,14.6862278 C18.2990318,15.3897789 17.6864876,16.4005913 16.5242937,16.3402106 Z M14.2501194,14.6976393 C14.2501194,15.8646458 15.2077045,16.8134421 16.3847228,16.8134421 C17.5610918,16.8134421 18.518677,15.8646458 18.518677,14.6976393 C18.518677,13.5312765 17.5610918,12.5818365 16.3847228,12.5818365 C15.2077045,12.5818365 14.2501194,13.5312765 14.2501194,14.6976393 Z" id="Fill-61-Copy"></path>
                            </g>
                            <path d="M29.0914743,20.7961964 C30.6602885,20.1001372 31.4535349,19.7062555 31.4712133,19.6145511 C31.5424549,19.2460961 31.5178148,18.8242063 31.5771828,18.386973 C31.7240196,17.3012589 31.7813644,16.1409377 32.2507672,14.8538014 C32.3220088,14.6622048 31.7388803,14.4320393 31.5868983,14.3337846 L28.090924,11.6480894 L29.3892451,11.5877559 C29.4292195,11.6319705 29.4723603,11.6712724 29.5206462,11.7056615 C29.6180097,11.7646143 29.7240805,11.7990035 29.8309429,11.7990035 C29.8994139,11.7990035 29.967885,11.7842653 30.0351687,11.7597016 C30.1297617,11.7203997 30.2132726,11.6614469 30.2845142,11.5779304 L31.49008,11.5631922 C31.5518227,11.7105742 31.6487904,11.8383053 31.777421,11.9218218 C31.8747845,11.9856873 31.9808553,12.0200765 32.0873218,12.0200765 C32.1561887,12.0200765 32.2246598,12.0053383 32.2915477,11.9758619 C32.4637148,11.9119963 32.4328732,12.0495465 32.5155926,11.8530372 L32.6948541,11.548454 L33.5311511,11.5386286 C33.6479081,11.5337158 33.7694211,11.4681214 33.8109721,11.327381 C34.8840244,7.69277479 36.423193,6.11978054 36.8419351,6.08440886 C37.0156854,6.48332284 37.4149837,8.93236209 35.7175056,12.8699731 C35.6634456,12.9953751 35.6747606,13.1499989 35.740857,13.2728172 L36.1433719,13.9999018 L36.1085426,14.0834183 C36.0254275,14.2799277 36.009596,14.5059134 36.0638188,14.7220737 C36.1180415,14.9333212 36.2363817,15.1101796 36.3962794,15.2133471 C36.4956219,15.2772126 36.6016927,15.306689 36.7061803,15.306689 C36.7564452,15.306689 36.8063143,15.2968635 36.8546002,15.2821253 L37.494587,16.4415305 C37.4660904,16.5889125 37.4680694,16.7412072 37.5052733,16.8885893 C37.5598918,17.0998368 37.6778362,17.2766952 37.837734,17.3798626 C37.9089755,17.4240772 37.9849665,17.4535536 38.0621449,17.4682918 L38.7981542,19.5256367 L34.918267,16.6642149 C34.7658892,16.5659602 34.4891516,16.4377084 34.4024744,16.6194795 C33.7343867,18.0294341 32.9661755,19.465622 32.3166898,20.3400886 C32.2227564,20.4678197 32.4091941,21.5379861 32.8760028,23.550588 C32.5086503,23.0460467 31.8976868,22.2250154 31.2845352,21.7298201 C30.4847871,21.0839252 29.4604489,20.9296733 29.0914743,20.7961964 Z M34.6788541,16.9039395 L38.7143697,19.8812477 C38.8303388,19.9654644 38.9725058,19.9258331 39.0591333,19.7871232 C39.1454115,19.6484133 39.1541441,19.4453024 39.0804409,19.2917308 L38.1373186,17.3448387 C38.1614206,17.3002534 38.1827282,17.2556681 38.200892,17.2061289 L38.4013928,16.6611972 C38.4747468,16.4580864 38.4887189,16.2302059 38.4408642,16.0171871 C38.3926602,15.7992145 38.2885674,15.6258272 38.1474484,15.5217948 C38.0063294,15.4177624 37.8449506,15.3979467 37.6933525,15.4623477 C37.565507,15.5217948 37.4593184,15.6406889 37.3849165,15.7942606 L36.9643539,14.92237 L37.1292256,14.4765168 C37.2025796,14.273406 37.2169011,14.0455255 37.168697,13.8325067 C37.1208423,13.6145341 37.0164002,13.4411467 36.8752812,13.3371143 C36.7341622,13.2330819 36.5727834,13.2132662 36.4211853,13.2826212 C36.3527216,13.3123447 36.2908947,13.361884 36.2360539,13.421331 L36.1110028,13.163727 C37.2029289,9.95853828 37.9165581,6.32731211 37.1173493,5.73829056 C36.3149967,5.14827823 34.506647,8.03096652 33.2739512,11.1573879 L32.9620222,11.1623418 C32.9728507,11.0434476 32.9672618,10.9195995 32.9407147,10.8007053 C32.8928599,10.5876866 32.7884179,10.4093454 32.6476481,10.305313 C32.5061798,10.2012806 32.3451504,10.1814649 32.1932029,10.2508198 C32.0416047,10.3201747 31.9176016,10.4638385 31.8442477,10.6669494 L31.6556232,11.1821575 L30.9185906,11.1920653 C31.0534221,10.7858436 30.9398982,10.2954051 30.6559136,10.0873403 C30.5147945,9.9833079 30.3534158,9.96349221 30.2018176,10.0278932 C30.0502195,10.0972482 29.9262163,10.2458659 29.8528624,10.4440228 L29.6523616,10.9939084 C29.626513,11.0632633 29.6107943,11.1375722 29.5999659,11.211881 L28.0294926,11.2366506 C27.8988527,11.2366506 27.785678,11.3654527 27.7552885,11.5437939 C27.724899,11.7270891 27.7853287,11.9103843 27.9012978,11.9995549 L31.9378613,14.9719092 C31.572838,16.2401137 31.4285752,17.4538251 31.3108596,18.4495637 C31.2706896,18.7913845 31.2322661,19.1133895 31.1889523,19.410625 L29.0749611,20.3568244 C28.9380337,20.4162715 28.8548993,20.6144285 28.8803985,20.8125854 C28.906247,21.0156963 29.0333939,21.1544062 29.1755608,21.1444983 C29.1954712,21.1444983 31.1987328,21.0305581 32.8132185,23.8493407 C32.8687579,23.9484192 32.9508445,23.9979585 33.0343283,23.9979585 C33.0804365,23.9979585 33.1265447,23.9830967 33.1691598,23.9533731 C33.2896699,23.8592486 33.3473052,23.6610916 33.3057379,23.4728425 L32.6392648,20.4856264 C32.7129681,20.3667323 32.790863,20.2478381 32.8726003,20.1190361 C33.3909682,19.3214543 34.0864336,18.2464529 34.6788541,16.9039395 L34.6788541,16.9039395 Z" id="Fill-45-Copy" fill="#1C1B19" transform="translate(33.438898, 14.829480) rotate(-95.000000) translate(-33.438898, -14.829480) "></path>
                            <g id="Fill-4" transform="translate(15.653241, 31.050634) scale(-1, 1) rotate(-17.000000) translate(-15.653241, -31.050634) translate(9.250405, 19.766353)" fill="#1C1B19">
                                <path d="M11.5524304,18.0074886 L9.52633306,22.0498605 L2.20921851,22.0884478 L0.522418689,17.9181637 L11.5524304,18.0074886 Z M4.26855764,15.5158869 L5.33569705,15.5158869 L5.33569705,2.82107035 L4.26855764,2.82107035 L4.26855764,15.5158869 Z M6.03727148,1.30768344 C8.5805092,3.08444528 10.8346585,7.30920674 11.5538689,10.3526319 C11.7334262,11.1128166 12.4099312,15.5251266 12.4585,15.995877 L5.80809025,15.7991599 L6.03727148,1.30768344 Z M2.16594631,22.5685628 L9.59112027,22.5685628 C9.72829297,22.5685628 9.85679677,22.4767449 9.934307,22.3234849 L11.8965396,18.4388285 C11.9837386,18.2669288 11.9934274,18.0432522 11.9215265,17.8582357 C11.8491156,17.6739095 11.7078634,17.5586194 11.5533529,17.5586194 L4.77120788,17.5586194 L4.77120788,16.4443781 L12.3896475,16.4443781 C12.5064227,16.4443781 12.6170788,16.3781035 12.6961188,16.262123 C12.7746489,16.1461425 12.813914,15.9908115 12.8042252,15.8340998 C12.7970861,15.7146675 12.6129993,12.8793584 11.7119429,9.61326471 C10.5217529,5.3026561 8.62683183,2.30994497 6.22809422,0.939580127 C6.1592529,0.871924835 6.07562344,0.831193588 5.98434495,0.831193588 L4.77120788,0.831193588 L4.77120788,0.56333386 C4.77120788,0.251981445 4.58508135,-1.86094152e-13 4.35510034,-1.86094152e-13 C4.12562927,-1.86094152e-13 3.93950273,0.251981445 3.93950273,0.56333386 L3.93950273,17.5586194 L0.415337004,17.5586194 C0.265415904,17.5586194 0.126713389,17.6676963 0.0532826464,17.8458092 C-0.0201480966,18.0232317 -0.017598418,18.2406952 0.0604217464,18.4146659 L1.81103106,22.298632 C1.88650154,22.4663895 2.02061464,22.5685628 2.16594631,22.5685628 Z" id="Fill-2"></path>
                            </g>
                        </g>
                    </g>
                    <path d="M47.0500663,79.2275961 C49.0013093,78.7264946 50.9695306,77.8571336 52.9547304,76.6195131 C54.9399301,75.3818927 57.9014311,73.1779483 61.8392334,70.0076798 C64.8625345,67.7293875 67.2606275,67.3901304 69.0335125,68.9899086 C70.8063974,70.5896868 70.2603292,72.5584317 67.3953079,74.8961432 L53.3211195,84.4734412 L47.0500663,79.2275961 Z" id="Path-3" stroke="#2D2E2C" fill="#FFFFFF" stroke-linejoin="round"></path>
                    <path d="M49.453716,85.3895586 C50.3809988,84.9590468 51.0724817,84.6174968 51.5281647,84.3649085 C51.9838478,84.1123203 52.5597791,83.7607656 53.2559589,83.3102447 L55.0003519,82.1335245 L50.1375855,79.2288111 C49.1618564,79.4754001 48.3536639,79.6651605 47.713008,79.7980923 C47.072352,79.9310241 46.1836397,79.9993751 45.0468712,80.0031454 L47.1992814,84.3649085 L49.453716,85.3895586 Z" id="Path-4" fill="#FFFFFF"></path>
                </g>
            </g>
        </g>
    </g>
</svg>