<?xml version="1.0" encoding="UTF-8"?>
<svg width="65px" height="81px" viewBox="0 0 65 81" version="1.1" xmlns="http://www.w3.org/2000/svg" xmlns:xlink="http://www.w3.org/1999/xlink">
    <title>Group 20</title>
    <g id="Page-1" stroke="none" stroke-width="1" fill="none" fill-rule="evenodd">
        <g id="Artboard" transform="translate(-168.000000, -477.000000)">
            <g id="Group-20" transform="translate(169.000000, 478.311671)">
                <path id="Line-38" d="M16.857059,-0.637875727 L17.1897879,0.30514678 L16.7182767,0.471511253 C7.0860288,3.87008092 2.78223644,7.11001824 3.60063447,9.97441134 C4.16168124,11.938075 6.16342058,14.2069214 9.61752664,16.7416365 L11.7103076,13.3781631 L16.9765035,21.9523792 L6.9574131,21.0208062 L9.08816628,17.5934728 C5.43179436,14.9204766 3.27813912,12.4857325 2.63911053,10.2491325 C1.61427906,6.66222233 6.10740935,3.21269703 15.9216105,-0.306497207 L16.3855477,-0.471511253 L16.857059,-0.637875727 Z" fill="#2D2E2C" fill-rule="nonzero"></path>
                <g id="Group-3-Copy" transform="translate(0.000000, 25.688329)">
                    <g id="Group-2">
                        <g id="Group-4" transform="translate(0.000000, 17.846470)" fill="#F5F5F5" stroke="#000000" stroke-linecap="round" stroke-linejoin="round">
                            <path d="M30.9812909,5.3137125 C28.5508225,3.8620689 17.038804,0 15.7780685,0 C14.517333,0 6.1423542,5.17401872 0,8.36625373 C2.34650389,10.4002766 8.00327592,12.6457837 12.1937505,13.8653707 C17.2920221,12.7067518 20.8128887,11.7504937 22.7563503,10.9965965 C28.9294531,8.6019597 32.0818662,5.97105214 30.9812909,5.3137125 Z" id="Path"></path>
                            <path d="M11.7445998,13.8653707 C6.17556401,11.8493445 3.27199623,10.2733962 0,8.36625373 C0.291984502,15.55466 2.51406359,29.9729767 3.41329608,31.0724255 C4.01278442,31.8053913 8.13437523,33.1176674 15.7780685,35.0092537 C14.1095725,26.3262946 12.9147998,19.2783337 12.1937505,13.8653707 C20.9260508,11.978916 28.0798734,9.04650495 30.9812909,5.83617983 C32.3125552,14.387838 35.673587,24.8152003 35.011941,26.170218 C34.3502949,27.5252357 23.9277762,31.9366019 16.1292721,35.0092537" id="Path-42"></path>
                        </g>
                        <g id="Group-4-Copy" transform="translate(42.568847, 20.662402) rotate(14.000000) translate(-42.568847, -20.662402) translate(25.623561, 3.592383)" fill="#F5F5F5" stroke="#000000" stroke-linecap="round" stroke-linejoin="round">
                            <path d="M30.5229215,4.67377229 C28.0924532,3.22212869 18.3204945,-0.348243555 16.8980298,0.027530972 C15.475565,0.403305499 6.33845765,3.9084087 2.97322171e-12,6.67623312 C2.34650389,8.71025599 7.46284653,11.4372396 11.6533211,12.6568265 C17.0285291,11.417026 20.6713485,10.4546972 22.5817793,9.76984029 C29.3529861,7.34247796 31.6614124,5.35375768 30.5229215,4.67377229 Z" id="Path-Copy-2"></path>
                            <path d="M11.6533211,12.6568265 C7.56467861,11.0597614 3.68023826,9.06623026 -3.022421e-13,6.67623312 C0.291984502,13.8646394 2.26904223,29.7158031 3.2563645,30.2032101 C3.91457935,30.5281482 8.03617015,31.8404239 15.6211369,34.1400372 C13.6969757,25.2308597 12.3743705,18.0697895 11.6533211,12.6568265 C20.3856214,10.7703718 27.9229418,8.17728964 30.8243593,4.96696452 C32.1556236,13.5186227 34.3953456,25.6577998 33.7884083,26.3502547 C33.181471,27.0427097 23.7708446,31.0673866 15.9723405,34.1400372" id="Path-42-Copy-2"></path>
                        </g>
                        <g id="Group-15" transform="translate(23.665006, 39.399374) rotate(-21.000000) translate(-23.665006, -39.399374) translate(17.038804, 31.877212)" fill="#2D2E2C">
                            <path d="M10.447476,14.0929071 C9.22316637,15.3198917 7.85994958,14.0151329 6.48963535,14.0763189 C5.83413542,14.1054163 5.25696089,14.4733485 4.63238555,14.6403185 C3.51453765,14.9389065 2.85599596,14.0727837 2.29986029,13.1685897 C1.36046248,11.6413855 0.492039139,9.98637039 0.381014789,8.121963 C0.269990439,6.25374848 1.02840335,3.91208978 2.95789502,3.52920098 C4.34012282,3.25481547 5.39814939,4.24575779 6.71219101,4.35235751 C6.73475075,4.36051565 6.76060573,4.36432278 6.79127684,4.35969984 C7.16845546,4.35426108 7.53777618,4.26261795 7.90354818,4.1429652 C8.07921,4.09401634 8.24980221,4.03201447 8.41709917,3.96212638 C9.19553702,3.67414397 9.96789134,3.37392434 10.7775073,3.61105434 C12.9774624,4.25554756 13.1080047,7.19084706 12.6915366,9.15152052 C12.334383,10.8326417 11.6454236,12.8925725 10.447476,14.0929071 Z M4.6164163,1.3191603 C4.68815121,1.04259929 4.78269934,0.748090363 4.93047833,0.510416492 C5.62247941,1.11221544 6.26277052,2.07052518 6.49039579,3.04623897 C6.09141787,2.24891656 5.42653918,1.63569622 4.6164163,1.3191603 Z M9.70731365,0.41496623 C9.93696675,1.27809766 9.7400126,2.36367442 9.14661533,3.01387834 C8.59884451,3.61377372 7.7557692,3.81609564 6.99507497,3.93384482 C6.99811673,3.9172566 7.00293285,3.90175613 7.00141197,3.88190465 C6.88531802,2.18881824 8.13928482,0.629525366 9.70731365,0.41496623 Z M11.120973,3.3179051 C10.5311245,3.07778379 9.97422835,3.11803062 9.42620405,3.25753485 C9.458903,3.22027933 9.49515068,3.18819064 9.52582179,3.14794381 C10.1301187,2.35633209 10.3392399,1.17285762 10.0378519,0.206933609 C10.0322753,0.189257634 10.0226431,0.177020421 10.0142782,0.162879642 C10.0069273,0.0720523273 9.95090817,-0.00898521683 9.84064426,0.000804553602 C8.41659221,0.12372056 7.17960859,1.2234381 6.77099842,2.63941962 C6.45009243,1.61339729 5.73755944,0.657806925 4.98523006,0.0581834858 C4.92971788,0.0138575808 4.87572659,0.014673395 4.83035363,0.0377881308 C4.82503054,0.0399636353 4.82021442,0.0440427063 4.81489133,0.0470340251 C4.80399168,0.0543763529 4.79359899,0.0614467426 4.7844737,0.0712365131 C4.77712277,0.0780349648 4.76926489,0.0807543454 4.76216744,0.0891844255 C4.4752278,0.434273833 4.32592793,0.949596471 4.21642446,1.38660095 C4.19842736,1.45920841 4.21870578,1.51740316 4.25495346,1.56009743 C4.27599232,1.59001062 4.30336819,1.61611667 4.34519243,1.62971358 C5.36747828,1.96474128 6.13020035,2.82624107 6.41561911,3.91861629 C5.27901367,3.71547855 4.31097259,2.94562189 3.08108642,3.10960054 C1.89479885,3.26759656 0.971623773,4.14622845 0.478604686,5.28864027 C-0.79209181,8.23508924 0.673530998,11.770828 2.46614333,14.0904597 C3.40503418,15.305479 4.2775132,15.1733171 5.56316503,14.7153734 C6.49521191,14.3836089 7.12764514,14.5750533 8.03383703,14.8189818 C8.53648837,14.9544069 9.10124237,15.0955428 9.62214428,15.0074349 C10.8705345,14.7958671 11.6760948,13.1677738 12.1255152,12.0552752 C12.7870987,10.4171203 13.2978614,8.7349114 13.2491932,6.92951457 C13.2086363,5.43276745 12.4905268,3.87619395 11.120973,3.3179051 L11.120973,3.3179051 Z" id="Fill-14"></path>
                            <path d="M3.56964182,4.02843291 C2.34477498,4.61710393 1.72584756,6.41808752 1.93240647,7.87053124 C1.97037134,8.13863883 2.32004785,8.02498453 2.28208297,7.75804263 C2.11199033,6.56030111 2.64000185,4.92979897 3.66605263,4.43671415 C3.87910553,4.33442527 3.78569195,3.92497835 3.56964182,4.02843291" id="Fill-16"></path>
                            <path d="M1.89587043,8.9764455 C1.8292394,8.9764455 1.82916814,9.07674098 1.89587043,9.07674098 C1.96250146,9.07674098 1.96257272,8.9764455 1.89587043,8.9764455" id="Fill-17"></path>
                        </g>
                        <g id="v642-nap-05-fastfood" transform="translate(8.519402, 20.844710)" fill="#2D2E2C">
                            <path d="M8.01541946,2.20905506 C7.88900698,2.27024367 7.75865387,2.34518739 7.67023443,2.4460583 C7.58389401,2.54456046 7.53617169,2.68194752 7.60726598,2.7977931 C7.68107794,2.91805955 7.84538835,2.98120647 7.99486028,3.00084827 C8.17028597,3.02389074 8.3487011,2.99290947 8.52047152,2.96284286 C8.67903406,2.93509808 8.84088498,2.90371811 8.99172933,2.85228591 C9.1283195,2.80572018 9.25017988,2.73576019 9.33662901,2.63193422 C9.42839119,2.52175252 9.49101992,2.37630939 9.4562745,2.23961418 C9.41724873,2.0860329 9.21672535,1.98522063 9.04045718,2.00951783 C9.02907014,2.01107744 9.00844301,2.01382143 9.00438009,2.02607557 C9.00041229,2.03802482 9.01595737,2.05049003 9.02483057,2.05659951 C9.05835305,2.07968889 9.1180467,2.09625836 9.16124409,2.09030132 C9.16769856,2.08942184 9.17411226,2.08850718 9.18063467,2.08810848 C9.17878666,2.08822574 9.17526727,2.08680684 9.17377255,2.08726417 C9.18354258,2.0842622 9.18612437,2.09023097 9.17602822,2.08735799 C9.15474885,2.08129541 9.18430353,2.09265834 9.1759331,2.08774496 C9.18275446,2.0917554 9.20585466,2.10801999 9.21827442,2.12149368 C9.25596852,2.16245416 9.27145925,2.21836586 9.27216585,2.26993878 C9.27367415,2.37598105 9.22502783,2.48684288 9.15333566,2.5719769 C8.99132168,2.76438445 8.71547803,2.82074176 8.46065557,2.87043845 C8.38795786,2.88462745 8.31479815,2.89689331 8.24127155,2.90738848 C8.17191657,2.91729733 8.1010397,2.92765179 8.03052971,2.92742898 C7.99980644,2.92733517 7.96957234,2.92547067 7.93944696,2.92008823 C7.9553861,2.92293775 7.92210821,2.91579635 7.91637393,2.91410774 C7.93368549,2.91919702 7.88806938,2.90251028 7.89779864,2.90688425 C7.8557155,2.88796949 7.81702945,2.85749245 7.79458148,2.81830266 C7.73688532,2.71770146 7.77553061,2.5954767 7.85038886,2.50972118 C7.9273805,2.42155002 8.03728313,2.35467409 8.14559592,2.29791808 C8.39355626,2.16796559 8.68578747,2.09478083 8.97627937,2.09529679 C9.00069765,2.0953437 9.05361071,2.08883552 9.02599917,2.0582764 C9.00026282,2.02979285 8.93801456,2.01379798 8.89796967,2.01372762 C8.58875301,2.0131882 8.28547447,2.07832862 8.01541946,2.20905506 Z" id="Fill-3"></path>
                            <path d="M0.700318985,5.15090519 C0.530773993,5.41379128 0.368670714,5.68210055 0.214470412,5.95539329 C0.147864,6.07344936 0.0509833432,6.20378497 0.00828574239,6.33366457 C-0.0112256928,6.3929939 0.00668669648,6.45391924 0.0313181536,6.50865596 C0.147371985,6.76646086 0.506234788,7.0956629 0.798214421,7.00545561 C0.930950607,6.96444786 1.06062708,6.88650381 1.18871988,6.83065966 C1.3347097,6.76701458 1.48151441,6.70542152 1.62904177,6.64589676 C1.91708529,6.5296647 2.20795789,6.42131498 2.50129057,6.3209779 C3.073626,6.12520578 3.65527895,5.95996961 4.2433127,5.82624655 C4.48295433,5.77173783 4.82205969,5.66944645 5.05016974,5.81241987 C5.24417706,5.93402626 5.28072449,6.20645585 5.33610683,6.41605465 C5.38735317,6.60997019 5.46353848,6.78898418 5.63818812,6.88827897 C5.82335457,6.99353438 6.04423816,6.98662918 6.21970269,6.86287305 C6.42744028,6.71636561 6.50319508,6.46496104 6.49031046,6.20990845 C6.48273037,6.05993211 6.44861227,5.91340838 6.40709857,5.77033725 C6.38989346,5.71105678 6.3662614,5.6781268 6.41229547,5.63609304 C6.43431311,5.61601259 6.46321894,5.60830939 6.49094086,5.61164799 C6.55364191,5.61920462 6.63045761,5.69359835 6.67990503,5.73050207 C6.75109332,5.78362649 6.82118996,5.83855864 6.89456157,5.88832818 C7.03231015,5.98176007 7.19493619,6.06349871 7.36242088,6.05768467 C7.83550783,6.04120339 7.72435877,5.39086081 7.84525586,5.06647938 C8.03663398,4.55292159 8.67496081,4.37830478 9.11053169,4.19676648 C9.72656412,3.94000387 10.3426119,3.68325755 10.9586444,3.42651123 C11.2486867,3.30562141 11.5444026,3.1941611 11.829617,3.06100805 C12.0306509,2.96716902 12.2483364,2.83033536 12.2962155,2.58378398 C12.3775824,2.16474922 11.9229152,1.87719009 11.6180817,1.7441836 C11.3707216,1.6362736 11.1039269,1.57614627 10.8448354,1.50898345 C10.5272864,1.42665851 10.2074618,1.35425165 9.88589982,1.29182802 C9.25744403,1.16981448 8.62220767,1.08516066 7.98478799,1.03903915 C6.81802262,0.954613342 5.65900647,0.996956535 4.54321069,1.39876086 C3.64796024,1.72112285 2.81082895,2.2496799 2.20602059,3.03029295 C2.05701719,3.22261247 1.92391199,3.42794438 1.80510595,3.64244523 C1.7787832,3.68999989 1.98366095,3.77872517 2.02026988,3.71260464 C2.61031782,2.64723362 3.5754804,1.92682934 4.66404628,1.52414557 C6.02263566,1.02156444 7.46801941,1.05708387 8.8802537,1.23279183 C9.65291576,1.32892717 10.4200888,1.48367525 11.171871,1.69561922 C11.4359442,1.77007809 11.704753,1.85308704 11.9100767,2.05542236 C12.1029308,2.24547815 12.1570678,2.53368872 11.9622456,2.74778242 C11.8563088,2.86420991 11.7118104,2.93220331 11.5727088,2.99197236 C11.3949533,3.06833668 11.215691,3.14090639 11.0371975,3.21530013 C10.6721384,3.36745876 10.3070793,3.51960111 9.94203556,3.67175975 C9.59218277,3.8175669 9.24232997,3.96337406 8.89247718,4.1091975 C8.60537156,4.22886588 8.30518144,4.33568473 8.04304554,4.51176727 C7.77629701,4.69094412 7.6175302,4.92739828 7.57081961,5.25933634 C7.54046849,5.47520519 7.54019173,5.92855422 7.25137944,5.94277176 C7.14579628,5.94796694 7.03976724,5.8567825 6.95807752,5.79647603 C6.86845407,5.73030664 6.78167508,5.65848607 6.6866856,5.60096447 C6.52959472,5.50582258 6.30706595,5.42677109 6.16535051,5.5901181 C6.15789342,5.59651844 6.15554098,5.60459622 6.15830856,5.61435144 C6.27565393,5.99008213 6.39313767,6.50977968 6.01926844,6.77097204 C5.9500482,6.81934099 5.83859163,6.87534801 5.7548416,6.83697856 C5.69167928,6.80803862 5.64599885,6.72486682 5.61790792,6.66312718 C5.55762081,6.53062556 5.53445002,6.38216381 5.49508889,6.24210556 C5.40675698,5.92785392 5.21245753,5.72706576 4.90497945,5.65890951 C4.55506515,5.58137261 4.19080557,5.68910346 3.85068543,5.77126554 C3.02975986,5.96957826 2.22199567,6.2291746 1.43554184,6.54780713 C1.23893607,6.62746119 1.04362184,6.7107307 0.849799027,6.79771339 C0.782270088,6.82798878 0.69001744,6.89679647 0.617583735,6.90054221 C0.570873144,6.90295251 0.52788341,6.86941996 0.490736343,6.84155488 C0.393640431,6.76874088 0.298912336,6.66614007 0.245851688,6.55207402 C0.1801063,6.41072918 0.269575994,6.31482185 0.338042835,6.19012115 C0.819832291,5.31272133 1.38195843,4.48725707 2.01290504,3.7234673 C2.05809347,3.66879572 1.85412286,3.58117789 1.81247079,3.63158257 C1.41370872,4.11427868 1.04189979,4.62127328 0.700318985,5.15090519 Z" id="Fill-7"></path>
                            <path d="M0.628492049,8.0215892 C0.840763034,8.03449634 1.04601898,7.98408077 1.24709232,7.93631494 C1.47673947,7.88177756 1.70634259,7.82712242 1.93597506,7.77251439 C2.86188689,7.5523511 3.78779872,7.33217603 4.71371055,7.11200096 C4.79090533,7.09365303 4.6151918,7.00886161 4.55959982,7.02207494 C3.76701776,7.21054744 2.97443571,7.39900816 2.18185366,7.58746888 C1.79115412,7.68037437 1.40101226,7.77499925 1.00966699,7.86616181 C0.836785888,7.90642596 0.635947363,7.95743036 0.455288084,7.92197105 C0.293531253,7.89019782 0.19286984,7.76452986 0.200251775,7.63522294 C0.202893421,7.58914115 0.00359585708,7.53229557 0.000440556904,7.58750421 C-0.014382016,7.84685998 0.34786112,8.00451315 0.628492049,8.0215892 Z" id="Fill-8"></path>
                            <path d="M10.7247331,4.749556 C11.5537509,4.39902957 12.3944821,4.04220038 13.1309633,3.48509497 C13.4807591,3.22053405 13.8512175,2.90623988 14.0576871,2.48800183 C14.2294848,2.14016183 14.2671242,1.68159301 14.0434748,1.348425 C13.8093613,0.999568969 13.3714333,0.961149687 13.0132194,1.03330423 C12.6351551,1.10945397 12.2455959,1.30714709 12.1143112,1.7346154 C11.9859002,2.15266402 12.1174036,2.62344228 12.4461307,2.87792912 C12.778653,3.13536069 13.2436782,3.16529019 13.6138243,2.99601115 C13.6584917,2.97555302 13.6486523,2.94769 13.6139804,2.9246832 C13.5738422,2.8979223 13.4941906,2.90482779 13.4523344,2.92395993 C13.122311,3.07488175 12.735032,2.98306122 12.4970453,2.68395567 C12.2832196,2.41517568 12.233367,2.00193163 12.3650266,1.67654735 C12.5199569,1.29368053 12.9323651,1.10948841 13.2950614,1.10328897 C13.6970681,1.09640071 13.9571074,1.44759875 13.970695,1.87019362 C13.9838141,2.27677328 13.7762512,2.62998613 13.5243333,2.90756587 C13.2519558,3.20773911 12.926118,3.45478662 12.5958446,3.67068197 C11.9196332,4.11270174 11.1792318,4.4171457 10.4476546,4.726377 C9.49937801,5.12722218 8.5511014,5.52803293 7.60284042,5.92886089 C7.55717346,5.94816524 7.56890256,5.97778477 7.60257491,6.00018884 C7.64371266,6.02755246 7.72145894,6.01902824 7.76426781,6.00091211 C8.75108958,5.58379341 9.73792696,5.16674359 10.7247331,4.749556 Z" id="Fill-10"></path>
                            <path d="M6.63257344,2.53812529 C6.57766566,2.91590861 6.89102268,3.00118306 7.05795301,3.00835381 C7.25499808,3.01684396 7.55279937,2.92210413 7.57205714,2.52478771 C7.58777305,2.20084231 7.35141152,1.99042409 7.17579561,2.00680206 C7.04047507,2.01942256 7.25232833,2.23262304 7.32017549,2.22631278 C7.28771137,2.20451373 7.28801394,2.22522283 7.3210298,2.28835404 C7.33012474,2.33427546 7.33121044,2.38111474 7.3242691,2.42887188 C7.31287818,2.51824799 7.27756634,2.59557727 7.23525976,2.65366027 C7.14566307,2.77665282 7.02636101,2.79426416 6.91359093,2.78887176 C6.83378332,2.78505693 6.85361063,2.79957051 6.8803081,2.65965501 C6.89641556,2.57524104 6.9296628,2.49512953 6.96801816,2.43317432 C7.04672228,2.30605143 7.14888457,2.2429489 7.25960784,2.25278716 C7.31490719,2.25769195 7.31458682,2.19639645 7.28667907,2.1422717 C7.2495162,2.07024878 7.17036713,2.03818122 7.11526356,2.03330512 C6.91492581,2.015493 6.68196375,2.19840426 6.63257344,2.53812529 Z" id="Fill-15"></path>
                            <path d="M1.06130424,5.43712818 C0.820453447,5.6412962 0.988549221,5.89987136 1.29114072,5.98064706 C1.62591568,6.06999882 2.0600424,5.98352249 2.37317072,5.87321399 C2.66129398,5.77172014 2.91927109,5.54623125 2.81695884,5.27964507 C2.71986726,5.02660731 2.30881969,4.95400586 2.03491001,5.06555744 C1.98620505,5.08538409 2.05509232,5.11102438 2.07621372,5.1161223 C2.12670134,5.12828951 2.18931746,5.12285257 2.23577817,5.10392998 C2.37463505,5.04737569 2.52673459,5.16515528 2.57547138,5.26067226 C2.632262,5.37202294 2.60544244,5.50535997 2.53025217,5.6068915 C2.36866631,5.82505997 1.98493171,5.90249566 1.68886605,5.93425094 C1.50840303,5.95358789 1.32970677,5.92004959 1.22530944,5.79381951 C1.1365741,5.68649945 1.16972849,5.56251698 1.2722954,5.46948617 C1.47953022,5.28154109 1.86371048,5.19031842 2.15995123,5.13545925 C2.2007297,5.12791282 2.22872709,5.11451508 2.2022577,5.08540921 C2.17730038,5.0579859 2.0766753,5.0649924 2.04296383,5.07123296 C1.70922345,5.1330233 1.30190037,5.23318617 1.06130424,5.43712818 Z" id="Fill-17"></path>
                            <path d="M4.87630384,2.61014749 C4.84396096,2.66192812 4.80251182,2.72492102 4.80797926,2.81122756 C4.81654985,2.94653223 4.91914755,3.00078252 4.98267887,3.0080598 C5.0947153,3.02085266 5.14608341,2.8788305 5.2129303,2.74352582 C5.23052402,2.70792973 5.25669756,2.65073231 5.28338829,2.63955296 C5.31255415,2.62735282 5.31613754,2.65692293 5.33500577,2.69508748 C5.36661905,2.75905178 5.40360741,2.80126658 5.45023769,2.82209408 C5.52989428,2.85770664 5.62637805,2.82390517 5.66483487,2.68025303 C5.70811264,2.51853941 5.64942997,2.33632758 5.57719876,2.23763979 C5.39504606,1.98874703 5.09627611,1.96619076 4.88087544,2.04940198 C4.80915218,2.07709515 4.6864764,2.18171013 4.75130995,2.34643674 C4.8146658,2.50739299 4.97890154,2.42948331 5.06701789,2.41458301 C5.09626687,2.40962721 5.09187075,2.37605624 5.07590249,2.34826429 C5.05489162,2.31168033 5.01041322,2.30399144 4.98290053,2.30863441 C4.95820467,2.31281637 4.93350882,2.31698187 4.90881297,2.32116384 C4.89646504,2.32325482 4.88411711,2.3253458 4.87176919,2.32743679 C4.8551175,2.32527995 4.8551175,2.33143764 4.87175995,2.34589341 C4.85004718,2.27025583 4.8926877,2.20214248 4.92666528,2.17599697 C5.01721982,2.10631951 5.13996948,2.1098429 5.23577905,2.12769034 C5.33869075,2.14685493 5.47120238,2.1909796 5.52516568,2.36932229 C5.54357213,2.43015836 5.55314016,2.50498918 5.54367372,2.57318485 C5.53796615,2.61431299 5.52678191,2.65285622 5.50860635,2.68077989 C5.49968481,2.69701381 5.48910087,2.7081767 5.47685454,2.71425207 C5.46225314,2.73517836 5.4570997,2.7336801 5.46136652,2.70970789 C5.43534999,2.68423742 5.41759003,2.61334159 5.39120407,2.58149938 C5.36402386,2.54870224 5.33307554,2.5288626 5.30085271,2.51876991 C5.23105045,2.49692161 5.16412967,2.53528373 5.11227207,2.62121158 C5.08839818,2.66079207 4.9523401,2.99401564 4.93892085,2.83921708 C4.93270533,2.76748157 5.00340344,2.68338127 5.02885661,2.64307635 C5.0676182,2.58168049 5.10637979,2.52028464 5.14514139,2.45888878 C5.17176747,2.41672338 5.05198242,2.33188218 5.02165288,2.37992538 C4.9732032,2.45666609 4.92452263,2.53294578 4.87630384,2.61014749 Z" id="Fill-19"></path>
                            <path d="M5.70510881,5.20869201 C5.59574057,5.56510655 5.86224439,5.88870318 6.04659947,5.98018224 C6.2412711,6.07674908 6.58849556,5.99938779 6.62421981,5.60294484 C6.65265428,5.28736737 6.36856542,5.00501212 6.19156408,5.08001484 C6.07612101,5.12893844 6.32122438,5.39811936 6.40222211,5.36375154 C6.34334955,5.27210401 6.32220488,5.25953617 6.33880942,5.32608171 C6.34767653,5.36122449 6.34774048,5.39754656 6.33900125,5.43508162 C6.33100806,5.4885876 6.30756135,5.53437767 6.28441305,5.57295723 C6.23291555,5.65887679 6.14575774,5.73239698 6.0692362,5.73458708 C5.9826539,5.73704674 5.94974325,5.61857883 5.97039767,5.48663335 C5.97888111,5.43245349 5.99864029,5.38413637 6.0264353,5.34986963 C6.07294505,5.29255623 6.10811511,5.35125108 6.04308246,5.25505487 C6.08373053,5.31519856 6.18455138,5.41018179 6.24310421,5.37827363 C6.30549377,5.34427644 6.26827745,5.27065517 6.23248925,5.21772198 C6.10425706,5.02809247 5.80582308,4.88054669 5.70510881,5.20869201 Z" id="Fill-21"></path>
                            <path d="M7.45711508,4.70426006 C7.55084543,4.66670905 7.6153964,4.55514612 7.53917588,4.46497601 C7.50619098,4.4259375 7.45657614,4.41096025 7.40817116,4.4063274 C7.38171945,4.40380659 7.35565269,4.40432892 7.32937695,4.40879144 C7.31566166,4.41113057 7.30074751,4.41466198 7.28745016,4.41905637 C7.25858975,4.42856051 7.26184535,4.43862104 7.25232053,4.41374222 C7.21412228,4.31392036 7.49928383,4.28763352 7.41974172,4.13348931 C7.37097378,4.03898159 7.24031002,4.01195668 7.14698662,4.01181922 C7.0281134,4.01163874 6.91202283,4.05256218 6.82059119,4.13162709 C6.62643233,4.29952221 6.54822105,4.69088386 6.72470511,4.90039508 C6.80553407,4.99635624 6.95281676,5.03897158 7.07081009,5.00094367 C7.1270571,4.98282108 7.17838772,4.94090975 7.19964808,4.88306735 C7.21733388,4.83495618 7.16389152,4.69422223 7.208348,4.66888922 C7.25867774,4.64021782 7.11085611,4.60087273 7.07276785,4.62256079 C6.98375591,4.67327225 7.06963324,4.78451725 7.03926601,4.86321879 C7.02764046,4.89334363 6.99677829,4.9410233 6.96148368,4.94355546 C6.92557314,4.94613305 6.8825025,4.90074709 6.86390381,4.87585692 C6.82789429,4.82764356 6.80906463,4.76617891 6.79975978,4.7069512 C6.76247442,4.46973376 6.85640274,4.17510541 7.09607395,4.09431454 C7.15351981,4.0749429 7.2155301,4.06872035 7.2549932,4.12508661 C7.30346417,4.19434079 7.2429497,4.23653599 7.18992529,4.27169109 C7.12969677,4.31163801 7.04282957,4.38705796 7.11777425,4.4612175 C7.17267943,4.51556256 7.27942116,4.51039604 7.34657882,4.49265952 C7.35842434,4.48952554 7.41582621,4.48406378 7.38365521,4.47014254 C7.40674134,4.48012359 7.41390145,4.52673589 7.41271359,4.54988875 C7.40638938,4.67287482 7.27927818,4.65403687 7.20393755,4.61050177 C7.16774104,4.58959721 7.01347422,4.60464259 7.08641715,4.64678102 C7.19639248,4.71032363 7.33369942,4.75372247 7.45711508,4.70426006 Z" id="Fill-23"></path>
                            <path d="M11.4269935,1.00528287 C11.4128111,0.999355553 11.3593114,0.99746622 11.3592027,1.09378516 C11.3590768,1.19354935 11.4080656,1.2153693 11.4231502,1.22170412 C11.6923268,1.33421205 11.9549085,1.59564387 12.2078818,1.98840287 C12.2464594,2.04830584 12.3573202,1.94505935 12.2776841,1.82143769 C12.0036717,1.39596731 11.7183369,1.12708928 11.4269935,1.00528287 Z" id="Fill-24"></path>
                            <path d="M11.4076724,0.953343008 C11.2630945,0.955519395 11.4810755,1.0082884 11.5535344,1.00719686 C11.7616956,1.00406956 11.9617365,1.01401397 12.1542804,1.04306371 C12.1841553,1.0475705 12.2820891,1.06181411 12.3030318,1.04540751 C12.3233512,1.02949645 12.2261351,1.01129516 12.1998859,1.00733079 C11.9471768,0.969207192 11.6827971,0.949204525 11.4076724,0.953343008 Z" id="Fill-25"></path>
                            <path d="M11.4124876,0.966793066 C11.2985103,0.980188521 11.392583,1.0085697 11.4611827,1.02052579 C11.5569536,1.03721787 11.7350283,1.0590058 11.8497954,1.04551748 C11.8854972,1.04131544 11.9279524,1.04047967 11.9606132,1.03690446 C11.9809127,1.03467575 11.9634172,1.0384483 11.9447765,1.03555795 C11.9531095,1.03609191 11.9614426,1.03661426 11.9698151,1.03713661 C11.889565,1.02844234 11.8729384,1.02711904 11.9198958,1.03316673 C12.0071757,1.04499513 12.196032,1.06519278 12.2828775,1.04349771 C12.3708682,1.02153567 12.1803137,0.991157935 12.1359234,0.985145071 C11.9169338,0.955475416 11.6437991,0.939607491 11.4124876,0.966793066 Z" id="Fill-26"></path>
                            <path d="M0.938650963,6.11246488 C0.992347475,6.06791834 0.758363674,5.98628641 0.705185538,6.0304217 C0.394196221,6.28846263 0.15563642,6.59442817 0.00171476144,6.93496758 C-0.0228991189,6.98941335 0.225170185,7.05715111 0.25219719,6.99735917 C0.402937098,6.66386965 0.633900023,6.36533588 0.938650963,6.11246488 Z" id="Fill-27"></path>
                            <path d="M1.8860462,6.00588202 C1.95632743,5.98910941 1.48784619,5.95258091 1.39697278,5.97427707 C1.30334891,5.99662372 1.16260549,6.01496648 0.999134674,6.02389392 C0.893459493,6.02966984 0.969893049,6.04336382 1.03105437,6.05030054 C1.10984028,6.0592392 1.2766044,6.0721481 1.38025294,6.06648994 C1.59192901,6.05492688 1.76307214,6.03523828 1.8860462,6.00588202 Z" id="Fill-28"></path>
                            <path d="M8.54758006,3.00433258 C8.48253854,3.01952505 8.53860659,3.04492715 8.62911599,3.05349298 C8.71968994,3.0620588 8.82595132,3.05891886 8.92478862,3.05560554 C9.02707973,3.05217664 9.12940312,3.04874132 9.23169423,3.04531242 C9.29170028,3.0433026 9.35399811,3.04110656 9.40338448,3.03403687 C9.55780564,3.01193524 9.39970471,2.95171761 9.22029985,2.96429666 L9.01139229,2.95871667 C8.84360776,2.96759071 8.68489353,2.98320055 8.54758006,3.00433258 Z" id="Fill-31"></path>
                            <path d="M8.53944876,3.02293007 C8.65142278,3.06322664 8.92807876,3.06206864 9.12418235,3.05560028 C9.26174854,3.05106335 9.52115906,3.04819428 9.45555567,3.00771624 C9.40532082,2.9767355 9.18684893,2.95653968 9.03104363,2.96334507 C8.96067069,2.96641722 9.01947306,2.97906445 9.05036473,2.98369644 C9.10296226,2.99158205 9.19504108,2.99921706 9.26333839,2.99623133 C9.16134509,2.98252116 9.12652296,2.9813286 9.15889407,2.99265363 C9.16052808,2.99423076 9.1621621,2.99580356 9.16377403,2.99737636 C9.1658055,3.00319659 9.1572159,3.00793228 9.13528922,3.01182972 C9.08386198,3.02097271 8.9545321,3.02064864 8.89188759,3.02271403 C8.87088832,3.02340537 8.84991114,3.02410103 8.82891187,3.02479237 C8.78357906,3.02422202 8.77545316,3.02545347 8.80451209,3.02848241 C8.82535679,3.03288971 8.83114207,3.03129962 8.82193419,3.02370351 C8.83593371,3.02008693 8.85275962,3.01713577 8.87238985,3.01485866 C8.94514757,3.00426817 9.0342675,2.99736772 9.12042853,2.9924808 C9.18810757,2.98863521 9.13493592,2.97719783 9.10110744,2.97212511 C9.0515792,2.96469751 8.95338388,2.95588723 8.88813378,2.95959023 C8.75745694,2.96700486 8.43643973,2.98585256 8.53944876,3.02293007 Z" id="Fill-32"></path>
                            <path d="M3.73907087,5.04005461 C3.7599199,5.05500898 3.78246348,5.07030686 3.8048324,5.06307013 C3.82720133,5.05583341 3.84655878,5.01497799 3.83620271,4.98210739 L3.81759105,4.96462628 C3.78581008,4.96606905 3.75505812,4.99561136 3.73907087,5.04005461 Z" id="Fill-33"></path>
                            <path d="M2.84701762,5.02454672 C2.82474275,5.03158282 2.85824819,5.03747581 2.8902101,5.04023179 C3.0957403,5.0579473 3.33605335,5.07354363 3.56042538,5.05946622 C3.70788658,5.05021699 3.83371162,5.02256325 3.76896282,4.9914541 C3.72723404,4.97142106 3.34717748,4.97196913 3.39100866,4.99302 C3.41810044,5.00603782 3.38706998,5.02018831 3.33270015,5.02872766 C3.31433736,5.03160891 3.29235523,5.03316437 3.3014834,5.0330391 C3.26582233,5.03351409 3.20679527,5.02627443 3.17443418,5.02348191 C3.18883167,5.02871201 3.20322916,5.0339421 3.21762665,5.03916698 C3.2805924,5.01928009 3.3919135,4.9972949 3.51997401,4.99586471 C3.56468342,4.99536884 3.68917782,4.99378729 3.66402878,4.97950109 C3.64119505,4.96654068 3.48162505,4.9641292 3.43010278,4.96470336 C3.1974542,4.96729753 2.9743862,4.98431361 2.84701762,5.02454672 Z" id="Fill-34"></path>
                            <path d="M0.313116788,7.97524146 C0.519620231,8.05140543 0.737471148,8.02428896 0.951162304,7.98482737 C1.33978388,7.9130401 1.72840546,7.84118147 2.11674776,7.76844275 C2.58020093,7.68162249 3.03724542,7.58319448 3.48895424,7.46213374 C3.9022845,7.35136061 4.31308657,7.23434355 4.72444719,7.1188845 C4.77101299,7.10580199 4.61517631,7.00519753 4.55276521,7.02272809 C3.99327008,7.17976572 3.43546531,7.34472421 2.86751837,7.48110337 C2.41435436,7.58991413 1.95147445,7.67045479 1.49090225,7.75556242 C1.27782844,7.79495266 1.06479873,7.8344975 0.851842512,7.87424453 C0.637078343,7.91431267 0.237800136,8.00465331 0.193674338,7.74453744 C0.184987347,7.69333728 -0.0074493442,7.63572668 0.00022342947,7.68096836 C0.0239031965,7.82043975 0.161116496,7.91917698 0.313116788,7.97524146 Z" id="Fill-35"></path>
                            <path d="M6.5500366,7.02771479 C6.63636078,7.02044263 6.65642132,7.00421513 6.57308775,6.98972661 C6.48595711,6.97457784 6.33135316,6.96525051 6.22997518,6.97377809 C6.07191019,6.98706698 5.91384521,7.00035586 5.75578023,7.01365405 C5.66945605,7.02090761 5.64936191,7.03713511 5.73272909,7.05163293 C5.81982612,7.0667817 5.97443007,7.07611833 6.07580805,7.06759075 C6.23387304,7.05429256 6.39193802,7.04099438 6.5500366,7.02771479 Z" id="Fill-36"></path>
                            <path d="M12.9073682,0.595157567 C12.1310942,0.36282811 11.3457675,0.214075916 10.5440747,0.138132212 C9.71443215,0.0595644727 8.88065922,0.0378394959 8.04848565,0.0155522256 C7.26867132,-0.00533783056 6.45027077,-0.0343726231 5.68300279,0.147128909 C5.37078824,0.22099383 5.03556171,0.357460762 4.8577856,0.668306842 C4.63664075,1.05497735 4.75486831,1.5333017 4.86545626,1.93779521 C4.88424472,2.00654837 5.1033244,2.03532758 5.08447383,1.96640402 C4.98593533,1.60599092 4.87703989,1.19103534 5.02767367,0.828509377 C5.15158435,0.530306382 5.42938961,0.37279604 5.70426015,0.288349777 C6.03711095,0.186063475 6.39520971,0.160436522 6.73885223,0.139001211 C7.11898473,0.115282648 7.49997126,0.114584041 7.88053854,0.121876818 C9.40050956,0.151013846 10.9573277,0.166877338 12.4419112,0.563856562 C12.752014,0.646769297 13.077101,0.725439271 13.3702941,0.866830532 C13.6555371,1.00443909 13.8591047,1.22988471 13.9782018,1.54696714 C14.0039777,1.61522616 14.2202779,1.63678075 14.197297,1.57557595 C13.9688852,0.96773666 13.4462244,0.756450611 12.9073682,0.595157567 Z" id="Fill-38"></path>
                            <path d="M5.6524538,0.983220957 C5.68832176,0.981801074 5.68458479,0.973195859 5.66466197,0.965119708 C5.63985588,0.955067478 5.58360658,0.951757432 5.549951,0.953086877 C5.27522699,0.963966618 5.00594794,0.987896623 4.74595399,1.02458297 C4.6892347,1.03258677 4.83460939,1.05822153 4.87730934,1.05219381 C5.12839649,1.01676457 5.38710659,0.993725379 5.6524538,0.983220957 Z" id="Fill-39"></path>
                            <path d="M5.65307807,0.992360956 C5.73430413,0.98846799 5.60682449,0.950931279 5.56611026,0.95288036 C5.29140106,0.966050954 5.01883303,0.986311007 4.74878967,1.01423225 C4.71389176,1.01784455 4.74575368,1.03340082 4.75950618,1.03857758 C4.78532808,1.04831259 4.83017552,1.05566193 4.86307074,1.05225753 C5.12405939,1.02526665 5.38755141,1.00508976 5.65307807,0.992360956 Z" id="Fill-40"></path>
                        </g>
                        <g id="Group-28" transform="translate(3.216397, 33.809692)" fill="#2D2E2C">
                            <path d="M8.17476611,10.5883461 C7.94362686,11.3991884 7.32666738,11.7589037 6.54012737,11.7490877 C5.71398589,11.7388627 5.02527327,11.2335434 4.99292553,10.3190197 C4.97763388,9.88609337 5.12133623,9.28445458 5.51205762,9.04641666 C5.79377697,8.87484122 6.17136322,8.86298022 6.50170218,8.87259172 C6.48974333,9.17831911 6.46719794,9.47770701 6.43661463,9.76727891 C6.31898651,9.72269793 6.20449514,9.64866895 6.16195297,9.53517149 C6.09823774,9.36543655 5.83279029,9.43926103 5.89728971,9.61124547 C5.98805941,9.85316888 6.1980256,9.99550084 6.43171345,10.0660533 C6.74950542,10.1623728 7.01063984,10.0650308 7.28883034,9.90286237 C7.44292317,9.8128824 7.30471013,9.56543748 7.1502252,9.65562195 C7.00515053,9.74028492 6.86674144,9.8151319 6.70617906,9.8192219 C6.73891889,9.5216745 6.76107218,9.2126751 6.77401128,8.89835871 C7.64132259,9.03578266 8.49510668,9.46482352 8.17476611,10.5883461 Z M6.3038909,0.359055116 C6.56933835,0.335128624 6.83831465,0.334106125 7.10454629,0.339014123 C7.1970804,0.340650122 7.31117968,0.367235113 7.40214542,0.34903462 C7.4346892,0.342695122 7.45880297,0.340241123 7.47801556,0.340036623 C7.40939916,0.833290455 7.03710617,1.48257773 6.68186925,1.75538064 C6.02844506,2.25701897 5.31679495,2.19566899 4.601616,1.95926707 C4.59083342,0.971941408 5.43089422,0.438196589 6.3038909,0.359055116 Z M3.40357362,10.6646246 C2.98540566,11.5889643 1.98791923,11.7644252 1.17275638,11.3503129 C0.396802897,10.956037 0.0313715456,10.1034768 0.4465988,9.26441358 C0.870844209,8.40694538 1.6338586,8.39467538 2.39020739,8.76788775 C2.2300371,9.02085417 2.06535774,9.26952608 1.89891395,9.5147215 C1.8087324,9.42208303 1.73893972,9.30592707 1.7430567,9.17525162 C1.74874206,8.99099718 1.47427645,8.99120168 1.46839505,9.17525162 C1.46035712,9.43373953 1.62229183,9.65746245 1.80951659,9.8104284 C2.05653563,10.0124743 2.31767005,10.0306748 2.62115059,9.99754584 C2.79504416,9.97873184 2.79700463,9.69202294 2.62115059,9.71124593 C2.45000168,9.72985543 2.28002905,9.74641992 2.12338761,9.67770794 C2.29375234,9.42699103 2.46156845,9.17238862 2.62487549,8.9141052 C3.21909352,9.30756307 3.7670445,9.86093988 3.40357362,10.6646246 Z M6.78263734,8.61308131 C6.8038104,7.51839318 6.68931903,6.37482957 6.34800144,5.3981379 C5.98982383,4.37297975 5.51048925,3.23187014 4.8547125,2.32798045 C5.59126056,2.50589539 6.32878885,2.4523164 6.96045184,1.89464509 C7.32372668,1.5741937 7.78933798,0.751694983 7.76738073,0.23124266 C7.76463607,0.166416182 7.72640693,0.1122237 7.66661264,0.0932052067 C7.13924658,-0.0748937361 6.31114463,0.00833773557 5.78593509,0.153941686 C4.99116111,0.374188111 4.3765542,0.972145908 4.32871876,1.81877562 C4.27206122,1.84658761 4.23030324,1.91468609 4.24324233,1.98789706 C4.66572332,4.37563825 3.74802796,6.56481 2.53998719,8.52596434 C2.5395951,8.52596434 2.53939905,8.52575984 2.53920301,8.52555534 C1.59739388,8.056228 0.736552109,8.07156549 0.209578143,9.11983213 C-0.277010169,10.0881393 0.118808446,11.1231135 1.03415125,11.5975533 C1.9932125,12.0944881 3.02873202,11.8920332 3.58981814,10.8977545 C4.13129957,9.93824086 3.51826104,9.18404511 2.77230273,8.67565829 C3.93466457,6.78321593 4.81609126,4.69015914 4.57730619,2.41448392 C5.26876347,3.3300301 5.78377858,4.55150819 6.12862501,5.60611433 C6.42583205,6.51470752 6.52581595,7.57176766 6.50817173,8.58956381 C5.44991077,8.58261082 4.69395407,9.09713264 4.71845993,10.3190197 C4.73963299,11.3783294 5.57185192,12.0304796 6.54012737,12.0354229 C7.54486754,12.0405001 8.31474357,11.4893728 8.49236202,10.4237237 C8.6935061,9.2177876 7.7375816,8.76154826 6.78263734,8.61308131 L6.78263734,8.61308131 Z" id="Fill-69"></path>
                        </g>
                    </g>
                    <g id="Group-49-Copy" transform="translate(47.803311, 24.856529) rotate(-3.000000) translate(-47.803311, -24.856529) translate(40.703810, 16.832890)" fill="#1C1B19">
                        <path d="M3.89878594,15.8378779 C3.09665943,15.7933375 2.72652612,15.2313463 2.72652612,14.9746927 L2.7716648,14.0621192 L5.02665037,14.0383095 L4.98151169,14.950883 C4.98151169,15.2075366 4.70091246,15.8824182 3.89878594,15.8378779 Z M10.2008448,15.8546797 C9.41488501,15.8110371 9.18187048,15.2376747 9.18187048,14.9810211 L9.21809962,14.0679528 L11.3269918,14.0360309 L11.2818532,14.9486044 C11.2818532,15.205258 10.9868045,15.8983224 10.2008448,15.8546797 Z M13.6256043,13.8674942 L0.578665145,13.7913227 C0.384971034,13.7913227 0.339031389,13.3490572 0.339031389,13.12972 C0.339031389,12.9103827 0.443920869,12.5995276 0.63761498,12.5995276 L13.4164102,12.6753162 C13.6101043,12.6753162 13.8872977,12.8742487 13.8872977,13.093586 C13.8872977,13.3129232 13.8192984,13.8674942 13.6256043,13.8674942 Z M10.5392103,3.04587326 L11.3645961,8.26046977 C11.3765903,8.34864694 11.7175261,8.39417507 12.3874035,8.39705418 C12.5347794,8.48744268 13.1592491,8.97241444 13.3479669,9.95673698 C13.584534,11.1919084 13.7204949,12.4056823 13.69791,12.4056823 L0.867497446,12.370625 C0.802039555,12.370625 0.439170352,12.3276842 0.377923202,12.34344 C0.395914552,11.8230842 0.547205912,10.8344791 0.786835386,9.58272269 C0.975170372,8.5992294 1.69470908,8.41818205 1.84285062,8.32696429 C2.4725926,8.3099274 2.7934607,8.25732038 2.80545493,8.16914321 L3.51425678,3.06717738 L10.5392103,3.04587326 Z M9.39952353,0.4055044 L9.39952353,2.92560229 L8.37325098,2.92560229 L8.37325098,1.4636304 C8.37325098,1.35168133 8.28941894,1.2608782 8.18606438,1.2608782 L6.54502355,1.2608782 L6.54502355,0.4055044 L9.39952353,0.4055044 Z M5.02494585,2.85635972 L7.99887777,2.85635972 L7.99887777,1.6663826 L5.02494585,1.6663826 L5.02494585,2.85635972 Z M1.67472675,8.10635636 C1.63797846,8.12377066 0.767120552,8.55042099 0.495336325,9.96968639 C0.194842496,11.5369733 0.15924259,11.73475 0.154649053,12.5727095 C0.057419203,12.725292 3.14964377e-16,12.9106299 3.14964377e-16,13.1108943 C3.14964377e-16,13.6283478 0.381646303,14.049608 0.850569794,14.049608 L2.54635026,14.049608 L2.54635026,14.9646879 C2.54635026,15.5721153 3.13585407,16.0472769 3.88842843,16.0472769 C4.64061999,16.0472769 5.23012381,15.5721153 5.23012381,14.9646879 L5.23012381,14.049608 L8.88772704,14.049608 L8.88772704,14.9646879 C8.88772704,15.5721153 9.47684806,16.0472769 10.2294224,16.0472769 C10.9819968,16.0472769 11.5715006,15.5721153 11.5715006,14.9646879 L11.5715006,14.049608 L13.3484335,14.049608 C13.817357,14.049608 14.1990033,13.6283478 14.1990033,13.1108943 C14.1990033,12.8364118 14.0910552,12.5901238 13.9207116,12.418054 C13.9115245,11.7036531 13.8617612,11.4358045 13.5811727,9.96968639 C13.3093885,8.55042099 12.4385306,8.12377066 12.4017823,8.10635636 C12.3703931,8.09142981 12.3363244,8.08396654 12.3018728,8.08396654 L11.4865202,8.08396654 L11.4034537,7.47488069 L11.8118956,7.47488069 C11.9841533,7.47488069 12.1238733,7.32354214 12.1238733,7.13696036 C12.1238733,6.95037858 11.9841533,6.79904003 11.8118956,6.79904003 L11.3104346,6.79904003 L10.7974897,3.05413641 C10.7791156,2.92187066 10.673847,2.82360426 10.5502044,2.82360426 L9.77427953,2.82360426 L9.77427953,0.203166826 C9.77427953,0.0908031324 9.6904475,5.83486156e-16 9.58671014,5.83486156e-16 L6.35783695,5.83486156e-16 C6.25409959,5.83486156e-16 6.17065035,0.0908031324 6.17065035,0.203166826 L6.17065035,1.2608782 L4.83775925,1.2608782 C4.73440469,1.2608782 4.65057265,1.35168133 4.65057265,1.4636304 L4.65057265,2.82360426 L3.52630465,2.82360426 C3.40266197,2.82360426 3.29777623,2.92187066 3.27940208,3.05413641 L2.75688733,6.86662409 L2.17082867,6.86662409 C2.03302258,6.86662409 1.92124653,6.98769494 1.92124653,7.13696036 C1.92124653,7.28622578 2.03302258,7.40729663 2.17082867,7.40729663 L2.68262516,7.40729663 L2.58998885,8.08396654 L1.77463617,8.08396654 C1.74018465,8.08396654 1.70649871,8.09142981 1.67472675,8.10635636 Z" id="Fill-58"></path>
                        <path d="M6.88421051,4.52586189 L6.88421051,5.02177115 L6.19767081,5.02177115 C6.12962172,5.02177115 6.07442634,5.0789308 6.07442634,5.15028182 L6.07442634,5.67496801 C6.07442634,5.74631903 6.12962172,5.80387288 6.19767081,5.80387288 L8.16996024,5.80387288 C8.23838738,5.80387288 8.29358275,5.74631903 8.29358275,5.67496801 L8.29358275,5.15028182 C8.29358275,5.0789308 8.23838738,5.02177115 8.16996024,5.02177115 L7.49892061,5.02177115 L7.49892061,4.52586189 L9.86837914,4.31531711 L10.182438,7.69266152 L4.04975259,7.68401292 L4.40972312,4.23903573 L6.88421051,4.52586189 Z M7.13032138,5.02177115 L7.25243169,5.02177115 L7.25243169,4.60352018 L7.13032138,4.60352018 L7.13032138,5.02177115 Z M7.00745497,5.27879249 L8.04671578,5.27879249 L8.04671578,5.54645734 L6.32091527,5.54645734 L6.32091527,5.27879249 L7.00745497,5.27879249 Z M10.1660669,8.02363843 C10.2360062,8.02363843 10.3029211,7.99249628 10.3497994,7.93809606 C10.3962996,7.88330163 10.4189826,7.810768 10.4110436,7.73823438 L10.0413102,4.24085203 C10.0273223,4.11037034 9.92184623,4.01181922 9.79633347,4.01181922 L4.40268706,4.01181922 C4.27717429,4.01181922 4.17132015,4.11037034 4.15733228,4.24085203 L3.78797695,7.73823438 C3.78003789,7.810768 3.80234287,7.88330163 3.84922113,7.93809606 C3.89609939,7.99249628 3.96263628,8.02363843 4.03295367,8.02363843 L10.1660669,8.02363843 Z" id="Fill-59"></path>
                        <path d="M3.40617094,11.6989685 C2.63298259,11.6560351 2.12953404,11.0444054 2.12953404,10.5441485 C2.12953404,10.0438916 2.5242425,9.22087904 3.30157176,9.26404243 C4.07890103,9.30720582 4.58687482,10.0226545 4.58687482,10.5229114 C4.58687482,11.0231683 4.1793593,11.741902 3.40617094,11.6989685 Z M1.89320044,10.5310254 C1.89320044,11.3608203 2.53026599,12.0354577 3.31331673,12.0354577 C4.09593556,12.0354577 4.73300111,11.3608203 4.73300111,10.5310254 C4.73300111,9.70168831 4.09593556,9.02659324 3.31331673,9.02659324 C2.53026599,9.02659324 1.89320044,9.70168831 1.89320044,10.5310254 Z" id="Fill-61"></path>
                        <path d="M10.9933388,11.6186346 C10.2201504,11.5757011 9.71670188,10.9640715 9.71670188,10.4638146 C9.71670188,9.9635577 10.1114103,9.1405451 10.8887396,9.18370849 C11.6660689,9.22687187 12.1740427,9.94232054 12.1740427,10.4425774 C12.1740427,10.9428343 11.7665271,11.661568 10.9933388,11.6186346 Z M9.48036828,10.4506915 C9.48036828,11.2804863 10.1174338,11.9551237 10.9004846,11.9551237 C11.6831034,11.9551237 12.3201689,11.2804863 12.3201689,10.4506915 C12.3201689,9.62135437 11.6831034,8.9462593 10.9004846,8.9462593 C10.1174338,8.9462593 9.48036828,9.62135437 9.48036828,10.4506915 Z" id="Fill-61-Copy"></path>
                    </g>
                    <path d="M41.5979413,14.5562916 C42.6416474,14.0613619 43.169381,13.781294 43.1811422,13.716088 C43.228538,13.4540997 43.2121454,13.1541168 43.2516419,12.843224 C43.34933,12.0712318 43.3874806,11.2461905 43.6997665,10.330978 C43.7471623,10.194744 43.3592166,10.0310858 43.2581055,9.96122228 L40.9322917,8.05157055 L41.7960433,8.00867071 C41.8226376,8.04010931 41.8513384,8.06805473 41.8834622,8.09250697 C41.9482366,8.1344251 42.0188037,8.15887734 42.0898975,8.15887734 C42.1354501,8.15887734 42.1810028,8.14839781 42.2257655,8.13093192 C42.2886967,8.1029865 42.3442551,8.06106837 42.391651,8.00168435 L43.1936939,7.99120482 C43.2347703,8.09600015 43.2992813,8.18682277 43.3848571,8.24620678 C43.4496314,8.29161809 43.5201985,8.31607034 43.591029,8.31607034 C43.636845,8.31607034 43.6823976,8.3055908 43.7268971,8.28463174 C43.841437,8.23922043 43.8209186,8.3370249 43.8759504,8.1972978 L43.9952102,7.98072529 L44.5515846,7.97373893 C44.6292612,7.97024575 44.7101017,7.9236051 44.737745,7.82353229 C45.4516288,5.23916159 46.4756122,4.12069098 46.7541944,4.0955401 C46.8697876,4.37918612 47.1354341,6.12056466 46.0061301,8.92038556 C45.9701649,9.00955212 45.9776926,9.11949668 46.0216654,9.20682612 L46.2894519,9.72381641 L46.2662806,9.78320043 C46.2109854,9.92292753 46.200453,10.0836137 46.2365265,10.2373135 C46.2726,10.3875202 46.3513298,10.5132746 46.4577071,10.5866313 C46.523798,10.6320426 46.5943651,10.6530017 46.663879,10.6530017 C46.6973194,10.6530017 46.7304965,10.6460153 46.7626203,10.6355358 L47.1883929,11.4599257 C47.1694346,11.564721 47.1707512,11.6730095 47.1955023,11.7778048 C47.2318391,11.9280115 47.3103056,12.0537659 47.4166829,12.1271226 C47.4640787,12.1585612 47.5146343,12.1795203 47.5659798,12.1899998 L48.0556345,13.6528658 L45.4744099,11.6182644 C45.3730354,11.5484009 45.1889265,11.457208 45.1312616,11.5864555 C44.686794,12.5889975 44.1757157,13.6101926 43.7436237,14.2319782 C43.6811314,14.3228008 43.8051653,15.083738 44.1157253,16.5147896 C43.8713318,16.1560378 43.464868,15.5722471 43.0569484,15.2201406 C42.5248892,14.7608799 41.843414,14.6511998 41.5979413,14.5562916 Z M45.3151325,11.7887196 L47.9998941,13.9057214 C48.0770464,13.9656034 48.1716278,13.9374236 48.2292596,13.8387946 C48.2866591,13.7401656 48.2924688,13.5957445 48.2434352,13.486548 L47.6159916,12.102219 C47.6320262,12.0705168 47.6462018,12.0388146 47.6582859,12.00359 L47.7916758,11.6161188 C47.840477,11.4716977 47.8497724,11.3096642 47.8179355,11.1581982 C47.7858661,11.0032097 47.7166149,10.8799234 47.6227308,10.8059517 C47.5288466,10.7319799 47.421484,10.71789 47.3206283,10.7636821 C47.2355748,10.8059517 47.1649293,10.8904908 47.115431,10.9996873 L46.8356376,10.3797333 L46.945324,10.0627114 C46.9941252,9.91829031 47.003653,9.75625689 46.9715837,9.60479086 C46.9397467,9.44980237 46.8702632,9.32651608 46.776379,9.2525443 C46.6824949,9.17857252 46.5751323,9.16448266 46.4742765,9.21379718 C46.4287288,9.23493197 46.3875963,9.27015663 46.3511117,9.31242621 L46.2679173,9.129258 C46.9943576,6.85022271 47.4691233,4.26825538 46.9374229,3.84943421 C46.403631,3.42990855 45.2005659,5.47963132 44.3804739,7.7026594 L44.1729527,7.70618187 C44.1801567,7.62164269 44.1764385,7.53358105 44.1587771,7.44904188 C44.1269401,7.29757585 44.0574566,7.17076709 43.9638048,7.09679531 C43.8696883,7.02282353 43.7625581,7.00873367 43.6614699,7.05804819 C43.5606142,7.10736271 43.4781169,7.20951421 43.4293158,7.3539353 L43.303827,7.72027173 L42.8134915,7.72731666 C42.9031927,7.43847448 42.827667,7.08975038 42.6387368,6.94180682 C42.5448526,6.86783504 42.43749,6.85374518 42.3366343,6.89953723 C42.2357785,6.94885175 42.1532813,7.05452572 42.1044801,7.19542435 L41.9710903,7.58641804 C41.9538937,7.63573256 41.9434363,7.68856954 41.9362323,7.74140653 L40.8914224,7.75901886 C40.8045099,7.75901886 40.7292166,7.85060296 40.708999,7.97741173 C40.6887814,8.10774296 40.7289843,8.23807419 40.8061366,8.30147857 L43.4915954,10.414958 C43.2487514,11.3167092 43.1527758,12.1797133 43.0744615,12.8877289 C43.0477371,13.130779 43.0221746,13.3597393 42.9933586,13.5710872 L41.5869553,14.2438781 C41.4958598,14.2861477 41.4405518,14.4270464 41.457516,14.567945 C41.4747126,14.7123661 41.5593013,14.8109951 41.6538827,14.8039502 C41.6671287,14.8039502 42.9998655,14.7229335 44.073956,16.7272164 C44.1109055,16.7976658 44.1655163,16.8328904 44.2210567,16.8328904 C44.2517317,16.8328904 44.2824067,16.822323 44.3107579,16.8011882 C44.3909312,16.7342614 44.429275,16.5933627 44.401621,16.459509 L43.9582275,14.3354623 C44.0072611,14.2509231 44.0590833,14.1663839 44.1134617,14.0747998 C44.4583233,13.5076828 44.9210049,12.7433078 45.3151325,11.7887196 L45.3151325,11.7887196 Z" id="Fill-45-Copy" fill="#1C1B19" transform="translate(44.490210, 10.313684) rotate(-95.000000) translate(-44.490210, -10.313684) "></path>
                    <g id="Fill-4" transform="translate(32.657708, 21.847664) scale(-1, 1) rotate(-17.000000) translate(-32.657708, -21.847664) translate(28.398007, 13.824026)" fill="#1C1B19">
                        <path d="M7.68564052,12.8041452 L6.33771153,15.6784559 L1.46975647,15.7058932 L0.347556497,12.7406311 L7.68564052,12.8041452 Z M2.83980066,11.0325028 L3.54975083,11.0325028 L3.54975083,2.00590961 L2.83980066,2.00590961 L2.83980066,11.0325028 Z M4.01649667,0.929822532 C5.70847059,2.19318119 7.20811876,5.19717916 7.6865975,7.36119316 C7.80605399,7.90171916 8.25612161,11.0390727 8.28843361,11.3737977 L3.8640262,11.2339229 L4.01649667,0.929822532 Z M1.44096819,16.0472769 L6.38081338,16.0472769 C6.47207211,16.0472769 6.55756356,15.9819902 6.60912983,15.8730154 L7.91457068,13.1108476 C7.97258274,12.9886191 7.97902852,12.8295748 7.93119402,12.6980196 C7.88302027,12.5669553 7.78904752,12.4849787 7.68625423,12.4849787 L3.17420554,12.4849787 L3.17420554,11.6927024 L8.24262716,11.6927024 C8.32031581,11.6927024 8.39393345,11.6455782 8.44651748,11.5631108 C8.49876225,11.4806433 8.52488464,11.3701959 8.51843885,11.2587667 C8.51368933,11.1738449 8.39121944,9.15781094 7.79176154,6.83546941 C6.99994788,3.7704302 5.73928826,1.64247617 4.14344788,0.668084299 C4.09764889,0.619978302 4.0420116,0.591016529 3.98128553,0.591016529 L3.17420554,0.591016529 L3.17420554,0.400556053 C3.17420554,0.179170293 3.05037864,4.51351422e-13 2.89737609,4.51351422e-13 C2.74471279,4.51351422e-13 2.62088589,0.179170293 2.62088589,0.400556053 L2.62088589,12.4849787 L0.276316826,12.4849787 C0.176576803,12.4849787 0.0843003182,12.5625374 0.0354480617,12.6891838 C-0.0134041948,12.8153393 -0.0117079359,12.9699657 0.0401975867,13.0936669 L1.20484895,15.8553438 C1.25505822,15.974627 1.34428143,16.0472769 1.44096819,16.0472769 Z" id="Fill-2"></path>
                    </g>
                </g>
            </g>
        </g>
    </g>
</svg>