<?xml version="1.0" encoding="UTF-8"?>
<svg width="76px" height="78px" viewBox="0 0 76 78" version="1.1" xmlns="http://www.w3.org/2000/svg" xmlns:xlink="http://www.w3.org/1999/xlink">
    <title>Group 8</title>
    <g id="Page-1" stroke="none" stroke-width="1" fill="none" fill-rule="evenodd">
        <g id="Settings_Sound-Copy" transform="translate(-272.000000, -136.000000)">
            <g id="Group-8" transform="translate(272.000000, 136.000000)">
                <g id="Group-6" transform="translate(26.356274, 11.841854)">
                    <g id="Group-5" stroke="#2D2E2C">
                        <path d="M0,9.48848888 C0.163110965,11.3684603 1.69886141,25.9209113 1.99688776,26.6223022 C5.33193824,26.3687268 26.9130508,24.2819041 27.5569836,23.7758384 C27.9862722,23.4384613 27.1451633,17.3817711 25.0336569,5.605768 C16.6965204,6.86957638 10.1875637,7.85743274 5.5067869,8.56933707 C0.826010058,9.2812414 0.233454802,9.37346155 3.72912114,8.84599751 L3.72912114,6.66100595 L25.0336569,2.41494851 L25.8995343,5.605768 L27.2285305,5.605768 L26.3362121,0 L2.42469639,4.87984121 L2.42469639,9.06009242 C2.13949064,9.06009242 1.33125851,9.20289124 0,9.48848888 Z" id="Path-41" stroke-width="0.5" fill="#FFFFFF" stroke-linecap="round" stroke-linejoin="round"></path>
                        <ellipse id="Oval" stroke-width="0.5" fill="#FFFFFF" cx="5.64372607" cy="19.6581461" rx="3.75" ry="4.25"></ellipse>
                        <ellipse id="Oval-Copy-2" stroke-width="0.5" fill="#FFFFFF" cx="21.6437261" cy="17.6581461" rx="3.75" ry="4.25"></ellipse>
                        <line x1="9.54372607" y1="19.6581461" x2="18.1437261" y2="18.6581461" id="Line-3" stroke-width="0.5" fill="#FFFFFF" stroke-linecap="square"></line>
                        <circle id="Oval" stroke-width="0.8" fill="#2D2E2C" cx="6.14372607" cy="19.6581461" r="1.1"></circle>
                        <circle id="Oval-Copy-3" stroke-width="0.8" fill="#2D2E2C" cx="21.6437261" cy="18.2581461" r="1.1"></circle>
                        <path d="M27.8724633,23.7758384 C30.2292834,23.2287855 31.4076934,22.955259 31.4076934,22.955259 C31.4076934,20.9313447 30.1691095,7.20376957 29.6400784,6.58718043 C29.287391,6.17612101 27.807197,5.85065042 25.1994966,5.61076866 L27.8724633,23.7758384 Z" id="Path-43" stroke-width="0.5" fill="#FFFFFF" stroke-linejoin="round"></path>
                        <path d="M4.27931353,9.03808735 C4.52225522,10.9764277 4.72569398,12.2473655 4.8896298,12.8509009 C9.64372607,12.0753767 15.6437261,11.2057964 20.6437261,10.3600274 C20.6437261,9.47873405 20.4763021,8.18815559 20.1414541,6.48829207 L4.27931353,9.03808735 Z" id="Path-44" stroke-width="0.5" fill="#FFFFFF" stroke-linecap="round" stroke-linejoin="round"></path>
                        <polygon id="Path-45" stroke-width="0.5" fill="#FFFFFF" stroke-linecap="round" stroke-linejoin="round" points="9.14372607 12.3346238 9.64372607 16.093419 17.6437261 15.1581461 16.9794621 11.1073782"></polygon>
                        <circle id="Oval" stroke-width="0.8" fill="#FFFFFF" cx="11.1437261" cy="13.6581461" r="1"></circle>
                        <circle id="Oval-Copy-4" stroke-width="0.8" fill="#FFFFFF" cx="15.1437261" cy="13.1581461" r="1"></circle>
                    </g>
                    <g id="Group-2-Copy" transform="translate(8.524646, 6.931133)" fill="#FFFFFF" stroke="#2D2E2C" stroke-linejoin="round" stroke-width="0.5">
                        <path d="M10.9641583,17.9713736 C13.5909966,18.8568394 12.3554304,17.2270127 16.3871106,16.9284955 C17.2676357,16.8632989 15.0378008,15.9754823 14.1448249,14.243336 C10.8320799,7.81745194 13.7131545,1.30758331 22.133535,1.30758331 C31.2551125,1.30758331 34.7540561,7.40354472 30.5600389,15.2005759 C29.6305922,16.9284955 26.6485906,17.1841287 27.205229,17.4799369 C29.8201386,18.8695494 34.5644142,18.2469586 35.3482721,16.5231737 C36.1357192,14.7914958 37.0562156,10.304109 36.6090681,9.1622856 C36.2691887,6.43964215 34.2633608,4.1762448 36.6090681,4.1762448 C38.9547753,4.1762448 39.7079657,6.92160697 39.7728955,7.21689486 C40.3301135,9.75101187 40.8593077,17.3226312 38.3355988,19.4747334 C34.6420349,22.6244338 28.6243541,23.2334441 27.9147915,23.5500902 C27.205229,23.8667362 27.3241671,25.7611071 27.9147915,29.2270127 C30.0658866,42.5314804 31.4673161,50.578462 32.1190798,53.3679576 C33.0967254,57.5522009 28.7544842,60.9491144 27.205229,54.5864549 C25.6559737,48.2237954 23.860296,36.870399 21.2032355,36.870399 C18.5461749,36.870399 16.3871106,51.1527048 16.3871106,54.5864549 C16.3871106,56.573381 15.414766,58.3630061 14.1448249,58.4288851 C13.2200894,58.4768563 11.9574456,58.2565967 11.6803034,53.3679576 C11.2418088,45.6331469 12.2242497,35.6938578 14.6276261,23.5500902 C11.086993,21.3688213 7.69317643,20.7843369 6.65686733,18.4672733 L10.9641583,17.9713736 Z" id="Path"></path>
                        <path d="M0,1.0009118 C1.7712646,2.58871378 3.08355578,3.15101411 3.93687354,2.68781279 C4.87566991,2.17821165 5.02973087,1.28227405 4.39905644,0 L0,1.0009118 Z" id="Path-2"></path>
                    </g>
                    <g id="Group-11" transform="translate(22.643726, 13.158146)" fill="#2D2E2C">
                        <path d="M6.60652597,4 C6.86287376,4 7.04968858,4.21266968 6.98822379,4.43180349 C6.73679025,5.32902392 5.71829375,6 4.50007335,6 C3.2817796,6 2.26320975,5.32902392 2.01177621,4.43180349 C1.95031142,4.21266968 2.13712624,4 2.39347403,4 L6.60652597,4" id="Fill-168"></path>
                        <path d="M2.85684839,0.909217895 C3.00933005,1.12279359 3.08292718,1.43042419 2.85608087,1.59285709 C2.66999867,1.72609568 2.39019312,1.68627887 2.14543789,1.66327516 C1.5283477,1.60537899 0.890363776,1.71026744 0.3473824,1.95887631 C0.312246806,1.97505628 0.276514248,1.99201008 0.236858784,1.99784895 C0.156268647,2.00980806 0.0720967268,1.97062438 0.0314178959,1.91202472 C-0.0437142844,1.8043927 0.0247660116,1.65989847 0.14313544,1.58321945 C0.261504868,1.50647008 0.415436293,1.48065247 0.563312798,1.45708598 C1.18620207,1.35782534 1.83296989,1.25877574 2.44861031,1.38497956 C2.47837323,1.39102947 2.50958592,1.39764215 2.539093,1.39095912 C2.63759205,1.36865889 2.61158148,1.24576141 2.55307901,1.1766096 C2.34806452,0.934965162 2.01555559,0.786320418 1.67571253,0.69472768 C1.39675979,0.619596309 0.614566419,0.605386069 0.441702708,0.402503229 C0.214174153,0.135533611 0.876036641,-0.0100158334 1.10527081,0.000536325445 C1.74990662,0.0301527178 2.53661986,0.460751145 2.85684839,0.909217895" id="Fill-169"></path>
                        <path d="M7.14315193,0.909217895 C6.99066993,1.12279359 6.91707264,1.43042419 7.14391945,1.59285709 C7.32991679,1.72609568 7.60980823,1.68627887 7.85447873,1.66327516 C8.47157029,1.60537899 9.10955564,1.71026744 9.65253822,1.95887631 C9.68784446,1.97505628 9.72349181,1.99201008 9.76306208,1.99784895 C9.8436524,2.00980806 9.92782451,1.97062438 9.96867399,1.91202472 C10.0436358,1.8043927 9.97524061,1.65989847 9.85687092,1.58321945 C9.73850123,1.50647008 9.58456946,1.48065247 9.43669262,1.45708598 C8.81380197,1.35782534 8.1670327,1.25877574 7.55130563,1.38497956 C7.52154265,1.39102947 7.49041517,1.39764215 7.46090803,1.39095912 C7.36232347,1.36865889 7.38833411,1.24576141 7.44692199,1.1766096 C7.65185165,0.934965162 7.98436132,0.786320418 8.32429042,0.69472768 C8.6031585,0.619596309 9.38535361,0.605386069 9.5582177,0.402503229 C9.78574677,0.135533611 9.12396809,-0.0100158334 8.89473341,0.000536325445 C8.25001088,0.0301527178 7.46338117,0.460751145 7.14315193,0.909217895" id="Fill-170"></path>
                    </g>
                </g>
                <g id="Group-7" fill="#2D2E2C">
                    <path d="M23.8959873,21.9300737 L21.4752175,25.7190741 C21.7129491,25.7519344 21.9638179,25.8494551 22.1967494,26.0132265 C22.8098999,26.4441199 23.066832,27.1696958 22.7702359,27.6337145 C22.4738924,28.0977332 21.7364444,28.1244984 21.1232939,27.69334 C20.5101433,27.2621815 20.2532113,26.5366057 20.5495548,26.0728519 C20.5513232,26.0702019 20.5533443,26.0675519 20.5551128,26.0649019 L22.86068,22.4561029 L20.4154044,19.6696055 L18.085584,23.3162998 C18.3124522,23.3536651 18.5494259,23.4493309 18.7702308,23.6043571 C19.3833814,24.0355156 19.6403134,24.7610914 19.3437173,25.2251101 C19.0473739,25.6891289 18.3099258,25.7156291 17.6967753,25.2847356 C17.0836248,24.8535771 16.8266927,24.1280013 17.1232888,23.6639826 L20.5594076,18.2854994 C20.7880443,17.9280115 21.2801816,17.9015113 21.542419,18.2327639 L23.8583444,21.1597125 C24.0321588,21.3793992 24.0475697,21.6928967 23.8959873,21.9300737" id="Fill-103"></path>
                    <path d="M19.5376967,9.64526311 C19.4682678,9.77043831 19.2939184,9.68602455 19.3283738,9.54379316 C19.5506498,8.61928908 19.4081652,7.57539158 18.8584335,6.85070527 C18.2796868,6.08765696 17.3732254,5.77428535 16.4890435,5.61806208 C16.2507055,5.57576848 16.0356832,5.7846347 16.0356832,6.05397818 L16.0356832,14.3761916 C16.0356832,15.2732323 15.1320715,16 14.0183597,16 C12.9036117,16 12,15.2732323 12,14.3761916 C12,13.47944 12.9036117,12.7526722 14.0183597,12.7526722 C14.4196483,12.7526722 14.7932171,12.8466259 15.1074605,13.0096716 L15.1074605,3.47369251 C15.1074605,3.03433626 15.4066783,2.88325877 15.7061551,3.09388843 C15.9266177,3.35198638 16.1833491,3.58418203 16.4348993,3.79825184 C17.075303,4.34295183 17.8242541,4.70636461 18.4954863,5.20186179 C19.1669776,5.69819733 19.7874334,6.3827582 19.9576378,7.26149961 C20.085874,7.92403195 19.9164468,8.96243678 19.5376967,9.64526311" id="Fill-104"></path>
                    <path d="M0.107854978,3.28402518 L2.34136314,6.15495546 C2.14412958,6.19460189 1.93954091,6.2863173 1.75353914,6.42957308 C1.26396018,6.80700711 1.08876537,7.39800325 1.36223178,7.74953495 C1.63572474,8.10106664 2.25432334,8.07992188 2.74392885,7.70275216 C3.23348126,7.32531813 3.40870262,6.73432198 3.13520966,6.38279029 L3.13029741,6.37697548 L1.00310631,3.64269323 L2.89689904,1.28980966 L5.04634131,4.05263734 C4.85866672,4.09545548 4.66560193,4.18479211 4.4892388,4.32091152 C3.99965984,4.69834556 3.82446503,5.28907739 4.09795799,5.64060908 C4.37139785,5.99214078 4.98999645,5.97126033 5.47960196,5.59382629 C5.96918092,5.21639226 6.14437573,4.62539612 5.87088277,4.27386443 L2.70059482,0.199004164 C2.48976626,-0.0721774298 2.0763936,-0.0650410721 1.87517713,0.213276879 L0.0971807864,2.67029841 C-0.0362466058,2.85452217 -0.0318919606,3.10429469 0.107854978,3.28402518" id="Fill-102"></path>
                    <path d="M12.2607441,20.4685747 C12.553963,20.6948296 12.203269,21.08793 11.8626439,20.9146993 C11.6820644,20.8230869 11.4861009,20.7539612 11.2789792,20.7134296 C10.5234833,20.5654618 9.74860904,20.7947703 9.06161456,21.0968136 C8.87340911,21.1798199 8.81550482,21.3827553 8.94233965,21.5260037 L12.8099436,25.8950815 C13.226729,26.3659136 12.9351278,27.1415651 12.159131,27.6271107 C11.3826061,28.1132116 10.4154327,28.1257042 9.99861428,27.6548721 C9.58179582,27.1840399 9.87343009,26.4086661 10.649955,25.9225652 C10.9296387,25.7473912 11.2336527,25.6338474 11.5282582,25.5824889 L7.09653306,20.5762887 C6.89234945,20.3458697 7.03067271,20.135994 7.33712968,20.1160059 C7.61067299,20.1551493 7.89745439,20.1651434 8.17212013,20.1679195 C8.87142835,20.1745823 9.56195518,20.0388294 10.2599759,20.006071 C10.9583598,19.9738679 11.7086726,20.0624265 12.2355885,20.449697 C12.2440067,20.4558045 12.2523589,20.4621896 12.2607441,20.4685747" id="Fill-105"></path>
                </g>
            </g>
        </g>
    </g>
</svg>