<?xml version="1.0" encoding="UTF-8"?>
<svg width="42px" height="57px" viewBox="0 0 42 57" version="1.1" xmlns="http://www.w3.org/2000/svg" xmlns:xlink="http://www.w3.org/1999/xlink">
    <title>OminoDice</title>
    <g id="Page-1" stroke="none" stroke-width="1" fill="none" fill-rule="evenodd">
        <g id="NEW-PROTOTYPE" transform="translate(-3707.000000, -1121.000000)">
            <g id="DiceStorytelling" transform="translate(3708.000000, 977.000000)">
                <g id="OminoDice" transform="translate(0.000000, 144.530000)">
                    <path d="M8.07006035,36.0843549 C8.07006035,37.0370627 8.70857876,40.930885 7.39759466,44.0090143 C4.12771233,48.9934003 -2.16830583,51 0.752973014,54.1093175 C3.10259732,56 7.68451766,50.7351802 12.813366,45.4307923 C14.0288792,44.0090143 14.0288792,42.3297038 14.0288792,40.379031" id="Path-37" stroke="#2D2E2C" stroke-width="0.8" fill="#FFFFFF"></path>
                    <path d="M13.9406288,15.1661168 C13.2972485,15.4620677 12.5497656,15.9849718 12.0081032,16.6304747 C8.2795164,21.0738589 6.67323407,24.9129552 5.429883,32.3072079 C4.18653192,39.7014607 16.8489411,40.5929737 16.8489411,42.9812654 C15.9312442,48.2268019 12.1645399,55.3597874 14.4297643,55.8562678 C15.0316258,56.0000012 16.2184177,56.0000012 16.8489411,55.3597874 C19.3062536,52.8647085 23.0018316,45.4736439 23.3142,41.6165058 C23.6265684,37.7593677 19.2151671,35.0890115 18.8667341,30.0345374 C18.5099664,24.8591575 19.3803539,23.6609501 22.1546447,21.0738589 C26.4908883,21.0738589 28.0355684,22.5821865 31.6528263,21.0738589 C37.3071758,18.716103 41.5796011,14.8508262 39.6504169,13.2164864 C37.3071758,11.5 35.120376,16.2739831 29.4080614,16.6304747 C27.2148769,16.7673461 24.1533626,16.4192807 22.2030937,15.9995552" id="Path" stroke="#2D2E2C" stroke-width="0.8" fill="#FFFFFF" stroke-linecap="round"></path>
                    <path d="M33,7.87921768 C32.4420482,7.87921768 31.5523557,8.2220654 30.220502,8.88276984 C28.8886483,9.54347427 28.760123,9.5681365 27.5136256,10.2006664 C27.3203387,9.8899575 26.9574063,10.5874275 26.4248284,12.2930765 C26.3158873,12.6419744 25.3757558,13.6983848 23.604434,15.4623078 C22.8243099,15.719445 22.5335799,15.8985274 22.732244,15.9995552 C22.9328711,16.1015812 23.8225379,16.2270795 25.4012445,16.3760499 C27.2846006,15.0530577 28.5468866,14.2553462 29.4388243,13.7122182 C30.3307621,13.1690903 32.1422362,12 33,12" id="Path" stroke="#2D2E2C" stroke-width="0.8" fill="#FFFFFF"></path>
                    <path d="M22.2030937,15.9995552 C22.8803043,15.9473985 23.5155099,15.8155737 24.0917433,15.5126136 C26.33242,14.3345571 27.7466251,11.6499661 27.7466251,8.87604985 C27.7466251,4.45777186 24.0691686,0 19.3747482,0 C14.6803279,0 10.2964941,4.45777186 10.2964941,8.87604985 C10.2964941,11.1334632 11.1966813,13.3776204 12.9421719,14.6084477 C13.2500157,14.8255228 13.5848463,15.0098459 13.9406288,15.1661168" id="Path" stroke="#2D2E2C" stroke-width="0.8" fill="#FFFFFF" stroke-linecap="round"></path>
                    <g id="11" transform="translate(22.464797, 5.335579) rotate(-3.000000) translate(-22.464797, -5.335579) translate(21.105368, 3.976150)" fill="#2D2E2C">
                        <path d="M2.35942933,1.35791946 C2.35734277,1.91027407 1.90791924,2.35861841 1.35559125,2.35942933 C0.803410159,2.36023784 0.357357246,1.91320645 0.359429327,1.36085183 C0.361515561,0.808584368 0.810939088,0.360240034 1.36312018,0.359429327 C1.91544817,0.358620603 2.36150108,0.80565199 2.35942933,1.35791946" id="Fill-206" transform="translate(1.359429, 1.359429) rotate(-29.000000) translate(-1.359429, -1.359429) "></path>
                    </g>
                    <path d="M27.5860374,7.83574046 C28.0775466,7.83574046 28.3962476,8.49135419 28.1774083,9.04943059 C27.7647332,10.1015927 26.8321045,10.8357405 25.7476187,10.8357405 C24.6632858,10.8357405 23.7305041,10.1015927 23.317982,9.04943059 C23.0990662,8.49135419 23.4177672,7.83574046 23.9092764,7.83574046 L27.5860374,7.83574046" id="Fill-9" fill="#2D2E2C" transform="translate(25.747675, 9.335740) rotate(-15.000000) translate(-25.747675, -9.335740) "></path>
                </g>
            </g>
        </g>
    </g>
</svg>