<?xml version="1.0" encoding="UTF-8"?>
<svg width="103px" height="66px" viewBox="0 0 103 66" version="1.1" xmlns="http://www.w3.org/2000/svg" xmlns:xlink="http://www.w3.org/1999/xlink">
    <title>Group 6</title>
    <g id="Page-1" stroke="none" stroke-width="1" fill="none" fill-rule="evenodd">
        <g id="Settings_Sound-Copy" transform="translate(-75.000000, -486.000000)">
            <g id="Group-6" transform="translate(76.000000, 487.000000)">
                <g id="Gio" transform="translate(0.000000, 6.873911)">
                    <path d="M33.8191591,20.7297751 C30.1255952,23.8794756 27.6371482,21.9258608 26.9275857,22.2425069 C26.2180231,22.5591529 26.3369612,24.4535238 26.9275857,27.9194294 C29.0786808,41.2238971 30.4801102,49.2708787 31.131874,52.0603743 C32.1095196,56.2446176 27.7672784,59.6415311 26.2180231,53.2788716 C24.6687679,46.9162121 22.8730902,35.5628157 20.2160296,35.5628157 C17.5589691,35.5628157 15.3999047,49.8451215 15.3999047,53.2788716 C15.3999047,55.2657977 14.4275601,57.0554228 13.1576191,57.1213018 C12.2328836,57.169273 10.9702397,56.9490134 10.6930976,52.0603743 C10.254603,44.3255636 11.2370438,34.3862745 13.6404203,22.2425069 C10.0997872,20.061238 3.06407297,11.5640222 2.02776387,9.24695867 C0.799574778,6.95777499 0.129704676,5.53339273 0.0181535638,4.97381188 C-0.108164115,4.34015657 0.424734054,3.84907262 1.61684807,3.50056001 C4.24368643,4.38602579 11.3682246,15.9194294 15.3999047,15.6209122 C16.2804299,15.5557156 14.5333961,14.6515757 13.6404203,12.9194294 C10.3276752,6.49354533 12.7259487,0 21.1463292,0 C30.2679067,0 32.8040331,5.9294241 28.6100159,13.7264553 C27.6805692,15.4543749 25.6613848,15.8765454 26.2180231,16.1723536 C28.8329328,17.5619661 37.4108956,21.4903022 38.1947534,19.7665173" stroke="#2D2E2C" stroke-width="0.5" fill="#FFFFFF" stroke-linejoin="round"></path>
                    <path d="M17.927874,5.86258454 C17.927874,6.69104377 17.7040165,7.36258454 17.4278388,7.36258454 C17.1517314,7.36258454 16.927874,6.69104377 16.927874,5.86258454 C16.927874,5.03412532 17.1517314,4.36258454 17.4278388,4.36258454 C17.7040165,4.36258454 17.927874,5.03412532 17.927874,5.86258454" id="Fill-7" fill="#2D2E2C"></path>
                    <path d="M25.927874,5.86258454 C25.927874,6.69104377 25.7040007,7.36258454 25.4278036,7.36258454 C25.1516768,7.36258454 24.927874,6.69104377 24.927874,5.86258454 C24.927874,5.03412532 25.1516768,4.36258454 25.4278036,4.36258454 C25.7040007,4.36258454 25.927874,5.03412532 25.927874,5.86258454" id="Fill-8" fill="#2D2E2C"></path>
                    <path d="M24.0015812,9.36258454 C24.6896941,9.36258454 25.1358756,10.0181983 24.8295005,10.5762747 C24.2517554,11.6284368 22.9460752,12.3625845 21.427795,12.3625845 C19.909729,12.3625845 18.6038346,11.6284368 18.0263037,10.5762747 C17.7198216,10.0181983 18.166003,9.36258454 18.8541159,9.36258454 L24.0015812,9.36258454" id="Fill-9" fill="#2D2E2C"></path>
                </g>
                <g id="Vale" transform="translate(43.115912, 0.000000)">
                    <path d="M31.8271257,22.2649161 C26.53411,23.0856498 22.050573,24.5641721 21.3562131,24.9189198 C20.6618533,25.2736675 20.7782431,27.3959856 21.3562131,31.2789393 C23.46122,46.1843169 24.8326232,55.1995818 25.4704226,58.3247338 C26.4271217,63.0124619 22.177915,66.8181218 20.6618533,59.6898515 C19.1457915,52.5615811 17.3885871,39.8420447 14.7884553,39.8420447 C12.1883235,39.8420447 10.0755181,55.8429224 10.0755181,59.6898515 C10.0755181,61.9158619 9.12400638,63.9208303 7.88127444,63.9946364 C6.97635177,64.04838 5.74076067,63.8016167 5.46955643,58.3247338 C5.04045675,49.6592031 6.00184839,38.5239318 8.35373134,24.9189198 C4.88895796,22.4751816 1.0141057,30.5648708 0,27.9689979 C4.08681232,21.2129955 7.44531834,17.7235152 10.0755181,17.500557 C10.9371775,17.4275153 8.75511783,16.4328689 7.88127444,14.4922956 C4.63950649,7.29319296 7.45885274,0 15.6988227,0 C24.6249662,0 26.9735323,6.87331175 22.8693738,15.6085499 C21.959841,17.5443879 20.1171412,17.7869502 20.6618533,18.1183526 C23.2207373,19.6751755 26.855758,18.8934437 30.4042027,19.7708279 L31.8271257,22.2649161 Z" stroke="#2D2E2C" stroke-width="0.5" fill="#FFFFFF" stroke-linejoin="round"></path>
                    <g id="Group-7" transform="translate(12.015962, 6.793340)" fill="#2D2E2C">
                        <path d="M0.499963276,2 C0.223870731,2 0,1.55231165 0,0.999956425 C0,0.447688352 0.223870731,0 0.499963276,0 C0.776129269,0 1,0.447688352 1,0.999956425 C1,1.55231165 0.776129269,2 0.499963276,2 Z" id="Fill-206"></path>
                        <path d="M5.4276875,0.375603595 C5.33387547,0.413685811 5.2442754,0.460148237 5.16482235,0.526023046 C4.75673999,0.86515632 5.20004972,1.27090695 5.48627216,1.4704408 C5.79671343,1.68694721 6.30052236,2.07190644 6.6876406,1.98831651 C6.74833125,1.97526884 6.81198941,1.9467337 6.84281337,1.8872236 C6.98889211,1.60505453 6.58080975,1.47150158 6.41558569,1.39247303 C6.29315141,1.33370548 6.05249482,1.20163763 6.06704526,1.01843989 C6.07135295,0.964445887 6.10131537,0.916922676 6.13625557,0.879052617 C6.37853951,0.617038482 6.89881341,0.694051543 6.9942528,0.258068509 C7.00708016,0.199513124 6.99913486,0.133001844 6.96333312,0.0877062826 C6.92839292,0.043365429 6.87363732,0.0256503033 6.82127489,0.0158910724 C6.49791054,-0.0447858851 6.17952397,0.0786896018 5.8834417,0.210545298 C5.73879885,0.274935006 5.57807394,0.314608402 5.4276875,0.375603595" id="Fill-207"></path>
                        <path d="M2.86347351,5.55616452 C3.84825614,5.6212289 4.89481411,5.4502397 5.74480571,4.96416539 C5.9800165,4.82969899 6.19971379,4.67128891 6.39581567,4.49006292 C6.48471644,4.40782154 6.57203798,4.32098227 6.64914104,4.22902461 C6.70775795,4.15918884 6.85871274,3.89736976 6.97380997,4.043808 C7.07878161,4.17732012 6.83929763,4.48416375 6.76414537,4.59546722 C6.29808986,5.28593045 5.48293398,5.73600247 4.63907346,5.90308781 C4.18462986,5.99305016 3.71680935,6.01786138 3.2536336,5.98793176 C3.03430789,5.9737911 2.81609693,5.94715808 2.59872203,5.91714171 C2.41441784,5.89180998 2.2134854,5.87845009 2.05816453,5.77200476 C1.98096857,5.71899898 1.98301227,5.62686781 2.05008264,5.56726884 C2.13006546,5.49647879 2.26736465,5.495004 2.37001391,5.50419976 C2.53508878,5.51894769 2.69784127,5.5452337 2.86347351,5.55616452" id="Fill-208"></path>
                    </g>
                </g>
                <g id="Ele" transform="translate(11.297566, 13.000000)">
                    <path d="M39.0701947,19 C35.7449327,18.6647663 34.0951353,19.5745747 33.4903702,19.8572642 C32.8856052,20.1399538 32.986977,21.831176 33.4903702,24.9254048 C35.3237633,36.8031276 36.5182113,43.9871667 37.073714,46.4775223 C37.906968,50.2130556 34.2060461,53.2456908 32.8856052,47.5653504 C31.5651643,41.88501 30.0346959,31.7491294 27.770065,31.7491294 C25.5054341,31.7491294 23.6652487,44.4998288 23.6652487,47.5653504 C23.6652487,49.3392024 22.8365127,50.9369117 21.7541333,50.9957259 C20.9659749,51.0385528 19.8898149,50.8419133 19.6536047,46.4775223 C19.5407985,44.3932326 19.538328,42.1296402 19.646193,39.6867451 C19.8956897,34.0362194 20.7355014,27.4263924 22.165628,19.8572642 C20.9600247,19.3354206 18.1310965,19.584059 15.5843724,21.0822183 C15.4773038,19.4762726 15.4237694,18.3322859 15.4237694,17.6502583 C17.0864385,17.0413706 18.4090129,15.9069248 19.6536047,15.2490826 C21.334686,14.3605292 22.7638249,14.0156684 23.6652487,13.9457563 C24.4157263,13.8875513 22.5152227,13.0949424 21.7541333,11.548548 C18.930658,5.81176314 21.3862176,0 28.5629657,0 C36.3373487,0 37.8714399,5.53746787 35.4759021,11.548548 C34.7819645,13.2898333 32.4111785,14.173976 32.8856052,14.4380622 C35.4475429,14.4380622 38.2667632,15.2148115 39.5492578,15.9823212 L39.0701947,19 Z" stroke="#2D2E2C" stroke-width="0.5" fill="#FFFFFF" stroke-linejoin="round"></path>
                    <path d="M-0.167751931,19.7945048 C1.60351267,21.3823068 2.91580385,21.9446071 3.76912161,21.4814058 C4.70791798,20.9718047 4.86197894,20.0758671 4.23130451,18.793593 C3.16944928,18.7506907 2.3765618,18.7888429 1.85264208,18.9080497 C1.32872236,19.0272565 0.655257689,19.3227415 -0.167751931,19.7945048 Z" id="Path-2-Copy-2" stroke="#2D2E2C" stroke-width="0.5" fill="#FFFFFF" stroke-linejoin="round" transform="translate(2.221848, 20.207441) rotate(-68.000000) translate(-2.221848, -20.207441) "></path>
                    <path d="M49.8322481,17.7945048 C51.6035127,19.3823068 52.9158039,19.9446071 53.7691216,19.4814058 C54.707918,18.9718047 54.8619789,18.0758671 54.2313045,16.793593 C53.1694493,16.7506907 52.3765618,16.7888429 51.8526421,16.9080497 C51.3287224,17.0272565 50.6552577,17.3227415 49.8322481,17.7945048 Z" id="Path-2-Copy-3" stroke="#2D2E2C" stroke-width="0.5" fill="#FFFFFF" stroke-linejoin="round" transform="translate(52.221848, 18.207441) rotate(96.000000) translate(-52.221848, -18.207441) "></path>
                    <g id="Group-8" transform="translate(23.834308, 4.793340)">
                        <path d="M0,1.00005438 C0,0.447658927 0.447658927,0 0.99994562,0 C1.55234107,0 2,0.447658927 2,1.00005438 C2,1.55223231 1.55234107,2 0.99994562,2 C0.447658927,2 0,1.55223231 0,1.00005438" id="Fill-12" fill="#2D2E2C"></path>
                        <path d="M3.5,2.5 C3.90938891,2.90936786 4.40938891,3.11405179 5,3.11405179 C5.34557274,3.11405179 5.66012438,3.04397737 5.94365492,2.90382854 C6.07768529,2.83757748 6.26313365,2.70296797 6.5,2.5" id="Line-4" stroke="#2D2E2C" stroke-width="0.5" stroke-linecap="round" stroke-linejoin="round"></path>
                        <path d="M7,1.00005438 C7,0.447658927 7.44776769,0 7.99994562,0 C8.55234107,0 9,0.447658927 9,1.00005438 C9,1.55223231 8.55234107,2 7.99994562,2 C7.44776769,2 7,1.55223231 7,1.00005438" id="Fill-13" fill="#2D2E2C"></path>
                    </g>
                </g>
                <g id="Fab" transform="translate(48.854634, 6.873911)">
                    <path d="M46.2726186,17.339373 C42.3030664,20.1942264 36.4892068,22.0567508 36.0729516,22.2425069 C35.363389,22.5591529 35.4823271,24.4535238 36.0729516,27.9194294 C38.2240467,41.2238971 39.6254761,49.2708787 40.2772399,52.0603743 C41.2548855,56.2446176 36.9126443,59.6415311 35.363389,53.2788716 C33.8141337,46.9162121 32.0184561,35.5628157 29.3613955,35.5628157 C26.704335,35.5628157 24.5452706,49.8451215 24.5452706,53.2788716 C24.5452706,55.2657977 23.572926,57.0554228 22.302985,57.1213018 C21.3782494,57.169273 20.1156056,56.9490134 19.8384635,52.0603743 C19.3999688,44.3255636 20.3824097,34.3862745 22.7857861,22.2425069 C19.3075582,20.0996838 15.9619101,20.5444532 15.0489117,19.3632035 C15.033655,19.3434641 15.1699494,18.9447797 15.4577951,18.1671501 C16.4984801,18.1671501 17.526195,17.7986851 18.6494266,17.339373 C20.2963532,16.6659115 22.1483384,15.7983879 24.5452706,15.6209122 C25.4257958,15.5557156 23.1959608,14.667899 22.302985,12.9357527 C18.9902399,6.50986863 21.8713146,0 30.2916951,0 C39.4132726,0 39.4132726,8.13693302 37.2599754,12.9357527 C36.4325654,14.7797116 34.8067507,15.8765454 35.363389,16.1723536 C36.756073,16.9124522 40.7754604,15.7183299 43.7988382,13.5774976 C46.452168,11.6986937 48.2036242,8.94264121 48.5700045,8.13693302 C49.1911573,6.77095339 52.3540761,5.2261339 52.1024704,7.23621793 C51.7883641,9.74562056 47.8256708,16.2224368 46.2726186,17.339373 Z" stroke="#2D2E2C" stroke-width="0.5" fill="#FFFFFF" stroke-linejoin="round"></path>
                    <path d="M0.275179741,11.9205941 C2.04644434,13.5083961 3.35873552,14.0706964 4.21205328,13.6074951 C5.15084965,13.097894 5.30491061,12.2019564 4.67423618,10.9196823 C3.61238095,10.87678 2.81949347,10.9149322 2.29557375,11.034139 C1.77165403,11.1533458 1.09818936,11.4488308 0.275179741,11.9205941 Z" id="Path-2" stroke="#2D2E2C" stroke-width="0.5" fill="#FFFFFF" stroke-linejoin="round" transform="translate(2.664780, 12.333531) rotate(-14.000000) translate(-2.664780, -12.333531) "></path>
                    <g id="Group-17" transform="translate(24.277240, 4.919429)" fill="#2D2E2C">
                        <path d="M8.07905771,3 C8.73382794,3 9.17774306,3.53499088 8.93073613,4.02348332 C8.34771904,5.17640826 6.80787124,6 5,6 C3.19213757,6 1.65228977,5.17640826 1.06927267,4.02348332 C0.822265743,3.53499088 1.26608911,3 1.92085934,3 L8.07905771,3" id="Fill-63"></path>
                        <path d="M0.0210383034,0.825263327 C0.0158431251,0.81437415 0.0118539703,0.803084635 0.00953469427,0.791394783 C-0.135930298,0.0862404786 1.4235509,-0.0939914209 1.92507115,0.0419631617 C2.18251079,0.111782005 2.44106368,0.233324441 2.64645877,0.384251642 C2.72568524,0.442460701 3.23536933,0.992524295 2.86883095,0.99997057 C2.81455989,1.00101145 2.76529847,0.974268909 2.72095391,0.9472061 C2.38632877,0.743114092 2.20802283,0.440779284 1.78591459,0.353585797 C1.32280155,0.257985225 0.815158415,0.387454342 0.491758566,0.690109419 C0.389524879,0.785790059 0.131621384,1.05761916 0.0210383034,0.825263327" id="Fill-64"></path>
                        <path d="M9.97904293,0.825263327 C9.98423817,0.81437415 9.98813461,0.803084635 9.99045392,0.791394783 C10.1360136,0.0862404786 8.57641871,-0.0939914209 8.0749845,0.0419631617 C7.81744863,0.111782005 7.55898504,0.233324441 7.35349442,0.384251642 C7.27435966,0.442460701 6.76457594,0.992524295 7.13121202,0.99997057 C7.18548381,1.00101145 7.23465312,0.974268909 7.2789055,0.9472061 C7.61372069,0.743114092 7.79202902,0.440779284 8.21405016,0.353585797 C8.67716942,0.257985225 9.1847266,0.387454342 9.50831634,0.690109419 C9.61045863,0.785790059 9.86845836,1.05761916 9.97904293,0.825263327" id="Fill-65"></path>
                    </g>
                </g>
                <path d="M84.1437961,21.6421471 C85.830425,23.9966803 87.1003983,24.9423463 87.9537161,24.479145 C88.8925124,23.9695438 89.0465734,23.0736062 88.415899,21.7913322 C87.2880265,21.3849469 86.462987,21.1726364 85.9407807,21.1544005 C85.4185743,21.1361647 84.8195794,21.2987469 84.1437961,21.6421471 Z" id="ValeHand" stroke="#2D2E2C" stroke-width="0.5" fill="#FFFFFF" stroke-linejoin="round" transform="translate(86.469920, 22.873192) scale(-1, 1) rotate(-2.000000) translate(-86.469920, -22.873192) "></path>
            </g>
        </g>
    </g>
</svg>